G75*
G70*
%OFA0B0*%
%FSLAX24Y24*%
%IPPOS*%
%LPD*%
%AMOC8*
5,1,8,0,0,1.08239X$1,22.5*
%
%ADD10C,0.1340*%
%ADD11C,0.0640*%
%ADD12C,0.0730*%
%ADD13C,0.1740*%
%ADD14C,0.1700*%
%ADD15C,0.0820*%
%ADD16C,0.1380*%
%ADD17R,0.0820X0.0820*%
D10*
X003680Y004680D03*
X003680Y028680D03*
D11*
X004400Y022180D02*
X004960Y022180D01*
X004960Y021180D02*
X004400Y021180D01*
X004400Y020180D02*
X004960Y020180D01*
X004960Y019180D02*
X004400Y019180D01*
X004400Y018180D02*
X004960Y018180D01*
X004960Y017180D02*
X004400Y017180D01*
X004400Y016180D02*
X004960Y016180D01*
X004960Y015180D02*
X004400Y015180D01*
X004400Y014180D02*
X004960Y014180D01*
X004960Y013180D02*
X004400Y013180D01*
X004400Y012180D02*
X004960Y012180D01*
X004960Y011180D02*
X004400Y011180D01*
X004400Y010180D02*
X004960Y010180D01*
X004960Y009180D02*
X004400Y009180D01*
X007400Y009180D02*
X007960Y009180D01*
X007960Y010180D02*
X007400Y010180D01*
X007400Y011180D02*
X007960Y011180D01*
X007960Y012180D02*
X007400Y012180D01*
X007400Y013180D02*
X007960Y013180D01*
X007960Y014180D02*
X007400Y014180D01*
X007400Y015180D02*
X007960Y015180D01*
X007960Y016180D02*
X007400Y016180D01*
X007400Y017180D02*
X007960Y017180D01*
X007960Y018180D02*
X007400Y018180D01*
X007400Y019180D02*
X007960Y019180D01*
X007960Y020180D02*
X007400Y020180D01*
X007400Y021180D02*
X007960Y021180D01*
X007960Y022180D02*
X007400Y022180D01*
D12*
X012180Y017180D03*
X013680Y017180D03*
X014680Y017180D03*
X014680Y015180D03*
X013680Y015180D03*
X012180Y015180D03*
D13*
X032680Y027216D03*
D14*
X031199Y028467D03*
X032670Y030099D03*
D15*
X028680Y029180D03*
X027680Y029180D03*
X024680Y029180D03*
X023680Y029180D03*
X022216Y026309D03*
X023216Y026209D03*
X021216Y026209D03*
X019680Y029180D03*
X018680Y029180D03*
X016680Y029180D03*
X015680Y029180D03*
X014680Y029180D03*
X013680Y029180D03*
X007460Y025570D03*
X007460Y023790D03*
X004900Y023790D03*
X003180Y022180D03*
X003180Y021180D03*
X003180Y017180D03*
X003180Y014180D03*
X002180Y014180D03*
X008180Y007180D03*
X008180Y006180D03*
X008180Y005180D03*
X008180Y004180D03*
X008180Y003180D03*
X008180Y002180D03*
X013680Y004180D03*
X014680Y004180D03*
X018680Y004180D03*
X019680Y004180D03*
X021196Y007112D03*
X022196Y007212D03*
X023196Y007112D03*
X023680Y010180D03*
X024680Y010180D03*
X027680Y010180D03*
X028680Y010180D03*
X028680Y013680D03*
X027680Y013680D03*
X026680Y013680D03*
X023221Y016557D03*
X022221Y016657D03*
X021221Y016557D03*
X019680Y013680D03*
X018680Y013680D03*
X018680Y010180D03*
X019680Y010180D03*
X016680Y010180D03*
X015680Y010180D03*
X014680Y010180D03*
X013680Y010180D03*
X013680Y013680D03*
X014680Y013680D03*
X014680Y019680D03*
X013680Y019680D03*
X015680Y019680D03*
X016680Y019680D03*
X018680Y019680D03*
X019680Y019680D03*
X019680Y023180D03*
X018680Y023180D03*
X014680Y023180D03*
X013680Y023180D03*
X004900Y025570D03*
X003180Y026180D03*
X023680Y019680D03*
X024680Y019680D03*
X027680Y019680D03*
X028680Y019680D03*
X028680Y023180D03*
X027680Y023180D03*
X026680Y023180D03*
X026680Y004180D03*
X027680Y004180D03*
X028680Y004180D03*
D16*
X026180Y008680D03*
X016680Y007180D03*
X016680Y016680D03*
X026180Y018180D03*
X016680Y026180D03*
X026180Y027680D03*
D17*
X020216Y026309D03*
X020221Y016657D03*
X020196Y007212D03*
M02*
