<?xml version="1.0" standalone="no"?>
<!DOCTYPE svg PUBLIC "-//W3C//DTD SVG 1.1//EN" "http://www.w3.org/Graphics/SVG/1.1/DTD/svg11.dtd">
<svg width="520.0mm" height="1630.0mm"
 viewBox="0 0 520.0 1630.0"
 xmlns="http://www.w3.org/2000/svg" version="1.1"
 xmlns:xlink="http://www.w3.org/1999/xlink">
<desc>Output from Flights of Ideas SVG Sketchup Plugin</desc>

  <g id="face0" fill="none" stroke="rgb(0,0,255)" stroke-width="1" stroke-miterlimit="4" stroke-dasharray="none" stroke-linejoin="round" stroke-linecap="round">
    <line x1="27.9977736555493" y1="19.0000000000001" x2="27.9977736555493" y2="10.0000000000001"/>
    <line x1="27.9977736555493" y1="10.0000000000001" x2="10.0" y2="10.0000000000001"/>
    <line x1="10.0" y1="10.0000000000001" x2="10.0" y2="19.0000000000001"/>
    <line x1="10.0" y1="19.0000000000001" x2="19.0000000000001" y2="19.0000000000001"/>
    <line x1="19.0000000000001" y1="19.0000000000001" x2="19.0000000000001" y2="28.0000000000001"/>
    <line x1="19.0000000000001" y1="28.0000000000001" x2="10.0" y2="28.0000000000001"/>
    <line x1="10.0" y1="28.0000000000001" x2="10.0" y2="37.0000000000001"/>
    <line x1="10.0" y1="37.0000000000001" x2="19.0000000000001" y2="37.0000000000001"/>
    <line x1="19.0000000000001" y1="37.0000000000001" x2="19.0000000000001" y2="46.0000000000001"/>
    <line x1="19.0000000000001" y1="46.0000000000001" x2="10.0" y2="46.0000000000001"/>
    <line x1="10.0" y1="46.0000000000001" x2="10.0" y2="55.0000000000001"/>
    <line x1="10.0" y1="55.0000000000001" x2="19.0000000000001" y2="55.0000000000001"/>
    <line x1="19.0000000000001" y1="55.0000000000001" x2="19.0000000000001" y2="64.0000000000001"/>
    <line x1="19.0000000000001" y1="64.0000000000001" x2="10.0" y2="64.0000000000001"/>
    <line x1="10.0" y1="64.0000000000001" x2="10.0" y2="73.0000000000001"/>
    <line x1="10.0" y1="73.0000000000001" x2="19.0000000000001" y2="73.0000000000001"/>
    <line x1="19.0000000000001" y1="73.0000000000001" x2="19.0000000000001" y2="82.0000000000001"/>
    <line x1="19.0000000000001" y1="82.0000000000001" x2="10.0" y2="82.0000000000001"/>
    <line x1="10.0" y1="82.0000000000001" x2="10.0" y2="91.0000000000001"/>
    <line x1="10.0" y1="91.0000000000001" x2="19.0000000000001" y2="91.0000000000001"/>
    <line x1="19.0000000000001" y1="91.0000000000001" x2="27.9977736555493" y2="91.0000000000001"/>
    <line x1="27.9977736555493" y1="91.0000000000001" x2="27.9977736555493" y2="100.0"/>
    <line x1="27.9977736555493" y1="100.0" x2="36.9955473110984" y2="100.0"/>
    <line x1="36.9955473110984" y1="100.0" x2="36.9955473110984" y2="91.0000000000001"/>
    <line x1="36.9955473110984" y1="91.0000000000001" x2="45.9955473110984" y2="91.0000000000001"/>
    <line x1="45.9955473110984" y1="91.0000000000001" x2="45.9955473110984" y2="100.0"/>
    <line x1="45.9955473110984" y1="100.0" x2="54.9955473110984" y2="100.0"/>
    <line x1="54.9955473110984" y1="100.0" x2="54.9955473110984" y2="91.0000000000001"/>
    <line x1="54.9955473110984" y1="91.0000000000001" x2="63.9955473110983" y2="91.0000000000001"/>
    <line x1="63.9955473110983" y1="91.0000000000001" x2="63.9955473110984" y2="100.0"/>
    <line x1="63.9955473110984" y1="100.0" x2="72.9955473110984" y2="100.0"/>
    <line x1="72.9955473110984" y1="100.0" x2="72.9955473110984" y2="91.0000000000001"/>
    <line x1="72.9955473110984" y1="91.0000000000001" x2="81.9955473110984" y2="91.0000000000001"/>
    <line x1="81.9955473110984" y1="91.0000000000001" x2="81.9955473110984" y2="100.0"/>
    <line x1="81.9955473110984" y1="100.0" x2="90.9955473110983" y2="100.0"/>
    <line x1="90.9955473110983" y1="100.0" x2="90.9955473110983" y2="91.0000000000001"/>
    <line x1="90.9955473110983" y1="91.0000000000001" x2="99.9955473110984" y2="91.0000000000001"/>
    <line x1="99.9955473110984" y1="91.0000000000001" x2="99.9955473110984" y2="100.0"/>
    <line x1="99.9955473110984" y1="100.0" x2="108.995547311098" y2="100.0"/>
    <line x1="108.995547311098" y1="100.0" x2="108.995547311098" y2="91.0000000000001"/>
    <line x1="108.995547311098" y1="91.0000000000001" x2="117.995547311098" y2="91.0000000000001"/>
    <line x1="117.995547311098" y1="91.0000000000001" x2="117.995547311098" y2="100.0"/>
    <line x1="117.995547311098" y1="100.0" x2="126.995547311098" y2="100.0"/>
    <line x1="126.995547311098" y1="100.0" x2="126.995547311098" y2="91.0000000000001"/>
    <line x1="126.995547311098" y1="91.0000000000001" x2="135.995547311098" y2="91.0000000000001"/>
    <line x1="135.995547311098" y1="91.0000000000001" x2="135.995547311098" y2="100.0"/>
    <line x1="135.995547311098" y1="100.0" x2="333.251368299427" y2="100.0"/>
    <line x1="333.251368299427" y1="100.0" x2="333.251368299427" y2="143.0"/>
    <line x1="333.251368299427" y1="143.0" x2="510.0" y2="143.0"/>
    <line x1="510.0" y1="143.0" x2="510.0" y2="10.0000000000009"/>
    <line x1="510.0" y1="10.0000000000009" x2="126.995547311098" y2="10.0000000000001"/>
    <line x1="126.995547311098" y1="10.0000000000001" x2="126.995547311098" y2="19.0000000000001"/>
    <line x1="126.995547311098" y1="19.0000000000001" x2="117.995547311098" y2="19.0000000000001"/>
    <line x1="117.995547311098" y1="19.0000000000001" x2="117.995547311098" y2="10.0"/>
    <line x1="117.995547311098" y1="10.0" x2="108.995547311098" y2="10.0000000000001"/>
    <line x1="108.995547311098" y1="10.0000000000001" x2="108.995547311098" y2="19.0000000000001"/>
    <line x1="108.995547311098" y1="19.0000000000001" x2="99.9955473110984" y2="19.0000000000001"/>
    <line x1="99.9955473110984" y1="19.0000000000001" x2="99.9955473110984" y2="10.0"/>
    <line x1="99.9955473110984" y1="10.0" x2="90.9955473110983" y2="10.0000000000001"/>
    <line x1="90.9955473110983" y1="10.0000000000001" x2="90.9955473110983" y2="19.0000000000001"/>
    <line x1="90.9955473110983" y1="19.0000000000001" x2="81.9955473110984" y2="19.0000000000001"/>
    <line x1="81.9955473110984" y1="19.0000000000001" x2="81.9955473110984" y2="10.0000000000001"/>
    <line x1="81.9955473110984" y1="10.0000000000001" x2="72.9955473110984" y2="10.0000000000001"/>
    <line x1="72.9955473110984" y1="10.0000000000001" x2="72.9955473110984" y2="19.0000000000001"/>
    <line x1="72.9955473110984" y1="19.0000000000001" x2="63.9955473110983" y2="19.0000000000001"/>
    <line x1="63.9955473110983" y1="19.0000000000001" x2="63.9955473110983" y2="10.0000000000001"/>
    <line x1="63.9955473110983" y1="10.0000000000001" x2="54.9955473110984" y2="10.0000000000001"/>
    <line x1="54.9955473110984" y1="10.0000000000001" x2="54.9955473110984" y2="19.0000000000001"/>
    <line x1="54.9955473110984" y1="19.0000000000001" x2="45.9955473110984" y2="19.0000000000001"/>
    <line x1="45.9955473110984" y1="19.0000000000001" x2="45.9955473110984" y2="10.0000000000001"/>
    <line x1="45.9955473110984" y1="10.0000000000001" x2="36.9955473110983" y2="10.0000000000001"/>
    <line x1="36.9955473110983" y1="10.0000000000001" x2="36.9955473110983" y2="19.0000000000001"/>
    <line x1="36.9955473110983" y1="19.0000000000001" x2="27.9977736555493" y2="19.0000000000001"/>
    <line x1="370.0" y1="109.0" x2="370.0" y2="100.0"/>
    <line x1="370.0" y1="100.0" x2="370.0" y2="91.0000000000001"/>
    <line x1="370.0" y1="91.0000000000001" x2="379.0" y2="90.9999999999999"/>
    <line x1="379.0" y1="90.9999999999999" x2="379.0" y2="100.0"/>
    <line x1="379.0" y1="100.0" x2="388.0" y2="100.0"/>
    <line x1="388.0" y1="100.0" x2="388.0" y2="90.9999999999999"/>
    <line x1="388.0" y1="90.9999999999999" x2="397.0" y2="90.9999999999999"/>
    <line x1="397.0" y1="90.9999999999999" x2="397.0" y2="99.9999999999999"/>
    <line x1="397.0" y1="99.9999999999999" x2="406.0" y2="100.0"/>
    <line x1="406.0" y1="100.0" x2="406.0" y2="91.0"/>
    <line x1="406.0" y1="91.0" x2="415.0" y2="90.9999999999999"/>
    <line x1="415.0" y1="90.9999999999999" x2="415.0" y2="100.0"/>
    <line x1="415.0" y1="100.0" x2="424.0" y2="100.0"/>
    <line x1="424.0" y1="100.0" x2="424.0" y2="90.9999999999999"/>
    <line x1="424.0" y1="90.9999999999999" x2="433.0" y2="91.0"/>
    <line x1="433.0" y1="91.0" x2="433.0" y2="99.9999999999998"/>
    <line x1="433.0" y1="99.9999999999998" x2="442.0" y2="100.0"/>
    <line x1="442.0" y1="100.0" x2="442.0" y2="91.0000000000002"/>
    <line x1="442.0" y1="91.0000000000002" x2="451.0" y2="91.0000000000002"/>
    <line x1="451.0" y1="91.0000000000002" x2="451.0" y2="99.9999999999999"/>
    <line x1="451.0" y1="99.9999999999999" x2="460.0" y2="100.0"/>
    <line x1="460.0" y1="100.0" x2="460.0" y2="109.0"/>
    <line x1="460.0" y1="109.0" x2="370.0" y2="109.0"/>
  </g>
  <g id="face1" fill="none" stroke="rgb(0,0,255)" stroke-width="1" stroke-miterlimit="4" stroke-dasharray="none" stroke-linejoin="round" stroke-linecap="round">
    <line x1="126.995547311098" y1="162.0" x2="117.995547311098" y2="162.0"/>
    <line x1="117.995547311098" y1="162.0" x2="117.995547311098" y2="153.0"/>
    <line x1="117.995547311098" y1="153.0" x2="108.995547311098" y2="153.0"/>
    <line x1="108.995547311098" y1="153.0" x2="108.995547311098" y2="162.0"/>
    <line x1="108.995547311098" y1="162.0" x2="99.9955473110984" y2="162.0"/>
    <line x1="99.9955473110984" y1="162.0" x2="99.9955473110984" y2="153.0"/>
    <line x1="99.9955473110984" y1="153.0" x2="90.9955473110984" y2="153.0"/>
    <line x1="90.9955473110984" y1="153.0" x2="90.9955473110984" y2="162.0"/>
    <line x1="90.9955473110984" y1="162.0" x2="81.9955473110983" y2="162.0"/>
    <line x1="81.9955473110983" y1="162.0" x2="81.9955473110983" y2="153.0"/>
    <line x1="81.9955473110983" y1="153.0" x2="72.9955473110984" y2="153.0"/>
    <line x1="72.9955473110984" y1="153.0" x2="72.9955473110984" y2="162.0"/>
    <line x1="72.9955473110984" y1="162.0" x2="63.9955473110984" y2="162.0"/>
    <line x1="63.9955473110984" y1="162.0" x2="63.9955473110984" y2="153.0"/>
    <line x1="63.9955473110984" y1="153.0" x2="54.9955473110983" y2="153.0"/>
    <line x1="54.9955473110983" y1="153.0" x2="54.9955473110983" y2="162.0"/>
    <line x1="54.9955473110983" y1="162.0" x2="45.9955473110984" y2="162.0"/>
    <line x1="45.9955473110984" y1="162.0" x2="45.9955473110984" y2="153.0"/>
    <line x1="45.9955473110984" y1="153.0" x2="36.9955473110984" y2="153.0"/>
    <line x1="36.9955473110984" y1="153.0" x2="36.9955473110984" y2="162.0"/>
    <line x1="36.9955473110984" y1="162.0" x2="27.9955473110983" y2="162.0"/>
    <line x1="27.9955473110983" y1="162.0" x2="27.9955473110983" y2="153.0"/>
    <line x1="27.9955473110983" y1="153.0" x2="18.9977736555493" y2="153.0"/>
    <line x1="18.9977736555493" y1="153.0" x2="18.9955473110984" y2="162.0"/>
    <line x1="18.9955473110984" y1="162.0" x2="10.0" y2="162.0"/>
    <line x1="10.0" y1="162.0" x2="10.0" y2="234.0"/>
    <line x1="10.0" y1="234.0" x2="18.9977736555493" y2="234.0"/>
    <line x1="18.9977736555493" y1="234.0" x2="18.9977736555493" y2="243.0"/>
    <line x1="18.9977736555493" y1="243.0" x2="27.9955473110983" y2="243.0"/>
    <line x1="27.9955473110983" y1="243.0" x2="27.9955473110983" y2="234.0"/>
    <line x1="27.9955473110983" y1="234.0" x2="36.9955473110984" y2="234.0"/>
    <line x1="36.9955473110984" y1="234.0" x2="36.9955473110983" y2="243.0"/>
    <line x1="36.9955473110983" y1="243.0" x2="45.9955473110984" y2="243.0"/>
    <line x1="45.9955473110984" y1="243.0" x2="45.9955473110984" y2="234.0"/>
    <line x1="45.9955473110984" y1="234.0" x2="54.9955473110983" y2="234.0"/>
    <line x1="54.9955473110983" y1="234.0" x2="54.9955473110983" y2="243.0"/>
    <line x1="54.9955473110983" y1="243.0" x2="63.9955473110984" y2="243.0"/>
    <line x1="63.9955473110984" y1="243.0" x2="63.9955473110984" y2="234.0"/>
    <line x1="63.9955473110984" y1="234.0" x2="72.9955473110984" y2="234.0"/>
    <line x1="72.9955473110984" y1="234.0" x2="72.9955473110984" y2="243.0"/>
    <line x1="72.9955473110984" y1="243.0" x2="81.9955473110983" y2="243.0"/>
    <line x1="81.9955473110983" y1="243.0" x2="81.9955473110983" y2="234.0"/>
    <line x1="81.9955473110983" y1="234.0" x2="90.9955473110984" y2="234.0"/>
    <line x1="90.9955473110984" y1="234.0" x2="90.9955473110984" y2="243.0"/>
    <line x1="90.9955473110984" y1="243.0" x2="99.9955473110984" y2="243.0"/>
    <line x1="99.9955473110984" y1="243.0" x2="99.9955473110984" y2="234.0"/>
    <line x1="99.9955473110984" y1="234.0" x2="108.995547311098" y2="234.0"/>
    <line x1="108.995547311098" y1="234.0" x2="108.995547311098" y2="243.0"/>
    <line x1="108.995547311098" y1="243.0" x2="117.995547311098" y2="243.0"/>
    <line x1="117.995547311098" y1="243.0" x2="117.995547311098" y2="234.0"/>
    <line x1="117.995547311098" y1="234.0" x2="126.995547311098" y2="234.0"/>
    <line x1="126.995547311098" y1="234.0" x2="126.995547311098" y2="162.0"/>
  </g>
  <g id="face2" fill="none" stroke="rgb(0,0,255)" stroke-width="1" stroke-miterlimit="4" stroke-dasharray="none" stroke-linejoin="round" stroke-linecap="round">
    <line x1="19.0" y1="579.0" x2="19.0" y2="588.0"/>
    <line x1="19.0" y1="588.0" x2="10.0" y2="588.0"/>
    <line x1="10.0" y1="588.0" x2="10.0" y2="603.0"/>
    <line x1="10.0" y1="603.0" x2="19.0" y2="603.0"/>
    <line x1="19.0" y1="603.0" x2="19.0" y2="612.0"/>
    <line x1="19.0" y1="612.0" x2="27.9977736555493" y2="612.0"/>
    <line x1="27.9977736555493" y1="612.0" x2="27.9977736555493" y2="621.0"/>
    <line x1="27.9977736555493" y1="621.0" x2="36.9955473110984" y2="621.0"/>
    <line x1="36.9955473110984" y1="621.0" x2="36.9955473110984" y2="612.0"/>
    <line x1="36.9955473110984" y1="612.0" x2="45.9955473110984" y2="612.0"/>
    <line x1="45.9955473110984" y1="612.0" x2="45.9955473110984" y2="621.0"/>
    <line x1="45.9955473110984" y1="621.0" x2="54.9955473110984" y2="621.0"/>
    <line x1="54.9955473110984" y1="621.0" x2="54.9955473110984" y2="612.0"/>
    <line x1="54.9955473110984" y1="612.0" x2="63.9955473110984" y2="612.0"/>
    <line x1="63.9955473110984" y1="612.0" x2="63.9955473110984" y2="621.0"/>
    <line x1="63.9955473110984" y1="621.0" x2="72.9955473110983" y2="621.0"/>
    <line x1="72.9955473110983" y1="621.0" x2="72.9955473110983" y2="612.0"/>
    <line x1="72.9955473110983" y1="612.0" x2="81.9955473110984" y2="612.0"/>
    <line x1="81.9955473110984" y1="612.0" x2="81.9955473110984" y2="621.0"/>
    <line x1="81.9955473110984" y1="621.0" x2="90.9955473110983" y2="621.0"/>
    <line x1="90.9955473110983" y1="621.0" x2="90.9955473110983" y2="612.0"/>
    <line x1="90.9955473110983" y1="612.0" x2="99.9955473110983" y2="612.0"/>
    <line x1="99.9955473110983" y1="612.0" x2="99.9955473110983" y2="621.0"/>
    <line x1="99.9955473110983" y1="621.0" x2="108.995547311098" y2="621.0"/>
    <line x1="108.995547311098" y1="621.0" x2="108.995547311098" y2="612.0"/>
    <line x1="108.995547311098" y1="612.0" x2="117.995547311098" y2="612.0"/>
    <line x1="117.995547311098" y1="612.0" x2="117.995547311098" y2="621.0"/>
    <line x1="117.995547311098" y1="621.0" x2="126.995547311098" y2="621.0"/>
    <line x1="126.995547311098" y1="621.0" x2="126.995547311098" y2="612.0"/>
    <line x1="126.995547311098" y1="612.0" x2="135.995547311098" y2="612.0"/>
    <line x1="135.995547311098" y1="612.0" x2="135.995547311098" y2="552.0"/>
    <line x1="135.995547311098" y1="552.0" x2="126.995547311098" y2="552.0"/>
    <line x1="126.995547311098" y1="552.0" x2="126.995547311098" y2="561.0"/>
    <line x1="126.995547311098" y1="561.0" x2="117.995547311098" y2="561.0"/>
    <line x1="117.995547311098" y1="561.0" x2="117.995547311098" y2="552.0"/>
    <line x1="117.995547311098" y1="552.0" x2="108.995547311098" y2="552.0"/>
    <line x1="108.995547311098" y1="552.0" x2="108.995547311098" y2="561.0"/>
    <line x1="108.995547311098" y1="561.0" x2="99.9955473110983" y2="561.0"/>
    <line x1="99.9955473110983" y1="561.0" x2="99.9955473110983" y2="552.0"/>
    <line x1="99.9955473110983" y1="552.0" x2="90.9955473110983" y2="552.0"/>
    <line x1="90.9955473110983" y1="552.0" x2="90.9955473110983" y2="561.0"/>
    <line x1="90.9955473110983" y1="561.0" x2="81.9955473110984" y2="561.0"/>
    <line x1="81.9955473110984" y1="561.0" x2="81.9955473110984" y2="552.0"/>
    <line x1="81.9955473110984" y1="552.0" x2="72.9955473110983" y2="552.0"/>
    <line x1="72.9955473110983" y1="552.0" x2="72.9955473110983" y2="561.0"/>
    <line x1="72.9955473110983" y1="561.0" x2="63.9955473110984" y2="561.0"/>
    <line x1="63.9955473110984" y1="561.0" x2="63.9955473110984" y2="552.0"/>
    <line x1="63.9955473110984" y1="552.0" x2="54.9955473110984" y2="552.0"/>
    <line x1="54.9955473110984" y1="552.0" x2="54.9955473110984" y2="561.0"/>
    <line x1="54.9955473110984" y1="561.0" x2="45.9955473110984" y2="561.0"/>
    <line x1="45.9955473110984" y1="561.0" x2="45.9955473110984" y2="552.0"/>
    <line x1="45.9955473110984" y1="552.0" x2="36.9955473110984" y2="552.0"/>
    <line x1="36.9955473110984" y1="552.0" x2="36.9955473110983" y2="561.0"/>
    <line x1="36.9955473110983" y1="561.0" x2="27.9977736555493" y2="561.0"/>
    <line x1="27.9977736555493" y1="561.0" x2="27.9977736555493" y2="552.0"/>
    <line x1="27.9977736555493" y1="552.0" x2="19.0" y2="552.0"/>
    <line x1="19.0" y1="552.0" x2="10.0" y2="552.0"/>
    <line x1="10.0" y1="552.0" x2="10.0" y2="561.0"/>
    <line x1="10.0" y1="561.0" x2="19.0" y2="561.0"/>
    <line x1="19.0" y1="561.0" x2="19.0" y2="570.0"/>
    <line x1="19.0" y1="570.0" x2="10.0" y2="570.0"/>
    <line x1="10.0" y1="570.0" x2="10.0" y2="579.0"/>
    <line x1="10.0" y1="579.0" x2="19.0" y2="579.0"/>
    <line x1="59.6762953497462" y1="584.041219071526" x2="60.0" y2="586.5"/>
    <line x1="60.0" y1="586.5" x2="59.6762953497462" y2="588.958780928474"/>
    <line x1="59.6762953497462" y1="588.958780928474" x2="58.7272413359523" y2="591.25"/>
    <line x1="58.7272413359523" y1="591.25" x2="57.2175144212723" y2="593.217514421272"/>
    <line x1="57.2175144212723" y1="593.217514421272" x2="55.25" y2="594.727241335952"/>
    <line x1="55.25" y1="594.727241335952" x2="52.958780928474" y2="595.676295349746"/>
    <line x1="52.958780928474" y1="595.676295349746" x2="50.5" y2="596.0"/>
    <line x1="50.5" y1="596.0" x2="48.0412190715261" y2="595.676295349746"/>
    <line x1="48.0412190715261" y1="595.676295349746" x2="45.7500000000001" y2="594.727241335952"/>
    <line x1="45.7500000000001" y1="594.727241335952" x2="43.7824855787278" y2="593.217514421272"/>
    <line x1="43.7824855787278" y1="593.217514421272" x2="42.2727586640478" y2="591.25"/>
    <line x1="42.2727586640478" y1="591.25" x2="41.3237046502539" y2="588.958780928474"/>
    <line x1="41.3237046502539" y1="588.958780928474" x2="41.0" y2="586.5"/>
    <line x1="41.0" y1="586.5" x2="41.3237046502539" y2="584.041219071526"/>
    <line x1="41.3237046502539" y1="584.041219071526" x2="42.2727586640478" y2="581.75"/>
    <line x1="42.2727586640478" y1="581.75" x2="43.7824855787278" y2="579.782485578728"/>
    <line x1="43.7824855787278" y1="579.782485578728" x2="45.75" y2="578.272758664048"/>
    <line x1="45.75" y1="578.272758664048" x2="48.0412190715261" y2="577.323704650254"/>
    <line x1="48.0412190715261" y1="577.323704650254" x2="50.5" y2="577.0"/>
    <line x1="50.5" y1="577.0" x2="52.958780928474" y2="577.323704650254"/>
    <line x1="52.958780928474" y1="577.323704650254" x2="55.25" y2="578.272758664048"/>
    <line x1="55.25" y1="578.272758664048" x2="57.2175144212723" y2="579.782485578728"/>
    <line x1="57.2175144212723" y1="579.782485578728" x2="58.7272413359523" y2="581.75"/>
    <line x1="58.7272413359523" y1="581.75" x2="59.6762953497462" y2="584.041219071526"/>
    <line x1="88.3237046502538" y1="588.958780928474" x2="88.0" y2="586.5"/>
    <line x1="88.0" y1="586.5" x2="88.3237046502538" y2="584.041219071526"/>
    <line x1="88.3237046502538" y1="584.041219071526" x2="89.2727586640478" y2="581.75"/>
    <line x1="89.2727586640478" y1="581.75" x2="90.7824855787278" y2="579.782485578727"/>
    <line x1="90.7824855787278" y1="579.782485578727" x2="92.75" y2="578.272758664047"/>
    <line x1="92.75" y1="578.272758664047" x2="95.041219071526" y2="577.323704650254"/>
    <line x1="95.041219071526" y1="577.323704650254" x2="97.5" y2="577.0"/>
    <line x1="97.5" y1="577.0" x2="99.958780928474" y2="577.323704650254"/>
    <line x1="99.958780928474" y1="577.323704650254" x2="102.25" y2="578.272758664048"/>
    <line x1="102.25" y1="578.272758664048" x2="104.217514421272" y2="579.782485578728"/>
    <line x1="104.217514421272" y1="579.782485578728" x2="105.727241335952" y2="581.75"/>
    <line x1="105.727241335952" y1="581.75" x2="106.676295349746" y2="584.041219071526"/>
    <line x1="106.676295349746" y1="584.041219071526" x2="107.0" y2="586.5"/>
    <line x1="107.0" y1="586.5" x2="106.676295349746" y2="588.958780928474"/>
    <line x1="106.676295349746" y1="588.958780928474" x2="105.727241335952" y2="591.25"/>
    <line x1="105.727241335952" y1="591.25" x2="104.217514421272" y2="593.217514421272"/>
    <line x1="104.217514421272" y1="593.217514421272" x2="102.25" y2="594.727241335952"/>
    <line x1="102.25" y1="594.727241335952" x2="99.958780928474" y2="595.676295349746"/>
    <line x1="99.958780928474" y1="595.676295349746" x2="97.5" y2="596.0"/>
    <line x1="97.5" y1="596.0" x2="95.041219071526" y2="595.676295349746"/>
    <line x1="95.041219071526" y1="595.676295349746" x2="92.75" y2="594.727241335952"/>
    <line x1="92.75" y1="594.727241335952" x2="90.7824855787278" y2="593.217514421272"/>
    <line x1="90.7824855787278" y1="593.217514421272" x2="89.2727586640478" y2="591.25"/>
    <line x1="89.2727586640478" y1="591.25" x2="88.3237046502538" y2="588.958780928474"/>
  </g>
  <g id="face3" fill="none" stroke="rgb(0,0,255)" stroke-width="1" stroke-miterlimit="4" stroke-dasharray="none" stroke-linejoin="round" stroke-linecap="round">
    <line x1="45.9955473110984" y1="322.0" x2="45.9955473110984" y2="313.000000000001"/>
    <line x1="45.9955473110984" y1="313.000000000001" x2="54.9955473110984" y2="313.000000000001"/>
    <line x1="54.9955473110984" y1="313.000000000001" x2="54.9955473110984" y2="322.0"/>
    <line x1="54.9955473110984" y1="322.0" x2="63.9955473110984" y2="322.0"/>
    <line x1="63.9955473110984" y1="322.0" x2="63.9955473110983" y2="313.000000000001"/>
    <line x1="63.9955473110983" y1="313.000000000001" x2="72.9955473110983" y2="313.000000000001"/>
    <line x1="72.9955473110983" y1="313.000000000001" x2="72.9955473110983" y2="322.0"/>
    <line x1="72.9955473110983" y1="322.0" x2="81.9955473110984" y2="322.0"/>
    <line x1="81.9955473110984" y1="322.0" x2="81.9955473110984" y2="313.000000000001"/>
    <line x1="81.9955473110984" y1="313.000000000001" x2="90.9955473110984" y2="313.000000000001"/>
    <line x1="90.9955473110984" y1="313.000000000001" x2="90.9955473110983" y2="322.0"/>
    <line x1="90.9955473110983" y1="322.0" x2="99.9955473110983" y2="322.0"/>
    <line x1="99.9955473110983" y1="322.0" x2="99.9955473110983" y2="313.000000000001"/>
    <line x1="99.9955473110983" y1="313.000000000001" x2="108.995547311098" y2="313.000000000001"/>
    <line x1="108.995547311098" y1="313.000000000001" x2="108.995547311098" y2="322.0"/>
    <line x1="108.995547311098" y1="322.0" x2="117.995547311098" y2="322.0"/>
    <line x1="117.995547311098" y1="322.0" x2="117.995547311098" y2="313.000000000001"/>
    <line x1="117.995547311098" y1="313.000000000001" x2="126.995547311098" y2="313.000000000001"/>
    <line x1="126.995547311098" y1="313.000000000001" x2="126.995547311098" y2="322.0"/>
    <line x1="126.995547311098" y1="322.0" x2="135.995547311098" y2="322.0"/>
    <line x1="135.995547311098" y1="322.0" x2="135.995547311098" y2="262.0"/>
    <line x1="135.995547311098" y1="262.0" x2="126.995547311098" y2="262.0"/>
    <line x1="126.995547311098" y1="262.0" x2="126.995547311098" y2="253.0"/>
    <line x1="126.995547311098" y1="253.0" x2="117.995547311098" y2="253.0"/>
    <line x1="117.995547311098" y1="253.0" x2="117.995547311098" y2="262.0"/>
    <line x1="117.995547311098" y1="262.0" x2="108.995547311098" y2="262.0"/>
    <line x1="108.995547311098" y1="262.0" x2="108.995547311098" y2="253.0"/>
    <line x1="108.995547311098" y1="253.0" x2="99.9955473110983" y2="253.0"/>
    <line x1="99.9955473110983" y1="253.0" x2="99.9955473110983" y2="262.0"/>
    <line x1="99.9955473110983" y1="262.0" x2="90.9955473110984" y2="262.0"/>
    <line x1="90.9955473110984" y1="262.0" x2="90.9955473110983" y2="253.0"/>
    <line x1="90.9955473110983" y1="253.0" x2="81.9955473110984" y2="253.0"/>
    <line x1="81.9955473110984" y1="253.0" x2="81.9955473110983" y2="262.0"/>
    <line x1="81.9955473110983" y1="262.0" x2="72.9955473110983" y2="262.0"/>
    <line x1="72.9955473110983" y1="262.0" x2="72.9955473110983" y2="253.0"/>
    <line x1="72.9955473110983" y1="253.0" x2="63.9955473110983" y2="253.0"/>
    <line x1="63.9955473110983" y1="253.0" x2="63.9955473110983" y2="262.0"/>
    <line x1="63.9955473110983" y1="262.0" x2="54.9955473110984" y2="262.0"/>
    <line x1="54.9955473110984" y1="262.0" x2="54.9955473110984" y2="253.0"/>
    <line x1="54.9955473110984" y1="253.0" x2="45.9955473110984" y2="253.0"/>
    <line x1="45.9955473110984" y1="253.0" x2="45.9955473110984" y2="262.0"/>
    <line x1="45.9955473110984" y1="262.0" x2="36.9955473110983" y2="262.0"/>
    <line x1="36.9955473110983" y1="262.0" x2="36.9955473110983" y2="253.0"/>
    <line x1="36.9955473110983" y1="253.0" x2="27.9896899438514" y2="253.0"/>
    <line x1="27.9896899438514" y1="253.0" x2="27.9977736555493" y2="262.0"/>
    <line x1="27.9977736555493" y1="262.0" x2="19.0" y2="262.0"/>
    <line x1="19.0" y1="262.0" x2="19.0" y2="271.0"/>
    <line x1="19.0" y1="271.0" x2="10.0" y2="271.0"/>
    <line x1="10.0" y1="271.0" x2="10.0000000000001" y2="286.000000000001"/>
    <line x1="10.0000000000001" y1="286.000000000001" x2="19.0" y2="286.000000000001"/>
    <line x1="19.0" y1="286.000000000001" x2="19.0" y2="295.000000000001"/>
    <line x1="19.0" y1="295.000000000001" x2="10.0" y2="295.000000000001"/>
    <line x1="10.0" y1="295.000000000001" x2="10.0000000000001" y2="304.000000000001"/>
    <line x1="10.0000000000001" y1="304.000000000001" x2="19.0" y2="304.000000000001"/>
    <line x1="19.0" y1="304.000000000001" x2="19.0" y2="313.000000000001"/>
    <line x1="19.0" y1="313.000000000001" x2="10.0000000000001" y2="313.000000000001"/>
    <line x1="10.0000000000001" y1="313.000000000001" x2="10.0" y2="322.0"/>
    <line x1="10.0" y1="322.0" x2="19.0" y2="322.0"/>
    <line x1="19.0" y1="322.0" x2="27.9977736555493" y2="322.0"/>
    <line x1="27.9977736555493" y1="322.0" x2="27.9977736555493" y2="313.000000000001"/>
    <line x1="27.9977736555493" y1="313.000000000001" x2="36.9955473110984" y2="313.000000000001"/>
    <line x1="36.9955473110984" y1="313.000000000001" x2="36.9955473110983" y2="322.0"/>
    <line x1="36.9955473110983" y1="322.0" x2="45.9955473110984" y2="322.0"/>
    <line x1="88.3192519613523" y1="289.958780928474" x2="87.9955473110984" y2="287.5"/>
    <line x1="87.9955473110984" y1="287.5" x2="88.3192519613523" y2="285.041219071526"/>
    <line x1="88.3192519613523" y1="285.041219071526" x2="89.2683059751462" y2="282.75"/>
    <line x1="89.2683059751462" y1="282.75" x2="90.7780328898262" y2="280.782485578728"/>
    <line x1="90.7780328898262" y1="280.782485578728" x2="92.7455473110984" y2="279.272758664048"/>
    <line x1="92.7455473110984" y1="279.272758664048" x2="95.0367663826245" y2="278.323704650254"/>
    <line x1="95.0367663826245" y1="278.323704650254" x2="97.4955473110984" y2="278.0"/>
    <line x1="97.4955473110984" y1="278.0" x2="99.9543282395724" y2="278.323704650254"/>
    <line x1="99.9543282395724" y1="278.323704650254" x2="102.245547311098" y2="279.272758664048"/>
    <line x1="102.245547311098" y1="279.272758664048" x2="104.213061732371" y2="280.782485578728"/>
    <line x1="104.213061732371" y1="280.782485578728" x2="105.722788647051" y2="282.75"/>
    <line x1="105.722788647051" y1="282.75" x2="106.671842660845" y2="285.041219071526"/>
    <line x1="106.671842660845" y1="285.041219071526" x2="106.995547311098" y2="287.5"/>
    <line x1="106.995547311098" y1="287.5" x2="106.671842660845" y2="289.958780928474"/>
    <line x1="106.671842660845" y1="289.958780928474" x2="105.722788647051" y2="292.25"/>
    <line x1="105.722788647051" y1="292.25" x2="104.213061732371" y2="294.217514421273"/>
    <line x1="104.213061732371" y1="294.217514421273" x2="102.245547311098" y2="295.727241335953"/>
    <line x1="102.245547311098" y1="295.727241335953" x2="99.9543282395724" y2="296.676295349747"/>
    <line x1="99.9543282395724" y1="296.676295349747" x2="97.4955473110984" y2="297.0"/>
    <line x1="97.4955473110984" y1="297.0" x2="95.0367663826245" y2="296.676295349747"/>
    <line x1="95.0367663826245" y1="296.676295349747" x2="92.7455473110984" y2="295.727241335953"/>
    <line x1="92.7455473110984" y1="295.727241335953" x2="90.7780328898262" y2="294.217514421273"/>
    <line x1="90.7780328898262" y1="294.217514421273" x2="89.2683059751462" y2="292.25"/>
    <line x1="89.2683059751462" y1="292.25" x2="88.3192519613523" y2="289.958780928474"/>
    <line x1="52.9543282395723" y1="296.676295349747" x2="50.4955473110983" y2="297.0"/>
    <line x1="50.4955473110983" y1="297.0" x2="48.0367663826245" y2="296.676295349747"/>
    <line x1="48.0367663826245" y1="296.676295349747" x2="45.7455473110983" y2="295.727241335953"/>
    <line x1="45.7455473110983" y1="295.727241335953" x2="43.7780328898261" y2="294.217514421273"/>
    <line x1="43.7780328898261" y1="294.217514421273" x2="42.2683059751462" y2="292.25"/>
    <line x1="42.2683059751462" y1="292.25" x2="41.3192519613523" y2="289.958780928474"/>
    <line x1="41.3192519613523" y1="289.958780928474" x2="40.9955473110984" y2="287.5"/>
    <line x1="40.9955473110984" y1="287.5" x2="41.3192519613523" y2="285.041219071526"/>
    <line x1="41.3192519613523" y1="285.041219071526" x2="42.2683059751462" y2="282.75"/>
    <line x1="42.2683059751462" y1="282.75" x2="43.7780328898261" y2="280.782485578728"/>
    <line x1="43.7780328898261" y1="280.782485578728" x2="45.7455473110983" y2="279.272758664048"/>
    <line x1="45.7455473110983" y1="279.272758664048" x2="48.0367663826244" y2="278.323704650254"/>
    <line x1="48.0367663826244" y1="278.323704650254" x2="50.4955473110983" y2="278.0"/>
    <line x1="50.4955473110983" y1="278.0" x2="52.9543282395723" y2="278.323704650254"/>
    <line x1="52.9543282395723" y1="278.323704650254" x2="55.2455473110984" y2="279.272758664048"/>
    <line x1="55.2455473110984" y1="279.272758664048" x2="57.2130617323706" y2="280.782485578728"/>
    <line x1="57.2130617323706" y1="280.782485578728" x2="58.7227886470505" y2="282.75"/>
    <line x1="58.7227886470505" y1="282.75" x2="59.6718426608445" y2="285.041219071526"/>
    <line x1="59.6718426608445" y1="285.041219071526" x2="59.9955473110984" y2="287.5"/>
    <line x1="59.9955473110984" y1="287.5" x2="59.6718426608445" y2="289.958780928474"/>
    <line x1="59.6718426608445" y1="289.958780928474" x2="58.7227886470506" y2="292.25"/>
    <line x1="58.7227886470506" y1="292.25" x2="57.2130617323706" y2="294.217514421273"/>
    <line x1="57.2130617323706" y1="294.217514421273" x2="55.2455473110984" y2="295.727241335952"/>
    <line x1="55.2455473110984" y1="295.727241335952" x2="52.9543282395723" y2="296.676295349747"/>
  </g>
  <g id="face4" fill="none" stroke="rgb(0,0,255)" stroke-width="1" stroke-miterlimit="4" stroke-dasharray="none" stroke-linejoin="round" stroke-linecap="round">
    <line x1="27.9955473110983" y1="721.0" x2="27.9955473110983" y2="712.0"/>
    <line x1="27.9955473110983" y1="712.0" x2="36.9955473110983" y2="712.0"/>
    <line x1="36.9955473110983" y1="712.0" x2="36.9955473110983" y2="721.0"/>
    <line x1="36.9955473110983" y1="721.0" x2="45.9955473110983" y2="721.0"/>
    <line x1="45.9955473110983" y1="721.0" x2="45.9955473110983" y2="712.0"/>
    <line x1="45.9955473110983" y1="712.0" x2="54.9955473110983" y2="712.0"/>
    <line x1="54.9955473110983" y1="712.0" x2="54.9955473110983" y2="721.0"/>
    <line x1="54.9955473110983" y1="721.0" x2="63.9955473110983" y2="721.0"/>
    <line x1="63.9955473110983" y1="721.0" x2="63.9955473110983" y2="712.0"/>
    <line x1="63.9955473110983" y1="712.0" x2="72.9955473110983" y2="712.0"/>
    <line x1="72.9955473110983" y1="712.0" x2="72.9955473110983" y2="721.0"/>
    <line x1="72.9955473110983" y1="721.0" x2="81.9955473110983" y2="721.0"/>
    <line x1="81.9955473110983" y1="721.0" x2="81.9955473110983" y2="712.0"/>
    <line x1="81.9955473110983" y1="712.0" x2="90.9955473110983" y2="712.0"/>
    <line x1="90.9955473110983" y1="712.0" x2="90.9955473110983" y2="721.0"/>
    <line x1="90.9955473110983" y1="721.0" x2="99.9955473110983" y2="721.0"/>
    <line x1="99.9955473110983" y1="721.0" x2="99.9955473110983" y2="712.0"/>
    <line x1="99.9955473110983" y1="712.0" x2="108.995547311098" y2="712.0"/>
    <line x1="108.995547311098" y1="712.0" x2="108.995547311098" y2="721.0"/>
    <line x1="108.995547311098" y1="721.0" x2="117.995547311098" y2="721.0"/>
    <line x1="117.995547311098" y1="721.0" x2="117.995547311098" y2="712.0"/>
    <line x1="117.995547311098" y1="712.0" x2="126.995547311098" y2="712.0"/>
    <line x1="126.995547311098" y1="712.0" x2="126.995547311098" y2="640.0"/>
    <line x1="126.995547311098" y1="640.0" x2="117.995547311098" y2="640.0"/>
    <line x1="117.995547311098" y1="640.0" x2="117.995547311098" y2="631.0"/>
    <line x1="117.995547311098" y1="631.0" x2="108.995547311098" y2="631.0"/>
    <line x1="108.995547311098" y1="631.0" x2="108.995547311098" y2="640.0"/>
    <line x1="108.995547311098" y1="640.0" x2="99.9955473110983" y2="640.0"/>
    <line x1="99.9955473110983" y1="640.0" x2="99.9955473110983" y2="631.0"/>
    <line x1="99.9955473110983" y1="631.0" x2="90.9955473110983" y2="631.0"/>
    <line x1="90.9955473110983" y1="631.0" x2="90.9955473110983" y2="640.0"/>
    <line x1="90.9955473110983" y1="640.0" x2="81.9955473110983" y2="640.0"/>
    <line x1="81.9955473110983" y1="640.0" x2="81.9955473110983" y2="631.0"/>
    <line x1="81.9955473110983" y1="631.0" x2="72.9955473110983" y2="631.0"/>
    <line x1="72.9955473110983" y1="631.0" x2="72.9955473110983" y2="640.0"/>
    <line x1="72.9955473110983" y1="640.0" x2="63.9955473110983" y2="640.0"/>
    <line x1="63.9955473110983" y1="640.0" x2="63.9955473110983" y2="631.0"/>
    <line x1="63.9955473110983" y1="631.0" x2="54.9955473110983" y2="631.0"/>
    <line x1="54.9955473110983" y1="631.0" x2="54.9955473110983" y2="640.0"/>
    <line x1="54.9955473110983" y1="640.0" x2="45.9955473110983" y2="640.0"/>
    <line x1="45.9955473110983" y1="640.0" x2="45.9955473110983" y2="631.0"/>
    <line x1="45.9955473110983" y1="631.0" x2="36.9955473110983" y2="631.0"/>
    <line x1="36.9955473110983" y1="631.0" x2="36.9955473110983" y2="640.0"/>
    <line x1="36.9955473110983" y1="640.0" x2="27.9955473110983" y2="640.0"/>
    <line x1="27.9955473110983" y1="640.0" x2="27.9955473110983" y2="631.0"/>
    <line x1="27.9955473110983" y1="631.0" x2="18.9977736555492" y2="631.0"/>
    <line x1="18.9977736555492" y1="631.0" x2="18.9977736555492" y2="640.0"/>
    <line x1="18.9977736555492" y1="640.0" x2="10.0" y2="640.0"/>
    <line x1="10.0" y1="640.0" x2="10.0" y2="712.0"/>
    <line x1="10.0" y1="712.0" x2="18.9977736555492" y2="712.0"/>
    <line x1="18.9977736555492" y1="712.0" x2="18.9977736555492" y2="721.0"/>
    <line x1="18.9977736555492" y1="721.0" x2="27.9955473110983" y2="721.0"/>
  </g>
  <g id="face5" fill="none" stroke="rgb(0,0,255)" stroke-width="1" stroke-miterlimit="4" stroke-dasharray="none" stroke-linejoin="round" stroke-linecap="round">
    <line x1="27.9905881340401" y1="855.0" x2="36.9955473110983" y2="855.0"/>
    <line x1="36.9955473110983" y1="855.0" x2="36.9955473110983" y2="864.0"/>
    <line x1="36.9955473110983" y1="864.0" x2="45.9955473110983" y2="864.0"/>
    <line x1="45.9955473110983" y1="864.0" x2="45.9955473110983" y2="855.0"/>
    <line x1="45.9955473110983" y1="855.0" x2="54.9955473110984" y2="855.0"/>
    <line x1="54.9955473110984" y1="855.0" x2="54.9955473110984" y2="864.0"/>
    <line x1="54.9955473110984" y1="864.0" x2="63.9955473110983" y2="864.0"/>
    <line x1="63.9955473110983" y1="864.0" x2="63.9955473110983" y2="855.0"/>
    <line x1="63.9955473110983" y1="855.0" x2="72.9955473110982" y2="855.0"/>
    <line x1="72.9955473110982" y1="855.0" x2="72.9955473110982" y2="864.0"/>
    <line x1="72.9955473110982" y1="864.0" x2="81.9955473110984" y2="864.0"/>
    <line x1="81.9955473110984" y1="864.0" x2="81.9955473110984" y2="855.0"/>
    <line x1="81.9955473110984" y1="855.0" x2="90.9955473110984" y2="855.0"/>
    <line x1="90.9955473110984" y1="855.0" x2="90.9955473110984" y2="864.0"/>
    <line x1="90.9955473110984" y1="864.0" x2="99.9955473110982" y2="864.0"/>
    <line x1="99.9955473110982" y1="864.0" x2="99.9955473110982" y2="855.0"/>
    <line x1="99.9955473110982" y1="855.0" x2="108.995547311098" y2="855.0"/>
    <line x1="108.995547311098" y1="855.0" x2="108.995547311098" y2="864.0"/>
    <line x1="108.995547311098" y1="864.0" x2="117.995547311098" y2="864.0"/>
    <line x1="117.995547311098" y1="864.0" x2="117.995547311098" y2="855.0"/>
    <line x1="117.995547311098" y1="855.0" x2="126.995547311098" y2="855.0"/>
    <line x1="126.995547311098" y1="855.0" x2="126.995547311098" y2="864.0"/>
    <line x1="126.995547311098" y1="864.0" x2="510.0" y2="864.000000000003"/>
    <line x1="510.0" y1="864.000000000003" x2="510.0" y2="731.0"/>
    <line x1="510.0" y1="731.0" x2="317.272571186446" y2="731.0"/>
    <line x1="317.272571186446" y1="731.0" x2="317.272571186446" y2="774.0"/>
    <line x1="317.272571186446" y1="774.0" x2="135.995547311098" y2="774.0"/>
    <line x1="135.995547311098" y1="774.0" x2="135.995547311098" y2="783.0"/>
    <line x1="135.995547311098" y1="783.0" x2="126.995547311098" y2="783.0"/>
    <line x1="126.995547311098" y1="783.0" x2="126.995547311098" y2="774.0"/>
    <line x1="126.995547311098" y1="774.0" x2="117.995547311098" y2="774.0"/>
    <line x1="117.995547311098" y1="774.0" x2="117.995547311098" y2="783.0"/>
    <line x1="117.995547311098" y1="783.0" x2="108.995547311098" y2="783.0"/>
    <line x1="108.995547311098" y1="783.0" x2="108.995547311098" y2="774.0"/>
    <line x1="108.995547311098" y1="774.0" x2="99.9955473110984" y2="774.0"/>
    <line x1="99.9955473110984" y1="774.0" x2="99.9955473110984" y2="783.0"/>
    <line x1="99.9955473110984" y1="783.0" x2="90.9955473110984" y2="783.0"/>
    <line x1="90.9955473110984" y1="783.0" x2="90.9955473110984" y2="774.0"/>
    <line x1="90.9955473110984" y1="774.0" x2="81.9955473110984" y2="774.0"/>
    <line x1="81.9955473110984" y1="774.0" x2="81.9955473110984" y2="783.0"/>
    <line x1="81.9955473110984" y1="783.0" x2="72.9955473110982" y2="783.0"/>
    <line x1="72.9955473110982" y1="783.0" x2="72.9955473110982" y2="774.0"/>
    <line x1="72.9955473110982" y1="774.0" x2="63.9955473110983" y2="774.0"/>
    <line x1="63.9955473110983" y1="774.0" x2="63.9955473110983" y2="783.0"/>
    <line x1="63.9955473110983" y1="783.0" x2="54.9955473110984" y2="783.0"/>
    <line x1="54.9955473110984" y1="783.0" x2="54.9955473110984" y2="774.0"/>
    <line x1="54.9955473110984" y1="774.0" x2="45.9955473110983" y2="774.0"/>
    <line x1="45.9955473110983" y1="774.0" x2="45.9955473110983" y2="783.0"/>
    <line x1="45.9955473110983" y1="783.0" x2="36.9955473110983" y2="783.0"/>
    <line x1="36.9955473110983" y1="783.0" x2="36.9955473110983" y2="774.0"/>
    <line x1="36.9955473110983" y1="774.0" x2="27.9977736555493" y2="774.0"/>
    <line x1="27.9977736555493" y1="774.0" x2="27.9977736555493" y2="783.0"/>
    <line x1="27.9977736555493" y1="783.0" x2="19.0000000000001" y2="783.0"/>
    <line x1="19.0000000000001" y1="783.0" x2="10.0" y2="783.0"/>
    <line x1="10.0" y1="783.0" x2="10.0" y2="792.0"/>
    <line x1="10.0" y1="792.0" x2="19.0000000000001" y2="792.0"/>
    <line x1="19.0000000000001" y1="792.0" x2="19.0000000000001" y2="801.0"/>
    <line x1="19.0000000000001" y1="801.0" x2="10.0" y2="801.0"/>
    <line x1="10.0" y1="801.0" x2="10.0" y2="810.0"/>
    <line x1="10.0" y1="810.0" x2="19.0000000000001" y2="810.0"/>
    <line x1="19.0000000000001" y1="810.0" x2="19.0000000000001" y2="819.0"/>
    <line x1="19.0000000000001" y1="819.0" x2="10.0" y2="819.0"/>
    <line x1="10.0" y1="819.0" x2="10.0" y2="828.0"/>
    <line x1="10.0" y1="828.0" x2="19.0000000000001" y2="828.0"/>
    <line x1="19.0000000000001" y1="828.0" x2="19.0000000000001" y2="837.0"/>
    <line x1="19.0000000000001" y1="837.0" x2="10.0" y2="837.0"/>
    <line x1="10.0" y1="837.0" x2="10.0" y2="846.0"/>
    <line x1="10.0" y1="846.0" x2="19.0000000000001" y2="846.0"/>
    <line x1="19.0000000000001" y1="846.0" x2="19.0000000000001" y2="855.0"/>
    <line x1="19.0000000000001" y1="855.0" x2="10.0" y2="855.0"/>
    <line x1="10.0" y1="855.0" x2="10.0" y2="864.0"/>
    <line x1="10.0" y1="864.0" x2="27.9896899438515" y2="864.0"/>
    <line x1="27.9896899438515" y1="864.0" x2="27.9905881340401" y2="855.0"/>
    <line x1="370.0" y1="783.0" x2="370.0" y2="774.0"/>
    <line x1="370.0" y1="774.0" x2="370.0" y2="765.0"/>
    <line x1="370.0" y1="765.0" x2="460.0" y2="765.0"/>
    <line x1="460.0" y1="765.0" x2="460.0" y2="774.0"/>
    <line x1="460.0" y1="774.0" x2="451.0" y2="774.0"/>
    <line x1="451.0" y1="774.0" x2="451.0" y2="783.0"/>
    <line x1="451.0" y1="783.0" x2="442.0" y2="783.0"/>
    <line x1="442.0" y1="783.0" x2="442.0" y2="774.0"/>
    <line x1="442.0" y1="774.0" x2="433.0" y2="774.0"/>
    <line x1="433.0" y1="774.0" x2="433.0" y2="783.0"/>
    <line x1="433.0" y1="783.0" x2="424.0" y2="783.0"/>
    <line x1="424.0" y1="783.0" x2="424.0" y2="774.0"/>
    <line x1="424.0" y1="774.0" x2="415.0" y2="774.0"/>
    <line x1="415.0" y1="774.0" x2="415.0" y2="783.0"/>
    <line x1="415.0" y1="783.0" x2="406.0" y2="783.0"/>
    <line x1="406.0" y1="783.0" x2="406.0" y2="774.0"/>
    <line x1="406.0" y1="774.0" x2="397.0" y2="774.0"/>
    <line x1="397.0" y1="774.0" x2="397.0" y2="783.0"/>
    <line x1="397.0" y1="783.0" x2="388.0" y2="783.0"/>
    <line x1="388.0" y1="783.0" x2="388.0" y2="774.0"/>
    <line x1="388.0" y1="774.0" x2="379.0" y2="774.0"/>
    <line x1="379.0" y1="774.0" x2="379.0" y2="783.0"/>
    <line x1="379.0" y1="783.0" x2="370.0" y2="783.0"/>
  </g>
  <g id="face6" fill="none" stroke="rgb(0,0,255)" stroke-width="1" stroke-miterlimit="4" stroke-dasharray="none" stroke-linejoin="round" stroke-linecap="round">
    <line x1="388.0" y1="883.000000000004" x2="379.0" y2="883.000000000004"/>
    <line x1="379.0" y1="883.000000000004" x2="379.0" y2="874.000000000004"/>
    <line x1="379.0" y1="874.000000000004" x2="370.0" y2="874.000000000004"/>
    <line x1="370.0" y1="874.000000000004" x2="370.0" y2="883.000000000004"/>
    <line x1="370.0" y1="883.000000000004" x2="370.0" y2="1233.0"/>
    <line x1="370.0" y1="1233.0" x2="370.0" y2="1242.0"/>
    <line x1="370.0" y1="1242.0" x2="379.0" y2="1242.0"/>
    <line x1="379.0" y1="1242.0" x2="379.0" y2="1233.0"/>
    <line x1="379.0" y1="1233.0" x2="388.0" y2="1233.0"/>
    <line x1="388.0" y1="1233.0" x2="388.0" y2="1242.0"/>
    <line x1="388.0" y1="1242.0" x2="397.0" y2="1242.0"/>
    <line x1="397.0" y1="1242.0" x2="397.0" y2="1233.0"/>
    <line x1="397.0" y1="1233.0" x2="406.0" y2="1233.0"/>
    <line x1="406.0" y1="1233.0" x2="406.0" y2="1242.0"/>
    <line x1="406.0" y1="1242.0" x2="415.0" y2="1242.0"/>
    <line x1="415.0" y1="1242.0" x2="415.0" y2="1233.0"/>
    <line x1="415.0" y1="1233.0" x2="424.0" y2="1233.0"/>
    <line x1="424.0" y1="1233.0" x2="424.0" y2="1242.0"/>
    <line x1="424.0" y1="1242.0" x2="433.0" y2="1242.0"/>
    <line x1="433.0" y1="1242.0" x2="433.0" y2="1233.0"/>
    <line x1="433.0" y1="1233.0" x2="442.0" y2="1233.0"/>
    <line x1="442.0" y1="1233.0" x2="442.0" y2="1242.0"/>
    <line x1="442.0" y1="1242.0" x2="451.0" y2="1242.0"/>
    <line x1="451.0" y1="1242.0" x2="451.0" y2="1233.0"/>
    <line x1="451.0" y1="1233.0" x2="460.0" y2="1233.0"/>
    <line x1="460.0" y1="1233.0" x2="460.0" y2="883.000000000004"/>
    <line x1="460.0" y1="883.000000000004" x2="451.0" y2="883.000000000004"/>
    <line x1="451.0" y1="883.000000000004" x2="451.0" y2="874.000000000004"/>
    <line x1="451.0" y1="874.000000000004" x2="442.0" y2="874.000000000004"/>
    <line x1="442.0" y1="874.000000000004" x2="442.0" y2="883.000000000004"/>
    <line x1="442.0" y1="883.000000000004" x2="433.0" y2="883.000000000004"/>
    <line x1="433.0" y1="883.000000000004" x2="433.0" y2="874.000000000004"/>
    <line x1="433.0" y1="874.000000000004" x2="424.0" y2="874.000000000004"/>
    <line x1="424.0" y1="874.000000000004" x2="424.0" y2="883.000000000004"/>
    <line x1="424.0" y1="883.000000000004" x2="415.0" y2="883.000000000004"/>
    <line x1="415.0" y1="883.000000000004" x2="415.0" y2="874.000000000004"/>
    <line x1="415.0" y1="874.000000000004" x2="406.0" y2="874.000000000004"/>
    <line x1="406.0" y1="874.000000000004" x2="406.0" y2="883.000000000004"/>
    <line x1="406.0" y1="883.000000000004" x2="397.0" y2="883.000000000004"/>
    <line x1="397.0" y1="883.000000000004" x2="397.0" y2="874.000000000004"/>
    <line x1="397.0" y1="874.000000000004" x2="388.0" y2="874.000000000004"/>
    <line x1="388.0" y1="874.000000000004" x2="388.0" y2="883.000000000004"/>
  </g>
  <g id="face7" fill="none" stroke="rgb(0,0,255)" stroke-width="1" stroke-miterlimit="4" stroke-dasharray="none" stroke-linejoin="round" stroke-linecap="round">
    <line x1="10.0000000000001" y1="1200.0" x2="19.0000000000001" y2="1200.0"/>
    <line x1="19.0000000000001" y1="1200.0" x2="19.0" y2="1209.0"/>
    <line x1="19.0" y1="1209.0" x2="10.0" y2="1209.0"/>
    <line x1="10.0" y1="1209.0" x2="10.0000000000001" y2="1224.0"/>
    <line x1="10.0000000000001" y1="1224.0" x2="19.0000000000001" y2="1224.0"/>
    <line x1="19.0000000000001" y1="1224.0" x2="19.0000000000002" y2="1233.0"/>
    <line x1="19.0000000000002" y1="1233.0" x2="19.0000000000001" y2="1242.0"/>
    <line x1="19.0000000000001" y1="1242.0" x2="27.9977736555493" y2="1242.0"/>
    <line x1="27.9977736555493" y1="1242.0" x2="27.9977736555493" y2="1233.0"/>
    <line x1="27.9977736555493" y1="1233.0" x2="36.9955473110986" y2="1233.0"/>
    <line x1="36.9955473110986" y1="1233.0" x2="36.9955473110984" y2="1242.0"/>
    <line x1="36.9955473110984" y1="1242.0" x2="45.9955473110984" y2="1242.0"/>
    <line x1="45.9955473110984" y1="1242.0" x2="45.9955473110986" y2="1233.0"/>
    <line x1="45.9955473110986" y1="1233.0" x2="54.9955473110986" y2="1233.0"/>
    <line x1="54.9955473110986" y1="1233.0" x2="54.9955473110986" y2="1242.0"/>
    <line x1="54.9955473110986" y1="1242.0" x2="63.9955473110986" y2="1242.0"/>
    <line x1="63.9955473110986" y1="1242.0" x2="63.9955473110986" y2="1233.0"/>
    <line x1="63.9955473110986" y1="1233.0" x2="72.9955473110985" y2="1233.0"/>
    <line x1="72.9955473110985" y1="1233.0" x2="72.9955473110984" y2="1242.0"/>
    <line x1="72.9955473110984" y1="1242.0" x2="81.9955473110986" y2="1242.0"/>
    <line x1="81.9955473110986" y1="1242.0" x2="81.9955473110986" y2="1233.0"/>
    <line x1="81.9955473110986" y1="1233.0" x2="90.9955473110986" y2="1233.0"/>
    <line x1="90.9955473110986" y1="1233.0" x2="90.9955473110986" y2="1242.0"/>
    <line x1="90.9955473110986" y1="1242.0" x2="99.9955473110985" y2="1242.0"/>
    <line x1="99.9955473110985" y1="1242.0" x2="99.9955473110986" y2="1233.0"/>
    <line x1="99.9955473110986" y1="1233.0" x2="108.995547311099" y2="1233.0"/>
    <line x1="108.995547311099" y1="1233.0" x2="108.995547311098" y2="1242.0"/>
    <line x1="108.995547311098" y1="1242.0" x2="117.995547311099" y2="1242.0"/>
    <line x1="117.995547311099" y1="1242.0" x2="117.995547311099" y2="1233.0"/>
    <line x1="117.995547311099" y1="1233.0" x2="126.995547311099" y2="1233.0"/>
    <line x1="126.995547311099" y1="1233.0" x2="126.995547311099" y2="1242.0"/>
    <line x1="126.995547311099" y1="1242.0" x2="135.995547311098" y2="1242.0"/>
    <line x1="135.995547311098" y1="1242.0" x2="135.995547311098" y2="1233.0"/>
    <line x1="135.995547311098" y1="1233.0" x2="135.995547311099" y2="1173.0"/>
    <line x1="135.995547311099" y1="1173.0" x2="126.995547311099" y2="1173.0"/>
    <line x1="126.995547311099" y1="1173.0" x2="126.995547311098" y2="1182.0"/>
    <line x1="126.995547311098" y1="1182.0" x2="117.995547311099" y2="1182.0"/>
    <line x1="117.995547311099" y1="1182.0" x2="117.995547311099" y2="1173.0"/>
    <line x1="117.995547311099" y1="1173.0" x2="108.995547311099" y2="1173.0"/>
    <line x1="108.995547311099" y1="1173.0" x2="108.995547311099" y2="1182.0"/>
    <line x1="108.995547311099" y1="1182.0" x2="99.9955473110986" y2="1182.0"/>
    <line x1="99.9955473110986" y1="1182.0" x2="99.9955473110986" y2="1173.0"/>
    <line x1="99.9955473110986" y1="1173.0" x2="90.9955473110984" y2="1173.0"/>
    <line x1="90.9955473110984" y1="1173.0" x2="90.9955473110984" y2="1182.0"/>
    <line x1="90.9955473110984" y1="1182.0" x2="81.9955473110986" y2="1182.0"/>
    <line x1="81.9955473110986" y1="1182.0" x2="81.9955473110986" y2="1173.0"/>
    <line x1="81.9955473110986" y1="1173.0" x2="72.9955473110986" y2="1173.0"/>
    <line x1="72.9955473110986" y1="1173.0" x2="72.9955473110984" y2="1182.0"/>
    <line x1="72.9955473110984" y1="1182.0" x2="63.9955473110985" y2="1182.0"/>
    <line x1="63.9955473110985" y1="1182.0" x2="63.9955473110984" y2="1173.0"/>
    <line x1="63.9955473110984" y1="1173.0" x2="54.9955473110985" y2="1173.0"/>
    <line x1="54.9955473110985" y1="1173.0" x2="54.9955473110985" y2="1182.0"/>
    <line x1="54.9955473110985" y1="1182.0" x2="45.9955473110985" y2="1182.0"/>
    <line x1="45.9955473110985" y1="1182.0" x2="45.9955473110984" y2="1173.0"/>
    <line x1="45.9955473110984" y1="1173.0" x2="36.9955473110986" y2="1173.0"/>
    <line x1="36.9955473110986" y1="1173.0" x2="36.9955473110985" y2="1182.0"/>
    <line x1="36.9955473110985" y1="1182.0" x2="27.9977736555493" y2="1182.0"/>
    <line x1="27.9977736555493" y1="1182.0" x2="27.9977736555494" y2="1173.0"/>
    <line x1="27.9977736555494" y1="1173.0" x2="19.0000000000002" y2="1173.0"/>
    <line x1="19.0000000000002" y1="1173.0" x2="10.0000000000001" y2="1173.0"/>
    <line x1="10.0000000000001" y1="1173.0" x2="10.0000000000002" y2="1182.0"/>
    <line x1="10.0000000000002" y1="1182.0" x2="19.0000000000001" y2="1182.0"/>
    <line x1="19.0000000000001" y1="1182.0" x2="19.0000000000001" y2="1191.0"/>
    <line x1="19.0000000000001" y1="1191.0" x2="10.0000000000001" y2="1191.0"/>
    <line x1="10.0000000000001" y1="1191.0" x2="10.0000000000001" y2="1200.0"/>
    <line x1="59.6762953497462" y1="1205.04121907153" x2="60.0000000000002" y2="1207.5"/>
    <line x1="60.0000000000002" y1="1207.5" x2="59.6762953497462" y2="1209.95878092848"/>
    <line x1="59.6762953497462" y1="1209.95878092848" x2="58.7272413359523" y2="1212.25"/>
    <line x1="58.7272413359523" y1="1212.25" x2="57.2175144212723" y2="1214.21751442128"/>
    <line x1="57.2175144212723" y1="1214.21751442128" x2="55.2500000000002" y2="1215.72724133596"/>
    <line x1="55.2500000000002" y1="1215.72724133596" x2="52.958780928474" y2="1216.67629534975"/>
    <line x1="52.958780928474" y1="1216.67629534975" x2="50.5000000000001" y2="1217.0"/>
    <line x1="50.5000000000001" y1="1217.0" x2="48.0412190715261" y2="1216.67629534975"/>
    <line x1="48.0412190715261" y1="1216.67629534975" x2="45.7500000000001" y2="1215.72724133596"/>
    <line x1="45.7500000000001" y1="1215.72724133596" x2="43.782485578728" y2="1214.21751442128"/>
    <line x1="43.782485578728" y1="1214.21751442128" x2="42.2727586640481" y2="1212.25"/>
    <line x1="42.2727586640481" y1="1212.25" x2="41.3237046502539" y2="1209.95878092848"/>
    <line x1="41.3237046502539" y1="1209.95878092848" x2="41.0000000000001" y2="1207.5"/>
    <line x1="41.0000000000001" y1="1207.5" x2="41.3237046502541" y2="1205.04121907153"/>
    <line x1="41.3237046502541" y1="1205.04121907153" x2="42.272758664048" y2="1202.75"/>
    <line x1="42.272758664048" y1="1202.75" x2="43.782485578728" y2="1200.78248557873"/>
    <line x1="43.782485578728" y1="1200.78248557873" x2="45.7500000000001" y2="1199.27275866405"/>
    <line x1="45.7500000000001" y1="1199.27275866405" x2="48.0412190715262" y2="1198.32370465026"/>
    <line x1="48.0412190715262" y1="1198.32370465026" x2="50.5000000000001" y2="1198.0"/>
    <line x1="50.5000000000001" y1="1198.0" x2="52.9587809284741" y2="1198.32370465026"/>
    <line x1="52.9587809284741" y1="1198.32370465026" x2="55.2500000000001" y2="1199.27275866405"/>
    <line x1="55.2500000000001" y1="1199.27275866405" x2="57.2175144212723" y2="1200.78248557873"/>
    <line x1="57.2175144212723" y1="1200.78248557873" x2="58.7272413359523" y2="1202.75"/>
    <line x1="58.7272413359523" y1="1202.75" x2="59.6762953497462" y2="1205.04121907153"/>
    <line x1="88.3339448651604" y1="1209.95603707116" x2="88.0106014505749" y2="1207.5"/>
    <line x1="88.0106014505749" y1="1207.5" x2="88.3339448651604" y2="1205.04396292884"/>
    <line x1="88.3339448651604" y1="1205.04396292884" x2="89.2819397895627" y2="1202.75530072529"/>
    <line x1="89.2819397895627" y1="1202.75530072529" x2="90.7899819363198" y2="1200.78998193632"/>
    <line x1="90.7899819363198" y1="1200.78998193632" x2="92.7553007252875" y2="1199.28193978957"/>
    <line x1="92.7553007252875" y1="1199.28193978957" x2="95.0439629288407" y2="1198.33394486516"/>
    <line x1="95.0439629288407" y1="1198.33394486516" x2="97.5000000000002" y2="1198.01060145058"/>
    <line x1="97.5000000000002" y1="1198.01060145058" x2="99.9560370711595" y2="1198.33394486516"/>
    <line x1="99.9560370711595" y1="1198.33394486516" x2="102.244699274713" y2="1199.28193978957"/>
    <line x1="102.244699274713" y1="1199.28193978957" x2="104.210018063681" y2="1200.78998193632"/>
    <line x1="104.210018063681" y1="1200.78998193632" x2="105.718060210437" y2="1202.75530072529"/>
    <line x1="105.718060210437" y1="1202.75530072529" x2="106.66605513484" y2="1205.04396292884"/>
    <line x1="106.66605513484" y1="1205.04396292884" x2="106.989398549425" y2="1207.5"/>
    <line x1="106.989398549425" y1="1207.5" x2="106.66605513484" y2="1209.95603707116"/>
    <line x1="106.66605513484" y1="1209.95603707116" x2="105.718060210437" y2="1212.24469927472"/>
    <line x1="105.718060210437" y1="1212.24469927472" x2="104.21001806368" y2="1214.21001806368"/>
    <line x1="104.21001806368" y1="1214.21001806368" x2="102.244699274713" y2="1215.71806021044"/>
    <line x1="102.244699274713" y1="1215.71806021044" x2="99.9560370711597" y2="1216.66605513484"/>
    <line x1="99.9560370711597" y1="1216.66605513484" x2="97.5000000000002" y2="1216.98939854943"/>
    <line x1="97.5000000000002" y1="1216.98939854943" x2="95.0439629288406" y2="1216.66605513484"/>
    <line x1="95.0439629288406" y1="1216.66605513484" x2="92.7553007252876" y2="1215.71806021044"/>
    <line x1="92.7553007252876" y1="1215.71806021044" x2="90.7899819363198" y2="1214.21001806368"/>
    <line x1="90.7899819363198" y1="1214.21001806368" x2="89.2819397895627" y2="1212.24469927472"/>
    <line x1="89.2819397895627" y1="1212.24469927472" x2="88.3339448651604" y2="1209.95603707116"/>
  </g>
  <g id="face8" fill="none" stroke="rgb(0,0,255)" stroke-width="1" stroke-miterlimit="4" stroke-dasharray="none" stroke-linejoin="round" stroke-linecap="round">
    <line x1="10.0000000000001" y1="907.000000000004" x2="19.0000000000002" y2="907.000000000004"/>
    <line x1="19.0000000000002" y1="907.000000000004" x2="19.0000000000002" y2="916.000000000004"/>
    <line x1="19.0000000000002" y1="916.000000000004" x2="10.0000000000002" y2="916.000000000004"/>
    <line x1="10.0000000000002" y1="916.000000000004" x2="10.0000000000001" y2="925.000000000004"/>
    <line x1="10.0000000000001" y1="925.000000000004" x2="19.0000000000002" y2="925.000000000004"/>
    <line x1="19.0000000000002" y1="925.000000000004" x2="19.0000000000002" y2="934.000000000004"/>
    <line x1="19.0000000000002" y1="934.000000000004" x2="10.0000000000001" y2="934.000000000003"/>
    <line x1="10.0000000000001" y1="934.000000000003" x2="10.0000000000002" y2="943.000000000004"/>
    <line x1="10.0000000000002" y1="943.000000000004" x2="19.0000000000001" y2="943.000000000004"/>
    <line x1="19.0000000000001" y1="943.000000000004" x2="27.9977736555494" y2="943.000000000004"/>
    <line x1="27.9977736555494" y1="943.000000000004" x2="27.9977736555493" y2="934.000000000004"/>
    <line x1="27.9977736555493" y1="934.000000000004" x2="36.9955473110986" y2="934.000000000004"/>
    <line x1="36.9955473110986" y1="934.000000000004" x2="36.9955473110984" y2="943.000000000004"/>
    <line x1="36.9955473110984" y1="943.000000000004" x2="45.9955473110986" y2="943.000000000004"/>
    <line x1="45.9955473110986" y1="943.000000000004" x2="45.9955473110986" y2="934.000000000004"/>
    <line x1="45.9955473110986" y1="934.000000000004" x2="54.9955473110986" y2="934.000000000004"/>
    <line x1="54.9955473110986" y1="934.000000000004" x2="54.9955473110985" y2="943.000000000004"/>
    <line x1="54.9955473110985" y1="943.000000000004" x2="63.9955473110986" y2="943.000000000004"/>
    <line x1="63.9955473110986" y1="943.000000000004" x2="63.9955473110986" y2="934.000000000004"/>
    <line x1="63.9955473110986" y1="934.000000000004" x2="72.9955473110986" y2="934.000000000004"/>
    <line x1="72.9955473110986" y1="934.000000000004" x2="72.9955473110986" y2="943.000000000004"/>
    <line x1="72.9955473110986" y1="943.000000000004" x2="81.9955473110985" y2="943.000000000004"/>
    <line x1="81.9955473110985" y1="943.000000000004" x2="81.9955473110985" y2="934.000000000004"/>
    <line x1="81.9955473110985" y1="934.000000000004" x2="90.9955473110986" y2="934.000000000004"/>
    <line x1="90.9955473110986" y1="934.000000000004" x2="90.9955473110986" y2="943.000000000004"/>
    <line x1="90.9955473110986" y1="943.000000000004" x2="99.9955473110985" y2="943.000000000004"/>
    <line x1="99.9955473110985" y1="943.000000000004" x2="99.9955473110985" y2="934.000000000004"/>
    <line x1="99.9955473110985" y1="934.000000000004" x2="108.995547311099" y2="934.000000000004"/>
    <line x1="108.995547311099" y1="934.000000000004" x2="108.995547311099" y2="943.000000000004"/>
    <line x1="108.995547311099" y1="943.000000000004" x2="117.995547311099" y2="943.000000000004"/>
    <line x1="117.995547311099" y1="943.000000000004" x2="117.995547311099" y2="934.000000000004"/>
    <line x1="117.995547311099" y1="934.000000000004" x2="126.995547311099" y2="934.000000000004"/>
    <line x1="126.995547311099" y1="934.000000000004" x2="126.995547311099" y2="943.000000000004"/>
    <line x1="126.995547311099" y1="943.000000000004" x2="135.995547311099" y2="943.000000000004"/>
    <line x1="135.995547311099" y1="943.000000000004" x2="135.995547311099" y2="883.000000000004"/>
    <line x1="135.995547311099" y1="883.000000000004" x2="135.995547311099" y2="874.000000000004"/>
    <line x1="135.995547311099" y1="874.000000000004" x2="126.995547311099" y2="874.000000000003"/>
    <line x1="126.995547311099" y1="874.000000000003" x2="126.995547311099" y2="883.000000000004"/>
    <line x1="126.995547311099" y1="883.000000000004" x2="117.995547311099" y2="883.000000000004"/>
    <line x1="117.995547311099" y1="883.000000000004" x2="117.995547311099" y2="874.000000000003"/>
    <line x1="117.995547311099" y1="874.000000000003" x2="108.995547311099" y2="874.000000000003"/>
    <line x1="108.995547311099" y1="874.000000000003" x2="108.995547311099" y2="883.000000000004"/>
    <line x1="108.995547311099" y1="883.000000000004" x2="99.9955473110985" y2="883.000000000004"/>
    <line x1="99.9955473110985" y1="883.000000000004" x2="99.9955473110985" y2="874.000000000003"/>
    <line x1="99.9955473110985" y1="874.000000000003" x2="90.9955473110986" y2="874.000000000003"/>
    <line x1="90.9955473110986" y1="874.000000000003" x2="90.9955473110986" y2="883.000000000004"/>
    <line x1="90.9955473110986" y1="883.000000000004" x2="81.9955473110985" y2="883.000000000004"/>
    <line x1="81.9955473110985" y1="883.000000000004" x2="81.9955473110985" y2="874.000000000005"/>
    <line x1="81.9955473110985" y1="874.000000000005" x2="72.9955473110985" y2="874.000000000005"/>
    <line x1="72.9955473110985" y1="874.000000000005" x2="72.9955473110986" y2="883.000000000004"/>
    <line x1="72.9955473110986" y1="883.000000000004" x2="63.9955473110986" y2="883.000000000004"/>
    <line x1="63.9955473110986" y1="883.000000000004" x2="63.9955473110986" y2="874.000000000004"/>
    <line x1="63.9955473110986" y1="874.000000000004" x2="54.9955473110985" y2="874.000000000004"/>
    <line x1="54.9955473110985" y1="874.000000000004" x2="54.9955473110985" y2="883.000000000004"/>
    <line x1="54.9955473110985" y1="883.000000000004" x2="45.9955473110986" y2="883.000000000004"/>
    <line x1="45.9955473110986" y1="883.000000000004" x2="45.9955473110986" y2="874.000000000004"/>
    <line x1="45.9955473110986" y1="874.000000000004" x2="36.9955473110985" y2="874.000000000005"/>
    <line x1="36.9955473110985" y1="874.000000000005" x2="36.9955473110985" y2="883.000000000004"/>
    <line x1="36.9955473110985" y1="883.000000000004" x2="27.9977736555493" y2="883.000000000004"/>
    <line x1="27.9977736555493" y1="883.000000000004" x2="27.9977736555493" y2="874.000000000005"/>
    <line x1="27.9977736555493" y1="874.000000000005" x2="19.0000000000002" y2="874.000000000004"/>
    <line x1="19.0000000000002" y1="874.000000000004" x2="19.0000000000002" y2="883.000000000004"/>
    <line x1="19.0000000000002" y1="883.000000000004" x2="19.0000000000002" y2="892.000000000002"/>
    <line x1="19.0000000000002" y1="892.000000000002" x2="10.0000000000002" y2="892.000000000004"/>
    <line x1="10.0000000000002" y1="892.000000000004" x2="10.0000000000001" y2="907.000000000004"/>
    <line x1="88.3392946395257" y1="910.953410509047" x2="88.0162970184031" y2="908.500000000004"/>
    <line x1="88.0162970184031" y1="908.500000000004" x2="88.3392946395258" y2="906.046589490961"/>
    <line x1="88.3392946395258" y1="906.046589490961" x2="89.2862757487932" y2="903.760374853656"/>
    <line x1="89.2862757487932" y1="903.760374853656" x2="90.792705148569" y2="901.797157837474"/>
    <line x1="90.792705148569" y1="901.797157837474" x2="92.7559221647508" y2="900.290728437699"/>
    <line x1="92.7559221647508" y1="900.290728437699" x2="95.0421368020553" y2="899.343747328432"/>
    <line x1="95.0421368020553" y1="899.343747328432" x2="97.4955473110985" y2="899.020749707309"/>
    <line x1="97.4955473110985" y1="899.020749707309" x2="99.9489578201417" y2="899.343747328432"/>
    <line x1="99.9489578201417" y1="899.343747328432" x2="102.235172457446" y2="900.290728437699"/>
    <line x1="102.235172457446" y1="900.290728437699" x2="104.198389473628" y2="901.797157837475"/>
    <line x1="104.198389473628" y1="901.797157837475" x2="105.704818873404" y2="903.760374853656"/>
    <line x1="105.704818873404" y1="903.760374853656" x2="106.651799982671" y2="906.046589490961"/>
    <line x1="106.651799982671" y1="906.046589490961" x2="106.974797603794" y2="908.500000000004"/>
    <line x1="106.974797603794" y1="908.500000000004" x2="106.651799982671" y2="910.953410509047"/>
    <line x1="106.651799982671" y1="910.953410509047" x2="105.704818873404" y2="913.239625146352"/>
    <line x1="105.704818873404" y1="913.239625146352" x2="104.198389473628" y2="915.202842162533"/>
    <line x1="104.198389473628" y1="915.202842162533" x2="102.235172457446" y2="916.709271562309"/>
    <line x1="102.235172457446" y1="916.709271562309" x2="99.9489578201417" y2="917.656252671577"/>
    <line x1="99.9489578201417" y1="917.656252671577" x2="97.4955473110985" y2="917.979250292699"/>
    <line x1="97.4955473110985" y1="917.979250292699" x2="95.0421368020553" y2="917.656252671576"/>
    <line x1="95.0421368020553" y1="917.656252671576" x2="92.7559221647508" y2="916.709271562309"/>
    <line x1="92.7559221647508" y1="916.709271562309" x2="90.7927051485691" y2="915.202842162534"/>
    <line x1="90.7927051485691" y1="915.202842162534" x2="89.2862757487932" y2="913.239625146352"/>
    <line x1="89.2862757487932" y1="913.239625146352" x2="88.3392946395257" y2="910.953410509047"/>
    <line x1="41.3192519613524" y1="910.958780928479" x2="40.9955473110985" y2="908.500000000004"/>
    <line x1="40.9955473110985" y1="908.500000000004" x2="41.3192519613524" y2="906.041219071531"/>
    <line x1="41.3192519613524" y1="906.041219071531" x2="42.2683059751463" y2="903.750000000004"/>
    <line x1="42.2683059751463" y1="903.750000000004" x2="43.7780328898263" y2="901.782485578732"/>
    <line x1="43.7780328898263" y1="901.782485578732" x2="45.7455473110985" y2="900.272758664052"/>
    <line x1="45.7455473110985" y1="900.272758664052" x2="48.0367663826246" y2="899.323704650258"/>
    <line x1="48.0367663826246" y1="899.323704650258" x2="50.4955473110986" y2="899.000000000005"/>
    <line x1="50.4955473110986" y1="899.000000000005" x2="52.9543282395725" y2="899.323704650259"/>
    <line x1="52.9543282395725" y1="899.323704650259" x2="55.2455473110985" y2="900.272758664052"/>
    <line x1="55.2455473110985" y1="900.272758664052" x2="57.2130617323707" y2="901.782485578732"/>
    <line x1="57.2130617323707" y1="901.782485578732" x2="58.7227886470507" y2="903.750000000004"/>
    <line x1="58.7227886470507" y1="903.750000000004" x2="59.6718426608447" y2="906.04121907153"/>
    <line x1="59.6718426608447" y1="906.04121907153" x2="59.9955473110985" y2="908.500000000004"/>
    <line x1="59.9955473110985" y1="908.500000000004" x2="59.6718426608447" y2="910.958780928478"/>
    <line x1="59.6718426608447" y1="910.958780928478" x2="58.7227886470507" y2="913.250000000004"/>
    <line x1="58.7227886470507" y1="913.250000000004" x2="57.2130617323707" y2="915.217514421276"/>
    <line x1="57.2130617323707" y1="915.217514421276" x2="55.2455473110984" y2="916.727241335956"/>
    <line x1="55.2455473110984" y1="916.727241335956" x2="52.9543282395725" y2="917.67629534975"/>
    <line x1="52.9543282395725" y1="917.67629534975" x2="50.4955473110985" y2="918.000000000004"/>
    <line x1="50.4955473110985" y1="918.000000000004" x2="48.0367663826246" y2="917.67629534975"/>
    <line x1="48.0367663826246" y1="917.67629534975" x2="45.7455473110986" y2="916.727241335956"/>
    <line x1="45.7455473110986" y1="916.727241335956" x2="43.7780328898262" y2="915.217514421276"/>
    <line x1="43.7780328898262" y1="915.217514421276" x2="42.2683059751463" y2="913.250000000004"/>
    <line x1="42.2683059751463" y1="913.250000000004" x2="41.3192519613524" y2="910.958780928479"/>
  </g>
  <g id="face9" fill="none" stroke="rgb(0,0,255)" stroke-width="1" stroke-miterlimit="4" stroke-dasharray="none" stroke-linejoin="round" stroke-linecap="round">
    <line x1="100.0" y1="1602.0" x2="91.0" y2="1602.0"/>
    <line x1="91.0" y1="1602.0" x2="91.0" y2="1587.0"/>
    <line x1="91.0" y1="1587.0" x2="100.0" y2="1587.0"/>
    <line x1="100.0" y1="1587.0" x2="100.0" y2="1578.0"/>
    <line x1="100.0" y1="1578.0" x2="91.0" y2="1578.0"/>
    <line x1="91.0" y1="1578.0" x2="91.0" y2="1569.0"/>
    <line x1="91.0" y1="1569.0" x2="100.0" y2="1569.0"/>
    <line x1="100.0" y1="1569.0" x2="100.0" y2="1560.0"/>
    <line x1="100.0" y1="1560.0" x2="91.0" y2="1560.0"/>
    <line x1="91.0" y1="1560.0" x2="91.0" y2="1551.0"/>
    <line x1="91.0" y1="1551.0" x2="100.0" y2="1551.0"/>
    <line x1="100.0" y1="1551.0" x2="100.0" y2="1321.0"/>
    <line x1="100.0" y1="1321.0" x2="91.0000000000001" y2="1321.0"/>
    <line x1="91.0000000000001" y1="1321.0" x2="91.0" y2="1312.0"/>
    <line x1="91.0" y1="1312.0" x2="100.0" y2="1312.0"/>
    <line x1="100.0" y1="1312.0" x2="100.0" y2="1303.0"/>
    <line x1="100.0" y1="1303.0" x2="91.0000000000001" y2="1303.0"/>
    <line x1="91.0000000000001" y1="1303.0" x2="91.0000000000001" y2="1294.0"/>
    <line x1="91.0000000000001" y1="1294.0" x2="100.0" y2="1294.0"/>
    <line x1="100.0" y1="1294.0" x2="100.0" y2="1285.0"/>
    <line x1="100.0" y1="1285.0" x2="91.0000000000001" y2="1285.0"/>
    <line x1="91.0000000000001" y1="1285.0" x2="91.0000000000001" y2="1270.0"/>
    <line x1="91.0000000000001" y1="1270.0" x2="100.0" y2="1270.0"/>
    <line x1="100.0" y1="1270.0" x2="100.0" y2="1261.0"/>
    <line x1="100.0" y1="1261.0" x2="91.0" y2="1261.0"/>
    <line x1="91.0" y1="1261.0" x2="91.0" y2="1252.0"/>
    <line x1="91.0" y1="1252.0" x2="82.0000000000001" y2="1252.0"/>
    <line x1="82.0000000000001" y1="1252.0" x2="82.0000000000001" y2="1261.0"/>
    <line x1="82.0000000000001" y1="1261.0" x2="73.0" y2="1261.0"/>
    <line x1="73.0" y1="1261.0" x2="73.0" y2="1252.0"/>
    <line x1="73.0" y1="1252.0" x2="64.0" y2="1252.0"/>
    <line x1="64.0" y1="1252.0" x2="64.0000000000001" y2="1261.0"/>
    <line x1="64.0000000000001" y1="1261.0" x2="55.0" y2="1261.0"/>
    <line x1="55.0" y1="1261.0" x2="55.0000000000001" y2="1252.0"/>
    <line x1="55.0000000000001" y1="1252.0" x2="46.0" y2="1252.0"/>
    <line x1="46.0" y1="1252.0" x2="46.0" y2="1261.0"/>
    <line x1="46.0" y1="1261.0" x2="37.0" y2="1261.0"/>
    <line x1="37.0" y1="1261.0" x2="37.0" y2="1252.0"/>
    <line x1="37.0" y1="1252.0" x2="28.0000000000001" y2="1252.0"/>
    <line x1="28.0000000000001" y1="1252.0" x2="28.0000000000001" y2="1261.0"/>
    <line x1="28.0000000000001" y1="1261.0" x2="19.0000000000001" y2="1261.0"/>
    <line x1="19.0000000000001" y1="1261.0" x2="19.0000000000001" y2="1252.0"/>
    <line x1="19.0000000000001" y1="1252.0" x2="10.0" y2="1252.0"/>
    <line x1="10.0" y1="1252.0" x2="10.0" y2="1270.0"/>
    <line x1="10.0" y1="1270.0" x2="19.0000000000001" y2="1270.0"/>
    <line x1="19.0000000000001" y1="1270.0" x2="19.0000000000001" y2="1285.0"/>
    <line x1="19.0000000000001" y1="1285.0" x2="10.0" y2="1285.0"/>
    <line x1="10.0" y1="1285.0" x2="10.0" y2="1294.0"/>
    <line x1="10.0" y1="1294.0" x2="19.0000000000001" y2="1294.0"/>
    <line x1="19.0000000000001" y1="1294.0" x2="19.0000000000001" y2="1303.0"/>
    <line x1="19.0000000000001" y1="1303.0" x2="10.0" y2="1303.0"/>
    <line x1="10.0" y1="1303.0" x2="10.0" y2="1312.0"/>
    <line x1="10.0" y1="1312.0" x2="19.0000000000001" y2="1312.0"/>
    <line x1="19.0000000000001" y1="1312.0" x2="19.0000000000001" y2="1321.0"/>
    <line x1="19.0000000000001" y1="1321.0" x2="10.0" y2="1321.0"/>
    <line x1="10.0" y1="1321.0" x2="10.0" y2="1551.0"/>
    <line x1="10.0" y1="1551.0" x2="19.0000000000001" y2="1551.0"/>
    <line x1="19.0000000000001" y1="1551.0" x2="19.0000000000001" y2="1560.0"/>
    <line x1="19.0000000000001" y1="1560.0" x2="10.0" y2="1560.0"/>
    <line x1="10.0" y1="1560.0" x2="10.0" y2="1569.0"/>
    <line x1="10.0" y1="1569.0" x2="19.0000000000001" y2="1569.0"/>
    <line x1="19.0000000000001" y1="1569.0" x2="19.0000000000001" y2="1578.0"/>
    <line x1="19.0000000000001" y1="1578.0" x2="10.0" y2="1578.0"/>
    <line x1="10.0" y1="1578.0" x2="10.0" y2="1587.0"/>
    <line x1="10.0" y1="1587.0" x2="19.0000000000001" y2="1587.0"/>
    <line x1="19.0000000000001" y1="1587.0" x2="19.0000000000001" y2="1602.0"/>
    <line x1="19.0000000000001" y1="1602.0" x2="10.0" y2="1602.0"/>
    <line x1="10.0" y1="1602.0" x2="10.0" y2="1620.0"/>
    <line x1="10.0" y1="1620.0" x2="19.0000000000001" y2="1620.0"/>
    <line x1="19.0000000000001" y1="1620.0" x2="19.0000000000001" y2="1611.0"/>
    <line x1="19.0000000000001" y1="1611.0" x2="28.0000000000001" y2="1611.0"/>
    <line x1="28.0000000000001" y1="1611.0" x2="28.0000000000001" y2="1620.0"/>
    <line x1="28.0000000000001" y1="1620.0" x2="37.0" y2="1620.0"/>
    <line x1="37.0" y1="1620.0" x2="37.0" y2="1611.0"/>
    <line x1="37.0" y1="1611.0" x2="46.0" y2="1611.0"/>
    <line x1="46.0" y1="1611.0" x2="46.0" y2="1620.0"/>
    <line x1="46.0" y1="1620.0" x2="55.0000000000001" y2="1620.0"/>
    <line x1="55.0000000000001" y1="1620.0" x2="55.0000000000001" y2="1611.0"/>
    <line x1="55.0000000000001" y1="1611.0" x2="64.0" y2="1611.0"/>
    <line x1="64.0" y1="1611.0" x2="64.0" y2="1620.0"/>
    <line x1="64.0" y1="1620.0" x2="73.0" y2="1620.0"/>
    <line x1="73.0" y1="1620.0" x2="73.0" y2="1611.0"/>
    <line x1="73.0" y1="1611.0" x2="82.0000000000001" y2="1611.0"/>
    <line x1="82.0000000000001" y1="1611.0" x2="82.0000000000001" y2="1620.0"/>
    <line x1="82.0000000000001" y1="1620.0" x2="91.0" y2="1620.0"/>
    <line x1="91.0" y1="1620.0" x2="91.0" y2="1611.0"/>
    <line x1="91.0" y1="1611.0" x2="100.0" y2="1611.0"/>
    <line x1="100.0" y1="1611.0" x2="100.0" y2="1602.0"/>
  </g>
</svg>
