<?xml version="1.0" standalone="no"?>
<!DOCTYPE svg PUBLIC "-//W3C//DTD SVG 1.1//EN" "http://www.w3.org/Graphics/SVG/1.1/DTD/svg11.dtd">
<svg width="198.0mm" height="629.999999999995mm"
 viewBox="0 0 198.0 629.999999999995"
 xmlns="http://www.w3.org/2000/svg" version="1.1"
 xmlns:xlink="http://www.w3.org/1999/xlink">
<desc>Output from Flights of Ideas SVG Sketchup Plugin</desc>

  <g id="face0" fill="none" stroke="rgb(0,0,255)" stroke-width="1" stroke-miterlimit="4" stroke-dasharray="none" stroke-linejoin="round" stroke-linecap="round">
    <line x1="96.5384615384614" y1="91.0" x2="106.153846153846" y2="91.0"/>
    <line x1="106.153846153846" y1="91.0" x2="106.153846153846" y2="100.0"/>
    <line x1="106.153846153846" y1="100.0" x2="115.769230769231" y2="100.0"/>
    <line x1="115.769230769231" y1="100.0" x2="115.769230769231" y2="91.0"/>
    <line x1="115.769230769231" y1="91.0" x2="125.384615384615" y2="91.0"/>
    <line x1="125.384615384615" y1="91.0" x2="125.384615384615" y2="100.0"/>
    <line x1="125.384615384615" y1="100.0" x2="135.0" y2="100.0"/>
    <line x1="135.0" y1="100.0" x2="144.0" y2="100.0"/>
    <line x1="144.0" y1="100.0" x2="144.0" y2="91.0"/>
    <line x1="144.0" y1="91.0" x2="135.0" y2="91.0"/>
    <line x1="135.0" y1="91.0" x2="135.0" y2="82.0000000000001"/>
    <line x1="135.0" y1="82.0000000000001" x2="144.0" y2="82.0000000000001"/>
    <line x1="144.0" y1="82.0000000000001" x2="144.0" y2="73.0"/>
    <line x1="144.0" y1="73.0" x2="135.0" y2="73.0"/>
    <line x1="135.0" y1="73.0" x2="135.0" y2="64.0000000000001"/>
    <line x1="135.0" y1="64.0000000000001" x2="144.0" y2="64.0000000000001"/>
    <line x1="144.0" y1="64.0000000000001" x2="144.0" y2="55.0000000000001"/>
    <line x1="144.0" y1="55.0000000000001" x2="135.0" y2="55.0000000000001"/>
    <line x1="135.0" y1="55.0000000000001" x2="135.0" y2="46.0"/>
    <line x1="135.0" y1="46.0" x2="144.0" y2="46.0"/>
    <line x1="144.0" y1="46.0" x2="144.0" y2="37.0"/>
    <line x1="144.0" y1="37.0" x2="135.0" y2="37.0"/>
    <line x1="135.0" y1="37.0" x2="135.0" y2="28.0000000000001"/>
    <line x1="135.0" y1="28.0000000000001" x2="144.0" y2="28.0000000000001"/>
    <line x1="144.0" y1="28.0000000000001" x2="144.0" y2="19.0"/>
    <line x1="144.0" y1="19.0" x2="135.0" y2="19.0"/>
    <line x1="135.0" y1="19.0" x2="135.0" y2="10.0"/>
    <line x1="135.0" y1="10.0" x2="125.384615384615" y2="10.0"/>
    <line x1="125.384615384615" y1="10.0" x2="125.384615384615" y2="19.0"/>
    <line x1="125.384615384615" y1="19.0" x2="115.769230769231" y2="19.0"/>
    <line x1="115.769230769231" y1="19.0" x2="115.769230769231" y2="10.0"/>
    <line x1="115.769230769231" y1="10.0" x2="106.153846153846" y2="10.0"/>
    <line x1="106.153846153846" y1="10.0" x2="106.153846153846" y2="19.0"/>
    <line x1="106.153846153846" y1="19.0" x2="96.5384615384614" y2="19.0"/>
    <line x1="96.5384615384614" y1="19.0" x2="96.5384615384614" y2="10.0"/>
    <line x1="96.5384615384614" y1="10.0" x2="86.9230769230769" y2="10.0"/>
    <line x1="86.9230769230769" y1="10.0" x2="86.9230769230769" y2="19.0"/>
    <line x1="86.9230769230769" y1="19.0" x2="77.3076923076924" y2="19.0"/>
    <line x1="77.3076923076924" y1="19.0" x2="77.3076923076924" y2="10.0"/>
    <line x1="77.3076923076924" y1="10.0" x2="67.6923076923078" y2="10.0"/>
    <line x1="67.6923076923078" y1="10.0" x2="67.6923076923078" y2="19.0"/>
    <line x1="67.6923076923078" y1="19.0" x2="58.0769230769231" y2="19.0"/>
    <line x1="58.0769230769231" y1="19.0" x2="58.0769230769231" y2="10.0"/>
    <line x1="58.0769230769231" y1="10.0" x2="48.4615384615383" y2="10.0"/>
    <line x1="48.4615384615383" y1="10.0" x2="48.4615384615383" y2="19.0"/>
    <line x1="48.4615384615383" y1="19.0" x2="38.8461538461538" y2="19.0"/>
    <line x1="38.8461538461538" y1="19.0" x2="38.8461538461538" y2="10.0"/>
    <line x1="38.8461538461538" y1="10.0" x2="29.2307692307693" y2="10.0"/>
    <line x1="29.2307692307693" y1="10.0" x2="29.2307692307693" y2="19.0"/>
    <line x1="29.2307692307693" y1="19.0" x2="19.6153846153845" y2="19.0"/>
    <line x1="19.6153846153845" y1="19.0" x2="19.6153846153845" y2="10.0"/>
    <line x1="19.6153846153845" y1="10.0" x2="10.0" y2="10.0"/>
    <line x1="10.0" y1="10.0" x2="10.0" y2="91.0"/>
    <line x1="10.0" y1="91.0" x2="10.0" y2="99.9999999999999"/>
    <line x1="10.0" y1="99.9999999999999" x2="19.6153846153845" y2="99.9999999999999"/>
    <line x1="19.6153846153845" y1="99.9999999999999" x2="19.6153846153845" y2="91.0"/>
    <line x1="19.6153846153845" y1="91.0" x2="29.2307692307693" y2="91.0"/>
    <line x1="29.2307692307693" y1="91.0" x2="29.2307692307693" y2="100.0"/>
    <line x1="29.2307692307693" y1="100.0" x2="38.8461538461538" y2="100.0"/>
    <line x1="38.8461538461538" y1="100.0" x2="38.8461538461538" y2="91.0"/>
    <line x1="38.8461538461538" y1="91.0" x2="48.4615384615383" y2="91.0"/>
    <line x1="48.4615384615383" y1="91.0" x2="48.4615384615383" y2="100.0"/>
    <line x1="48.4615384615383" y1="100.0" x2="58.0769230769231" y2="100.0"/>
    <line x1="58.0769230769231" y1="100.0" x2="58.0769230769231" y2="91.0"/>
    <line x1="58.0769230769231" y1="91.0" x2="67.6923076923078" y2="91.0"/>
    <line x1="67.6923076923078" y1="91.0" x2="67.6923076923078" y2="100.0"/>
    <line x1="67.6923076923078" y1="100.0" x2="77.3076923076924" y2="100.0"/>
    <line x1="77.3076923076924" y1="100.0" x2="77.3076923076922" y2="91.0"/>
    <line x1="77.3076923076922" y1="91.0" x2="86.9230769230767" y2="91.0"/>
    <line x1="86.9230769230767" y1="91.0" x2="86.9230769230767" y2="100.0"/>
    <line x1="86.9230769230767" y1="100.0" x2="96.5384615384614" y2="100.0"/>
    <line x1="96.5384615384614" y1="100.0" x2="96.5384615384614" y2="91.0"/>
    <line x1="116.665181806256" y1="61.2294800154743" x2="25.6177963009825" y2="61.49503027603"/>
    <line x1="25.6177963009825" y1="61.49503027603" x2="25.6767598814208" y2="48.500016748298"/>
    <line x1="25.6767598814208" y1="48.500016748298" x2="116.739595117929" y2="48.2344664877423"/>
    <line x1="116.739595117929" y1="48.2344664877423" x2="116.665181806256" y2="61.2294800154743"/>
    <line x1="93.0904603129002" y1="37.200374908983" x2="92.1552197028898" y2="34.9034828008921"/>
    <line x1="92.1552197028898" y1="34.9034828008921" x2="91.846326066006" y2="32.4427973118635"/>
    <line x1="91.846326066006" y1="32.4427973118635" x2="92.1848299931314" y2="29.9860100914996"/>
    <line x1="92.1848299931314" y1="29.9860100914996" x2="93.1476630010368" y2="27.7005471288351"/>
    <line x1="93.1476630010368" y1="27.7005471288351" x2="94.6692096113902" y2="25.7421589478697"/>
    <line x1="94.6692096113902" y1="25.7421589478697" x2="96.6457789371707" y2="24.2443064667466"/>
    <line x1="96.6457789371707" y1="24.2443064667466" x2="98.9426710452617" y2="23.309065856736"/>
    <line x1="98.9426710452617" y1="23.309065856736" x2="101.40335653429" y2="23.0001722198521"/>
    <line x1="101.40335653429" y1="23.0001722198521" x2="103.860143754654" y2="23.3386761469776"/>
    <line x1="103.860143754654" y1="23.3386761469776" x2="106.145606717319" y2="24.3015091548831"/>
    <line x1="106.145606717319" y1="24.3015091548831" x2="108.103994898284" y2="25.8230557652365"/>
    <line x1="108.103994898284" y1="25.8230557652365" x2="109.601847379407" y2="27.7996250910171"/>
    <line x1="109.601847379407" y1="27.7996250910171" x2="110.537087989418" y2="30.096517199108"/>
    <line x1="110.537087989418" y1="30.096517199108" x2="110.845981626302" y2="32.5572026881366"/>
    <line x1="110.845981626302" y1="32.5572026881366" x2="110.507477699176" y2="35.0139899085005"/>
    <line x1="110.507477699176" y1="35.0139899085005" x2="109.544644691271" y2="37.299452871165"/>
    <line x1="109.544644691271" y1="37.299452871165" x2="108.023098080917" y2="39.2578410521304"/>
    <line x1="108.023098080917" y1="39.2578410521304" x2="106.046528755137" y2="40.7556935332535"/>
    <line x1="106.046528755137" y1="40.7556935332535" x2="103.749636647046" y2="41.6909341432641"/>
    <line x1="103.749636647046" y1="41.6909341432641" x2="101.288951158017" y2="41.999827780148"/>
    <line x1="101.288951158017" y1="41.999827780148" x2="98.8321639376531" y2="41.6613238530225"/>
    <line x1="98.8321639376531" y1="41.6613238530225" x2="96.5467009749889" y2="40.698490845117"/>
    <line x1="96.5467009749889" y1="40.698490845117" x2="94.5883127940233" y2="39.1769442347636"/>
    <line x1="94.5883127940233" y1="39.1769442347636" x2="93.0904603129002" y2="37.200374908983"/>
    <line x1="109.524949027242" y1="71.4041398332947" x2="110.497120264496" y2="73.6856462304538"/>
    <line x1="110.497120264496" y1="73.6856462304538" x2="110.845668263028" y2="76.1410286136159"/>
    <line x1="110.845668263028" y1="76.1410286136159" x2="110.546840052739" y2="78.6029567310797"/>
    <line x1="110.546840052739" y1="78.6029567310797" x2="109.621000282325" y2="80.9036542501687"/>
    <line x1="109.621000282325" y1="80.9036542501687" x2="108.131243402116" y2="82.8863324370393"/>
    <line x1="108.131243402116" y1="82.8863324370393" x2="106.179093881558" y2="84.4158750497869"/>
    <line x1="106.179093881558" y1="84.4158750497869" x2="103.897587484399" y2="85.3880462870415"/>
    <line x1="103.897587484399" y1="85.3880462870415" x2="101.442205101237" y2="85.7365942855731"/>
    <line x1="101.442205101237" y1="85.7365942855731" x2="98.9802769837731" y2="85.4377660752845"/>
    <line x1="98.9802769837731" y1="85.4377660752845" x2="96.6795794646841" y2="84.5119263048701"/>
    <line x1="96.6795794646841" y1="84.5119263048701" x2="94.6969012778136" y2="83.0221694246608"/>
    <line x1="94.6969012778136" y1="83.0221694246608" x2="93.1673586650659" y2="81.0700199041035"/>
    <line x1="93.1673586650659" y1="81.0700199041035" x2="92.1951874278113" y2="78.7885135069443"/>
    <line x1="92.1951874278113" y1="78.7885135069443" x2="91.8466394292798" y2="76.3331311237822"/>
    <line x1="91.8466394292798" y1="76.3331311237822" x2="92.1454676395683" y2="73.8712030063184"/>
    <line x1="92.1454676395683" y1="73.8712030063184" x2="93.0713074099826" y2="71.5705054872295"/>
    <line x1="93.0713074099826" y1="71.5705054872295" x2="94.561064290192" y2="69.5878273003589"/>
    <line x1="94.561064290192" y1="69.5878273003589" x2="96.5132138107494" y2="68.0582846876112"/>
    <line x1="96.5132138107494" y1="68.0582846876112" x2="98.7947202079085" y2="67.0861134503567"/>
    <line x1="98.7947202079085" y1="67.0861134503567" x2="101.250102591071" y2="66.7375654518251"/>
    <line x1="101.250102591071" y1="66.7375654518251" x2="103.712030708534" y2="67.0363936621136"/>
    <line x1="103.712030708534" y1="67.0363936621136" x2="106.012728227623" y2="67.9622334325281"/>
    <line x1="106.012728227623" y1="67.9622334325281" x2="107.995406414494" y2="69.4519903127373"/>
    <line x1="107.995406414494" y1="69.4519903127373" x2="109.524949027242" y2="71.4041398332947"/>
    <line x1="53.1065393992233" y1="77.8340207940479" x2="52.4147685315734" y2="80.2155836047867"/>
    <line x1="52.4147685315734" y1="80.2155836047867" x2="51.1301753721091" y2="82.3369531552141"/>
    <line x1="51.1301753721091" y1="82.3369531552141" x2="49.3403028217569" y2="84.0535616161973"/>
    <line x1="49.3403028217569" y1="84.0535616161973" x2="47.1671277369194" y2="85.2484249579499"/>
    <line x1="47.1671277369194" y1="85.2484249579499" x2="44.7587484082865" y2="85.8401152183366"/>
    <line x1="44.7587484082865" y1="85.8401152183366" x2="42.2792919070694" y2="85.7883096839265"/>
    <line x1="42.2792919070694" y1="85.7883096839265" x2="39.8977290963305" y2="85.0965388162767"/>
    <line x1="39.8977290963305" y1="85.0965388162767" x2="37.7763595459032" y2="83.8119456568123"/>
    <line x1="37.7763595459032" y1="83.8119456568123" x2="36.05975108492" y2="82.0220731064602"/>
    <line x1="36.05975108492" y1="82.0220731064602" x2="34.8648877431672" y2="79.8488980216226"/>
    <line x1="34.8648877431672" y1="79.8488980216226" x2="34.2731974827805" y2="77.4405186929896"/>
    <line x1="34.2731974827805" y1="77.4405186929896" x2="34.3250030171907" y2="74.9610621917725"/>
    <line x1="34.3250030171907" y1="74.9610621917725" x2="35.0167738848406" y2="72.5794993810337"/>
    <line x1="35.0167738848406" y1="72.5794993810337" x2="36.3013670443049" y2="70.4581298306063"/>
    <line x1="36.3013670443049" y1="70.4581298306063" x2="38.0912395946571" y2="68.7415213696231"/>
    <line x1="38.0912395946571" y1="68.7415213696231" x2="40.2644146794946" y2="67.5466580278705"/>
    <line x1="40.2644146794946" y1="67.5466580278705" x2="42.6727940081278" y2="66.9549677674837"/>
    <line x1="42.6727940081278" y1="66.9549677674837" x2="45.1522505093446" y2="67.0067733018939"/>
    <line x1="45.1522505093446" y1="67.0067733018939" x2="47.5338133200835" y2="67.6985441695437"/>
    <line x1="47.5338133200835" y1="67.6985441695437" x2="49.6551828705108" y2="68.9831373290081"/>
    <line x1="49.6551828705108" y1="68.9831373290081" x2="51.371791331494" y2="70.7730098793602"/>
    <line x1="51.371791331494" y1="70.7730098793602" x2="52.5666546732468" y2="72.9461849641978"/>
    <line x1="52.5666546732468" y1="72.9461849641978" x2="53.1583449336335" y2="75.3545642928308"/>
    <line x1="53.1583449336335" y1="75.3545642928308" x2="53.1065393992233" y2="77.8340207940479"/>
    <line x1="41.0491210338455" y1="23.5054599620617" x2="43.4977591080619" y2="23.1123188470392"/>
    <line x1="43.4977591080619" y1="23.1123188470392" x2="45.9647142711628" y2="23.3663278588332"/>
    <line x1="45.9647142711628" y1="23.3663278588332" x2="48.2818676056193" y2="24.2501767030597"/>
    <line x1="48.2818676056193" y1="24.2501767030597" x2="50.2913089409651" y2="25.703632541614"/>
    <line x1="50.2913089409651" y1="25.703632541614" x2="51.8560981709547" y2="27.6276447610479"/>
    <line x1="51.8560981709547" y1="27.6276447610479" x2="52.8695974955015" y2="29.8910951081875"/>
    <line x1="52.8695974955015" y1="29.8910951081875" x2="53.2627386105239" y2="32.3397331824039"/>
    <line x1="53.2627386105239" y1="32.3397331824039" x2="53.00872959873" y2="34.8066883455048"/>
    <line x1="53.00872959873" y1="34.8066883455048" x2="52.1248807545035" y2="37.1238416799613"/>
    <line x1="52.1248807545035" y1="37.1238416799613" x2="50.6714249159493" y2="39.1332830153069"/>
    <line x1="50.6714249159493" y1="39.1332830153069" x2="48.7474126965153" y2="40.6980722452968"/>
    <line x1="48.7474126965153" y1="40.6980722452968" x2="46.4839623493758" y2="41.7115715698435"/>
    <line x1="46.4839623493758" y1="41.7115715698435" x2="44.0353242751594" y2="42.104712684866"/>
    <line x1="44.0353242751594" y1="42.104712684866" x2="41.5683691120582" y2="41.8507036730721"/>
    <line x1="41.5683691120582" y1="41.8507036730721" x2="39.2512157776018" y2="40.9668548288455"/>
    <line x1="39.2512157776018" y1="40.9668548288455" x2="37.2417744422562" y2="39.5133989902913"/>
    <line x1="37.2417744422562" y1="39.5133989902913" x2="35.6769852122663" y2="37.5893867708574"/>
    <line x1="35.6769852122663" y1="37.5893867708574" x2="34.6634858877196" y2="35.3259364237177"/>
    <line x1="34.6634858877196" y1="35.3259364237177" x2="34.2703447726972" y2="32.8772983495014"/>
    <line x1="34.2703447726972" y1="32.8772983495014" x2="34.524353784491" y2="30.4103431864004"/>
    <line x1="34.524353784491" y1="30.4103431864004" x2="35.4082026287176" y2="28.0931898519439"/>
    <line x1="35.4082026287176" y1="28.0931898519439" x2="36.861658467272" y2="26.0837485165983"/>
    <line x1="36.861658467272" y1="26.0837485165983" x2="38.785670686706" y2="24.5189592866084"/>
    <line x1="38.785670686706" y1="24.5189592866084" x2="41.0491210338455" y2="23.5054599620617"/>
  </g>
  <g id="face1" fill="none" stroke="rgb(0,0,255)" stroke-width="1" stroke-miterlimit="4" stroke-dasharray="none" stroke-linejoin="round" stroke-linecap="round">
    <line x1="106.153846153846" y1="110.0" x2="106.153846153846" y2="119.0"/>
    <line x1="106.153846153846" y1="119.0" x2="96.5384615384614" y2="119.0"/>
    <line x1="96.5384615384614" y1="119.0" x2="96.5384615384614" y2="110.0"/>
    <line x1="96.5384615384614" y1="110.0" x2="86.9230769230769" y2="110.0"/>
    <line x1="86.9230769230769" y1="110.0" x2="86.9230769230767" y2="119.0"/>
    <line x1="86.9230769230767" y1="119.0" x2="77.3076923076922" y2="119.0"/>
    <line x1="77.3076923076922" y1="119.0" x2="77.3076923076922" y2="110.0"/>
    <line x1="77.3076923076922" y1="110.0" x2="67.6923076923076" y2="110.0"/>
    <line x1="67.6923076923076" y1="110.0" x2="67.6923076923076" y2="119.0"/>
    <line x1="67.6923076923076" y1="119.0" x2="58.0769230769231" y2="119.0"/>
    <line x1="58.0769230769231" y1="119.0" x2="58.0769230769231" y2="110.0"/>
    <line x1="58.0769230769231" y1="110.0" x2="48.4615384615383" y2="110.0"/>
    <line x1="48.4615384615383" y1="110.0" x2="48.4615384615383" y2="119.0"/>
    <line x1="48.4615384615383" y1="119.0" x2="38.8461538461538" y2="119.0"/>
    <line x1="38.8461538461538" y1="119.0" x2="38.8461538461538" y2="110.0"/>
    <line x1="38.8461538461538" y1="110.0" x2="29.2307692307693" y2="110.0"/>
    <line x1="29.2307692307693" y1="110.0" x2="29.2307692307693" y2="119.0"/>
    <line x1="29.2307692307693" y1="119.0" x2="19.6153846153848" y2="119.0"/>
    <line x1="19.6153846153848" y1="119.0" x2="19.6153846153848" y2="110.0"/>
    <line x1="19.6153846153848" y1="110.0" x2="10.0" y2="110.0"/>
    <line x1="10.0" y1="110.0" x2="10.0" y2="119.0"/>
    <line x1="10.0" y1="119.0" x2="10.0" y2="200.0"/>
    <line x1="10.0" y1="200.0" x2="19.6153846153848" y2="200.0"/>
    <line x1="19.6153846153848" y1="200.0" x2="19.6153846153848" y2="191.0"/>
    <line x1="19.6153846153848" y1="191.0" x2="29.2307692307693" y2="191.0"/>
    <line x1="29.2307692307693" y1="191.0" x2="29.2307692307693" y2="200.0"/>
    <line x1="29.2307692307693" y1="200.0" x2="38.8461538461538" y2="200.0"/>
    <line x1="38.8461538461538" y1="200.0" x2="38.8461538461538" y2="191.0"/>
    <line x1="38.8461538461538" y1="191.0" x2="48.4615384615383" y2="191.0"/>
    <line x1="48.4615384615383" y1="191.0" x2="48.4615384615383" y2="200.0"/>
    <line x1="48.4615384615383" y1="200.0" x2="58.0769230769231" y2="200.0"/>
    <line x1="58.0769230769231" y1="200.0" x2="58.0769230769231" y2="191.0"/>
    <line x1="58.0769230769231" y1="191.0" x2="67.6923076923076" y2="191.0"/>
    <line x1="67.6923076923076" y1="191.0" x2="67.6923076923076" y2="200.0"/>
    <line x1="67.6923076923076" y1="200.0" x2="77.3076923076922" y2="200.0"/>
    <line x1="77.3076923076922" y1="200.0" x2="77.3076923076922" y2="191.0"/>
    <line x1="77.3076923076922" y1="191.0" x2="86.9230769230769" y2="191.0"/>
    <line x1="86.9230769230769" y1="191.0" x2="86.9230769230769" y2="200.0"/>
    <line x1="86.9230769230769" y1="200.0" x2="96.5384615384612" y2="200.0"/>
    <line x1="96.5384615384612" y1="200.0" x2="96.5384615384612" y2="191.0"/>
    <line x1="96.5384615384612" y1="191.0" x2="106.153846153846" y2="191.0"/>
    <line x1="106.153846153846" y1="191.0" x2="106.153846153846" y2="200.0"/>
    <line x1="106.153846153846" y1="200.0" x2="115.769230769231" y2="200.0"/>
    <line x1="115.769230769231" y1="200.0" x2="115.769230769231" y2="191.0"/>
    <line x1="115.769230769231" y1="191.0" x2="125.384615384615" y2="191.0"/>
    <line x1="125.384615384615" y1="191.0" x2="125.384615384615" y2="200.0"/>
    <line x1="125.384615384615" y1="200.0" x2="135.0" y2="200.0"/>
    <line x1="135.0" y1="200.0" x2="135.0" y2="191.0"/>
    <line x1="135.0" y1="191.0" x2="144.0" y2="191.0"/>
    <line x1="144.0" y1="191.0" x2="144.0" y2="182.0"/>
    <line x1="144.0" y1="182.0" x2="135.0" y2="182.0"/>
    <line x1="135.0" y1="182.0" x2="135.0" y2="173.0"/>
    <line x1="135.0" y1="173.0" x2="144.0" y2="173.0"/>
    <line x1="144.0" y1="173.0" x2="144.0" y2="164.0"/>
    <line x1="144.0" y1="164.0" x2="135.0" y2="164.0"/>
    <line x1="135.0" y1="164.0" x2="135.0" y2="155.0"/>
    <line x1="135.0" y1="155.0" x2="144.0" y2="155.0"/>
    <line x1="144.0" y1="155.0" x2="144.0" y2="146.0"/>
    <line x1="144.0" y1="146.0" x2="135.0" y2="146.0"/>
    <line x1="135.0" y1="146.0" x2="135.0" y2="137.0"/>
    <line x1="135.0" y1="137.0" x2="144.0" y2="137.0"/>
    <line x1="144.0" y1="137.0" x2="144.0" y2="128.0"/>
    <line x1="144.0" y1="128.0" x2="135.0" y2="128.0"/>
    <line x1="135.0" y1="128.0" x2="134.915522698328" y2="119.0"/>
    <line x1="134.915522698328" y1="119.0" x2="144.0" y2="119.0"/>
    <line x1="144.0" y1="119.0" x2="144.0" y2="110.0"/>
    <line x1="144.0" y1="110.0" x2="135.0" y2="110.0"/>
    <line x1="135.0" y1="110.0" x2="124.769230769231" y2="110.0"/>
    <line x1="124.769230769231" y1="110.0" x2="124.769230769231" y2="119.0"/>
    <line x1="124.769230769231" y1="119.0" x2="115.769230769231" y2="119.0"/>
    <line x1="115.769230769231" y1="119.0" x2="115.76923076923" y2="110.0"/>
    <line x1="115.76923076923" y1="110.0" x2="106.153846153846" y2="110.0"/>
    <line x1="116.714639756493" y1="161.457295607302" x2="25.6991900252583" y2="161.457295607302"/>
    <line x1="25.6991900252583" y1="161.457295607302" x2="25.6529546453696" y2="148.459237486203"/>
    <line x1="25.6529546453696" y1="148.459237486203" x2="116.65295464537" y2="148.459237486203"/>
    <line x1="116.65295464537" y1="148.459237486203" x2="116.714639756493" y2="161.457295607302"/>
    <line x1="37.0948291965844" y1="126.956746811168" x2="39.0393333802151" y2="125.46467627283"/>
    <line x1="39.0393333802151" y1="125.46467627283" x2="41.303756462469" y2="124.52672152121"/>
    <line x1="41.303756462469" y1="124.52672152121" x2="43.7337817524271" y2="124.206802622587"/>
    <line x1="43.7337817524271" y1="124.206802622587" x2="46.1638070423849" y2="124.52672152121"/>
    <line x1="46.1638070423849" y1="124.52672152121" x2="48.428230124639" y2="125.46467627283"/>
    <line x1="48.428230124639" y1="125.46467627283" x2="50.3727343082694" y2="126.956746811168"/>
    <line x1="50.3727343082694" y1="126.956746811168" x2="51.8648048466071" y2="128.901250994799"/>
    <line x1="51.8648048466071" y1="128.901250994799" x2="52.8027595982276" y2="131.165674077053"/>
    <line x1="52.8027595982276" y1="131.165674077053" x2="53.122678496851" y2="133.595699367011"/>
    <line x1="53.122678496851" y1="133.595699367011" x2="52.8027595982276" y2="136.025724656969"/>
    <line x1="52.8027595982276" y1="136.025724656969" x2="51.8648048466071" y2="138.290147739223"/>
    <line x1="51.8648048466071" y1="138.290147739223" x2="50.3727343082694" y2="140.234651922853"/>
    <line x1="50.3727343082694" y1="140.234651922853" x2="48.428230124639" y2="141.726722461191"/>
    <line x1="48.428230124639" y1="141.726722461191" x2="46.1638070423851" y2="142.664677212811"/>
    <line x1="46.1638070423851" y1="142.664677212811" x2="43.7337817524271" y2="142.984596111435"/>
    <line x1="43.7337817524271" y1="142.984596111435" x2="41.303756462469" y2="142.664677212811"/>
    <line x1="41.303756462469" y1="142.664677212811" x2="39.0393333802151" y2="141.726722461191"/>
    <line x1="39.0393333802151" y1="141.726722461191" x2="37.0948291965844" y2="140.234651922853"/>
    <line x1="37.0948291965844" y1="140.234651922853" x2="35.6027586582468" y2="138.290147739223"/>
    <line x1="35.6027586582468" y1="138.290147739223" x2="34.6648039066267" y2="136.025724656969"/>
    <line x1="34.6648039066267" y1="136.025724656969" x2="34.3448850080031" y2="133.595699367011"/>
    <line x1="34.3448850080031" y1="133.595699367011" x2="34.6648039066267" y2="131.165674077053"/>
    <line x1="34.6648039066267" y1="131.165674077053" x2="35.6027586582468" y2="128.901250994799"/>
    <line x1="35.6027586582468" y1="128.901250994799" x2="37.0948291965844" y2="126.956746811168"/>
    <line x1="110.521184816309" y1="135.882830841108" x2="109.571278749383" y2="138.176106950861"/>
    <line x1="109.571278749383" y1="138.176106950861" x2="108.060196413908" y2="140.145387790904"/>
    <line x1="108.060196413908" y1="140.145387790904" x2="106.090915573865" y2="141.656470126379"/>
    <line x1="106.090915573865" y1="141.656470126379" x2="103.797639464112" y2="142.606376193305"/>
    <line x1="103.797639464112" y1="142.606376193305" x2="101.336651061711" y2="142.930371463014"/>
    <line x1="101.336651061711" y1="142.930371463014" x2="98.8756626593104" y2="142.606376193305"/>
    <line x1="98.8756626593104" y1="142.606376193305" x2="96.5823865495579" y2="141.656470126379"/>
    <line x1="96.5823865495579" y1="141.656470126379" x2="94.6131057095147" y2="140.145387790904"/>
    <line x1="94.6131057095147" y1="140.145387790904" x2="93.1020233740398" y2="138.176106950861"/>
    <line x1="93.1020233740398" y1="138.176106950861" x2="92.1521173071142" y2="135.882830841108"/>
    <line x1="92.1521173071142" y1="135.882830841108" x2="91.8281220374045" y2="133.421842438708"/>
    <line x1="91.8281220374045" y1="133.421842438708" x2="92.1521173071142" y2="130.960854036307"/>
    <line x1="92.1521173071142" y1="130.960854036307" x2="93.1020233740396" y2="128.667577926554"/>
    <line x1="93.1020233740396" y1="128.667577926554" x2="94.6131057095147" y2="126.698297086511"/>
    <line x1="94.6131057095147" y1="126.698297086511" x2="96.5823865495579" y2="125.187214751036"/>
    <line x1="96.5823865495579" y1="125.187214751036" x2="98.8756626593104" y2="124.23730868411"/>
    <line x1="98.8756626593104" y1="124.23730868411" x2="101.336651061711" y2="123.913313414401"/>
    <line x1="101.336651061711" y1="123.913313414401" x2="103.797639464112" y2="124.23730868411"/>
    <line x1="103.797639464112" y1="124.23730868411" x2="106.090915573865" y2="125.187214751036"/>
    <line x1="106.090915573865" y1="125.187214751036" x2="108.060196413908" y2="126.698297086511"/>
    <line x1="108.060196413908" y1="126.698297086511" x2="109.571278749383" y2="128.667577926554"/>
    <line x1="109.571278749383" y1="128.667577926554" x2="110.521184816309" y2="130.960854036307"/>
    <line x1="110.521184816309" y1="130.960854036307" x2="110.845180086018" y2="133.421842438708"/>
    <line x1="110.845180086018" y1="133.421842438708" x2="110.521184816309" y2="135.882830841108"/>
    <line x1="103.888657804139" y1="168.146548540379" x2="106.171111648785" y2="169.116493282044"/>
    <line x1="106.171111648785" y1="169.116493282044" x2="108.124752592802" y2="170.644130482653"/>
    <line x1="108.124752592802" y1="170.644130482653" x2="109.616443234398" y2="172.625354191525"/>
    <line x1="109.616443234398" y1="172.625354191525" x2="110.544527321485" y2="174.925147287027"/>
    <line x1="110.544527321485" y1="174.925147287027" x2="110.84575745726" y2="177.386782670289"/>
    <line x1="110.84575745726" y1="177.386782670289" x2="110.499605305774" y2="179.842503957985"/>
    <line x1="110.499605305774" y1="179.842503957985" x2="109.52966056411" y2="182.124957802631"/>
    <line x1="109.52966056411" y1="182.124957802631" x2="108.0020233635" y2="184.078598746648"/>
    <line x1="108.0020233635" y1="184.078598746648" x2="106.020799654628" y2="185.570289388244"/>
    <line x1="106.020799654628" y1="185.570289388244" x2="103.721006559127" y2="186.498373475332"/>
    <line x1="103.721006559127" y1="186.498373475332" x2="101.259371175865" y2="186.799603611106"/>
    <line x1="101.259371175865" y1="186.799603611106" x2="98.8036498881688" y2="186.453451459621"/>
    <line x1="98.8036498881688" y1="186.453451459621" x2="96.5211960435227" y2="185.483506717956"/>
    <line x1="96.5211960435227" y1="185.483506717956" x2="94.5675550995059" y2="183.955869517347"/>
    <line x1="94.5675550995059" y1="183.955869517347" x2="93.0758644579091" y2="181.974645808475"/>
    <line x1="93.0758644579091" y1="181.974645808475" x2="92.1477803708221" y2="179.674852712973"/>
    <line x1="92.1477803708221" y1="179.674852712973" x2="91.8465502350477" y2="177.213217329711"/>
    <line x1="91.8465502350477" y1="177.213217329711" x2="92.192702386533" y2="174.757496042015"/>
    <line x1="92.192702386533" y1="174.757496042015" x2="93.1626471281977" y2="172.475042197369"/>
    <line x1="93.1626471281977" y1="172.475042197369" x2="94.6902843288069" y2="170.521401253352"/>
    <line x1="94.6902843288069" y1="170.521401253352" x2="96.6715080376789" y2="169.029710611756"/>
    <line x1="96.6715080376789" y1="169.029710611756" x2="98.971301133181" y2="168.101626524668"/>
    <line x1="98.971301133181" y1="168.101626524668" x2="101.432936516442" y2="167.800396388894"/>
    <line x1="101.432936516442" y1="167.800396388894" x2="103.888657804139" y2="168.146548540379"/>
    <line x1="52.5886860450405" y1="173.547519872236" x2="52.9111472659552" y2="174.750961532159"/>
    <line x1="52.9111472659552" y1="174.750961532159" x2="53.2336084868693" y2="175.954403192083"/>
    <line x1="53.2336084868693" y1="175.954403192083" x2="53.2336084868693" y2="177.200297677114"/>
    <line x1="53.2336084868693" y1="177.200297677114" x2="53.2336084868693" y2="178.446192162146"/>
    <line x1="53.2336084868693" y1="178.446192162146" x2="52.9111472659552" y2="179.649633822069"/>
    <line x1="52.9111472659552" y1="179.649633822069" x2="52.5886860450405" y2="180.853075481992"/>
    <line x1="52.5886860450405" y1="180.853075481992" x2="51.9657388025248" y2="181.932051756465"/>
    <line x1="51.9657388025248" y1="181.932051756465" x2="51.3427915600089" y2="183.011028030937"/>
    <line x1="51.3427915600089" y1="183.011028030937" x2="50.461811121" y2="183.892008469946"/>
    <line x1="50.461811121" y1="183.892008469946" x2="49.5808306819913" y2="184.772988908955"/>
    <line x1="49.5808306819913" y1="184.772988908955" x2="48.501854407519" y2="185.395936151471"/>
    <line x1="48.501854407519" y1="185.395936151471" x2="47.4228781330467" y2="186.018883393987"/>
    <line x1="47.4228781330467" y1="186.018883393987" x2="46.2194364731233" y2="186.341344614901"/>
    <line x1="46.2194364731233" y1="186.341344614901" x2="45.0159948132002" y2="186.663805835815"/>
    <line x1="45.0159948132002" y1="186.663805835815" x2="43.7701003281684" y2="186.663805835815"/>
    <line x1="43.7701003281684" y1="186.663805835815" x2="42.5242058431365" y2="186.663805835815"/>
    <line x1="42.5242058431365" y1="186.663805835815" x2="41.3207641832132" y2="186.341344614901"/>
    <line x1="41.3207641832132" y1="186.341344614901" x2="40.1173225232901" y2="186.018883393987"/>
    <line x1="40.1173225232901" y1="186.018883393987" x2="39.0383462488178" y2="185.395936151471"/>
    <line x1="39.0383462488178" y1="185.395936151471" x2="37.9593699743455" y2="184.772988908955"/>
    <line x1="37.9593699743455" y1="184.772988908955" x2="37.0783895353366" y2="183.892008469946"/>
    <line x1="37.0783895353366" y1="183.892008469946" x2="36.1974090963276" y2="183.011028030937"/>
    <line x1="36.1974090963276" y1="183.011028030937" x2="35.574461853812" y2="181.932051756465"/>
    <line x1="35.574461853812" y1="181.932051756465" x2="34.951514611296" y2="180.853075481993"/>
    <line x1="34.951514611296" y1="180.853075481993" x2="34.6290533903816" y2="179.649633822069"/>
    <line x1="34.6290533903816" y1="179.649633822069" x2="34.3065921694672" y2="178.446192162146"/>
    <line x1="34.3065921694672" y1="178.446192162146" x2="34.3065921694672" y2="177.200297677114"/>
    <line x1="34.3065921694672" y1="177.200297677114" x2="34.3065921694672" y2="175.954403192083"/>
    <line x1="34.3065921694672" y1="175.954403192083" x2="34.6290533903816" y2="174.750961532159"/>
    <line x1="34.6290533903816" y1="174.750961532159" x2="34.951514611296" y2="173.547519872236"/>
    <line x1="34.951514611296" y1="173.547519872236" x2="35.574461853812" y2="172.468543597764"/>
    <line x1="35.574461853812" y1="172.468543597764" x2="36.1974090963276" y2="171.389567323291"/>
    <line x1="36.1974090963276" y1="171.389567323291" x2="37.0783895353366" y2="170.508586884283"/>
    <line x1="37.0783895353366" y1="170.508586884283" x2="37.9593699743455" y2="169.627606445274"/>
    <line x1="37.9593699743455" y1="169.627606445274" x2="39.0383462488178" y2="169.004659202758"/>
    <line x1="39.0383462488178" y1="169.004659202758" x2="40.1173225232901" y2="168.381711960242"/>
    <line x1="40.1173225232901" y1="168.381711960242" x2="41.3207641832134" y2="168.059250739328"/>
    <line x1="41.3207641832134" y1="168.059250739328" x2="42.5242058431365" y2="167.736789518413"/>
    <line x1="42.5242058431365" y1="167.736789518413" x2="43.7701003281684" y2="167.736789518413"/>
    <line x1="43.7701003281684" y1="167.736789518413" x2="45.0159948132" y2="167.736789518413"/>
    <line x1="45.0159948132" y1="167.736789518413" x2="46.2194364731233" y2="168.059250739328"/>
    <line x1="46.2194364731233" y1="168.059250739328" x2="47.4228781330464" y2="168.381711960242"/>
    <line x1="47.4228781330464" y1="168.381711960242" x2="48.501854407519" y2="169.004659202758"/>
    <line x1="48.501854407519" y1="169.004659202758" x2="49.5808306819911" y2="169.627606445274"/>
    <line x1="49.5808306819911" y1="169.627606445274" x2="50.461811121" y2="170.508586884283"/>
    <line x1="50.461811121" y1="170.508586884283" x2="51.3427915600089" y2="171.389567323291"/>
    <line x1="51.3427915600089" y1="171.389567323291" x2="51.9657388025248" y2="172.468543597764"/>
    <line x1="51.9657388025248" y1="172.468543597764" x2="52.5886860450405" y2="173.547519872236"/>
  </g>
  <g id="face2" fill="none" stroke="rgb(0,0,255)" stroke-width="1" stroke-miterlimit="4" stroke-dasharray="none" stroke-linejoin="round" stroke-linecap="round">
    <line x1="19.0" y1="304.999999999999" x2="19.0" y2="295.999999999999"/>
    <line x1="19.0" y1="295.999999999999" x2="28.0000000000002" y2="295.999999999999"/>
    <line x1="28.0000000000002" y1="295.999999999999" x2="28.0000000000002" y2="304.999999999999"/>
    <line x1="28.0000000000002" y1="304.999999999999" x2="37.0" y2="304.999999999999"/>
    <line x1="37.0" y1="304.999999999999" x2="37.0" y2="295.999999999999"/>
    <line x1="37.0" y1="295.999999999999" x2="46.0" y2="295.999999999999"/>
    <line x1="46.0" y1="295.999999999999" x2="46.0" y2="304.999999999999"/>
    <line x1="46.0" y1="304.999999999999" x2="55.0000000000002" y2="304.999999999999"/>
    <line x1="55.0000000000002" y1="304.999999999999" x2="55.0000000000002" y2="295.999999999999"/>
    <line x1="55.0000000000002" y1="295.999999999999" x2="64.0" y2="295.999999999999"/>
    <line x1="64.0" y1="295.999999999999" x2="64.0" y2="304.999999999999"/>
    <line x1="64.0" y1="304.999999999999" x2="73.0" y2="304.999999999999"/>
    <line x1="73.0" y1="304.999999999999" x2="73.0" y2="295.999999999999"/>
    <line x1="73.0" y1="295.999999999999" x2="82.0" y2="295.999999999999"/>
    <line x1="82.0" y1="295.999999999999" x2="82.0" y2="304.999999999999"/>
    <line x1="82.0" y1="304.999999999999" x2="91.0" y2="304.999999999999"/>
    <line x1="91.0" y1="304.999999999999" x2="91.0" y2="295.999999999999"/>
    <line x1="91.0" y1="295.999999999999" x2="100.0" y2="295.999999999999"/>
    <line x1="100.0" y1="295.999999999999" x2="100.0" y2="304.999999999999"/>
    <line x1="100.0" y1="304.999999999999" x2="188.0" y2="304.999999999999"/>
    <line x1="188.0" y1="304.999999999999" x2="188.0" y2="210.0"/>
    <line x1="188.0" y1="210.0" x2="100.0" y2="210.0"/>
    <line x1="100.0" y1="210.0" x2="100.0" y2="219.0"/>
    <line x1="100.0" y1="219.0" x2="91.0" y2="219.0"/>
    <line x1="91.0" y1="219.0" x2="91.0" y2="210.0"/>
    <line x1="91.0" y1="210.0" x2="82.0" y2="210.0"/>
    <line x1="82.0" y1="210.0" x2="82.0" y2="219.0"/>
    <line x1="82.0" y1="219.0" x2="73.0" y2="219.0"/>
    <line x1="73.0" y1="219.0" x2="73.0" y2="210.0"/>
    <line x1="73.0" y1="210.0" x2="64.0" y2="210.0"/>
    <line x1="64.0" y1="210.0" x2="64.0" y2="219.0"/>
    <line x1="64.0" y1="219.0" x2="55.0000000000002" y2="219.0"/>
    <line x1="55.0000000000002" y1="219.0" x2="55.0000000000002" y2="210.0"/>
    <line x1="55.0000000000002" y1="210.0" x2="46.0" y2="210.0"/>
    <line x1="46.0" y1="210.0" x2="46.0" y2="219.0"/>
    <line x1="46.0" y1="219.0" x2="37.0" y2="219.0"/>
    <line x1="37.0" y1="219.0" x2="37.0" y2="210.0"/>
    <line x1="37.0" y1="210.0" x2="28.0000000000002" y2="210.0"/>
    <line x1="28.0000000000002" y1="210.0" x2="28.0000000000002" y2="219.0"/>
    <line x1="28.0000000000002" y1="219.0" x2="19.0" y2="219.0"/>
    <line x1="19.0" y1="219.0" x2="19.0" y2="210.0"/>
    <line x1="19.0" y1="210.0" x2="10.0" y2="210.0"/>
    <line x1="10.0" y1="210.0" x2="10.0" y2="304.999999999999"/>
    <line x1="10.0" y1="304.999999999999" x2="19.0" y2="304.999999999999"/>
    <line x1="114.227561321436" y1="238.705255988294" x2="113.811124768771" y2="238.669769730965"/>
    <line x1="113.811124768771" y1="238.669769730965" x2="112.93729273431" y2="238.595306938883"/>
    <line x1="112.93729273431" y1="238.595306938883" x2="111.719445891135" y2="238.155158228835"/>
    <line x1="111.719445891135" y1="238.155158228835" x2="110.657015041685" y2="237.414805265361"/>
    <line x1="110.657015041685" y1="237.414805265361" x2="109.8224030926" y2="236.424701879429"/>
    <line x1="109.8224030926" y1="236.424701879429" x2="109.272487468949" y2="235.252321980568"/>
    <line x1="109.272487468949" y1="235.252321980568" x2="109.044744011706" y2="233.977561321435"/>
    <line x1="109.044744011706" y1="233.977561321435" x2="109.065941882922" y2="233.728801123047"/>
    <line x1="109.065941882922" y1="233.728801123047" x2="109.154693061117" y2="232.68729273431"/>
    <line x1="109.154693061117" y1="232.68729273431" x2="109.594841771165" y2="231.469445891134"/>
    <line x1="109.594841771165" y1="231.469445891134" x2="110.335194734639" y2="230.407015041684"/>
    <line x1="110.335194734639" y1="230.407015041684" x2="111.325298120571" y2="229.5724030926"/>
    <line x1="111.325298120571" y1="229.5724030926" x2="112.497678019432" y2="229.022487468949"/>
    <line x1="112.497678019432" y1="229.022487468949" x2="113.772438678564" y2="228.794744011706"/>
    <line x1="113.772438678564" y1="228.794744011706" x2="113.811124768771" y2="228.787832515129"/>
    <line x1="113.811124768771" y1="228.787832515129" x2="114.034521913431" y2="228.817077193206"/>
    <line x1="114.034521913431" y1="228.817077193206" x2="115.06270726569" y2="228.904693061117"/>
    <line x1="115.06270726569" y1="228.904693061117" x2="116.280554108865" y2="229.344841771164"/>
    <line x1="116.280554108865" y1="229.344841771164" x2="117.342984958315" y2="230.085194734639"/>
    <line x1="117.342984958315" y1="230.085194734639" x2="118.1775969074" y2="231.075298120571"/>
    <line x1="118.1775969074" y1="231.075298120571" x2="118.727512531051" y2="232.247678019432"/>
    <line x1="118.727512531051" y1="232.247678019432" x2="118.955255988294" y2="233.522438678564"/>
    <line x1="118.955255988294" y1="233.522438678564" x2="118.845306938883" y2="234.81270726569"/>
    <line x1="118.845306938883" y1="234.81270726569" x2="118.405158228835" y2="236.030554108865"/>
    <line x1="118.405158228835" y1="236.030554108865" x2="117.664805265361" y2="237.092984958315"/>
    <line x1="117.664805265361" y1="237.092984958315" x2="116.674701879429" y2="237.9275969074"/>
    <line x1="116.674701879429" y1="237.9275969074" x2="115.502321980568" y2="238.47751253105"/>
    <line x1="115.502321980568" y1="238.47751253105" x2="114.227561321436" y2="238.705255988294"/>
    <line x1="113.888191852807" y1="286.242666037168" x2="113.811124768771" y2="286.251576478843"/>
    <line x1="113.811124768771" y1="286.251576478843" x2="112.632687735317" y2="286.048465560253"/>
    <line x1="112.632687735317" y1="286.048465560253" x2="111.437343496679" y2="285.531075356505"/>
    <line x1="111.437343496679" y1="285.531075356505" x2="110.416640063752" y2="284.721936942022"/>
    <line x1="110.416640063752" y1="284.721936942022" x2="109.640136688698" y2="283.676191762588"/>
    <line x1="109.640136688698" y1="283.676191762588" x2="109.160750793294" y2="282.465105624004"/>
    <line x1="109.160750793294" y1="282.465105624004" x2="109.01115173409" y2="281.171212045202"/>
    <line x1="109.01115173409" y1="281.171212045202" x2="109.201534439746" y2="279.882687735316"/>
    <line x1="109.201534439746" y1="279.882687735316" x2="109.718924643494" y2="278.687343496678"/>
    <line x1="109.718924643494" y1="278.687343496678" x2="110.528063057977" y2="277.666640063751"/>
    <line x1="110.528063057977" y1="277.666640063751" x2="111.573808237411" y2="276.890136688697"/>
    <line x1="111.573808237411" y1="276.890136688697" x2="112.784894375995" y2="276.410750793293"/>
    <line x1="112.784894375995" y1="276.410750793293" x2="113.734057684734" y2="276.301009203764"/>
    <line x1="113.734057684734" y1="276.301009203764" x2="113.732646821715" y2="276.210008511606"/>
    <line x1="113.732646821715" y1="276.210008511606" x2="113.811124768771" y2="276.221603825548"/>
    <line x1="113.811124768771" y1="276.221603825548" x2="114.078787954797" y2="276.261151734089"/>
    <line x1="114.078787954797" y1="276.261151734089" x2="115.367312264683" y2="276.451534439745"/>
    <line x1="115.367312264683" y1="276.451534439745" x2="116.562656503321" y2="276.968924643493"/>
    <line x1="116.562656503321" y1="276.968924643493" x2="117.583359936248" y2="277.778063057976"/>
    <line x1="117.583359936248" y1="277.778063057976" x2="118.359863311302" y2="278.82380823741"/>
    <line x1="118.359863311302" y1="278.82380823741" x2="118.839249206706" y2="280.034894375994"/>
    <line x1="118.839249206706" y1="280.034894375994" x2="118.982263708589" y2="281.271837620466"/>
    <line x1="118.982263708589" y1="281.271837620466" x2="118.98884826591" y2="281.328787954796"/>
    <line x1="118.98884826591" y1="281.328787954796" x2="118.798465560254" y2="282.617312264682"/>
    <line x1="118.798465560254" y1="282.617312264682" x2="118.281075356506" y2="283.81265650332"/>
    <line x1="118.281075356506" y1="283.81265650332" x2="117.471936942023" y2="284.833359936247"/>
    <line x1="117.471936942023" y1="284.833359936247" x2="116.426191762588" y2="285.609863311302"/>
    <line x1="116.426191762588" y1="285.609863311302" x2="115.215105624006" y2="286.089249206705"/>
    <line x1="115.215105624006" y1="286.089249206705" x2="113.921212045203" y2="286.238848265909"/>
    <line x1="113.921212045203" y1="286.238848265909" x2="113.888191852807" y2="286.242666037168"/>
    <line x1="113.811124768771" y1="220.478801123047" x2="113.099372394739" y2="220.385097145342"/>
    <line x1="113.099372394739" y1="220.385097145342" x2="112.436124768771" y2="220.110370983455"/>
    <line x1="112.436124768771" y1="220.110370983455" x2="111.866581120508" y2="219.673344771311"/>
    <line x1="111.866581120508" y1="219.673344771311" x2="111.429554908364" y2="219.103801123048"/>
    <line x1="111.429554908364" y1="219.103801123048" x2="111.154828746476" y2="218.44055349708"/>
    <line x1="111.154828746476" y1="218.44055349708" x2="111.061124768771" y2="217.728801123047"/>
    <line x1="111.061124768771" y1="217.728801123047" x2="111.154828746476" y2="217.017048749015"/>
    <line x1="111.154828746476" y1="217.017048749015" x2="111.429554908364" y2="216.353801123047"/>
    <line x1="111.429554908364" y1="216.353801123047" x2="111.866581120508" y2="215.784257474784"/>
    <line x1="111.866581120508" y1="215.784257474784" x2="112.436124768771" y2="215.34723126264"/>
    <line x1="112.436124768771" y1="215.34723126264" x2="113.099372394739" y2="215.072505100753"/>
    <line x1="113.099372394739" y1="215.072505100753" x2="113.811124768771" y2="214.978801123048"/>
    <line x1="113.811124768771" y1="214.978801123048" x2="114.522877142803" y2="215.072505100753"/>
    <line x1="114.522877142803" y1="215.072505100753" x2="115.186124768771" y2="215.34723126264"/>
    <line x1="115.186124768771" y1="215.34723126264" x2="115.755668417034" y2="215.784257474784"/>
    <line x1="115.755668417034" y1="215.784257474784" x2="116.192694629178" y2="216.353801123047"/>
    <line x1="116.192694629178" y1="216.353801123047" x2="116.467420791066" y2="217.017048749015"/>
    <line x1="116.467420791066" y1="217.017048749015" x2="116.561124768771" y2="217.728801123048"/>
    <line x1="116.561124768771" y1="217.728801123048" x2="116.467420791066" y2="218.44055349708"/>
    <line x1="116.467420791066" y1="218.44055349708" x2="116.192694629178" y2="219.103801123048"/>
    <line x1="116.192694629178" y1="219.103801123048" x2="115.755668417034" y2="219.673344771311"/>
    <line x1="115.755668417034" y1="219.673344771311" x2="115.186124768771" y2="220.110370983455"/>
    <line x1="115.186124768771" y1="220.110370983455" x2="114.522877142803" y2="220.385097145342"/>
    <line x1="114.522877142803" y1="220.385097145342" x2="113.811124768771" y2="220.478801123047"/>
    <line x1="113.099372394739" y1="247.072505100753" x2="113.811124768771" y2="246.978801123048"/>
    <line x1="113.811124768771" y1="246.978801123048" x2="114.522877142803" y2="247.072505100752"/>
    <line x1="114.522877142803" y1="247.072505100752" x2="115.186124768771" y2="247.34723126264"/>
    <line x1="115.186124768771" y1="247.34723126264" x2="115.755668417034" y2="247.784257474784"/>
    <line x1="115.755668417034" y1="247.784257474784" x2="116.192694629178" y2="248.353801123047"/>
    <line x1="116.192694629178" y1="248.353801123047" x2="116.467420791066" y2="249.017048749015"/>
    <line x1="116.467420791066" y1="249.017048749015" x2="116.561124768771" y2="249.728801123047"/>
    <line x1="116.561124768771" y1="249.728801123047" x2="116.467420791066" y2="250.440553497079"/>
    <line x1="116.467420791066" y1="250.440553497079" x2="116.192694629178" y2="251.103801123048"/>
    <line x1="116.192694629178" y1="251.103801123048" x2="115.755668417034" y2="251.67334477131"/>
    <line x1="115.755668417034" y1="251.67334477131" x2="115.186124768771" y2="252.110370983455"/>
    <line x1="115.186124768771" y1="252.110370983455" x2="114.522877142803" y2="252.385097145342"/>
    <line x1="114.522877142803" y1="252.385097145342" x2="113.811124768771" y2="252.478801123047"/>
    <line x1="113.811124768771" y1="252.478801123047" x2="113.099372394739" y2="252.385097145342"/>
    <line x1="113.099372394739" y1="252.385097145342" x2="112.436124768771" y2="252.110370983455"/>
    <line x1="112.436124768771" y1="252.110370983455" x2="111.866581120508" y2="251.67334477131"/>
    <line x1="111.866581120508" y1="251.67334477131" x2="111.429554908364" y2="251.103801123047"/>
    <line x1="111.429554908364" y1="251.103801123047" x2="111.154828746476" y2="250.440553497079"/>
    <line x1="111.154828746476" y1="250.440553497079" x2="111.061124768771" y2="249.728801123047"/>
    <line x1="111.061124768771" y1="249.728801123047" x2="111.154828746476" y2="249.017048749015"/>
    <line x1="111.154828746476" y1="249.017048749015" x2="111.429554908364" y2="248.353801123047"/>
    <line x1="111.429554908364" y1="248.353801123047" x2="111.866581120508" y2="247.784257474784"/>
    <line x1="111.866581120508" y1="247.784257474784" x2="112.436124768771" y2="247.34723126264"/>
    <line x1="112.436124768771" y1="247.34723126264" x2="113.099372394739" y2="247.072505100753"/>
    <line x1="114.522877142803" y1="267.928133642761" x2="113.811124768771" y2="268.021837620466"/>
    <line x1="113.811124768771" y1="268.021837620466" x2="113.099372394739" y2="267.928133642761"/>
    <line x1="113.099372394739" y1="267.928133642761" x2="112.436124768771" y2="267.653407480873"/>
    <line x1="112.436124768771" y1="267.653407480873" x2="111.866581120508" y2="267.216381268729"/>
    <line x1="111.866581120508" y1="267.216381268729" x2="111.429554908364" y2="266.646837620466"/>
    <line x1="111.429554908364" y1="266.646837620466" x2="111.154828746476" y2="265.983589994498"/>
    <line x1="111.154828746476" y1="265.983589994498" x2="111.061124768771" y2="265.271837620466"/>
    <line x1="111.061124768771" y1="265.271837620466" x2="111.154828746476" y2="264.560085246434"/>
    <line x1="111.154828746476" y1="264.560085246434" x2="111.429554908364" y2="263.896837620466"/>
    <line x1="111.429554908364" y1="263.896837620466" x2="111.866581120508" y2="263.327293972203"/>
    <line x1="111.866581120508" y1="263.327293972203" x2="112.436124768771" y2="262.890267760059"/>
    <line x1="112.436124768771" y1="262.890267760059" x2="113.099372394739" y2="262.615541598171"/>
    <line x1="113.099372394739" y1="262.615541598171" x2="113.811124768771" y2="262.521837620466"/>
    <line x1="113.811124768771" y1="262.521837620466" x2="114.522877142803" y2="262.615541598171"/>
    <line x1="114.522877142803" y1="262.615541598171" x2="115.186124768771" y2="262.890267760059"/>
    <line x1="115.186124768771" y1="262.890267760059" x2="115.755668417034" y2="263.327293972203"/>
    <line x1="115.755668417034" y1="263.327293972203" x2="116.192694629178" y2="263.896837620466"/>
    <line x1="116.192694629178" y1="263.896837620466" x2="116.467420791066" y2="264.560085246434"/>
    <line x1="116.467420791066" y1="264.560085246434" x2="116.561124768771" y2="265.271837620466"/>
    <line x1="116.561124768771" y1="265.271837620466" x2="116.467420791066" y2="265.983589994498"/>
    <line x1="116.467420791066" y1="265.983589994498" x2="116.192694629178" y2="266.646837620466"/>
    <line x1="116.192694629178" y1="266.646837620466" x2="115.755668417034" y2="267.216381268729"/>
    <line x1="115.755668417034" y1="267.216381268729" x2="115.186124768771" y2="267.653407480873"/>
    <line x1="115.186124768771" y1="267.653407480873" x2="114.522877142803" y2="267.928133642761"/>
    <line x1="113.099372394739" y1="294.587952921615" x2="113.811124768771" y2="294.49424894391"/>
    <line x1="113.811124768771" y1="294.49424894391" x2="114.522877142803" y2="294.587952921615"/>
    <line x1="114.522877142803" y1="294.587952921615" x2="115.186124768771" y2="294.862679083503"/>
    <line x1="115.186124768771" y1="294.862679083503" x2="115.755668417034" y2="295.299705295647"/>
    <line x1="115.755668417034" y1="295.299705295647" x2="116.192694629178" y2="295.86924894391"/>
    <line x1="116.192694629178" y1="295.86924894391" x2="116.467420791066" y2="296.532496569878"/>
    <line x1="116.467420791066" y1="296.532496569878" x2="116.561124768771" y2="297.24424894391"/>
    <line x1="116.561124768771" y1="297.24424894391" x2="116.467420791066" y2="297.956001317942"/>
    <line x1="116.467420791066" y1="297.956001317942" x2="116.192694629178" y2="298.61924894391"/>
    <line x1="116.192694629178" y1="298.61924894391" x2="115.755668417034" y2="299.188792592173"/>
    <line x1="115.755668417034" y1="299.188792592173" x2="115.186124768771" y2="299.625818804317"/>
    <line x1="115.186124768771" y1="299.625818804317" x2="114.522877142803" y2="299.900544966205"/>
    <line x1="114.522877142803" y1="299.900544966205" x2="113.811124768771" y2="299.99424894391"/>
    <line x1="113.811124768771" y1="299.99424894391" x2="113.099372394739" y2="299.900544966205"/>
    <line x1="113.099372394739" y1="299.900544966205" x2="112.436124768771" y2="299.625818804317"/>
    <line x1="112.436124768771" y1="299.625818804317" x2="111.866581120508" y2="299.188792592173"/>
    <line x1="111.866581120508" y1="299.188792592173" x2="111.429554908364" y2="298.61924894391"/>
    <line x1="111.429554908364" y1="298.61924894391" x2="111.154828746476" y2="297.956001317942"/>
    <line x1="111.154828746476" y1="297.956001317942" x2="111.061124768771" y2="297.24424894391"/>
    <line x1="111.061124768771" y1="297.24424894391" x2="111.154828746476" y2="296.532496569878"/>
    <line x1="111.154828746476" y1="296.532496569878" x2="111.429554908364" y2="295.86924894391"/>
    <line x1="111.429554908364" y1="295.86924894391" x2="111.866581120508" y2="295.299705295647"/>
    <line x1="111.866581120508" y1="295.299705295647" x2="112.436124768771" y2="294.862679083503"/>
    <line x1="112.436124768771" y1="294.862679083503" x2="113.099372394739" y2="294.587952921615"/>
  </g>
  <g id="face3" fill="none" stroke="rgb(0,0,255)" stroke-width="1" stroke-miterlimit="4" stroke-dasharray="none" stroke-linejoin="round" stroke-linecap="round">
    <line x1="125.384615384615" y1="409.999999999998" x2="125.384615384615" y2="400.999999999998"/>
    <line x1="125.384615384615" y1="400.999999999998" x2="135.0" y2="400.999999999998"/>
    <line x1="135.0" y1="400.999999999998" x2="135.0" y2="323.999999999999"/>
    <line x1="135.0" y1="323.999999999999" x2="125.384615384615" y2="323.999999999999"/>
    <line x1="125.384615384615" y1="323.999999999999" x2="125.384615384615" y2="314.999999999999"/>
    <line x1="125.384615384615" y1="314.999999999999" x2="115.769230769231" y2="314.999999999999"/>
    <line x1="115.769230769231" y1="314.999999999999" x2="115.769230769231" y2="323.999999999999"/>
    <line x1="115.769230769231" y1="323.999999999999" x2="106.153846153846" y2="323.999999999999"/>
    <line x1="106.153846153846" y1="323.999999999999" x2="106.153846153846" y2="314.999999999999"/>
    <line x1="106.153846153846" y1="314.999999999999" x2="96.5384615384614" y2="314.999999999999"/>
    <line x1="96.5384615384614" y1="314.999999999999" x2="96.5384615384617" y2="323.999999999999"/>
    <line x1="96.5384615384617" y1="323.999999999999" x2="86.9230769230771" y2="323.999999999999"/>
    <line x1="86.9230769230771" y1="323.999999999999" x2="86.9230769230771" y2="314.999999999999"/>
    <line x1="86.9230769230771" y1="314.999999999999" x2="77.3076923076924" y2="314.999999999999"/>
    <line x1="77.3076923076924" y1="314.999999999999" x2="77.3076923076924" y2="323.999999999999"/>
    <line x1="77.3076923076924" y1="323.999999999999" x2="67.6923076923078" y2="323.999999999999"/>
    <line x1="67.6923076923078" y1="323.999999999999" x2="67.6923076923078" y2="314.999999999999"/>
    <line x1="67.6923076923078" y1="314.999999999999" x2="58.0769230769231" y2="314.999999999999"/>
    <line x1="58.0769230769231" y1="314.999999999999" x2="58.0769230769231" y2="323.999999999999"/>
    <line x1="58.0769230769231" y1="323.999999999999" x2="48.4615384615386" y2="323.999999999999"/>
    <line x1="48.4615384615386" y1="323.999999999999" x2="48.4615384615386" y2="314.999999999999"/>
    <line x1="48.4615384615386" y1="314.999999999999" x2="38.846153846154" y2="314.999999999999"/>
    <line x1="38.846153846154" y1="314.999999999999" x2="38.846153846154" y2="323.999999999999"/>
    <line x1="38.846153846154" y1="323.999999999999" x2="29.2307692307693" y2="323.999999999999"/>
    <line x1="29.2307692307693" y1="323.999999999999" x2="29.2307692307693" y2="314.999999999999"/>
    <line x1="29.2307692307693" y1="314.999999999999" x2="19.6153846153848" y2="314.999999999999"/>
    <line x1="19.6153846153848" y1="314.999999999999" x2="19.6153846153848" y2="323.999999999999"/>
    <line x1="19.6153846153848" y1="323.999999999999" x2="10.0" y2="323.999999999999"/>
    <line x1="10.0" y1="323.999999999999" x2="10.0" y2="400.999999999998"/>
    <line x1="10.0" y1="400.999999999998" x2="19.6153846153848" y2="400.999999999998"/>
    <line x1="19.6153846153848" y1="400.999999999998" x2="19.6153846153848" y2="409.999999999998"/>
    <line x1="19.6153846153848" y1="409.999999999998" x2="29.2307692307693" y2="409.999999999998"/>
    <line x1="29.2307692307693" y1="409.999999999998" x2="29.2307692307693" y2="400.999999999998"/>
    <line x1="29.2307692307693" y1="400.999999999998" x2="38.846153846154" y2="400.999999999998"/>
    <line x1="38.846153846154" y1="400.999999999998" x2="38.846153846154" y2="409.999999999998"/>
    <line x1="38.846153846154" y1="409.999999999998" x2="48.4615384615386" y2="409.999999999998"/>
    <line x1="48.4615384615386" y1="409.999999999998" x2="48.4615384615386" y2="400.999999999998"/>
    <line x1="48.4615384615386" y1="400.999999999998" x2="58.0769230769231" y2="400.999999999998"/>
    <line x1="58.0769230769231" y1="400.999999999998" x2="58.0769230769231" y2="409.999999999998"/>
    <line x1="58.0769230769231" y1="409.999999999998" x2="67.6923076923078" y2="409.999999999998"/>
    <line x1="67.6923076923078" y1="409.999999999998" x2="67.6923076923078" y2="400.999999999998"/>
    <line x1="67.6923076923078" y1="400.999999999998" x2="77.3076923076924" y2="400.999999999998"/>
    <line x1="77.3076923076924" y1="400.999999999998" x2="77.3076923076924" y2="409.999999999998"/>
    <line x1="77.3076923076924" y1="409.999999999998" x2="86.9230769230769" y2="409.999999999998"/>
    <line x1="86.9230769230769" y1="409.999999999998" x2="86.9230769230769" y2="400.999999999998"/>
    <line x1="86.9230769230769" y1="400.999999999998" x2="96.5384615384617" y2="400.999999999998"/>
    <line x1="96.5384615384617" y1="400.999999999998" x2="96.5384615384617" y2="409.999999999998"/>
    <line x1="96.5384615384617" y1="409.999999999998" x2="106.153846153846" y2="409.999999999998"/>
    <line x1="106.153846153846" y1="409.999999999998" x2="106.153846153846" y2="400.999999999998"/>
    <line x1="106.153846153846" y1="400.999999999998" x2="115.769230769231" y2="400.999999999998"/>
    <line x1="115.769230769231" y1="400.999999999998" x2="115.769230769231" y2="409.999999999998"/>
    <line x1="115.769230769231" y1="409.999999999998" x2="125.384615384615" y2="409.999999999998"/>
  </g>
  <g id="face4" fill="none" stroke="rgb(0,0,255)" stroke-width="1" stroke-miterlimit="4" stroke-dasharray="none" stroke-linejoin="round" stroke-linecap="round">
    <line x1="47.7153846153847" y1="428.999999999998" x2="38.1000000000001" y2="428.999999999998"/>
    <line x1="38.1000000000001" y1="428.999999999998" x2="38.1000000000001" y2="419.999999999998"/>
    <line x1="38.1000000000001" y1="419.999999999998" x2="10.0" y2="419.999999999998"/>
    <line x1="10.0" y1="419.999999999998" x2="10.0" y2="514.999999999997"/>
    <line x1="10.0" y1="514.999999999997" x2="38.1000000000001" y2="514.999999999997"/>
    <line x1="38.1000000000001" y1="514.999999999997" x2="38.1000000000001" y2="505.999999999997"/>
    <line x1="38.1000000000001" y1="505.999999999997" x2="47.7153846153847" y2="505.999999999997"/>
    <line x1="47.7153846153847" y1="505.999999999997" x2="47.7153846153847" y2="514.999999999997"/>
    <line x1="47.7153846153847" y1="514.999999999997" x2="57.3307692307694" y2="514.999999999997"/>
    <line x1="57.3307692307694" y1="514.999999999997" x2="57.3307692307694" y2="505.999999999997"/>
    <line x1="57.3307692307694" y1="505.999999999997" x2="66.9461538461539" y2="505.999999999997"/>
    <line x1="66.9461538461539" y1="505.999999999997" x2="66.9461538461539" y2="514.999999999997"/>
    <line x1="66.9461538461539" y1="514.999999999997" x2="76.5615384615385" y2="514.999999999997"/>
    <line x1="76.5615384615385" y1="514.999999999997" x2="76.5615384615385" y2="505.999999999997"/>
    <line x1="76.5615384615385" y1="505.999999999997" x2="86.1769230769232" y2="505.999999999997"/>
    <line x1="86.1769230769232" y1="505.999999999997" x2="86.1769230769232" y2="514.999999999997"/>
    <line x1="86.1769230769232" y1="514.999999999997" x2="95.7923076923078" y2="514.999999999997"/>
    <line x1="95.7923076923078" y1="514.999999999997" x2="95.7923076923078" y2="505.999999999997"/>
    <line x1="95.7923076923078" y1="505.999999999997" x2="105.407692307693" y2="505.999999999997"/>
    <line x1="105.407692307693" y1="505.999999999997" x2="105.407692307692" y2="514.999999999997"/>
    <line x1="105.407692307692" y1="514.999999999997" x2="115.023076923077" y2="514.999999999997"/>
    <line x1="115.023076923077" y1="514.999999999997" x2="115.023076923077" y2="505.999999999997"/>
    <line x1="115.023076923077" y1="505.999999999997" x2="124.638461538462" y2="505.999999999997"/>
    <line x1="124.638461538462" y1="505.999999999997" x2="124.638461538462" y2="514.999999999997"/>
    <line x1="124.638461538462" y1="514.999999999997" x2="134.253846153846" y2="514.999999999997"/>
    <line x1="134.253846153846" y1="514.999999999997" x2="134.253846153846" y2="505.999999999997"/>
    <line x1="134.253846153846" y1="505.999999999997" x2="143.869230769231" y2="505.999999999997"/>
    <line x1="143.869230769231" y1="505.999999999997" x2="143.869230769231" y2="514.999999999997"/>
    <line x1="143.869230769231" y1="514.999999999997" x2="152.869230769231" y2="514.999999999997"/>
    <line x1="152.869230769231" y1="514.999999999997" x2="152.869230769231" y2="505.999999999997"/>
    <line x1="152.869230769231" y1="505.999999999997" x2="163.1" y2="505.999999999997"/>
    <line x1="163.1" y1="505.999999999997" x2="163.1" y2="428.999999999998"/>
    <line x1="163.1" y1="428.999999999998" x2="162.484615384615" y2="428.999999999998"/>
    <line x1="162.484615384615" y1="428.999999999998" x2="153.484615384615" y2="428.999999999998"/>
    <line x1="153.484615384615" y1="428.999999999998" x2="153.484615384615" y2="419.999999999998"/>
    <line x1="153.484615384615" y1="419.999999999998" x2="143.869230769231" y2="419.999999999998"/>
    <line x1="143.869230769231" y1="419.999999999998" x2="143.869230769231" y2="428.999999999998"/>
    <line x1="143.869230769231" y1="428.999999999998" x2="134.253846153846" y2="428.999999999998"/>
    <line x1="134.253846153846" y1="428.999999999998" x2="134.253846153846" y2="419.999999999998"/>
    <line x1="134.253846153846" y1="419.999999999998" x2="124.638461538462" y2="419.999999999998"/>
    <line x1="124.638461538462" y1="419.999999999998" x2="124.638461538462" y2="428.999999999998"/>
    <line x1="124.638461538462" y1="428.999999999998" x2="115.023076923077" y2="428.999999999998"/>
    <line x1="115.023076923077" y1="428.999999999998" x2="115.023076923077" y2="419.999999999998"/>
    <line x1="115.023076923077" y1="419.999999999998" x2="105.407692307692" y2="419.999999999998"/>
    <line x1="105.407692307692" y1="419.999999999998" x2="105.407692307692" y2="428.999999999998"/>
    <line x1="105.407692307692" y1="428.999999999998" x2="95.7923076923078" y2="428.999999999998"/>
    <line x1="95.7923076923078" y1="428.999999999998" x2="95.7923076923078" y2="419.999999999998"/>
    <line x1="95.7923076923078" y1="419.999999999998" x2="86.1769230769232" y2="419.999999999998"/>
    <line x1="86.1769230769232" y1="419.999999999998" x2="86.1769230769232" y2="428.999999999998"/>
    <line x1="86.1769230769232" y1="428.999999999998" x2="76.5615384615385" y2="428.999999999998"/>
    <line x1="76.5615384615385" y1="428.999999999998" x2="76.5615384615385" y2="419.999999999998"/>
    <line x1="76.5615384615385" y1="419.999999999998" x2="66.9461538461539" y2="419.999999999998"/>
    <line x1="66.9461538461539" y1="419.999999999998" x2="66.9461538461539" y2="428.999999999998"/>
    <line x1="66.9461538461539" y1="428.999999999998" x2="57.3307692307694" y2="428.999999999998"/>
    <line x1="57.3307692307694" y1="428.999999999998" x2="57.3307692307694" y2="419.999999999998"/>
    <line x1="57.3307692307694" y1="419.999999999998" x2="47.7153846153847" y2="419.999999999998"/>
    <line x1="47.7153846153847" y1="419.999999999998" x2="47.7153846153847" y2="428.999999999998"/>
  </g>
  <g id="face5" fill="none" stroke="rgb(0,0,255)" stroke-width="1" stroke-miterlimit="4" stroke-dasharray="none" stroke-linejoin="round" stroke-linecap="round">
    <line x1="47.0" y1="619.999999999995" x2="47.0" y2="524.999999999997"/>
    <line x1="47.0" y1="524.999999999997" x2="19.0" y2="524.999999999997"/>
    <line x1="19.0" y1="524.999999999997" x2="19.0" y2="534.499999999996"/>
    <line x1="19.0" y1="534.499999999996" x2="10.0" y2="534.499999999996"/>
    <line x1="10.0" y1="534.499999999996" x2="10.0" y2="543.999999999996"/>
    <line x1="10.0" y1="543.999999999996" x2="19.0" y2="543.999999999996"/>
    <line x1="19.0" y1="543.999999999996" x2="19.0" y2="553.499999999996"/>
    <line x1="19.0" y1="553.499999999996" x2="10.0" y2="553.499999999996"/>
    <line x1="10.0" y1="553.499999999996" x2="10.0" y2="562.999999999996"/>
    <line x1="10.0" y1="562.999999999996" x2="19.0" y2="562.999999999996"/>
    <line x1="19.0" y1="562.999999999996" x2="19.0" y2="572.499999999996"/>
    <line x1="19.0" y1="572.499999999996" x2="10.0" y2="572.499999999996"/>
    <line x1="10.0" y1="572.499999999996" x2="10.0" y2="581.999999999996"/>
    <line x1="10.0" y1="581.999999999996" x2="19.0" y2="581.999999999996"/>
    <line x1="19.0" y1="581.999999999996" x2="19.0" y2="591.499999999996"/>
    <line x1="19.0" y1="591.499999999996" x2="10.0" y2="591.499999999996"/>
    <line x1="10.0" y1="591.499999999996" x2="10.0" y2="600.999999999996"/>
    <line x1="10.0" y1="600.999999999996" x2="19.0" y2="600.999999999996"/>
    <line x1="19.0" y1="600.999999999996" x2="19.0" y2="610.499999999996"/>
    <line x1="19.0" y1="610.499999999996" x2="10.0" y2="610.499999999996"/>
    <line x1="10.0" y1="610.499999999996" x2="10.0" y2="619.999999999995"/>
    <line x1="10.0" y1="619.999999999995" x2="47.0" y2="619.999999999995"/>
    <line x1="28.2157957781587" y1="547.464738989611" x2="28.7114636112979" y2="546.27029002827"/>
    <line x1="28.7114636112979" y1="546.27029002827" x2="29.4993881121852" y2="545.244829203589"/>
    <line x1="29.4993881121852" y1="545.244829203589" x2="30.525873528193" y2="544.458239976113"/>
    <line x1="30.525873528193" y1="544.458239976113" x2="31.7209665745668" y2="543.964127101797"/>
    <line x1="31.7209665745668" y1="543.964127101797" x2="33.0032236351813" y2="543.796163556463"/>
    <line x1="33.0032236351813" y1="543.796163556463" x2="34.2852610103851" y2="543.965795778155"/>
    <line x1="34.2852610103851" y1="543.965795778155" x2="35.4797099717259" y2="544.461463611294"/>
    <line x1="35.4797099717259" y1="544.461463611294" x2="36.505170796408" y2="545.249388112182"/>
    <line x1="36.505170796408" y1="545.249388112182" x2="37.2917600238836" y2="546.27587352819"/>
    <line x1="37.2917600238836" y1="546.27587352819" x2="37.7858728981998" y2="547.470966574563"/>
    <line x1="37.7858728981998" y1="547.470966574563" x2="37.9538364435332" y2="548.753223635178"/>
    <line x1="37.9538364435332" y1="548.753223635178" x2="37.7842042218413" y2="550.035261010382"/>
    <line x1="37.7842042218413" y1="550.035261010382" x2="37.2885363887021" y2="551.229709971723"/>
    <line x1="37.2885363887021" y1="551.229709971723" x2="36.500611887815" y2="552.255170796404"/>
    <line x1="36.500611887815" y1="552.255170796404" x2="35.474126471807" y2="553.04176002388"/>
    <line x1="35.474126471807" y1="553.04176002388" x2="34.2790334254332" y2="553.535872898196"/>
    <line x1="34.2790334254332" y1="553.535872898196" x2="32.9967763648187" y2="553.70383644353"/>
    <line x1="32.9967763648187" y1="553.70383644353" x2="31.7147389896149" y2="553.534204221838"/>
    <line x1="31.7147389896149" y1="553.534204221838" x2="30.5202900282741" y2="553.038536388699"/>
    <line x1="30.5202900282741" y1="553.038536388699" x2="29.494829203592" y2="552.250611887811"/>
    <line x1="29.494829203592" y1="552.250611887811" x2="28.7082399761164" y2="551.224126471803"/>
    <line x1="28.7082399761164" y1="551.224126471803" x2="28.2141271017999" y2="550.02903342543"/>
    <line x1="28.2141271017999" y1="550.02903342543" x2="28.046163556467" y2="548.746776364815"/>
    <line x1="28.046163556467" y1="548.746776364815" x2="28.2157957781587" y2="547.464738989611"/>
    <line x1="31.395515152853" y1="600.978838525896" x2="30.2262731765336" y2="600.402436024493"/>
    <line x1="30.2262731765336" y1="600.402436024493" x2="29.2460560994332" y2="599.543051870246"/>
    <line x1="29.2460560994332" y1="599.543051870246" x2="28.5216640954711" y2="598.459251673067"/>
    <line x1="28.5216640954711" y1="598.459251673067" x2="28.1024632826025" y2="597.22489462533"/>
    <line x1="28.1024632826025" y1="597.22489462533" x2="28.0170592006552" y2="595.924674034766"/>
    <line x1="28.0170592006552" y1="595.924674034766" x2="28.2711614740999" y2="594.645515152849"/>
    <line x1="28.2711614740999" y1="594.645515152849" x2="28.8475639755022" y2="593.47627317653"/>
    <line x1="28.8475639755022" y1="593.47627317653" x2="29.7069481297494" y2="592.496056099429"/>
    <line x1="29.7069481297494" y1="592.496056099429" x2="30.7907483269285" y2="591.771664095467"/>
    <line x1="30.7907483269285" y1="591.771664095467" x2="32.0251053746663" y2="591.352463282598"/>
    <line x1="32.0251053746663" y1="591.352463282598" x2="33.3253259652295" y2="591.267059200651"/>
    <line x1="33.3253259652295" y1="591.267059200651" x2="34.604484847147" y2="591.521161474096"/>
    <line x1="34.604484847147" y1="591.521161474096" x2="35.7737268234666" y2="592.097563975498"/>
    <line x1="35.7737268234666" y1="592.097563975498" x2="36.7539439005666" y2="592.956948129745"/>
    <line x1="36.7539439005666" y1="592.956948129745" x2="37.4783359045289" y2="594.040748326924"/>
    <line x1="37.4783359045289" y1="594.040748326924" x2="37.8975367173975" y2="595.275105374662"/>
    <line x1="37.8975367173975" y1="595.275105374662" x2="37.9829407993445" y2="596.575325965225"/>
    <line x1="37.9829407993445" y1="596.575325965225" x2="37.7288385259001" y2="597.854484847143"/>
    <line x1="37.7288385259001" y1="597.854484847143" x2="37.1524360244978" y2="599.023726823462"/>
    <line x1="37.1524360244978" y1="599.023726823462" x2="36.2930518702506" y2="600.003943900562"/>
    <line x1="36.2930518702506" y1="600.003943900562" x2="35.2092516730715" y2="600.728335904525"/>
    <line x1="35.2092516730715" y1="600.728335904525" x2="33.9748946253337" y2="601.147536717393"/>
    <line x1="33.9748946253337" y1="601.147536717393" x2="32.6741001199684" y2="601.232978496534"/>
    <line x1="32.6741001199684" y1="601.232978496534" x2="31.395515152853" y2="600.978838525896"/>
  </g>
</svg>
