G75*
G70*
%OFA0B0*%
%FSLAX24Y24*%
%IPPOS*%
%LPD*%
%AMOC8*
5,1,8,0,0,1.08239X$1,22.5*
%
%ADD10C,0.0160*%
%ADD11C,0.0000*%
D10*
X003786Y000180D02*
X032265Y000180D01*
X032404Y000183D01*
X032542Y000193D01*
X032680Y000210D01*
X032817Y000233D01*
X032952Y000262D01*
X033086Y000298D01*
X033218Y000340D01*
X033348Y000389D01*
X033476Y000443D01*
X033601Y000504D01*
X033723Y000571D01*
X033841Y000643D01*
X033956Y000721D01*
X034067Y000804D01*
X034174Y000892D01*
X034277Y000985D01*
X034375Y001083D01*
X034468Y001186D01*
X034556Y001293D01*
X034639Y001404D01*
X034717Y001519D01*
X034789Y001638D01*
X034856Y001759D01*
X034917Y001884D01*
X034971Y002012D01*
X035020Y002142D01*
X035062Y002274D01*
X035098Y002408D01*
X035127Y002543D01*
X035150Y002680D01*
X035167Y002818D01*
X035177Y002956D01*
X035180Y003095D01*
X035180Y031680D01*
X003716Y031680D01*
X003548Y031676D01*
X003380Y031664D01*
X003213Y031644D01*
X003047Y031616D01*
X002882Y031580D01*
X002720Y031537D01*
X002559Y031486D01*
X002402Y031427D01*
X002247Y031360D01*
X002096Y031287D01*
X001948Y031206D01*
X001804Y031119D01*
X001665Y031024D01*
X001530Y030923D01*
X001400Y030816D01*
X001276Y030703D01*
X001157Y030584D01*
X001044Y030460D01*
X000937Y030330D01*
X000836Y030195D01*
X000741Y030056D01*
X000654Y029912D01*
X000573Y029764D01*
X000500Y029613D01*
X000433Y029458D01*
X000374Y029301D01*
X000323Y029140D01*
X000280Y028978D01*
X000244Y028813D01*
X000216Y028647D01*
X000196Y028480D01*
X000184Y028312D01*
X000180Y028144D01*
X000180Y003786D01*
X000184Y003614D01*
X000196Y003443D01*
X000217Y003273D01*
X000245Y003104D01*
X000282Y002936D01*
X000326Y002770D01*
X000378Y002607D01*
X000438Y002446D01*
X000506Y002288D01*
X000581Y002134D01*
X000663Y001983D01*
X000752Y001836D01*
X000849Y001694D01*
X000951Y001557D01*
X001061Y001425D01*
X001176Y001298D01*
X001298Y001176D01*
X001425Y001061D01*
X001557Y000951D01*
X001694Y000849D01*
X001836Y000752D01*
X001983Y000663D01*
X002134Y000581D01*
X002288Y000506D01*
X002446Y000438D01*
X002607Y000378D01*
X002770Y000326D01*
X002936Y000282D01*
X003104Y000245D01*
X003273Y000217D01*
X003443Y000196D01*
X003614Y000184D01*
X003786Y000180D01*
D11*
X003050Y004680D02*
X003052Y004730D01*
X003058Y004780D01*
X003068Y004829D01*
X003082Y004877D01*
X003099Y004924D01*
X003120Y004969D01*
X003145Y005013D01*
X003173Y005054D01*
X003205Y005093D01*
X003239Y005130D01*
X003276Y005164D01*
X003316Y005194D01*
X003358Y005221D01*
X003402Y005245D01*
X003448Y005266D01*
X003495Y005282D01*
X003543Y005295D01*
X003593Y005304D01*
X003642Y005309D01*
X003693Y005310D01*
X003743Y005307D01*
X003792Y005300D01*
X003841Y005289D01*
X003889Y005274D01*
X003935Y005256D01*
X003980Y005234D01*
X004023Y005208D01*
X004064Y005179D01*
X004103Y005147D01*
X004139Y005112D01*
X004171Y005074D01*
X004201Y005034D01*
X004228Y004991D01*
X004251Y004947D01*
X004270Y004901D01*
X004286Y004853D01*
X004298Y004804D01*
X004306Y004755D01*
X004310Y004705D01*
X004310Y004655D01*
X004306Y004605D01*
X004298Y004556D01*
X004286Y004507D01*
X004270Y004459D01*
X004251Y004413D01*
X004228Y004369D01*
X004201Y004326D01*
X004171Y004286D01*
X004139Y004248D01*
X004103Y004213D01*
X004064Y004181D01*
X004023Y004152D01*
X003980Y004126D01*
X003935Y004104D01*
X003889Y004086D01*
X003841Y004071D01*
X003792Y004060D01*
X003743Y004053D01*
X003693Y004050D01*
X003642Y004051D01*
X003593Y004056D01*
X003543Y004065D01*
X003495Y004078D01*
X003448Y004094D01*
X003402Y004115D01*
X003358Y004139D01*
X003316Y004166D01*
X003276Y004196D01*
X003239Y004230D01*
X003205Y004267D01*
X003173Y004306D01*
X003145Y004347D01*
X003120Y004391D01*
X003099Y004436D01*
X003082Y004483D01*
X003068Y004531D01*
X003058Y004580D01*
X003052Y004630D01*
X003050Y004680D01*
X016030Y007180D02*
X016032Y007230D01*
X016038Y007280D01*
X016048Y007330D01*
X016061Y007378D01*
X016078Y007426D01*
X016099Y007472D01*
X016123Y007516D01*
X016151Y007558D01*
X016182Y007598D01*
X016216Y007635D01*
X016253Y007670D01*
X016292Y007701D01*
X016333Y007730D01*
X016377Y007755D01*
X016423Y007777D01*
X016470Y007795D01*
X016518Y007809D01*
X016567Y007820D01*
X016617Y007827D01*
X016667Y007830D01*
X016718Y007829D01*
X016768Y007824D01*
X016818Y007815D01*
X016866Y007803D01*
X016914Y007786D01*
X016960Y007766D01*
X017005Y007743D01*
X017048Y007716D01*
X017088Y007686D01*
X017126Y007653D01*
X017161Y007617D01*
X017194Y007578D01*
X017223Y007537D01*
X017249Y007494D01*
X017272Y007449D01*
X017291Y007402D01*
X017306Y007354D01*
X017318Y007305D01*
X017326Y007255D01*
X017330Y007205D01*
X017330Y007155D01*
X017326Y007105D01*
X017318Y007055D01*
X017306Y007006D01*
X017291Y006958D01*
X017272Y006911D01*
X017249Y006866D01*
X017223Y006823D01*
X017194Y006782D01*
X017161Y006743D01*
X017126Y006707D01*
X017088Y006674D01*
X017048Y006644D01*
X017005Y006617D01*
X016960Y006594D01*
X016914Y006574D01*
X016866Y006557D01*
X016818Y006545D01*
X016768Y006536D01*
X016718Y006531D01*
X016667Y006530D01*
X016617Y006533D01*
X016567Y006540D01*
X016518Y006551D01*
X016470Y006565D01*
X016423Y006583D01*
X016377Y006605D01*
X016333Y006630D01*
X016292Y006659D01*
X016253Y006690D01*
X016216Y006725D01*
X016182Y006762D01*
X016151Y006802D01*
X016123Y006844D01*
X016099Y006888D01*
X016078Y006934D01*
X016061Y006982D01*
X016048Y007030D01*
X016038Y007080D01*
X016032Y007130D01*
X016030Y007180D01*
X016030Y016680D02*
X016032Y016730D01*
X016038Y016780D01*
X016048Y016830D01*
X016061Y016878D01*
X016078Y016926D01*
X016099Y016972D01*
X016123Y017016D01*
X016151Y017058D01*
X016182Y017098D01*
X016216Y017135D01*
X016253Y017170D01*
X016292Y017201D01*
X016333Y017230D01*
X016377Y017255D01*
X016423Y017277D01*
X016470Y017295D01*
X016518Y017309D01*
X016567Y017320D01*
X016617Y017327D01*
X016667Y017330D01*
X016718Y017329D01*
X016768Y017324D01*
X016818Y017315D01*
X016866Y017303D01*
X016914Y017286D01*
X016960Y017266D01*
X017005Y017243D01*
X017048Y017216D01*
X017088Y017186D01*
X017126Y017153D01*
X017161Y017117D01*
X017194Y017078D01*
X017223Y017037D01*
X017249Y016994D01*
X017272Y016949D01*
X017291Y016902D01*
X017306Y016854D01*
X017318Y016805D01*
X017326Y016755D01*
X017330Y016705D01*
X017330Y016655D01*
X017326Y016605D01*
X017318Y016555D01*
X017306Y016506D01*
X017291Y016458D01*
X017272Y016411D01*
X017249Y016366D01*
X017223Y016323D01*
X017194Y016282D01*
X017161Y016243D01*
X017126Y016207D01*
X017088Y016174D01*
X017048Y016144D01*
X017005Y016117D01*
X016960Y016094D01*
X016914Y016074D01*
X016866Y016057D01*
X016818Y016045D01*
X016768Y016036D01*
X016718Y016031D01*
X016667Y016030D01*
X016617Y016033D01*
X016567Y016040D01*
X016518Y016051D01*
X016470Y016065D01*
X016423Y016083D01*
X016377Y016105D01*
X016333Y016130D01*
X016292Y016159D01*
X016253Y016190D01*
X016216Y016225D01*
X016182Y016262D01*
X016151Y016302D01*
X016123Y016344D01*
X016099Y016388D01*
X016078Y016434D01*
X016061Y016482D01*
X016048Y016530D01*
X016038Y016580D01*
X016032Y016630D01*
X016030Y016680D01*
X016030Y026180D02*
X016032Y026230D01*
X016038Y026280D01*
X016048Y026330D01*
X016061Y026378D01*
X016078Y026426D01*
X016099Y026472D01*
X016123Y026516D01*
X016151Y026558D01*
X016182Y026598D01*
X016216Y026635D01*
X016253Y026670D01*
X016292Y026701D01*
X016333Y026730D01*
X016377Y026755D01*
X016423Y026777D01*
X016470Y026795D01*
X016518Y026809D01*
X016567Y026820D01*
X016617Y026827D01*
X016667Y026830D01*
X016718Y026829D01*
X016768Y026824D01*
X016818Y026815D01*
X016866Y026803D01*
X016914Y026786D01*
X016960Y026766D01*
X017005Y026743D01*
X017048Y026716D01*
X017088Y026686D01*
X017126Y026653D01*
X017161Y026617D01*
X017194Y026578D01*
X017223Y026537D01*
X017249Y026494D01*
X017272Y026449D01*
X017291Y026402D01*
X017306Y026354D01*
X017318Y026305D01*
X017326Y026255D01*
X017330Y026205D01*
X017330Y026155D01*
X017326Y026105D01*
X017318Y026055D01*
X017306Y026006D01*
X017291Y025958D01*
X017272Y025911D01*
X017249Y025866D01*
X017223Y025823D01*
X017194Y025782D01*
X017161Y025743D01*
X017126Y025707D01*
X017088Y025674D01*
X017048Y025644D01*
X017005Y025617D01*
X016960Y025594D01*
X016914Y025574D01*
X016866Y025557D01*
X016818Y025545D01*
X016768Y025536D01*
X016718Y025531D01*
X016667Y025530D01*
X016617Y025533D01*
X016567Y025540D01*
X016518Y025551D01*
X016470Y025565D01*
X016423Y025583D01*
X016377Y025605D01*
X016333Y025630D01*
X016292Y025659D01*
X016253Y025690D01*
X016216Y025725D01*
X016182Y025762D01*
X016151Y025802D01*
X016123Y025844D01*
X016099Y025888D01*
X016078Y025934D01*
X016061Y025982D01*
X016048Y026030D01*
X016038Y026080D01*
X016032Y026130D01*
X016030Y026180D01*
X025530Y027680D02*
X025532Y027730D01*
X025538Y027780D01*
X025548Y027830D01*
X025561Y027878D01*
X025578Y027926D01*
X025599Y027972D01*
X025623Y028016D01*
X025651Y028058D01*
X025682Y028098D01*
X025716Y028135D01*
X025753Y028170D01*
X025792Y028201D01*
X025833Y028230D01*
X025877Y028255D01*
X025923Y028277D01*
X025970Y028295D01*
X026018Y028309D01*
X026067Y028320D01*
X026117Y028327D01*
X026167Y028330D01*
X026218Y028329D01*
X026268Y028324D01*
X026318Y028315D01*
X026366Y028303D01*
X026414Y028286D01*
X026460Y028266D01*
X026505Y028243D01*
X026548Y028216D01*
X026588Y028186D01*
X026626Y028153D01*
X026661Y028117D01*
X026694Y028078D01*
X026723Y028037D01*
X026749Y027994D01*
X026772Y027949D01*
X026791Y027902D01*
X026806Y027854D01*
X026818Y027805D01*
X026826Y027755D01*
X026830Y027705D01*
X026830Y027655D01*
X026826Y027605D01*
X026818Y027555D01*
X026806Y027506D01*
X026791Y027458D01*
X026772Y027411D01*
X026749Y027366D01*
X026723Y027323D01*
X026694Y027282D01*
X026661Y027243D01*
X026626Y027207D01*
X026588Y027174D01*
X026548Y027144D01*
X026505Y027117D01*
X026460Y027094D01*
X026414Y027074D01*
X026366Y027057D01*
X026318Y027045D01*
X026268Y027036D01*
X026218Y027031D01*
X026167Y027030D01*
X026117Y027033D01*
X026067Y027040D01*
X026018Y027051D01*
X025970Y027065D01*
X025923Y027083D01*
X025877Y027105D01*
X025833Y027130D01*
X025792Y027159D01*
X025753Y027190D01*
X025716Y027225D01*
X025682Y027262D01*
X025651Y027302D01*
X025623Y027344D01*
X025599Y027388D01*
X025578Y027434D01*
X025561Y027482D01*
X025548Y027530D01*
X025538Y027580D01*
X025532Y027630D01*
X025530Y027680D01*
X025530Y018180D02*
X025532Y018230D01*
X025538Y018280D01*
X025548Y018330D01*
X025561Y018378D01*
X025578Y018426D01*
X025599Y018472D01*
X025623Y018516D01*
X025651Y018558D01*
X025682Y018598D01*
X025716Y018635D01*
X025753Y018670D01*
X025792Y018701D01*
X025833Y018730D01*
X025877Y018755D01*
X025923Y018777D01*
X025970Y018795D01*
X026018Y018809D01*
X026067Y018820D01*
X026117Y018827D01*
X026167Y018830D01*
X026218Y018829D01*
X026268Y018824D01*
X026318Y018815D01*
X026366Y018803D01*
X026414Y018786D01*
X026460Y018766D01*
X026505Y018743D01*
X026548Y018716D01*
X026588Y018686D01*
X026626Y018653D01*
X026661Y018617D01*
X026694Y018578D01*
X026723Y018537D01*
X026749Y018494D01*
X026772Y018449D01*
X026791Y018402D01*
X026806Y018354D01*
X026818Y018305D01*
X026826Y018255D01*
X026830Y018205D01*
X026830Y018155D01*
X026826Y018105D01*
X026818Y018055D01*
X026806Y018006D01*
X026791Y017958D01*
X026772Y017911D01*
X026749Y017866D01*
X026723Y017823D01*
X026694Y017782D01*
X026661Y017743D01*
X026626Y017707D01*
X026588Y017674D01*
X026548Y017644D01*
X026505Y017617D01*
X026460Y017594D01*
X026414Y017574D01*
X026366Y017557D01*
X026318Y017545D01*
X026268Y017536D01*
X026218Y017531D01*
X026167Y017530D01*
X026117Y017533D01*
X026067Y017540D01*
X026018Y017551D01*
X025970Y017565D01*
X025923Y017583D01*
X025877Y017605D01*
X025833Y017630D01*
X025792Y017659D01*
X025753Y017690D01*
X025716Y017725D01*
X025682Y017762D01*
X025651Y017802D01*
X025623Y017844D01*
X025599Y017888D01*
X025578Y017934D01*
X025561Y017982D01*
X025548Y018030D01*
X025538Y018080D01*
X025532Y018130D01*
X025530Y018180D01*
X025530Y008680D02*
X025532Y008730D01*
X025538Y008780D01*
X025548Y008830D01*
X025561Y008878D01*
X025578Y008926D01*
X025599Y008972D01*
X025623Y009016D01*
X025651Y009058D01*
X025682Y009098D01*
X025716Y009135D01*
X025753Y009170D01*
X025792Y009201D01*
X025833Y009230D01*
X025877Y009255D01*
X025923Y009277D01*
X025970Y009295D01*
X026018Y009309D01*
X026067Y009320D01*
X026117Y009327D01*
X026167Y009330D01*
X026218Y009329D01*
X026268Y009324D01*
X026318Y009315D01*
X026366Y009303D01*
X026414Y009286D01*
X026460Y009266D01*
X026505Y009243D01*
X026548Y009216D01*
X026588Y009186D01*
X026626Y009153D01*
X026661Y009117D01*
X026694Y009078D01*
X026723Y009037D01*
X026749Y008994D01*
X026772Y008949D01*
X026791Y008902D01*
X026806Y008854D01*
X026818Y008805D01*
X026826Y008755D01*
X026830Y008705D01*
X026830Y008655D01*
X026826Y008605D01*
X026818Y008555D01*
X026806Y008506D01*
X026791Y008458D01*
X026772Y008411D01*
X026749Y008366D01*
X026723Y008323D01*
X026694Y008282D01*
X026661Y008243D01*
X026626Y008207D01*
X026588Y008174D01*
X026548Y008144D01*
X026505Y008117D01*
X026460Y008094D01*
X026414Y008074D01*
X026366Y008057D01*
X026318Y008045D01*
X026268Y008036D01*
X026218Y008031D01*
X026167Y008030D01*
X026117Y008033D01*
X026067Y008040D01*
X026018Y008051D01*
X025970Y008065D01*
X025923Y008083D01*
X025877Y008105D01*
X025833Y008130D01*
X025792Y008159D01*
X025753Y008190D01*
X025716Y008225D01*
X025682Y008262D01*
X025651Y008302D01*
X025623Y008344D01*
X025599Y008388D01*
X025578Y008434D01*
X025561Y008482D01*
X025548Y008530D01*
X025538Y008580D01*
X025532Y008630D01*
X025530Y008680D01*
X003050Y028680D02*
X003052Y028730D01*
X003058Y028780D01*
X003068Y028829D01*
X003082Y028877D01*
X003099Y028924D01*
X003120Y028969D01*
X003145Y029013D01*
X003173Y029054D01*
X003205Y029093D01*
X003239Y029130D01*
X003276Y029164D01*
X003316Y029194D01*
X003358Y029221D01*
X003402Y029245D01*
X003448Y029266D01*
X003495Y029282D01*
X003543Y029295D01*
X003593Y029304D01*
X003642Y029309D01*
X003693Y029310D01*
X003743Y029307D01*
X003792Y029300D01*
X003841Y029289D01*
X003889Y029274D01*
X003935Y029256D01*
X003980Y029234D01*
X004023Y029208D01*
X004064Y029179D01*
X004103Y029147D01*
X004139Y029112D01*
X004171Y029074D01*
X004201Y029034D01*
X004228Y028991D01*
X004251Y028947D01*
X004270Y028901D01*
X004286Y028853D01*
X004298Y028804D01*
X004306Y028755D01*
X004310Y028705D01*
X004310Y028655D01*
X004306Y028605D01*
X004298Y028556D01*
X004286Y028507D01*
X004270Y028459D01*
X004251Y028413D01*
X004228Y028369D01*
X004201Y028326D01*
X004171Y028286D01*
X004139Y028248D01*
X004103Y028213D01*
X004064Y028181D01*
X004023Y028152D01*
X003980Y028126D01*
X003935Y028104D01*
X003889Y028086D01*
X003841Y028071D01*
X003792Y028060D01*
X003743Y028053D01*
X003693Y028050D01*
X003642Y028051D01*
X003593Y028056D01*
X003543Y028065D01*
X003495Y028078D01*
X003448Y028094D01*
X003402Y028115D01*
X003358Y028139D01*
X003316Y028166D01*
X003276Y028196D01*
X003239Y028230D01*
X003205Y028267D01*
X003173Y028306D01*
X003145Y028347D01*
X003120Y028391D01*
X003099Y028436D01*
X003082Y028483D01*
X003068Y028531D01*
X003058Y028580D01*
X003052Y028630D01*
X003050Y028680D01*
M02*
