%
M48
M72
T01C0.0276
T02C0.0320
T03C0.0354
T04C0.0394
T05C0.0400
T06C0.1180
T07C0.1260
T08C0.1300
%
T01
X10101Y8502
X11101Y8502
X11101Y11502
X10101Y11502
X3101Y20002
X3101Y21002
X3101Y22502
X3101Y23502
X5601Y22502
X5601Y20502
T02
X8601Y21002
X8601Y22002
X8601Y23002
X8601Y24002
X8601Y25002
X8601Y26002
X8601Y27002
X8601Y28002
X8601Y29002
X8601Y30002
X11601Y30002
X11601Y29002
X11601Y28002
X11601Y27002
X11601Y26002
X11601Y25002
X11601Y24002
X11601Y23002
X11601Y22002
X11601Y21002
X11601Y20002
X11601Y19002
X11601Y18002
X11601Y17002
X8601Y17002
X8601Y18002
X8601Y19002
X8601Y20002
X2601Y31002
X1601Y31002
T03
X1101Y27502
X1101Y25502
X5101Y25502
X5101Y27502
T04
X2101Y4502
X2101Y5502
X2101Y6502
T05
X1601Y11002
X1601Y12002
X1601Y13002
X1601Y14002
X1601Y15002
X1601Y16002
X4711Y29222
X6491Y29222
X6491Y31782
X4711Y31782
X21101Y30002
X22101Y30002
X23101Y30002
X24101Y30002
X26101Y30002
X27101Y30002
X31101Y30002
X32101Y30002
X35101Y30002
X36101Y30002
X36101Y24002
X35101Y24002
X34101Y24002
X35101Y20002
X36101Y20002
X32101Y20002
X31101Y20002
X27101Y20002
X26101Y20002
X24101Y20002
X23101Y20002
X22101Y20002
X21101Y20002
X21101Y24002
X22101Y24002
X26101Y24002
X27101Y24002
X27101Y14002
X26101Y14002
X22101Y14002
X21101Y14002
X21101Y10002
X22101Y10002
X23101Y10002
X24101Y10002
X26101Y10002
X27101Y10002
X31101Y10002
X32101Y10002
X35101Y10002
X36101Y10002
X36101Y14002
X35101Y14002
X34101Y14002
X34101Y4002
X35101Y4002
X36101Y4002
X27101Y4002
X26101Y4002
X22101Y4002
X21101Y4002
T06
X13582Y4714
X12111Y3083
X14120Y29789
X15591Y31420
T07
X15601Y28538
X10101Y32002
X12101Y5965
X6601Y5502
T08
X24101Y7002
X33601Y8502
X24101Y17002
X33601Y18502
X24101Y27002
X33601Y28502
M30
