G75*
G70*
%OFA0B0*%
%FSLAX24Y24*%
%IPPOS*%
%LPD*%
%AMOC8*
5,1,8,0,0,1.08239X$1,22.5*
%
%ADD10C,0.0560*%
%ADD11C,0.0650*%
%ADD12C,0.1660*%
%ADD13C,0.1620*%
%ADD14R,0.0740X0.0740*%
%ADD15C,0.0740*%
%ADD16R,0.0650X0.0650*%
%ADD17C,0.0100*%
D10*
X008321Y017002D02*
X008881Y017002D01*
X008881Y018002D02*
X008321Y018002D01*
X008321Y019002D02*
X008881Y019002D01*
X008881Y020002D02*
X008321Y020002D01*
X008321Y021002D02*
X008881Y021002D01*
X008881Y022002D02*
X008321Y022002D01*
X008321Y023002D02*
X008881Y023002D01*
X008881Y024002D02*
X008321Y024002D01*
X008321Y025002D02*
X008881Y025002D01*
X008881Y026002D02*
X008321Y026002D01*
X008321Y027002D02*
X008881Y027002D01*
X008881Y028002D02*
X008321Y028002D01*
X008321Y029002D02*
X008881Y029002D01*
X008881Y030002D02*
X008321Y030002D01*
X011321Y030002D02*
X011881Y030002D01*
X011881Y029002D02*
X011321Y029002D01*
X011321Y028002D02*
X011881Y028002D01*
X011881Y027002D02*
X011321Y027002D01*
X011321Y026002D02*
X011881Y026002D01*
X011881Y025002D02*
X011321Y025002D01*
X011321Y024002D02*
X011881Y024002D01*
X011881Y023002D02*
X011321Y023002D01*
X011321Y022002D02*
X011881Y022002D01*
X011881Y021002D02*
X011321Y021002D01*
X011321Y020002D02*
X011881Y020002D01*
X011881Y019002D02*
X011321Y019002D01*
X011321Y018002D02*
X011881Y018002D01*
X011881Y017002D02*
X011321Y017002D01*
D11*
X005601Y020502D03*
X005601Y022502D03*
X003101Y022502D03*
X003101Y023502D03*
X003101Y021002D03*
X003101Y020002D03*
X011101Y011502D03*
X011101Y008502D03*
D12*
X012101Y005965D03*
X015601Y028538D03*
D13*
X014120Y029789D03*
X015591Y031420D03*
X013582Y004714D03*
X012111Y003083D03*
D14*
X002101Y004502D03*
D15*
X002101Y005502D03*
X002101Y006502D03*
X001601Y011002D03*
X001601Y012002D03*
X001601Y013002D03*
X001601Y014002D03*
X001601Y015002D03*
X001601Y016002D03*
X001101Y025502D03*
X001101Y027502D03*
X004711Y029222D03*
X005101Y027502D03*
X006491Y029222D03*
X006491Y031782D03*
X004711Y031782D03*
X002601Y031002D03*
X001601Y031002D03*
X005101Y025502D03*
X021101Y024002D03*
X022101Y024002D03*
X026101Y024002D03*
X027101Y024002D03*
X027101Y020002D03*
X026101Y020002D03*
X024101Y020002D03*
X023101Y020002D03*
X022101Y020002D03*
X021101Y020002D03*
X021101Y014002D03*
X022101Y014002D03*
X026101Y014002D03*
X027101Y014002D03*
X027101Y010002D03*
X026101Y010002D03*
X024101Y010002D03*
X023101Y010002D03*
X022101Y010002D03*
X021101Y010002D03*
X021101Y004002D03*
X022101Y004002D03*
X026101Y004002D03*
X027101Y004002D03*
X031101Y010002D03*
X032101Y010002D03*
X035101Y010002D03*
X036101Y010002D03*
X036101Y014002D03*
X035101Y014002D03*
X034101Y014002D03*
X035101Y020002D03*
X036101Y020002D03*
X032101Y020002D03*
X031101Y020002D03*
X034101Y024002D03*
X035101Y024002D03*
X036101Y024002D03*
X036101Y030002D03*
X035101Y030002D03*
X032101Y030002D03*
X031101Y030002D03*
X027101Y030002D03*
X026101Y030002D03*
X024101Y030002D03*
X023101Y030002D03*
X022101Y030002D03*
X021101Y030002D03*
X034101Y004002D03*
X035101Y004002D03*
X036101Y004002D03*
D16*
X010101Y008502D03*
X010101Y011502D03*
D17*
X012101Y003502D02*
X003101Y003502D01*
X002101Y004502D01*
X002101Y006502D02*
X004101Y008502D01*
X010101Y008502D01*
X010101Y011502D02*
X010601Y012002D01*
X020101Y012002D01*
X022101Y014002D01*
X021101Y014002D02*
X004601Y014002D01*
X001601Y011002D01*
X002101Y014502D02*
X034601Y014502D01*
X035101Y014002D01*
X035101Y014502D02*
X035601Y014502D01*
X036101Y014002D01*
X036601Y014502D02*
X036601Y004002D01*
X036101Y004002D01*
X036601Y014502D02*
X036101Y015002D01*
X035101Y015002D01*
X031601Y018502D01*
X010101Y018502D01*
X008601Y020002D01*
X008601Y019002D02*
X012601Y015002D01*
X034601Y015002D01*
X035101Y014502D01*
X033601Y021502D02*
X036101Y024002D01*
X035101Y024002D02*
X034601Y024502D01*
X009101Y024502D01*
X008601Y025002D01*
X008601Y026002D02*
X006601Y024002D01*
X002601Y024002D01*
X002101Y023502D01*
X002101Y014502D01*
X001601Y015002D02*
X001101Y015002D01*
X001101Y023002D01*
X002601Y024502D01*
X005601Y024502D01*
X005601Y026002D01*
X008601Y029002D01*
X008601Y030002D02*
X007101Y031502D01*
X006601Y031502D01*
X006491Y031782D01*
X004601Y029502D02*
X004101Y029502D01*
X002601Y031002D01*
X004601Y029502D02*
X004711Y029222D01*
X001101Y027502D02*
X003101Y025502D01*
X005101Y025502D01*
X003101Y023502D02*
X004101Y022502D01*
X005601Y022502D01*
X008101Y022502D01*
X008601Y022002D01*
X007601Y021502D02*
X033601Y021502D01*
X033601Y023502D02*
X020601Y023502D01*
X021101Y024002D01*
X020601Y023502D02*
X009101Y023502D01*
X008601Y023002D01*
X007601Y021502D02*
X007601Y019002D01*
X008601Y018002D01*
X005601Y020502D02*
X003601Y020502D01*
X003101Y020002D01*
X015601Y028538D02*
X015601Y029002D01*
X017101Y030502D01*
X035601Y030502D01*
X036101Y030002D01*
X034101Y024002D02*
X033601Y023502D01*
X012101Y003502D02*
X012111Y003083D01*
M02*
