G75*
G70*
%OFA0B0*%
%FSLAX24Y24*%
%IPPOS*%
%LPD*%
%AMOC8*
5,1,8,0,0,1.08239X$1,22.5*
%
%ADD10C,0.0060*%
%ADD11C,0.0040*%
%ADD12C,0.0080*%
%ADD13C,0.0010*%
%ADD14C,0.0050*%
%ADD15C,0.0100*%
%ADD16C,0.0070*%
%ADD17C,0.0059*%
D10*
X012591Y007412D02*
X012621Y008032D01*
X013381Y008152D01*
X013651Y008822D01*
X013241Y009452D01*
X013651Y009862D01*
X014321Y009432D01*
X014931Y009692D01*
X015081Y010462D01*
X015701Y010452D01*
X015841Y009682D01*
X016481Y009432D01*
X017141Y009882D01*
X017561Y009432D01*
X017131Y008802D01*
X017421Y008142D01*
X018181Y008002D01*
X018161Y007402D01*
X017371Y007262D01*
X017161Y006522D01*
X017551Y005972D01*
X017131Y005552D01*
X016521Y005962D01*
X016291Y005822D01*
X015831Y006922D01*
X016221Y007292D01*
X016291Y007862D01*
X016021Y008402D01*
X015411Y008632D01*
X014831Y008472D01*
X014501Y008042D01*
X014461Y007542D01*
X014681Y007062D01*
X014941Y006882D01*
X014501Y005812D01*
X014251Y005982D01*
X013641Y005552D01*
X013221Y005972D01*
X013651Y006592D01*
X013351Y007282D01*
X012591Y007412D01*
X012591Y007415D02*
X014519Y007415D01*
X014492Y007473D02*
X012594Y007473D01*
X012597Y007532D02*
X014465Y007532D01*
X014465Y007590D02*
X012599Y007590D01*
X012602Y007649D02*
X014469Y007649D01*
X014474Y007707D02*
X012605Y007707D01*
X012608Y007766D02*
X014479Y007766D01*
X014483Y007824D02*
X012611Y007824D01*
X012614Y007883D02*
X014488Y007883D01*
X014493Y007941D02*
X012616Y007941D01*
X012619Y008000D02*
X014497Y008000D01*
X014514Y008059D02*
X012791Y008059D01*
X013162Y008117D02*
X014559Y008117D01*
X014604Y008176D02*
X013390Y008176D01*
X013414Y008234D02*
X014649Y008234D01*
X014693Y008293D02*
X013438Y008293D01*
X013461Y008351D02*
X014738Y008351D01*
X014783Y008410D02*
X013485Y008410D01*
X013508Y008468D02*
X014828Y008468D01*
X015031Y008527D02*
X013532Y008527D01*
X013556Y008585D02*
X015243Y008585D01*
X015534Y008585D02*
X017226Y008585D01*
X017251Y008527D02*
X015689Y008527D01*
X015844Y008468D02*
X017277Y008468D01*
X017303Y008410D02*
X015999Y008410D01*
X016046Y008351D02*
X017329Y008351D01*
X017354Y008293D02*
X016075Y008293D01*
X016105Y008234D02*
X017380Y008234D01*
X017406Y008176D02*
X016134Y008176D01*
X016163Y008117D02*
X017554Y008117D01*
X017872Y008059D02*
X016192Y008059D01*
X016222Y008000D02*
X018181Y008000D01*
X018179Y007941D02*
X016251Y007941D01*
X016280Y007883D02*
X018177Y007883D01*
X018175Y007824D02*
X016286Y007824D01*
X016279Y007766D02*
X018173Y007766D01*
X018171Y007707D02*
X016272Y007707D01*
X016265Y007649D02*
X018169Y007649D01*
X018167Y007590D02*
X016257Y007590D01*
X016250Y007532D02*
X018165Y007532D01*
X018163Y007473D02*
X016243Y007473D01*
X016236Y007415D02*
X018161Y007415D01*
X017903Y007356D02*
X016229Y007356D01*
X016221Y007298D02*
X017573Y007298D01*
X017364Y007239D02*
X016165Y007239D01*
X016103Y007180D02*
X017348Y007180D01*
X017331Y007122D02*
X016042Y007122D01*
X015980Y007063D02*
X017315Y007063D01*
X017298Y007005D02*
X015918Y007005D01*
X015857Y006946D02*
X017281Y006946D01*
X017265Y006888D02*
X015845Y006888D01*
X015870Y006829D02*
X017248Y006829D01*
X017231Y006771D02*
X015894Y006771D01*
X015918Y006712D02*
X017215Y006712D01*
X017198Y006654D02*
X015943Y006654D01*
X015967Y006595D02*
X017182Y006595D01*
X017165Y006536D02*
X015992Y006536D01*
X016016Y006478D02*
X017192Y006478D01*
X017233Y006419D02*
X016041Y006419D01*
X016065Y006361D02*
X017275Y006361D01*
X017316Y006302D02*
X016090Y006302D01*
X016114Y006244D02*
X017358Y006244D01*
X017399Y006185D02*
X016139Y006185D01*
X016163Y006127D02*
X017441Y006127D01*
X017482Y006068D02*
X016188Y006068D01*
X016212Y006010D02*
X017524Y006010D01*
X017530Y005951D02*
X016537Y005951D01*
X016503Y005951D02*
X016237Y005951D01*
X016261Y005892D02*
X016407Y005892D01*
X016311Y005834D02*
X016286Y005834D01*
X016624Y005892D02*
X017472Y005892D01*
X017413Y005834D02*
X016711Y005834D01*
X016798Y005775D02*
X017354Y005775D01*
X017296Y005717D02*
X016885Y005717D01*
X016972Y005658D02*
X017237Y005658D01*
X017179Y005600D02*
X017059Y005600D01*
X014799Y006536D02*
X013612Y006536D01*
X013649Y006595D02*
X014823Y006595D01*
X014847Y006654D02*
X013624Y006654D01*
X013598Y006712D02*
X014871Y006712D01*
X014895Y006771D02*
X013573Y006771D01*
X013548Y006829D02*
X014919Y006829D01*
X014932Y006888D02*
X013522Y006888D01*
X013497Y006946D02*
X014848Y006946D01*
X014763Y007005D02*
X013471Y007005D01*
X013446Y007063D02*
X014680Y007063D01*
X014653Y007122D02*
X013420Y007122D01*
X013395Y007180D02*
X014626Y007180D01*
X014600Y007239D02*
X013369Y007239D01*
X013259Y007298D02*
X014573Y007298D01*
X014546Y007356D02*
X012916Y007356D01*
X013572Y006478D02*
X014775Y006478D01*
X014751Y006419D02*
X013531Y006419D01*
X013491Y006361D02*
X014727Y006361D01*
X014703Y006302D02*
X013450Y006302D01*
X013409Y006244D02*
X014678Y006244D01*
X014654Y006185D02*
X013369Y006185D01*
X013328Y006127D02*
X014630Y006127D01*
X014606Y006068D02*
X013288Y006068D01*
X013247Y006010D02*
X014582Y006010D01*
X014558Y005951D02*
X014296Y005951D01*
X014207Y005951D02*
X013241Y005951D01*
X013300Y005892D02*
X014124Y005892D01*
X014041Y005834D02*
X013359Y005834D01*
X013417Y005775D02*
X013958Y005775D01*
X013875Y005717D02*
X013476Y005717D01*
X013534Y005658D02*
X013792Y005658D01*
X013709Y005600D02*
X013593Y005600D01*
X014382Y005892D02*
X014534Y005892D01*
X014510Y005834D02*
X014468Y005834D01*
X013579Y008644D02*
X017200Y008644D01*
X017174Y008703D02*
X013603Y008703D01*
X013626Y008761D02*
X017149Y008761D01*
X017143Y008820D02*
X013650Y008820D01*
X013614Y008878D02*
X017183Y008878D01*
X017223Y008937D02*
X013576Y008937D01*
X013538Y008995D02*
X017263Y008995D01*
X017303Y009054D02*
X013500Y009054D01*
X013462Y009112D02*
X017343Y009112D01*
X017383Y009171D02*
X013424Y009171D01*
X013385Y009229D02*
X017423Y009229D01*
X017463Y009288D02*
X013347Y009288D01*
X013309Y009347D02*
X017503Y009347D01*
X017543Y009405D02*
X013271Y009405D01*
X013253Y009464D02*
X014271Y009464D01*
X014180Y009522D02*
X013311Y009522D01*
X013370Y009581D02*
X014089Y009581D01*
X013997Y009639D02*
X013428Y009639D01*
X013487Y009698D02*
X013906Y009698D01*
X013815Y009756D02*
X013545Y009756D01*
X013604Y009815D02*
X013724Y009815D01*
X014396Y009464D02*
X016399Y009464D01*
X016528Y009464D02*
X017531Y009464D01*
X017476Y009522D02*
X016613Y009522D01*
X016699Y009581D02*
X017422Y009581D01*
X017367Y009639D02*
X016785Y009639D01*
X016871Y009698D02*
X017312Y009698D01*
X017258Y009756D02*
X016957Y009756D01*
X017043Y009815D02*
X017203Y009815D01*
X017149Y009873D02*
X017129Y009873D01*
X016249Y009522D02*
X014533Y009522D01*
X014670Y009581D02*
X016099Y009581D01*
X015950Y009639D02*
X014808Y009639D01*
X014932Y009698D02*
X015838Y009698D01*
X015827Y009756D02*
X014943Y009756D01*
X014955Y009815D02*
X015817Y009815D01*
X015806Y009873D02*
X014966Y009873D01*
X014978Y009932D02*
X015795Y009932D01*
X015785Y009991D02*
X014989Y009991D01*
X015000Y010049D02*
X015774Y010049D01*
X015763Y010108D02*
X015012Y010108D01*
X015023Y010166D02*
X015753Y010166D01*
X015742Y010225D02*
X015035Y010225D01*
X015046Y010283D02*
X015731Y010283D01*
X015721Y010342D02*
X015057Y010342D01*
X015069Y010400D02*
X015710Y010400D01*
X015259Y010459D02*
X015080Y010459D01*
X015105Y011532D02*
X014998Y011638D01*
X015105Y011532D02*
X015318Y011532D01*
X015425Y011638D01*
X015425Y011745D01*
X015318Y011852D01*
X015105Y011852D01*
X014998Y011959D01*
X014998Y012066D01*
X015105Y012172D01*
X015318Y012172D01*
X015425Y012066D01*
X015642Y011959D02*
X015642Y011532D01*
X015642Y011852D02*
X016069Y011852D01*
X016069Y011959D02*
X016069Y011532D01*
X016069Y011959D02*
X015856Y012172D01*
X015642Y011959D01*
X014780Y011852D02*
X014353Y011852D01*
X014136Y012066D02*
X014136Y012172D01*
X014136Y012066D02*
X013922Y011852D01*
X013922Y011532D01*
X013922Y011852D02*
X013709Y012066D01*
X013709Y012172D01*
X013491Y012066D02*
X013491Y011959D01*
X013385Y011852D01*
X013064Y011852D01*
X013064Y011532D02*
X013064Y012172D01*
X013385Y012172D01*
X013491Y012066D01*
X013385Y011852D02*
X013491Y011745D01*
X013491Y011638D01*
X013385Y011532D01*
X013064Y011532D01*
X012202Y011638D02*
X012096Y011532D01*
X011882Y011532D01*
X011775Y011638D01*
X011775Y012066D01*
X011882Y012172D01*
X012096Y012172D01*
X012202Y012066D01*
X011558Y012066D02*
X011451Y012172D01*
X011238Y012172D01*
X011131Y012066D01*
X011131Y011638D01*
X011238Y011532D01*
X011451Y011532D01*
X011558Y011638D01*
X016932Y011638D02*
X017038Y011532D01*
X017252Y011532D01*
X017359Y011638D01*
X017359Y011745D01*
X017252Y011852D01*
X017145Y011852D01*
X017252Y011852D02*
X017359Y011959D01*
X017359Y012066D01*
X017252Y012172D01*
X017038Y012172D01*
X016932Y012066D01*
X017576Y011638D02*
X017683Y011638D01*
X017683Y011532D01*
X017576Y011532D01*
X017576Y011638D01*
X017898Y011638D02*
X017898Y012066D01*
X018005Y012172D01*
X018219Y012172D01*
X018325Y012066D01*
X017898Y011638D01*
X018005Y011532D01*
X018219Y011532D01*
X018325Y011638D01*
X018325Y012066D01*
X021731Y013775D02*
X021774Y013732D01*
X021861Y013732D01*
X021904Y013775D01*
X021904Y013862D01*
X021818Y013862D01*
X021904Y013949D02*
X021861Y013992D01*
X021774Y013992D01*
X021731Y013949D01*
X021731Y013775D01*
X022025Y013732D02*
X022025Y013992D01*
X022199Y013732D01*
X022199Y013992D01*
X022320Y013992D02*
X022450Y013992D01*
X022494Y013949D01*
X022494Y013775D01*
X022450Y013732D01*
X022320Y013732D01*
X022320Y013992D01*
X022681Y013862D02*
X022854Y013862D01*
X022975Y013862D02*
X023062Y013905D01*
X023106Y013905D01*
X023149Y013862D01*
X023149Y013775D01*
X023106Y013732D01*
X023019Y013732D01*
X022975Y013775D01*
X022975Y013862D02*
X022975Y013992D01*
X023149Y013992D01*
X023270Y013992D02*
X023270Y013818D01*
X023357Y013732D01*
X023444Y013818D01*
X023444Y013992D01*
X022768Y013949D02*
X022768Y013775D01*
X022618Y011292D02*
X022531Y011205D01*
X022531Y011032D01*
X022531Y011162D02*
X022704Y011162D01*
X022704Y011205D02*
X022704Y011032D01*
X022704Y011205D02*
X022618Y011292D01*
X024531Y011292D02*
X024531Y011032D01*
X024661Y011032D01*
X024704Y011075D01*
X024704Y011118D01*
X024661Y011162D01*
X024531Y011162D01*
X024661Y011162D02*
X024704Y011205D01*
X024704Y011249D01*
X024661Y011292D01*
X024531Y011292D01*
X026731Y011292D02*
X026731Y011032D01*
X026731Y011118D02*
X026861Y011118D01*
X026904Y011162D01*
X026904Y011249D01*
X026861Y011292D01*
X026731Y011292D01*
X027025Y011292D02*
X027025Y011032D01*
X027025Y011162D02*
X027112Y011162D01*
X027025Y011292D02*
X027199Y011292D01*
X027320Y011292D02*
X027320Y011032D01*
X027450Y011032D01*
X027494Y011075D01*
X027494Y011249D01*
X027450Y011292D01*
X027320Y011292D01*
X027731Y011292D02*
X027731Y011032D01*
X027731Y011118D02*
X027861Y011118D01*
X027904Y011162D01*
X027904Y011249D01*
X027861Y011292D01*
X027731Y011292D01*
X027818Y011118D02*
X027904Y011032D01*
X028025Y011075D02*
X028069Y011032D01*
X028156Y011032D01*
X028199Y011075D01*
X028199Y011118D01*
X028156Y011162D01*
X028069Y011162D01*
X028025Y011205D01*
X028025Y011249D01*
X028069Y011292D01*
X028156Y011292D01*
X028199Y011249D01*
X028320Y011292D02*
X028494Y011292D01*
X028407Y011292D02*
X028407Y011032D01*
X030831Y011032D02*
X031004Y011032D01*
X031125Y011032D02*
X031125Y011292D01*
X031299Y011032D01*
X031299Y011292D01*
X031420Y011205D02*
X031507Y011292D01*
X031594Y011205D01*
X031594Y011032D01*
X031715Y011032D02*
X031715Y011292D01*
X031845Y011292D01*
X031888Y011249D01*
X031888Y011205D01*
X031845Y011162D01*
X031715Y011162D01*
X031594Y011162D02*
X031420Y011162D01*
X031420Y011205D02*
X031420Y011032D01*
X031715Y011032D02*
X031845Y011032D01*
X031888Y011075D01*
X031888Y011118D01*
X031845Y011162D01*
X032009Y011292D02*
X032009Y011032D01*
X032183Y011032D01*
X032304Y011032D02*
X032477Y011032D01*
X032391Y011162D02*
X032304Y011162D01*
X032304Y011292D02*
X032304Y011032D01*
X032304Y011292D02*
X032477Y011292D01*
X032731Y011292D02*
X032818Y011205D01*
X032904Y011292D01*
X032904Y011032D01*
X033025Y011075D02*
X033069Y011032D01*
X033156Y011032D01*
X033199Y011075D01*
X033199Y011118D01*
X033156Y011162D01*
X033069Y011162D01*
X033025Y011205D01*
X033025Y011249D01*
X033069Y011292D01*
X033156Y011292D01*
X033199Y011249D01*
X033320Y011249D02*
X033363Y011292D01*
X033450Y011292D01*
X033494Y011249D01*
X033494Y011205D01*
X033320Y011032D01*
X033494Y011032D01*
X032731Y011032D02*
X032731Y011292D01*
X031004Y011292D02*
X030831Y011292D01*
X030831Y011032D01*
X030831Y011162D02*
X030918Y011162D01*
X028494Y013732D02*
X028320Y013732D01*
X028407Y013732D02*
X028407Y013992D01*
X028320Y013905D01*
X028199Y013949D02*
X028156Y013992D01*
X028069Y013992D01*
X028025Y013949D01*
X028025Y013905D01*
X028069Y013862D01*
X028156Y013862D01*
X028199Y013818D01*
X028199Y013775D01*
X028156Y013732D01*
X028069Y013732D01*
X028025Y013775D01*
X027904Y013732D02*
X027904Y013992D01*
X027818Y013905D01*
X027731Y013992D01*
X027731Y013732D01*
X027494Y013862D02*
X027450Y013818D01*
X027320Y013818D01*
X027320Y013732D02*
X027320Y013992D01*
X027450Y013992D01*
X027494Y013949D01*
X027494Y013862D01*
X027199Y013732D02*
X027025Y013732D01*
X027025Y013992D01*
X026904Y013949D02*
X026861Y013992D01*
X026774Y013992D01*
X026731Y013949D01*
X026731Y013905D01*
X026774Y013862D01*
X026861Y013862D01*
X026904Y013818D01*
X026904Y013775D01*
X026861Y013732D01*
X026774Y013732D01*
X026731Y013775D01*
X034731Y013775D02*
X034774Y013732D01*
X034861Y013732D01*
X034904Y013775D01*
X034904Y013862D01*
X034818Y013862D01*
X034904Y013949D02*
X034861Y013992D01*
X034774Y013992D01*
X034731Y013949D01*
X034731Y013775D01*
X035025Y013732D02*
X035025Y013992D01*
X035199Y013732D01*
X035199Y013992D01*
X035320Y013992D02*
X035320Y013732D01*
X035450Y013732D01*
X035494Y013775D01*
X035494Y013949D01*
X035450Y013992D01*
X035320Y013992D01*
X035674Y015032D02*
X035631Y015075D01*
X035674Y015032D02*
X035761Y015032D01*
X035804Y015075D01*
X035804Y015118D01*
X035761Y015162D01*
X035674Y015162D01*
X035631Y015205D01*
X035631Y015249D01*
X035674Y015292D01*
X035761Y015292D01*
X035804Y015249D01*
X035925Y015292D02*
X036099Y015292D01*
X036012Y015292D02*
X036012Y015032D01*
X036220Y015032D02*
X036220Y015292D01*
X036394Y015292D01*
X036515Y015292D02*
X036515Y015032D01*
X036515Y015118D02*
X036645Y015118D01*
X036688Y015162D01*
X036688Y015249D01*
X036645Y015292D01*
X036515Y015292D01*
X036307Y015162D02*
X036220Y015162D01*
X036220Y015032D02*
X036394Y015032D01*
X036781Y013992D02*
X036911Y013992D01*
X036954Y013949D01*
X036954Y013775D01*
X036911Y013732D01*
X036781Y013732D01*
X036781Y013992D01*
X037075Y013992D02*
X037162Y013992D01*
X037119Y013992D02*
X037119Y013732D01*
X037162Y013732D02*
X037075Y013732D01*
X037272Y013732D02*
X037272Y013992D01*
X037402Y013992D01*
X037445Y013949D01*
X037445Y013862D01*
X037402Y013818D01*
X037272Y013818D01*
X037359Y013818D02*
X037445Y013732D01*
X038430Y013052D02*
X039071Y013052D01*
X039071Y012732D01*
X038964Y012625D01*
X038751Y012625D01*
X038644Y012732D01*
X038644Y013052D01*
X038644Y013270D02*
X038964Y013270D01*
X039071Y013377D01*
X039071Y013697D01*
X038644Y013697D01*
X038751Y013914D02*
X038644Y014021D01*
X038644Y014341D01*
X038644Y014559D02*
X038644Y014773D01*
X038537Y014666D02*
X038964Y014666D01*
X039071Y014773D01*
X039071Y014989D02*
X038644Y014989D01*
X038644Y015202D02*
X038644Y015309D01*
X038644Y015202D02*
X038857Y014989D01*
X038644Y015526D02*
X038644Y015633D01*
X039071Y015633D01*
X039071Y015739D02*
X039071Y015526D01*
X038430Y015633D02*
X038324Y015633D01*
X038751Y015955D02*
X038644Y016062D01*
X038644Y016276D01*
X038751Y016382D01*
X038857Y016382D01*
X038857Y015955D01*
X038751Y015955D02*
X038964Y015955D01*
X039071Y016062D01*
X039071Y016276D01*
X039071Y016600D02*
X039071Y016920D01*
X038964Y017027D01*
X038857Y016920D01*
X038857Y016707D01*
X038751Y016600D01*
X038644Y016707D01*
X038644Y017027D01*
X038644Y017889D02*
X039071Y018316D01*
X039071Y018103D02*
X038857Y018316D01*
X038644Y018103D02*
X038537Y018103D01*
X038430Y017996D01*
X038537Y017889D01*
X038644Y017889D01*
X038857Y017889D02*
X038644Y018103D01*
X038857Y017889D02*
X038964Y017889D01*
X039071Y017996D01*
X039071Y018103D01*
X038430Y019178D02*
X038430Y019605D01*
X038430Y019392D02*
X039071Y019392D01*
X038964Y019823D02*
X038857Y019929D01*
X038857Y020250D01*
X038751Y020250D02*
X039071Y020250D01*
X039071Y019929D01*
X038964Y019823D01*
X038644Y019929D02*
X038644Y020143D01*
X038751Y020250D01*
X038644Y020467D02*
X038644Y020574D01*
X038751Y020681D01*
X038644Y020787D01*
X038751Y020894D01*
X039071Y020894D01*
X039071Y020681D02*
X038751Y020681D01*
X038644Y020467D02*
X039071Y020467D01*
X038964Y021112D02*
X038644Y021112D01*
X038964Y021112D02*
X039071Y021218D01*
X038964Y021325D01*
X039071Y021432D01*
X038964Y021539D01*
X038644Y021539D01*
X038751Y021756D02*
X038964Y021756D01*
X039071Y021863D01*
X039071Y022076D01*
X038964Y022183D01*
X038751Y022183D01*
X038644Y022076D01*
X038644Y021863D01*
X038751Y021756D01*
X038857Y022401D02*
X038644Y022614D01*
X038644Y022721D01*
X038644Y022938D02*
X038644Y023151D01*
X038537Y023045D02*
X038964Y023045D01*
X039071Y023151D01*
X039071Y023368D02*
X038430Y023368D01*
X038644Y023474D02*
X038751Y023368D01*
X038644Y023474D02*
X038644Y023688D01*
X038751Y023795D01*
X039071Y023795D01*
X039071Y024657D02*
X038430Y024657D01*
X038751Y024657D02*
X038751Y025084D01*
X038964Y025301D02*
X038857Y025408D01*
X038857Y025728D01*
X038751Y025728D02*
X039071Y025728D01*
X039071Y025408D01*
X038964Y025301D01*
X039071Y025084D02*
X038430Y025084D01*
X038644Y025408D02*
X038644Y025621D01*
X038751Y025728D01*
X038751Y025946D02*
X038964Y025946D01*
X039071Y026052D01*
X039071Y026373D01*
X039071Y026590D02*
X038430Y026590D01*
X038644Y026373D02*
X038644Y026052D01*
X038751Y025946D01*
X038857Y026590D02*
X038644Y026910D01*
X038751Y027127D02*
X038644Y027234D01*
X038644Y027447D01*
X038751Y027554D01*
X038857Y027554D01*
X038857Y027127D01*
X038751Y027127D02*
X038964Y027127D01*
X039071Y027234D01*
X039071Y027447D01*
X039071Y027772D02*
X038644Y027772D01*
X038644Y027985D02*
X038644Y028092D01*
X038644Y027985D02*
X038857Y027772D01*
X038751Y028309D02*
X038644Y028416D01*
X038644Y028736D01*
X038644Y028953D02*
X038644Y029274D01*
X038751Y029380D01*
X038964Y029380D01*
X039071Y029274D01*
X039071Y028953D01*
X039284Y028953D02*
X038644Y028953D01*
X038964Y028736D02*
X038857Y028629D01*
X038857Y028416D01*
X038751Y028309D01*
X039071Y028309D02*
X039071Y028629D01*
X038964Y028736D01*
X038964Y029598D02*
X038857Y029705D01*
X038857Y030025D01*
X038751Y030025D02*
X039071Y030025D01*
X039071Y029705D01*
X038964Y029598D01*
X038644Y029705D02*
X038644Y029918D01*
X038751Y030025D01*
X038751Y030242D02*
X038964Y030242D01*
X039071Y030349D01*
X039071Y030669D01*
X038964Y030887D02*
X038751Y030887D01*
X038644Y030994D01*
X038644Y031207D01*
X038751Y031314D01*
X038857Y031314D01*
X038857Y030887D01*
X038964Y030887D02*
X039071Y030994D01*
X039071Y031207D01*
X038644Y030669D02*
X038644Y030349D01*
X038751Y030242D01*
X037379Y029642D02*
X037379Y029382D01*
X037206Y029642D01*
X037206Y029382D01*
X037096Y029382D02*
X037009Y029382D01*
X037053Y029382D02*
X037053Y029642D01*
X037096Y029642D02*
X037009Y029642D01*
X036594Y029599D02*
X036594Y029512D01*
X036550Y029468D01*
X036420Y029468D01*
X036420Y029382D02*
X036420Y029642D01*
X036550Y029642D01*
X036594Y029599D01*
X036507Y029468D02*
X036594Y029382D01*
X036299Y029382D02*
X036299Y029642D01*
X036125Y029642D02*
X036125Y029382D01*
X036212Y029468D01*
X036299Y029382D01*
X036004Y029512D02*
X035961Y029468D01*
X035831Y029468D01*
X035831Y029382D02*
X035831Y029642D01*
X035961Y029642D01*
X036004Y029599D01*
X036004Y029512D01*
X036025Y031032D02*
X036025Y031292D01*
X036199Y031032D01*
X036199Y031292D01*
X036320Y031292D02*
X036450Y031292D01*
X036494Y031249D01*
X036494Y031075D01*
X036450Y031032D01*
X036320Y031032D01*
X036320Y031292D01*
X035904Y031249D02*
X035861Y031292D01*
X035774Y031292D01*
X035731Y031249D01*
X035731Y031075D01*
X035774Y031032D01*
X035861Y031032D01*
X035904Y031075D01*
X035904Y031162D01*
X035818Y031162D01*
X035736Y032032D02*
X036163Y032032D01*
X035950Y032032D02*
X035950Y032672D01*
X035736Y032459D01*
X035521Y032138D02*
X035521Y032032D01*
X035414Y032032D01*
X035414Y032138D01*
X035521Y032138D01*
X035196Y032138D02*
X035090Y032032D01*
X034876Y032032D01*
X034769Y032138D01*
X035196Y032566D01*
X035196Y032138D01*
X034769Y032138D02*
X034769Y032566D01*
X034876Y032672D01*
X035090Y032672D01*
X035196Y032566D01*
X036381Y032352D02*
X036808Y032352D01*
X037025Y032459D02*
X037345Y032459D01*
X037452Y032352D01*
X037452Y032138D01*
X037345Y032032D01*
X037025Y032032D01*
X037025Y032672D01*
X037670Y032566D02*
X037776Y032672D01*
X037990Y032672D01*
X038097Y032566D01*
X038097Y032459D01*
X037990Y032352D01*
X038097Y032245D01*
X038097Y032138D01*
X037990Y032032D01*
X037776Y032032D01*
X037670Y032138D01*
X037883Y032352D02*
X037990Y032352D01*
X037312Y031249D02*
X037312Y031075D01*
X037225Y031162D02*
X037399Y031162D01*
X037104Y031292D02*
X037104Y031032D01*
X036931Y031032D02*
X036931Y031292D01*
X037018Y031205D01*
X037104Y031292D01*
X033907Y032138D02*
X033801Y032032D01*
X033587Y032032D01*
X033480Y032138D01*
X033480Y032566D01*
X033587Y032672D01*
X033801Y032672D01*
X033907Y032566D01*
X033263Y032672D02*
X033263Y032032D01*
X032836Y032672D01*
X032836Y032032D01*
X032618Y032138D02*
X032511Y032032D01*
X032298Y032032D01*
X032191Y032138D01*
X032191Y032566D01*
X032298Y032672D01*
X032511Y032672D01*
X032618Y032566D01*
X031974Y032459D02*
X031868Y032459D01*
X031654Y032245D01*
X031654Y032032D02*
X031654Y032459D01*
X031437Y032352D02*
X031330Y032459D01*
X031116Y032459D01*
X031010Y032352D01*
X031010Y032138D01*
X031116Y032032D01*
X031330Y032032D01*
X031437Y032245D02*
X031010Y032245D01*
X030792Y032032D02*
X030472Y032032D01*
X030365Y032138D01*
X030365Y032352D01*
X030472Y032459D01*
X030792Y032459D01*
X030792Y032672D02*
X030792Y032032D01*
X030149Y032032D02*
X029935Y032032D01*
X030042Y032032D02*
X030042Y032672D01*
X029935Y032672D01*
X029718Y032352D02*
X029718Y032245D01*
X029291Y032245D01*
X029291Y032138D02*
X029291Y032352D01*
X029398Y032459D01*
X029611Y032459D01*
X029718Y032352D01*
X029611Y032032D02*
X029398Y032032D01*
X029291Y032138D01*
X029075Y032352D02*
X028861Y032352D01*
X028644Y032352D02*
X028644Y032032D01*
X028644Y032352D02*
X028537Y032459D01*
X028217Y032459D01*
X028217Y032032D01*
X027999Y032245D02*
X027572Y032245D01*
X027572Y032138D02*
X027572Y032352D01*
X027679Y032459D01*
X027892Y032459D01*
X027999Y032352D01*
X027999Y032245D01*
X027892Y032032D02*
X027679Y032032D01*
X027572Y032138D01*
X027355Y032032D02*
X027034Y032032D01*
X026928Y032138D01*
X026928Y032459D01*
X026710Y032352D02*
X026710Y032032D01*
X026390Y032032D01*
X026283Y032138D01*
X026390Y032245D01*
X026710Y032245D01*
X026710Y032352D02*
X026603Y032459D01*
X026390Y032459D01*
X026066Y032459D02*
X025959Y032459D01*
X025746Y032245D01*
X025746Y032032D02*
X025746Y032459D01*
X025528Y032672D02*
X025101Y032672D01*
X025101Y032032D01*
X024884Y032032D02*
X024884Y032459D01*
X025101Y032352D02*
X025315Y032352D01*
X024884Y032032D02*
X024564Y032032D01*
X024457Y032138D01*
X024457Y032459D01*
X024239Y032459D02*
X023919Y032459D01*
X023812Y032352D01*
X023812Y032138D01*
X023919Y032032D01*
X024239Y032032D01*
X024239Y032672D01*
X023596Y032459D02*
X023489Y032459D01*
X023275Y032245D01*
X023275Y032032D02*
X023275Y032459D01*
X023058Y032459D02*
X023058Y032032D01*
X023058Y032352D02*
X022631Y032352D01*
X022631Y032459D02*
X022631Y032032D01*
X022631Y032459D02*
X022844Y032672D01*
X023058Y032459D01*
X022618Y031292D02*
X022531Y031205D01*
X022531Y031032D01*
X022531Y031162D02*
X022704Y031162D01*
X022704Y031205D02*
X022704Y031032D01*
X022704Y031205D02*
X022618Y031292D01*
X024531Y031292D02*
X024531Y031032D01*
X024661Y031032D01*
X024704Y031075D01*
X024704Y031118D01*
X024661Y031162D01*
X024531Y031162D01*
X024661Y031162D02*
X024704Y031205D01*
X024704Y031249D01*
X024661Y031292D01*
X024531Y031292D01*
X026731Y031292D02*
X026731Y031032D01*
X026731Y031118D02*
X026861Y031118D01*
X026904Y031162D01*
X026904Y031249D01*
X026861Y031292D01*
X026731Y031292D01*
X027025Y031292D02*
X027025Y031032D01*
X027025Y031162D02*
X027112Y031162D01*
X027025Y031292D02*
X027199Y031292D01*
X027320Y031292D02*
X027320Y031032D01*
X027450Y031032D01*
X027494Y031075D01*
X027494Y031249D01*
X027450Y031292D01*
X027320Y031292D01*
X027731Y031292D02*
X027731Y031032D01*
X027731Y031118D02*
X027861Y031118D01*
X027904Y031162D01*
X027904Y031249D01*
X027861Y031292D01*
X027731Y031292D01*
X027818Y031118D02*
X027904Y031032D01*
X028025Y031075D02*
X028069Y031032D01*
X028156Y031032D01*
X028199Y031075D01*
X028199Y031118D01*
X028156Y031162D01*
X028069Y031162D01*
X028025Y031205D01*
X028025Y031249D01*
X028069Y031292D01*
X028156Y031292D01*
X028199Y031249D01*
X028320Y031292D02*
X028494Y031292D01*
X028407Y031292D02*
X028407Y031032D01*
X028968Y032032D02*
X028968Y032566D01*
X029075Y032672D01*
X027355Y032459D02*
X027355Y032032D01*
X030831Y031292D02*
X030831Y031032D01*
X031004Y031032D01*
X031125Y031032D02*
X031125Y031292D01*
X031299Y031032D01*
X031299Y031292D01*
X031420Y031205D02*
X031507Y031292D01*
X031594Y031205D01*
X031594Y031032D01*
X031715Y031032D02*
X031715Y031292D01*
X031845Y031292D01*
X031888Y031249D01*
X031888Y031205D01*
X031845Y031162D01*
X031715Y031162D01*
X031594Y031162D02*
X031420Y031162D01*
X031420Y031205D02*
X031420Y031032D01*
X031715Y031032D02*
X031845Y031032D01*
X031888Y031075D01*
X031888Y031118D01*
X031845Y031162D01*
X032009Y031292D02*
X032009Y031032D01*
X032183Y031032D01*
X032304Y031032D02*
X032477Y031032D01*
X032391Y031162D02*
X032304Y031162D01*
X032304Y031292D02*
X032304Y031032D01*
X032304Y031292D02*
X032477Y031292D01*
X032731Y031292D02*
X032818Y031205D01*
X032904Y031292D01*
X032904Y031032D01*
X033025Y031075D02*
X033069Y031032D01*
X033156Y031032D01*
X033199Y031075D01*
X033199Y031118D01*
X033156Y031162D01*
X033069Y031162D01*
X033025Y031205D01*
X033025Y031249D01*
X033069Y031292D01*
X033156Y031292D01*
X033199Y031249D01*
X033320Y031249D02*
X033363Y031292D01*
X033450Y031292D01*
X033494Y031249D01*
X033494Y031205D01*
X033320Y031032D01*
X033494Y031032D01*
X032731Y031032D02*
X032731Y031292D01*
X031437Y032245D02*
X031437Y032352D01*
X031004Y031292D02*
X030831Y031292D01*
X030831Y031162D02*
X030918Y031162D01*
X035674Y025292D02*
X035631Y025249D01*
X035631Y025205D01*
X035674Y025162D01*
X035761Y025162D01*
X035804Y025118D01*
X035804Y025075D01*
X035761Y025032D01*
X035674Y025032D01*
X035631Y025075D01*
X035674Y025292D02*
X035761Y025292D01*
X035804Y025249D01*
X035925Y025292D02*
X036099Y025292D01*
X036012Y025292D02*
X036012Y025032D01*
X036220Y025032D02*
X036220Y025292D01*
X036394Y025292D01*
X036515Y025292D02*
X036515Y025032D01*
X036515Y025118D02*
X036645Y025118D01*
X036688Y025162D01*
X036688Y025249D01*
X036645Y025292D01*
X036515Y025292D01*
X036307Y025162D02*
X036220Y025162D01*
X036220Y025032D02*
X036394Y025032D01*
X036781Y023992D02*
X036911Y023992D01*
X036954Y023949D01*
X036954Y023775D01*
X036911Y023732D01*
X036781Y023732D01*
X036781Y023992D01*
X037075Y023992D02*
X037162Y023992D01*
X037119Y023992D02*
X037119Y023732D01*
X037162Y023732D02*
X037075Y023732D01*
X037272Y023732D02*
X037272Y023992D01*
X037402Y023992D01*
X037445Y023949D01*
X037445Y023862D01*
X037402Y023818D01*
X037272Y023818D01*
X037359Y023818D02*
X037445Y023732D01*
X038644Y022401D02*
X039071Y022401D01*
X037399Y021162D02*
X037225Y021162D01*
X037312Y021249D02*
X037312Y021075D01*
X037104Y021032D02*
X037104Y021292D01*
X037018Y021205D01*
X036931Y021292D01*
X036931Y021032D01*
X036494Y021075D02*
X036494Y021249D01*
X036450Y021292D01*
X036320Y021292D01*
X036320Y021032D01*
X036450Y021032D01*
X036494Y021075D01*
X036199Y021032D02*
X036199Y021292D01*
X036025Y021292D02*
X036199Y021032D01*
X036025Y021032D02*
X036025Y021292D01*
X035904Y021249D02*
X035861Y021292D01*
X035774Y021292D01*
X035731Y021249D01*
X035731Y021075D01*
X035774Y021032D01*
X035861Y021032D01*
X035904Y021075D01*
X035904Y021162D01*
X035818Y021162D01*
X035831Y019642D02*
X035961Y019642D01*
X036004Y019599D01*
X036004Y019512D01*
X035961Y019468D01*
X035831Y019468D01*
X035831Y019382D02*
X035831Y019642D01*
X036125Y019642D02*
X036125Y019382D01*
X036212Y019468D01*
X036299Y019382D01*
X036299Y019642D01*
X036420Y019642D02*
X036550Y019642D01*
X036594Y019599D01*
X036594Y019512D01*
X036550Y019468D01*
X036420Y019468D01*
X036420Y019382D02*
X036420Y019642D01*
X036507Y019468D02*
X036594Y019382D01*
X037009Y019382D02*
X037096Y019382D01*
X037053Y019382D02*
X037053Y019642D01*
X037096Y019642D02*
X037009Y019642D01*
X037206Y019642D02*
X037379Y019382D01*
X037379Y019642D01*
X037206Y019642D02*
X037206Y019382D01*
X033494Y021032D02*
X033320Y021032D01*
X033494Y021205D01*
X033494Y021249D01*
X033450Y021292D01*
X033363Y021292D01*
X033320Y021249D01*
X033199Y021249D02*
X033156Y021292D01*
X033069Y021292D01*
X033025Y021249D01*
X033025Y021205D01*
X033069Y021162D01*
X033156Y021162D01*
X033199Y021118D01*
X033199Y021075D01*
X033156Y021032D01*
X033069Y021032D01*
X033025Y021075D01*
X032904Y021032D02*
X032904Y021292D01*
X032818Y021205D01*
X032731Y021292D01*
X032731Y021032D01*
X032477Y021032D02*
X032304Y021032D01*
X032304Y021292D01*
X032477Y021292D01*
X032391Y021162D02*
X032304Y021162D01*
X032183Y021032D02*
X032009Y021032D01*
X032009Y021292D01*
X031888Y021249D02*
X031888Y021205D01*
X031845Y021162D01*
X031715Y021162D01*
X031594Y021162D02*
X031420Y021162D01*
X031420Y021205D02*
X031507Y021292D01*
X031594Y021205D01*
X031594Y021032D01*
X031715Y021032D02*
X031715Y021292D01*
X031845Y021292D01*
X031888Y021249D01*
X031845Y021162D02*
X031888Y021118D01*
X031888Y021075D01*
X031845Y021032D01*
X031715Y021032D01*
X031420Y021032D02*
X031420Y021205D01*
X031299Y021292D02*
X031299Y021032D01*
X031125Y021292D01*
X031125Y021032D01*
X031004Y021032D02*
X030831Y021032D01*
X030831Y021292D01*
X031004Y021292D01*
X030918Y021162D02*
X030831Y021162D01*
X028494Y021292D02*
X028320Y021292D01*
X028407Y021292D02*
X028407Y021032D01*
X028199Y021075D02*
X028156Y021032D01*
X028069Y021032D01*
X028025Y021075D01*
X028069Y021162D02*
X028156Y021162D01*
X028199Y021118D01*
X028199Y021075D01*
X028069Y021162D02*
X028025Y021205D01*
X028025Y021249D01*
X028069Y021292D01*
X028156Y021292D01*
X028199Y021249D01*
X027904Y021249D02*
X027904Y021162D01*
X027861Y021118D01*
X027731Y021118D01*
X027731Y021032D02*
X027731Y021292D01*
X027861Y021292D01*
X027904Y021249D01*
X027818Y021118D02*
X027904Y021032D01*
X027494Y021075D02*
X027494Y021249D01*
X027450Y021292D01*
X027320Y021292D01*
X027320Y021032D01*
X027450Y021032D01*
X027494Y021075D01*
X027199Y021292D02*
X027025Y021292D01*
X027025Y021032D01*
X027025Y021162D02*
X027112Y021162D01*
X026904Y021162D02*
X026861Y021118D01*
X026731Y021118D01*
X026731Y021032D02*
X026731Y021292D01*
X026861Y021292D01*
X026904Y021249D01*
X026904Y021162D01*
X024704Y021118D02*
X024704Y021075D01*
X024661Y021032D01*
X024531Y021032D01*
X024531Y021292D01*
X024661Y021292D01*
X024704Y021249D01*
X024704Y021205D01*
X024661Y021162D01*
X024531Y021162D01*
X024661Y021162D02*
X024704Y021118D01*
X022704Y021162D02*
X022531Y021162D01*
X022531Y021205D02*
X022618Y021292D01*
X022704Y021205D01*
X022704Y021032D01*
X022531Y021032D02*
X022531Y021205D01*
X022450Y023732D02*
X022494Y023775D01*
X022494Y023949D01*
X022450Y023992D01*
X022320Y023992D01*
X022320Y023732D01*
X022450Y023732D01*
X022199Y023732D02*
X022199Y023992D01*
X022025Y023992D02*
X022025Y023732D01*
X021904Y023775D02*
X021904Y023862D01*
X021818Y023862D01*
X021904Y023949D02*
X021861Y023992D01*
X021774Y023992D01*
X021731Y023949D01*
X021731Y023775D01*
X021774Y023732D01*
X021861Y023732D01*
X021904Y023775D01*
X022025Y023992D02*
X022199Y023732D01*
X022681Y023862D02*
X022854Y023862D01*
X022975Y023862D02*
X023062Y023905D01*
X023106Y023905D01*
X023149Y023862D01*
X023149Y023775D01*
X023106Y023732D01*
X023019Y023732D01*
X022975Y023775D01*
X022975Y023862D02*
X022975Y023992D01*
X023149Y023992D01*
X023270Y023992D02*
X023270Y023818D01*
X023357Y023732D01*
X023444Y023818D01*
X023444Y023992D01*
X022768Y023949D02*
X022768Y023775D01*
X026731Y023775D02*
X026774Y023732D01*
X026861Y023732D01*
X026904Y023775D01*
X026904Y023818D01*
X026861Y023862D01*
X026774Y023862D01*
X026731Y023905D01*
X026731Y023949D01*
X026774Y023992D01*
X026861Y023992D01*
X026904Y023949D01*
X027025Y023992D02*
X027025Y023732D01*
X027199Y023732D01*
X027320Y023732D02*
X027320Y023992D01*
X027450Y023992D01*
X027494Y023949D01*
X027494Y023862D01*
X027450Y023818D01*
X027320Y023818D01*
X027731Y023732D02*
X027731Y023992D01*
X027818Y023905D01*
X027904Y023992D01*
X027904Y023732D01*
X028025Y023775D02*
X028069Y023732D01*
X028156Y023732D01*
X028199Y023775D01*
X028199Y023818D01*
X028156Y023862D01*
X028069Y023862D01*
X028025Y023905D01*
X028025Y023949D01*
X028069Y023992D01*
X028156Y023992D01*
X028199Y023949D01*
X028320Y023905D02*
X028407Y023992D01*
X028407Y023732D01*
X028320Y023732D02*
X028494Y023732D01*
X034731Y023775D02*
X034774Y023732D01*
X034861Y023732D01*
X034904Y023775D01*
X034904Y023862D01*
X034818Y023862D01*
X034904Y023949D02*
X034861Y023992D01*
X034774Y023992D01*
X034731Y023949D01*
X034731Y023775D01*
X035025Y023732D02*
X035025Y023992D01*
X035199Y023732D01*
X035199Y023992D01*
X035320Y023992D02*
X035320Y023732D01*
X035450Y023732D01*
X035494Y023775D01*
X035494Y023949D01*
X035450Y023992D01*
X035320Y023992D01*
X038857Y026590D02*
X039071Y026910D01*
X038964Y014341D02*
X038857Y014235D01*
X038857Y014021D01*
X038751Y013914D01*
X039071Y013914D02*
X039071Y014235D01*
X038964Y014341D01*
X039071Y012408D02*
X038751Y012408D01*
X038644Y012301D01*
X038644Y011981D01*
X039071Y011981D01*
X039071Y011765D02*
X039071Y011551D01*
X039071Y011658D02*
X038430Y011658D01*
X038430Y011551D02*
X038430Y011765D01*
X037399Y011162D02*
X037225Y011162D01*
X037312Y011249D02*
X037312Y011075D01*
X037104Y011032D02*
X037104Y011292D01*
X037018Y011205D01*
X036931Y011292D01*
X036931Y011032D01*
X036494Y011075D02*
X036494Y011249D01*
X036450Y011292D01*
X036320Y011292D01*
X036320Y011032D01*
X036450Y011032D01*
X036494Y011075D01*
X036199Y011032D02*
X036199Y011292D01*
X036025Y011292D02*
X036199Y011032D01*
X036025Y011032D02*
X036025Y011292D01*
X035904Y011249D02*
X035861Y011292D01*
X035774Y011292D01*
X035731Y011249D01*
X035731Y011075D01*
X035774Y011032D01*
X035861Y011032D01*
X035904Y011075D01*
X035904Y011162D01*
X035818Y011162D01*
X035831Y009642D02*
X035961Y009642D01*
X036004Y009599D01*
X036004Y009512D01*
X035961Y009468D01*
X035831Y009468D01*
X035831Y009382D02*
X035831Y009642D01*
X036125Y009642D02*
X036125Y009382D01*
X036212Y009468D01*
X036299Y009382D01*
X036299Y009642D01*
X036420Y009642D02*
X036550Y009642D01*
X036594Y009599D01*
X036594Y009512D01*
X036550Y009468D01*
X036420Y009468D01*
X036420Y009382D02*
X036420Y009642D01*
X036507Y009468D02*
X036594Y009382D01*
X037009Y009382D02*
X037096Y009382D01*
X037053Y009382D02*
X037053Y009642D01*
X037096Y009642D02*
X037009Y009642D01*
X037206Y009642D02*
X037379Y009382D01*
X037379Y009642D01*
X037206Y009642D02*
X037206Y009382D01*
X038430Y008756D02*
X038430Y008329D01*
X038430Y008542D02*
X039071Y008542D01*
X038964Y008973D02*
X038751Y008973D01*
X038644Y009080D01*
X038644Y009293D01*
X038751Y009400D01*
X038857Y009400D01*
X038857Y008973D01*
X038964Y008973D02*
X039071Y009080D01*
X039071Y009293D01*
X038964Y009618D02*
X038751Y009618D01*
X038644Y009724D01*
X038644Y010045D01*
X038751Y010262D02*
X038644Y010369D01*
X038644Y010582D01*
X038751Y010689D01*
X039071Y010689D01*
X039071Y010262D02*
X038430Y010262D01*
X039071Y010045D02*
X039071Y009724D01*
X038964Y009618D01*
X039071Y007467D02*
X038751Y007467D01*
X038644Y007360D01*
X038644Y007040D01*
X039071Y007040D01*
X039071Y006822D02*
X039071Y006502D01*
X038964Y006395D01*
X038751Y006395D01*
X038644Y006502D01*
X038644Y006822D01*
X039178Y006822D01*
X039284Y006715D01*
X039284Y006609D01*
X039071Y006179D02*
X039071Y005965D01*
X039071Y006072D02*
X038644Y006072D01*
X038644Y005965D01*
X038644Y005748D02*
X038644Y005428D01*
X038751Y005321D01*
X038857Y005428D01*
X038857Y005641D01*
X038964Y005748D01*
X039071Y005641D01*
X039071Y005321D01*
X038857Y005103D02*
X038751Y005103D01*
X038644Y004996D01*
X038644Y004783D01*
X038751Y004676D01*
X038964Y004676D01*
X039071Y004783D01*
X039071Y004996D01*
X038857Y005103D02*
X038857Y004676D01*
X038964Y004459D02*
X038537Y004459D01*
X038430Y004352D01*
X038430Y004032D01*
X039071Y004032D01*
X039071Y004352D01*
X038964Y004459D01*
X037445Y003949D02*
X037445Y003862D01*
X037402Y003818D01*
X037272Y003818D01*
X037272Y003732D02*
X037272Y003992D01*
X037402Y003992D01*
X037445Y003949D01*
X037359Y003818D02*
X037445Y003732D01*
X037162Y003732D02*
X037075Y003732D01*
X037119Y003732D02*
X037119Y003992D01*
X037162Y003992D02*
X037075Y003992D01*
X036954Y003949D02*
X036911Y003992D01*
X036781Y003992D01*
X036781Y003732D01*
X036911Y003732D01*
X036954Y003775D01*
X036954Y003949D01*
X036515Y005032D02*
X036515Y005292D01*
X036645Y005292D01*
X036688Y005249D01*
X036688Y005162D01*
X036645Y005118D01*
X036515Y005118D01*
X036394Y005032D02*
X036220Y005032D01*
X036220Y005292D01*
X036394Y005292D01*
X036307Y005162D02*
X036220Y005162D01*
X036099Y005292D02*
X035925Y005292D01*
X036012Y005292D02*
X036012Y005032D01*
X035804Y005075D02*
X035761Y005032D01*
X035674Y005032D01*
X035631Y005075D01*
X035674Y005162D02*
X035761Y005162D01*
X035804Y005118D01*
X035804Y005075D01*
X035674Y005162D02*
X035631Y005205D01*
X035631Y005249D01*
X035674Y005292D01*
X035761Y005292D01*
X035804Y005249D01*
X035450Y003992D02*
X035320Y003992D01*
X035320Y003732D01*
X035450Y003732D01*
X035494Y003775D01*
X035494Y003949D01*
X035450Y003992D01*
X035199Y003992D02*
X035199Y003732D01*
X035025Y003992D01*
X035025Y003732D01*
X034904Y003775D02*
X034904Y003862D01*
X034818Y003862D01*
X034904Y003949D02*
X034861Y003992D01*
X034774Y003992D01*
X034731Y003949D01*
X034731Y003775D01*
X034774Y003732D01*
X034861Y003732D01*
X034904Y003775D01*
X038324Y006072D02*
X038430Y006072D01*
X028494Y003732D02*
X028320Y003732D01*
X028407Y003732D02*
X028407Y003992D01*
X028320Y003905D01*
X028199Y003949D02*
X028156Y003992D01*
X028069Y003992D01*
X028025Y003949D01*
X028025Y003905D01*
X028069Y003862D01*
X028156Y003862D01*
X028199Y003818D01*
X028199Y003775D01*
X028156Y003732D01*
X028069Y003732D01*
X028025Y003775D01*
X027904Y003732D02*
X027904Y003992D01*
X027818Y003905D01*
X027731Y003992D01*
X027731Y003732D01*
X027494Y003862D02*
X027450Y003818D01*
X027320Y003818D01*
X027320Y003732D02*
X027320Y003992D01*
X027450Y003992D01*
X027494Y003949D01*
X027494Y003862D01*
X027199Y003732D02*
X027025Y003732D01*
X027025Y003992D01*
X026904Y003949D02*
X026861Y003992D01*
X026774Y003992D01*
X026731Y003949D01*
X026731Y003905D01*
X026774Y003862D01*
X026861Y003862D01*
X026904Y003818D01*
X026904Y003775D01*
X026861Y003732D01*
X026774Y003732D01*
X026731Y003775D01*
X023444Y003818D02*
X023357Y003732D01*
X023270Y003818D01*
X023270Y003992D01*
X023149Y003992D02*
X022975Y003992D01*
X022975Y003862D01*
X023062Y003905D01*
X023106Y003905D01*
X023149Y003862D01*
X023149Y003775D01*
X023106Y003732D01*
X023019Y003732D01*
X022975Y003775D01*
X022854Y003862D02*
X022681Y003862D01*
X022768Y003949D02*
X022768Y003775D01*
X022494Y003775D02*
X022494Y003949D01*
X022450Y003992D01*
X022320Y003992D01*
X022320Y003732D01*
X022450Y003732D01*
X022494Y003775D01*
X022199Y003732D02*
X022199Y003992D01*
X022025Y003992D02*
X022025Y003732D01*
X021904Y003775D02*
X021904Y003862D01*
X021818Y003862D01*
X021904Y003949D02*
X021861Y003992D01*
X021774Y003992D01*
X021731Y003949D01*
X021731Y003775D01*
X021774Y003732D01*
X021861Y003732D01*
X021904Y003775D01*
X022025Y003992D02*
X022199Y003732D01*
X023444Y003818D02*
X023444Y003992D01*
X011201Y016702D02*
X009001Y016702D01*
X009001Y031302D01*
X009851Y031302D01*
X009853Y031272D01*
X009858Y031242D01*
X009867Y031213D01*
X009880Y031186D01*
X009895Y031160D01*
X009914Y031136D01*
X009935Y031115D01*
X009959Y031096D01*
X009985Y031081D01*
X010012Y031068D01*
X010041Y031059D01*
X010071Y031054D01*
X010101Y031052D01*
X010131Y031054D01*
X010161Y031059D01*
X010190Y031068D01*
X010217Y031081D01*
X010243Y031096D01*
X010267Y031115D01*
X010288Y031136D01*
X010307Y031160D01*
X010322Y031186D01*
X010335Y031213D01*
X010344Y031242D01*
X010349Y031272D01*
X010351Y031302D01*
X011201Y031302D01*
X011201Y016702D01*
X000601Y030502D02*
X000603Y030565D01*
X000609Y030627D01*
X000619Y030689D01*
X000632Y030751D01*
X000650Y030811D01*
X000671Y030870D01*
X000696Y030928D01*
X000725Y030984D01*
X000757Y031038D01*
X000792Y031090D01*
X000830Y031139D01*
X000872Y031187D01*
X000916Y031231D01*
X000964Y031273D01*
X001013Y031311D01*
X001065Y031346D01*
X001119Y031378D01*
X001175Y031407D01*
X001233Y031432D01*
X001292Y031453D01*
X001352Y031471D01*
X001414Y031484D01*
X001476Y031494D01*
X001538Y031500D01*
X001601Y031502D01*
X001664Y031500D01*
X001726Y031494D01*
X001788Y031484D01*
X001850Y031471D01*
X001910Y031453D01*
X001969Y031432D01*
X002027Y031407D01*
X002083Y031378D01*
X002137Y031346D01*
X002189Y031311D01*
X002238Y031273D01*
X002286Y031231D01*
X002330Y031187D01*
X002372Y031139D01*
X002410Y031090D01*
X002445Y031038D01*
X002477Y030984D01*
X002506Y030928D01*
X002531Y030870D01*
X002552Y030811D01*
X002570Y030751D01*
X002583Y030689D01*
X002593Y030627D01*
X002599Y030565D01*
X002601Y030502D01*
X002599Y030439D01*
X002593Y030377D01*
X002583Y030315D01*
X002570Y030253D01*
X002552Y030193D01*
X002531Y030134D01*
X002506Y030076D01*
X002477Y030020D01*
X002445Y029966D01*
X002410Y029914D01*
X002372Y029865D01*
X002330Y029817D01*
X002286Y029773D01*
X002238Y029731D01*
X002189Y029693D01*
X002137Y029658D01*
X002083Y029626D01*
X002027Y029597D01*
X001969Y029572D01*
X001910Y029551D01*
X001850Y029533D01*
X001788Y029520D01*
X001726Y029510D01*
X001664Y029504D01*
X001601Y029502D01*
X001538Y029504D01*
X001476Y029510D01*
X001414Y029520D01*
X001352Y029533D01*
X001292Y029551D01*
X001233Y029572D01*
X001175Y029597D01*
X001119Y029626D01*
X001065Y029658D01*
X001013Y029693D01*
X000964Y029731D01*
X000916Y029773D01*
X000872Y029817D01*
X000830Y029865D01*
X000792Y029914D01*
X000757Y029966D01*
X000725Y030020D01*
X000696Y030076D01*
X000671Y030134D01*
X000650Y030193D01*
X000632Y030253D01*
X000619Y030315D01*
X000609Y030377D01*
X000603Y030439D01*
X000601Y030502D01*
D11*
X002697Y016982D02*
X002621Y016905D01*
X002621Y016598D01*
X002697Y016522D01*
X002851Y016522D01*
X002928Y016598D01*
X002928Y016752D01*
X002774Y016752D01*
X002928Y016905D02*
X002851Y016982D01*
X002697Y016982D01*
X003081Y016982D02*
X003311Y016982D01*
X003388Y016905D01*
X003388Y016752D01*
X003311Y016675D01*
X003081Y016675D01*
X003081Y016522D02*
X003081Y016982D01*
X003235Y016675D02*
X003388Y016522D01*
X003541Y016522D02*
X003541Y016982D01*
X003848Y016522D01*
X003848Y016982D01*
X003848Y011482D02*
X003541Y011175D01*
X003618Y011252D02*
X003848Y011022D01*
X003541Y011022D02*
X003541Y011482D01*
X003081Y011482D02*
X003081Y011022D01*
X003388Y011022D01*
X002928Y011098D02*
X002851Y011022D01*
X002621Y011022D01*
X002621Y011482D01*
X002851Y011482D01*
X002928Y011405D01*
X002928Y011329D01*
X002851Y011252D01*
X002621Y011252D01*
X002851Y011252D02*
X002928Y011175D01*
X002928Y011098D01*
D12*
X001601Y008002D02*
X001601Y004002D01*
X001851Y004002D01*
X001851Y008002D01*
X003351Y008002D01*
X003351Y004002D01*
X001851Y004002D01*
X001851Y008002D02*
X001601Y008002D01*
X001851Y011002D02*
X001351Y011002D01*
X001101Y011252D01*
X001101Y011752D01*
X001351Y012002D01*
X001101Y012252D01*
X001101Y012752D01*
X001351Y013002D01*
X001101Y013252D01*
X001101Y013752D01*
X001351Y014002D01*
X001101Y014252D01*
X001101Y014752D01*
X001351Y015002D01*
X001101Y015252D01*
X001101Y015752D01*
X001351Y016002D01*
X001101Y016252D01*
X001101Y016752D01*
X001351Y017002D01*
X001851Y017002D01*
X002101Y016752D01*
X002101Y016252D01*
X001851Y016002D01*
X002101Y015752D01*
X002101Y015252D01*
X001851Y015002D01*
X002101Y014752D01*
X002101Y014252D01*
X001851Y014002D01*
X002101Y013752D01*
X002101Y013252D01*
X001851Y013002D01*
X002101Y012752D01*
X002101Y012252D01*
X001851Y012002D01*
X002101Y011752D01*
X002101Y011252D01*
X001851Y011002D01*
X007117Y011002D02*
X007119Y011064D01*
X007125Y011127D01*
X007135Y011188D01*
X007149Y011249D01*
X007166Y011309D01*
X007187Y011368D01*
X007213Y011425D01*
X007241Y011480D01*
X007273Y011534D01*
X007309Y011585D01*
X007347Y011635D01*
X007389Y011681D01*
X007433Y011725D01*
X007481Y011766D01*
X007530Y011804D01*
X007582Y011838D01*
X007636Y011869D01*
X007692Y011897D01*
X007750Y011921D01*
X007809Y011942D01*
X007869Y011958D01*
X007930Y011971D01*
X007992Y011980D01*
X008054Y011985D01*
X008117Y011986D01*
X008179Y011983D01*
X008241Y011976D01*
X008303Y011965D01*
X008363Y011950D01*
X008423Y011932D01*
X008481Y011910D01*
X008538Y011884D01*
X008593Y011854D01*
X008646Y011821D01*
X008697Y011785D01*
X008745Y011746D01*
X008791Y011703D01*
X008834Y011658D01*
X008874Y011610D01*
X008911Y011560D01*
X008945Y011507D01*
X008976Y011453D01*
X009002Y011397D01*
X009026Y011339D01*
X009045Y011279D01*
X009061Y011219D01*
X009073Y011157D01*
X009081Y011096D01*
X009085Y011033D01*
X009085Y010971D01*
X009081Y010908D01*
X009073Y010847D01*
X009061Y010785D01*
X009045Y010725D01*
X009026Y010665D01*
X009002Y010607D01*
X008976Y010551D01*
X008945Y010497D01*
X008911Y010444D01*
X008874Y010394D01*
X008834Y010346D01*
X008791Y010301D01*
X008745Y010258D01*
X008697Y010219D01*
X008646Y010183D01*
X008593Y010150D01*
X008538Y010120D01*
X008481Y010094D01*
X008423Y010072D01*
X008363Y010054D01*
X008303Y010039D01*
X008241Y010028D01*
X008179Y010021D01*
X008117Y010018D01*
X008054Y010019D01*
X007992Y010024D01*
X007930Y010033D01*
X007869Y010046D01*
X007809Y010062D01*
X007750Y010083D01*
X007692Y010107D01*
X007636Y010135D01*
X007582Y010166D01*
X007530Y010200D01*
X007481Y010238D01*
X007433Y010279D01*
X007389Y010323D01*
X007347Y010369D01*
X007309Y010419D01*
X007273Y010470D01*
X007241Y010524D01*
X007213Y010579D01*
X007187Y010636D01*
X007166Y010695D01*
X007149Y010755D01*
X007135Y010816D01*
X007125Y010877D01*
X007119Y010940D01*
X007117Y011002D01*
X008401Y010452D02*
X008801Y010452D01*
X008617Y008502D02*
X008619Y008564D01*
X008625Y008627D01*
X008635Y008688D01*
X008649Y008749D01*
X008666Y008809D01*
X008687Y008868D01*
X008713Y008925D01*
X008741Y008980D01*
X008773Y009034D01*
X008809Y009085D01*
X008847Y009135D01*
X008889Y009181D01*
X008933Y009225D01*
X008981Y009266D01*
X009030Y009304D01*
X009082Y009338D01*
X009136Y009369D01*
X009192Y009397D01*
X009250Y009421D01*
X009309Y009442D01*
X009369Y009458D01*
X009430Y009471D01*
X009492Y009480D01*
X009554Y009485D01*
X009617Y009486D01*
X009679Y009483D01*
X009741Y009476D01*
X009803Y009465D01*
X009863Y009450D01*
X009923Y009432D01*
X009981Y009410D01*
X010038Y009384D01*
X010093Y009354D01*
X010146Y009321D01*
X010197Y009285D01*
X010245Y009246D01*
X010291Y009203D01*
X010334Y009158D01*
X010374Y009110D01*
X010411Y009060D01*
X010445Y009007D01*
X010476Y008953D01*
X010502Y008897D01*
X010526Y008839D01*
X010545Y008779D01*
X010561Y008719D01*
X010573Y008657D01*
X010581Y008596D01*
X010585Y008533D01*
X010585Y008471D01*
X010581Y008408D01*
X010573Y008347D01*
X010561Y008285D01*
X010545Y008225D01*
X010526Y008165D01*
X010502Y008107D01*
X010476Y008051D01*
X010445Y007997D01*
X010411Y007944D01*
X010374Y007894D01*
X010334Y007846D01*
X010291Y007801D01*
X010245Y007758D01*
X010197Y007719D01*
X010146Y007683D01*
X010093Y007650D01*
X010038Y007620D01*
X009981Y007594D01*
X009923Y007572D01*
X009863Y007554D01*
X009803Y007539D01*
X009741Y007528D01*
X009679Y007521D01*
X009617Y007518D01*
X009554Y007519D01*
X009492Y007524D01*
X009430Y007533D01*
X009369Y007546D01*
X009309Y007562D01*
X009250Y007583D01*
X009192Y007607D01*
X009136Y007635D01*
X009082Y007666D01*
X009030Y007700D01*
X008981Y007738D01*
X008933Y007779D01*
X008889Y007823D01*
X008847Y007869D01*
X008809Y007919D01*
X008773Y007970D01*
X008741Y008024D01*
X008713Y008079D01*
X008687Y008136D01*
X008666Y008195D01*
X008649Y008255D01*
X008635Y008316D01*
X008625Y008377D01*
X008619Y008440D01*
X008617Y008502D01*
X009051Y008202D02*
X009051Y007802D01*
X008889Y006115D02*
X009656Y006115D01*
X008889Y006115D02*
X008889Y001783D01*
X012312Y001783D01*
X012312Y003769D01*
X013651Y005512D02*
X013191Y005972D01*
X013611Y006592D01*
X013351Y007242D02*
X012601Y007382D01*
X012601Y008032D01*
X013361Y008182D01*
X013631Y008802D02*
X013191Y009442D01*
X013651Y009902D01*
X014311Y009462D01*
X014911Y009712D02*
X015061Y010492D01*
X015711Y010492D01*
X015861Y009712D01*
X016471Y009462D02*
X017131Y009912D01*
X017591Y009442D01*
X017151Y008802D01*
X017421Y008182D02*
X018181Y008032D01*
X018181Y007382D01*
X017431Y007242D01*
X017171Y006582D02*
X017591Y005962D01*
X017131Y005512D01*
X016531Y005922D01*
X016271Y005772D01*
X015791Y006912D01*
X014981Y006912D02*
X014511Y005772D01*
X014251Y005922D01*
X013651Y005512D01*
X012312Y005620D02*
X012312Y006115D01*
X011546Y006115D01*
X013611Y006592D02*
X013561Y006679D01*
X013515Y006768D01*
X013473Y006860D01*
X013436Y006953D01*
X013403Y007048D01*
X013375Y007144D01*
X013351Y007242D01*
X014311Y009462D02*
X014392Y009508D01*
X014474Y009550D01*
X014559Y009588D01*
X014645Y009622D01*
X014732Y009653D01*
X014821Y009679D01*
X014911Y009702D01*
X014981Y006912D02*
X014929Y006940D01*
X014879Y006972D01*
X014832Y007007D01*
X014787Y007044D01*
X014744Y007085D01*
X014705Y007128D01*
X014668Y007174D01*
X014634Y007223D01*
X014604Y007273D01*
X014577Y007325D01*
X014554Y007380D01*
X014534Y007435D01*
X014518Y007492D01*
X014506Y007549D01*
X014498Y007607D01*
X014494Y007666D01*
X014493Y007725D01*
X014497Y007784D01*
X014504Y007842D01*
X014515Y007900D01*
X014530Y007957D01*
X014549Y008012D01*
X014572Y008067D01*
X014598Y008119D01*
X014627Y008170D01*
X014660Y008219D01*
X014696Y008266D01*
X014735Y008310D01*
X014777Y008351D01*
X014822Y008389D01*
X014869Y008425D01*
X014918Y008457D01*
X014969Y008486D01*
X015022Y008511D01*
X015077Y008533D01*
X015133Y008551D01*
X015190Y008565D01*
X015248Y008576D01*
X015306Y008582D01*
X015365Y008585D01*
X015424Y008584D01*
X015483Y008579D01*
X015541Y008570D01*
X015598Y008557D01*
X015654Y008540D01*
X015710Y008520D01*
X015763Y008496D01*
X015815Y008468D01*
X015865Y008437D01*
X015913Y008403D01*
X015959Y008365D01*
X016002Y008325D01*
X016042Y008282D01*
X016079Y008237D01*
X016113Y008189D01*
X016144Y008138D01*
X016171Y008086D01*
X016195Y008033D01*
X016215Y007977D01*
X016231Y007921D01*
X016244Y007863D01*
X016253Y007805D01*
X016258Y007747D01*
X016259Y007688D01*
X016256Y007629D01*
X016249Y007571D01*
X016238Y007513D01*
X016224Y007456D01*
X016206Y007400D01*
X016184Y007345D01*
X016158Y007292D01*
X016129Y007241D01*
X016097Y007192D01*
X016061Y007145D01*
X016023Y007101D01*
X015981Y007059D01*
X015937Y007020D01*
X015890Y006984D01*
X015841Y006952D01*
X015791Y006922D01*
X017171Y006581D02*
X017216Y006658D01*
X017257Y006737D01*
X017295Y006818D01*
X017330Y006900D01*
X017361Y006984D01*
X017388Y007069D01*
X017411Y007155D01*
X017431Y007241D01*
X017421Y008182D02*
X017395Y008275D01*
X017365Y008367D01*
X017330Y008458D01*
X017292Y008547D01*
X017249Y008634D01*
X017202Y008719D01*
X017151Y008802D01*
X013631Y008802D02*
X013580Y008719D01*
X013533Y008634D01*
X013491Y008547D01*
X013452Y008458D01*
X013417Y008368D01*
X013387Y008276D01*
X013361Y008182D01*
X015861Y009712D02*
X015952Y009689D01*
X016043Y009661D01*
X016132Y009629D01*
X016219Y009593D01*
X016305Y009553D01*
X016389Y009510D01*
X016471Y009462D01*
X022101Y010952D02*
X022101Y011202D01*
X022351Y011202D01*
X022851Y011202D02*
X023101Y011202D01*
X023101Y010952D01*
X024101Y010952D02*
X024101Y011202D01*
X024351Y011202D01*
X024851Y011202D02*
X025101Y011202D01*
X025101Y010952D01*
X036101Y010052D02*
X036101Y009802D01*
X037101Y009802D01*
X037101Y010052D01*
X037101Y019802D02*
X036101Y019802D01*
X036101Y020052D01*
X037101Y020052D02*
X037101Y019802D01*
X037101Y029802D02*
X036101Y029802D01*
X036101Y030052D01*
X037101Y030052D02*
X037101Y029802D01*
X025101Y030952D02*
X025101Y031202D01*
X024851Y031202D01*
X024351Y031202D02*
X024101Y031202D01*
X024101Y030952D01*
X023101Y030952D02*
X023101Y031202D01*
X022851Y031202D01*
X022351Y031202D02*
X022101Y031202D01*
X022101Y030952D01*
X017312Y032721D02*
X017312Y028388D01*
X016546Y028388D01*
X014656Y028388D02*
X013889Y028388D01*
X013889Y028884D01*
X013889Y030734D02*
X013889Y032721D01*
X017312Y032721D01*
X006801Y031852D02*
X006801Y030152D01*
X006001Y029802D02*
X005196Y029802D01*
X004401Y030152D02*
X004401Y031852D01*
X005208Y032202D02*
X006001Y032202D01*
X004901Y031002D02*
X004903Y031054D01*
X004909Y031106D01*
X004919Y031158D01*
X004932Y031208D01*
X004949Y031258D01*
X004970Y031306D01*
X004995Y031352D01*
X005023Y031396D01*
X005054Y031438D01*
X005088Y031478D01*
X005125Y031515D01*
X005165Y031549D01*
X005207Y031580D01*
X005251Y031608D01*
X005297Y031633D01*
X005345Y031654D01*
X005395Y031671D01*
X005445Y031684D01*
X005497Y031694D01*
X005549Y031700D01*
X005601Y031702D01*
X005653Y031700D01*
X005705Y031694D01*
X005757Y031684D01*
X005807Y031671D01*
X005857Y031654D01*
X005905Y031633D01*
X005951Y031608D01*
X005995Y031580D01*
X006037Y031549D01*
X006077Y031515D01*
X006114Y031478D01*
X006148Y031438D01*
X006179Y031396D01*
X006207Y031352D01*
X006232Y031306D01*
X006253Y031258D01*
X006270Y031208D01*
X006283Y031158D01*
X006293Y031106D01*
X006299Y031054D01*
X006301Y031002D01*
X006299Y030950D01*
X006293Y030898D01*
X006283Y030846D01*
X006270Y030796D01*
X006253Y030746D01*
X006232Y030698D01*
X006207Y030652D01*
X006179Y030608D01*
X006148Y030566D01*
X006114Y030526D01*
X006077Y030489D01*
X006037Y030455D01*
X005995Y030424D01*
X005951Y030396D01*
X005905Y030371D01*
X005857Y030350D01*
X005807Y030333D01*
X005757Y030320D01*
X005705Y030310D01*
X005653Y030304D01*
X005601Y030302D01*
X005549Y030304D01*
X005497Y030310D01*
X005445Y030320D01*
X005395Y030333D01*
X005345Y030350D01*
X005297Y030371D01*
X005251Y030396D01*
X005207Y030424D01*
X005165Y030455D01*
X005125Y030489D01*
X005088Y030526D01*
X005054Y030566D01*
X005023Y030608D01*
X004995Y030652D01*
X004970Y030698D01*
X004949Y030746D01*
X004932Y030796D01*
X004919Y030846D01*
X004909Y030898D01*
X004903Y030950D01*
X004901Y031002D01*
X004841Y028474D02*
X002361Y028474D01*
X002361Y027529D01*
X004841Y027529D01*
X004841Y028474D01*
X004841Y026474D02*
X004841Y025529D01*
X002361Y025529D01*
X002361Y026474D01*
X004841Y026474D01*
X005501Y022852D02*
X005499Y022911D01*
X005493Y022969D01*
X005484Y023028D01*
X005470Y023085D01*
X005453Y023141D01*
X005432Y023196D01*
X005408Y023250D01*
X005380Y023302D01*
X005349Y023352D01*
X005315Y023400D01*
X005278Y023445D01*
X005237Y023488D01*
X005194Y023529D01*
X005149Y023566D01*
X005101Y023600D01*
X005051Y023631D01*
X004999Y023659D01*
X004945Y023683D01*
X004890Y023704D01*
X004834Y023721D01*
X004777Y023735D01*
X004718Y023744D01*
X004660Y023750D01*
X004601Y023752D01*
X004542Y023750D01*
X004484Y023744D01*
X004425Y023735D01*
X004368Y023721D01*
X004312Y023704D01*
X004257Y023683D01*
X004203Y023659D01*
X004151Y023631D01*
X004101Y023600D01*
X004053Y023566D01*
X004008Y023529D01*
X003965Y023488D01*
X003924Y023445D01*
X003887Y023400D01*
X003853Y023352D01*
X003822Y023302D01*
X003794Y023250D01*
X003770Y023196D01*
X003749Y023141D01*
X003732Y023085D01*
X003718Y023028D01*
X003709Y022969D01*
X003703Y022911D01*
X003701Y022852D01*
X003701Y020152D01*
X003703Y020093D01*
X003709Y020035D01*
X003718Y019976D01*
X003732Y019919D01*
X003749Y019863D01*
X003770Y019808D01*
X003794Y019754D01*
X003822Y019702D01*
X003853Y019652D01*
X003887Y019604D01*
X003924Y019559D01*
X003965Y019516D01*
X004008Y019475D01*
X004053Y019438D01*
X004101Y019404D01*
X004151Y019373D01*
X004203Y019345D01*
X004257Y019321D01*
X004312Y019300D01*
X004368Y019283D01*
X004425Y019269D01*
X004484Y019260D01*
X004542Y019254D01*
X004601Y019252D01*
X004660Y019254D01*
X004718Y019260D01*
X004777Y019269D01*
X004834Y019283D01*
X004890Y019300D01*
X004945Y019321D01*
X004999Y019345D01*
X005051Y019373D01*
X005101Y019404D01*
X005149Y019438D01*
X005194Y019475D01*
X005237Y019516D01*
X005278Y019559D01*
X005315Y019604D01*
X005349Y019652D01*
X005380Y019702D01*
X005408Y019754D01*
X005432Y019808D01*
X005453Y019863D01*
X005470Y019919D01*
X005484Y019976D01*
X005493Y020035D01*
X005499Y020093D01*
X005501Y020152D01*
X005501Y022852D01*
X002351Y022502D02*
X001851Y022502D01*
X001851Y020002D02*
X002351Y020002D01*
X000601Y029752D02*
X000601Y031252D01*
X022101Y021202D02*
X022101Y020952D01*
X022101Y021202D02*
X022351Y021202D01*
X022851Y021202D02*
X023101Y021202D01*
X023101Y020952D01*
X024101Y020952D02*
X024101Y021202D01*
X024351Y021202D01*
X024851Y021202D02*
X025101Y021202D01*
X025101Y020952D01*
D13*
X000569Y029722D02*
X000641Y029776D01*
X000640Y029775D02*
X000683Y029722D01*
X000728Y029671D01*
X000777Y029623D01*
X000828Y029578D01*
X000882Y029535D01*
X000938Y029496D01*
X000996Y029460D01*
X001056Y029427D01*
X001117Y029398D01*
X001181Y029373D01*
X001245Y029351D01*
X001311Y029332D01*
X001378Y029318D01*
X001445Y029307D01*
X001513Y029300D01*
X001581Y029297D01*
X001650Y029298D01*
X001718Y029303D01*
X001786Y029311D01*
X001853Y029324D01*
X001919Y029340D01*
X001984Y029360D01*
X002049Y029383D01*
X002111Y029410D01*
X002172Y029441D01*
X002231Y029475D01*
X002289Y029512D01*
X002344Y029553D01*
X002396Y029597D01*
X002446Y029643D01*
X002493Y029692D01*
X002538Y029744D01*
X002579Y029798D01*
X002618Y029855D01*
X002653Y029914D01*
X002684Y029974D01*
X002712Y030036D01*
X002737Y030100D01*
X002758Y030165D01*
X002775Y030231D01*
X002789Y030298D01*
X002798Y030366D01*
X002804Y030434D01*
X002806Y030502D01*
X002804Y030570D01*
X002798Y030638D01*
X002789Y030706D01*
X002775Y030773D01*
X002758Y030839D01*
X002737Y030904D01*
X002712Y030968D01*
X002684Y031030D01*
X002653Y031090D01*
X002618Y031149D01*
X002579Y031206D01*
X002538Y031260D01*
X002493Y031312D01*
X002446Y031361D01*
X002396Y031407D01*
X002344Y031451D01*
X002289Y031492D01*
X002231Y031529D01*
X002172Y031563D01*
X002111Y031594D01*
X002049Y031621D01*
X001984Y031644D01*
X001919Y031664D01*
X001853Y031680D01*
X001786Y031693D01*
X001718Y031701D01*
X001650Y031706D01*
X001581Y031707D01*
X001513Y031704D01*
X001445Y031697D01*
X001378Y031686D01*
X001311Y031672D01*
X001245Y031653D01*
X001181Y031631D01*
X001117Y031606D01*
X001056Y031577D01*
X000996Y031544D01*
X000938Y031508D01*
X000882Y031469D01*
X000828Y031426D01*
X000777Y031381D01*
X000728Y031333D01*
X000683Y031282D01*
X000640Y031229D01*
X000569Y031282D01*
X000568Y031283D01*
X000612Y031338D01*
X000660Y031391D01*
X000710Y031442D01*
X000763Y031489D01*
X000818Y031533D01*
X000876Y031575D01*
X000936Y031613D01*
X000997Y031648D01*
X001061Y031679D01*
X001126Y031707D01*
X001193Y031731D01*
X001261Y031752D01*
X001330Y031768D01*
X001400Y031781D01*
X001470Y031790D01*
X001541Y031796D01*
X001612Y031797D01*
X001683Y031794D01*
X001754Y031788D01*
X001824Y031778D01*
X001893Y031764D01*
X001962Y031746D01*
X002030Y031724D01*
X002096Y031699D01*
X002161Y031670D01*
X002224Y031637D01*
X002285Y031601D01*
X002344Y031562D01*
X002401Y031520D01*
X002456Y031475D01*
X002508Y031426D01*
X002557Y031375D01*
X002604Y031322D01*
X002647Y031265D01*
X002687Y031207D01*
X002724Y031146D01*
X002758Y031084D01*
X002788Y031020D01*
X002815Y030954D01*
X002838Y030887D01*
X002857Y030818D01*
X002872Y030749D01*
X002884Y030679D01*
X002892Y030608D01*
X002896Y030537D01*
X002896Y030467D01*
X002892Y030396D01*
X002884Y030325D01*
X002872Y030255D01*
X002857Y030186D01*
X002838Y030117D01*
X002815Y030050D01*
X002788Y029984D01*
X002758Y029920D01*
X002724Y029858D01*
X002687Y029797D01*
X002647Y029739D01*
X002604Y029682D01*
X002557Y029629D01*
X002508Y029578D01*
X002456Y029529D01*
X002401Y029484D01*
X002344Y029442D01*
X002285Y029403D01*
X002224Y029367D01*
X002161Y029334D01*
X002096Y029305D01*
X002030Y029280D01*
X001962Y029258D01*
X001893Y029240D01*
X001824Y029226D01*
X001754Y029216D01*
X001683Y029210D01*
X001612Y029207D01*
X001541Y029208D01*
X001470Y029214D01*
X001400Y029223D01*
X001330Y029236D01*
X001261Y029252D01*
X001193Y029273D01*
X001126Y029297D01*
X001061Y029325D01*
X000997Y029356D01*
X000936Y029391D01*
X000876Y029429D01*
X000818Y029471D01*
X000763Y029515D01*
X000710Y029562D01*
X000660Y029613D01*
X000612Y029666D01*
X000568Y029721D01*
X000575Y029726D01*
X000620Y029671D01*
X000667Y029618D01*
X000718Y029567D01*
X000771Y029520D01*
X000827Y029475D01*
X000885Y029434D01*
X000945Y029396D01*
X001007Y029361D01*
X001071Y029330D01*
X001137Y029303D01*
X001204Y029279D01*
X001273Y029259D01*
X001342Y029242D01*
X001412Y029230D01*
X001483Y029221D01*
X001554Y029217D01*
X001625Y029216D01*
X001696Y029220D01*
X001767Y029227D01*
X001838Y029238D01*
X001907Y029253D01*
X001976Y029272D01*
X002044Y029295D01*
X002110Y029321D01*
X002175Y029351D01*
X002237Y029385D01*
X002298Y029421D01*
X002357Y029462D01*
X002414Y029505D01*
X002468Y029552D01*
X002519Y029601D01*
X002567Y029654D01*
X002613Y029708D01*
X002655Y029766D01*
X002694Y029825D01*
X002730Y029887D01*
X002763Y029950D01*
X002791Y030015D01*
X002817Y030082D01*
X002838Y030150D01*
X002856Y030219D01*
X002869Y030289D01*
X002879Y030360D01*
X002885Y030431D01*
X002887Y030502D01*
X002885Y030573D01*
X002879Y030644D01*
X002869Y030715D01*
X002856Y030785D01*
X002838Y030854D01*
X002817Y030922D01*
X002791Y030989D01*
X002763Y031054D01*
X002730Y031117D01*
X002694Y031179D01*
X002655Y031238D01*
X002613Y031296D01*
X002567Y031350D01*
X002519Y031403D01*
X002468Y031452D01*
X002414Y031499D01*
X002357Y031542D01*
X002298Y031583D01*
X002237Y031619D01*
X002175Y031653D01*
X002110Y031683D01*
X002044Y031709D01*
X001976Y031732D01*
X001907Y031751D01*
X001838Y031766D01*
X001767Y031777D01*
X001696Y031784D01*
X001625Y031788D01*
X001554Y031787D01*
X001483Y031783D01*
X001412Y031774D01*
X001342Y031762D01*
X001273Y031745D01*
X001204Y031725D01*
X001137Y031701D01*
X001071Y031674D01*
X001007Y031643D01*
X000945Y031608D01*
X000885Y031570D01*
X000827Y031529D01*
X000771Y031484D01*
X000718Y031437D01*
X000667Y031386D01*
X000620Y031333D01*
X000575Y031278D01*
X000582Y031272D01*
X000627Y031327D01*
X000674Y031380D01*
X000724Y031430D01*
X000777Y031477D01*
X000832Y031521D01*
X000890Y031563D01*
X000949Y031600D01*
X001011Y031635D01*
X001075Y031666D01*
X001140Y031693D01*
X001207Y031717D01*
X001275Y031737D01*
X001344Y031753D01*
X001413Y031765D01*
X001484Y031774D01*
X001554Y031778D01*
X001625Y031779D01*
X001696Y031775D01*
X001766Y031768D01*
X001836Y031757D01*
X001905Y031742D01*
X001973Y031723D01*
X002041Y031701D01*
X002106Y031675D01*
X002171Y031645D01*
X002233Y031612D01*
X002293Y031575D01*
X002352Y031535D01*
X002408Y031492D01*
X002462Y031446D01*
X002512Y031396D01*
X002561Y031345D01*
X002606Y031290D01*
X002648Y031233D01*
X002687Y031174D01*
X002722Y031113D01*
X002755Y031050D01*
X002783Y030985D01*
X002808Y030919D01*
X002829Y030851D01*
X002847Y030783D01*
X002860Y030713D01*
X002870Y030643D01*
X002876Y030573D01*
X002878Y030502D01*
X002876Y030431D01*
X002870Y030361D01*
X002860Y030291D01*
X002847Y030221D01*
X002829Y030153D01*
X002808Y030085D01*
X002783Y030019D01*
X002755Y029954D01*
X002722Y029891D01*
X002687Y029830D01*
X002648Y029771D01*
X002606Y029714D01*
X002561Y029659D01*
X002512Y029608D01*
X002462Y029558D01*
X002408Y029512D01*
X002352Y029469D01*
X002293Y029429D01*
X002233Y029392D01*
X002171Y029359D01*
X002106Y029329D01*
X002041Y029303D01*
X001973Y029281D01*
X001905Y029262D01*
X001836Y029247D01*
X001766Y029236D01*
X001696Y029229D01*
X001625Y029225D01*
X001554Y029226D01*
X001484Y029230D01*
X001413Y029239D01*
X001344Y029251D01*
X001275Y029267D01*
X001207Y029287D01*
X001140Y029311D01*
X001075Y029338D01*
X001011Y029369D01*
X000949Y029404D01*
X000890Y029441D01*
X000832Y029483D01*
X000777Y029527D01*
X000724Y029574D01*
X000674Y029624D01*
X000627Y029677D01*
X000582Y029732D01*
X000590Y029737D01*
X000634Y029682D01*
X000682Y029629D01*
X000732Y029579D01*
X000785Y029531D01*
X000841Y029487D01*
X000899Y029446D01*
X000959Y029409D01*
X001021Y029374D01*
X001085Y029344D01*
X001151Y029317D01*
X001218Y029293D01*
X001286Y029274D01*
X001356Y029258D01*
X001426Y029246D01*
X001496Y029238D01*
X001567Y029234D01*
X001638Y029235D01*
X001709Y029239D01*
X001780Y029247D01*
X001850Y029259D01*
X001919Y029275D01*
X001987Y029294D01*
X002055Y029318D01*
X002120Y029345D01*
X002184Y029376D01*
X002246Y029410D01*
X002306Y029448D01*
X002364Y029490D01*
X002420Y029534D01*
X002473Y029581D01*
X002523Y029632D01*
X002570Y029685D01*
X002615Y029740D01*
X002656Y029798D01*
X002693Y029858D01*
X002728Y029921D01*
X002759Y029985D01*
X002786Y030050D01*
X002809Y030117D01*
X002829Y030186D01*
X002845Y030255D01*
X002857Y030325D01*
X002865Y030396D01*
X002869Y030466D01*
X002869Y030538D01*
X002865Y030608D01*
X002857Y030679D01*
X002845Y030749D01*
X002829Y030818D01*
X002809Y030887D01*
X002786Y030954D01*
X002759Y031019D01*
X002728Y031083D01*
X002693Y031146D01*
X002656Y031206D01*
X002615Y031264D01*
X002570Y031319D01*
X002523Y031372D01*
X002473Y031423D01*
X002420Y031470D01*
X002364Y031514D01*
X002306Y031556D01*
X002246Y031594D01*
X002184Y031628D01*
X002120Y031659D01*
X002055Y031686D01*
X001987Y031710D01*
X001919Y031729D01*
X001850Y031745D01*
X001780Y031757D01*
X001709Y031765D01*
X001638Y031769D01*
X001567Y031770D01*
X001496Y031766D01*
X001426Y031758D01*
X001356Y031746D01*
X001286Y031730D01*
X001218Y031711D01*
X001151Y031687D01*
X001085Y031660D01*
X001021Y031630D01*
X000959Y031595D01*
X000899Y031558D01*
X000841Y031517D01*
X000785Y031473D01*
X000732Y031425D01*
X000682Y031375D01*
X000634Y031322D01*
X000590Y031267D01*
X000597Y031261D01*
X000641Y031316D01*
X000688Y031369D01*
X000738Y031419D01*
X000791Y031466D01*
X000846Y031510D01*
X000904Y031550D01*
X000963Y031588D01*
X001025Y031622D01*
X001089Y031652D01*
X001154Y031679D01*
X001221Y031702D01*
X001289Y031722D01*
X001357Y031737D01*
X001427Y031749D01*
X001497Y031757D01*
X001568Y031761D01*
X001638Y031760D01*
X001709Y031756D01*
X001779Y031748D01*
X001848Y031736D01*
X001917Y031721D01*
X001985Y031701D01*
X002051Y031678D01*
X002116Y031651D01*
X002180Y031620D01*
X002242Y031586D01*
X002301Y031548D01*
X002359Y031507D01*
X002414Y031463D01*
X002467Y031416D01*
X002516Y031366D01*
X002563Y031314D01*
X002607Y031258D01*
X002648Y031201D01*
X002686Y031141D01*
X002720Y031079D01*
X002750Y031016D01*
X002777Y030951D01*
X002801Y030884D01*
X002820Y030816D01*
X002836Y030747D01*
X002848Y030678D01*
X002856Y030608D01*
X002860Y030537D01*
X002860Y030467D01*
X002856Y030396D01*
X002848Y030326D01*
X002836Y030257D01*
X002820Y030188D01*
X002801Y030120D01*
X002777Y030053D01*
X002750Y029988D01*
X002720Y029925D01*
X002686Y029863D01*
X002648Y029803D01*
X002607Y029746D01*
X002563Y029690D01*
X002516Y029638D01*
X002467Y029588D01*
X002414Y029541D01*
X002359Y029497D01*
X002301Y029456D01*
X002242Y029418D01*
X002180Y029384D01*
X002116Y029353D01*
X002051Y029326D01*
X001985Y029303D01*
X001917Y029283D01*
X001848Y029268D01*
X001779Y029256D01*
X001709Y029248D01*
X001638Y029244D01*
X001568Y029243D01*
X001497Y029247D01*
X001427Y029255D01*
X001357Y029267D01*
X001289Y029282D01*
X001221Y029302D01*
X001154Y029325D01*
X001089Y029352D01*
X001025Y029382D01*
X000963Y029416D01*
X000904Y029454D01*
X000846Y029494D01*
X000791Y029538D01*
X000738Y029585D01*
X000688Y029635D01*
X000641Y029688D01*
X000597Y029743D01*
X000604Y029748D01*
X000648Y029693D01*
X000695Y029641D01*
X000744Y029592D01*
X000797Y029545D01*
X000851Y029502D01*
X000909Y029461D01*
X000968Y029424D01*
X001029Y029390D01*
X001093Y029360D01*
X001157Y029333D01*
X001224Y029310D01*
X001291Y029291D01*
X001359Y029276D01*
X001428Y029264D01*
X001498Y029256D01*
X001568Y029252D01*
X001638Y029253D01*
X001708Y029257D01*
X001777Y029265D01*
X001846Y029276D01*
X001915Y029292D01*
X001982Y029311D01*
X002048Y029335D01*
X002113Y029362D01*
X002176Y029392D01*
X002237Y029426D01*
X002296Y029463D01*
X002354Y029504D01*
X002408Y029548D01*
X002460Y029594D01*
X002510Y029644D01*
X002557Y029696D01*
X002600Y029751D01*
X002641Y029808D01*
X002678Y029867D01*
X002712Y029929D01*
X002742Y029992D01*
X002769Y030057D01*
X002792Y030123D01*
X002811Y030190D01*
X002827Y030258D01*
X002839Y030327D01*
X002847Y030397D01*
X002851Y030467D01*
X002851Y030537D01*
X002847Y030607D01*
X002839Y030677D01*
X002827Y030746D01*
X002811Y030814D01*
X002792Y030881D01*
X002769Y030947D01*
X002742Y031012D01*
X002712Y031075D01*
X002678Y031137D01*
X002641Y031196D01*
X002600Y031253D01*
X002557Y031308D01*
X002510Y031360D01*
X002460Y031410D01*
X002408Y031456D01*
X002354Y031500D01*
X002296Y031541D01*
X002237Y031578D01*
X002176Y031612D01*
X002113Y031642D01*
X002048Y031669D01*
X001982Y031693D01*
X001915Y031712D01*
X001846Y031728D01*
X001777Y031739D01*
X001708Y031747D01*
X001638Y031751D01*
X001568Y031752D01*
X001498Y031748D01*
X001428Y031740D01*
X001359Y031728D01*
X001291Y031713D01*
X001224Y031694D01*
X001157Y031671D01*
X001093Y031644D01*
X001029Y031614D01*
X000968Y031580D01*
X000909Y031543D01*
X000851Y031502D01*
X000797Y031459D01*
X000744Y031412D01*
X000695Y031363D01*
X000648Y031311D01*
X000604Y031256D01*
X000611Y031251D01*
X000655Y031305D01*
X000701Y031357D01*
X000750Y031406D01*
X000802Y031452D01*
X000857Y031495D01*
X000914Y031535D01*
X000973Y031572D01*
X001034Y031606D01*
X001096Y031636D01*
X001161Y031662D01*
X001226Y031685D01*
X001293Y031704D01*
X001361Y031720D01*
X001430Y031731D01*
X001499Y031739D01*
X001568Y031743D01*
X001638Y031742D01*
X001707Y031738D01*
X001776Y031731D01*
X001845Y031719D01*
X001912Y031703D01*
X001979Y031684D01*
X002045Y031661D01*
X002109Y031634D01*
X002172Y031604D01*
X002233Y031570D01*
X002291Y031533D01*
X002348Y031493D01*
X002402Y031450D01*
X002454Y031403D01*
X002503Y031354D01*
X002550Y031302D01*
X002593Y031248D01*
X002633Y031191D01*
X002670Y031132D01*
X002704Y031071D01*
X002734Y031008D01*
X002761Y030944D01*
X002784Y030879D01*
X002803Y030812D01*
X002818Y030744D01*
X002830Y030675D01*
X002838Y030606D01*
X002842Y030537D01*
X002842Y030467D01*
X002838Y030398D01*
X002830Y030329D01*
X002818Y030260D01*
X002803Y030192D01*
X002784Y030125D01*
X002761Y030060D01*
X002734Y029996D01*
X002704Y029933D01*
X002670Y029872D01*
X002633Y029813D01*
X002593Y029756D01*
X002550Y029702D01*
X002503Y029650D01*
X002454Y029601D01*
X002402Y029554D01*
X002348Y029511D01*
X002291Y029471D01*
X002233Y029434D01*
X002172Y029400D01*
X002109Y029370D01*
X002045Y029343D01*
X001979Y029320D01*
X001912Y029301D01*
X001845Y029285D01*
X001776Y029273D01*
X001707Y029266D01*
X001638Y029262D01*
X001568Y029261D01*
X001499Y029265D01*
X001430Y029273D01*
X001361Y029284D01*
X001293Y029300D01*
X001226Y029319D01*
X001161Y029342D01*
X001096Y029368D01*
X001034Y029398D01*
X000973Y029432D01*
X000914Y029469D01*
X000857Y029509D01*
X000802Y029552D01*
X000750Y029598D01*
X000701Y029647D01*
X000655Y029699D01*
X000611Y029753D01*
X000618Y029759D01*
X000662Y029705D01*
X000708Y029654D01*
X000757Y029605D01*
X000808Y029559D01*
X000862Y029516D01*
X000919Y029476D01*
X000977Y029440D01*
X001038Y029406D01*
X001100Y029376D01*
X001164Y029350D01*
X001229Y029328D01*
X001295Y029309D01*
X001363Y029293D01*
X001431Y029282D01*
X001499Y029274D01*
X001568Y029270D01*
X001637Y029271D01*
X001706Y029275D01*
X001775Y029282D01*
X001843Y029294D01*
X001910Y029309D01*
X001977Y029329D01*
X002042Y029352D01*
X002105Y029378D01*
X002168Y029408D01*
X002228Y029441D01*
X002286Y029478D01*
X002343Y029518D01*
X002397Y029561D01*
X002448Y029607D01*
X002497Y029656D01*
X002543Y029708D01*
X002586Y029762D01*
X002626Y029818D01*
X002662Y029877D01*
X002696Y029937D01*
X002726Y029999D01*
X002752Y030063D01*
X002775Y030128D01*
X002794Y030195D01*
X002809Y030262D01*
X002821Y030330D01*
X002829Y030399D01*
X002833Y030467D01*
X002833Y030537D01*
X002829Y030605D01*
X002821Y030674D01*
X002809Y030742D01*
X002794Y030809D01*
X002775Y030876D01*
X002752Y030941D01*
X002726Y031005D01*
X002696Y031067D01*
X002662Y031127D01*
X002626Y031186D01*
X002586Y031242D01*
X002543Y031296D01*
X002497Y031348D01*
X002448Y031397D01*
X002397Y031443D01*
X002343Y031486D01*
X002286Y031526D01*
X002228Y031563D01*
X002168Y031596D01*
X002105Y031626D01*
X002042Y031652D01*
X001977Y031675D01*
X001910Y031695D01*
X001843Y031710D01*
X001775Y031722D01*
X001706Y031729D01*
X001637Y031733D01*
X001568Y031734D01*
X001499Y031730D01*
X001431Y031722D01*
X001363Y031711D01*
X001295Y031695D01*
X001229Y031676D01*
X001164Y031654D01*
X001100Y031628D01*
X001038Y031598D01*
X000977Y031564D01*
X000919Y031528D01*
X000862Y031488D01*
X000808Y031445D01*
X000757Y031399D01*
X000708Y031350D01*
X000662Y031299D01*
X000618Y031245D01*
X000626Y031240D01*
X000669Y031294D01*
X000715Y031345D01*
X000765Y031394D01*
X000816Y031440D01*
X000871Y031483D01*
X000928Y031523D01*
X000986Y031559D01*
X001047Y031593D01*
X001110Y031622D01*
X001174Y031648D01*
X001240Y031670D01*
X001307Y031689D01*
X001374Y031704D01*
X001443Y031715D01*
X001512Y031722D01*
X001581Y031725D01*
X001650Y031724D01*
X001720Y031719D01*
X001788Y031711D01*
X001856Y031698D01*
X001924Y031682D01*
X001990Y031661D01*
X002055Y031638D01*
X002119Y031610D01*
X002181Y031579D01*
X002241Y031544D01*
X002299Y031506D01*
X002355Y031465D01*
X002408Y031421D01*
X002459Y031374D01*
X002507Y031324D01*
X002552Y031271D01*
X002594Y031216D01*
X002633Y031159D01*
X002668Y031099D01*
X002700Y031038D01*
X002729Y030975D01*
X002754Y030910D01*
X002775Y030844D01*
X002793Y030777D01*
X002806Y030709D01*
X002816Y030640D01*
X002822Y030571D01*
X002824Y030502D01*
X002822Y030433D01*
X002816Y030364D01*
X002806Y030295D01*
X002793Y030227D01*
X002775Y030160D01*
X002754Y030094D01*
X002729Y030029D01*
X002700Y029966D01*
X002668Y029905D01*
X002633Y029845D01*
X002594Y029788D01*
X002552Y029733D01*
X002507Y029680D01*
X002459Y029630D01*
X002408Y029583D01*
X002355Y029539D01*
X002299Y029498D01*
X002241Y029460D01*
X002181Y029425D01*
X002119Y029394D01*
X002055Y029366D01*
X001990Y029343D01*
X001924Y029322D01*
X001856Y029306D01*
X001788Y029293D01*
X001720Y029285D01*
X001650Y029280D01*
X001581Y029279D01*
X001512Y029282D01*
X001443Y029289D01*
X001374Y029300D01*
X001307Y029315D01*
X001240Y029334D01*
X001174Y029356D01*
X001110Y029382D01*
X001047Y029411D01*
X000986Y029445D01*
X000928Y029481D01*
X000871Y029521D01*
X000816Y029564D01*
X000765Y029610D01*
X000715Y029659D01*
X000669Y029710D01*
X000626Y029764D01*
X000633Y029770D01*
X000676Y029716D01*
X000722Y029665D01*
X000771Y029616D01*
X000822Y029571D01*
X000876Y029528D01*
X000933Y029489D01*
X000991Y029452D01*
X001051Y029419D01*
X001114Y029390D01*
X001177Y029364D01*
X001243Y029342D01*
X001309Y029324D01*
X001376Y029309D01*
X001444Y029298D01*
X001513Y029291D01*
X001581Y029288D01*
X001650Y029289D01*
X001719Y029294D01*
X001787Y029302D01*
X001855Y029315D01*
X001921Y029331D01*
X001987Y029351D01*
X002052Y029375D01*
X002115Y029402D01*
X002176Y029433D01*
X002236Y029467D01*
X002294Y029505D01*
X002349Y029546D01*
X002402Y029590D01*
X002452Y029637D01*
X002500Y029686D01*
X002545Y029738D01*
X002587Y029793D01*
X002625Y029850D01*
X002660Y029909D01*
X002692Y029970D01*
X002721Y030033D01*
X002745Y030097D01*
X002767Y030163D01*
X002784Y030229D01*
X002797Y030297D01*
X002807Y030365D01*
X002813Y030433D01*
X002815Y030502D01*
X002813Y030571D01*
X002807Y030639D01*
X002797Y030707D01*
X002784Y030775D01*
X002767Y030841D01*
X002745Y030907D01*
X002721Y030971D01*
X002692Y031034D01*
X002660Y031095D01*
X002625Y031154D01*
X002587Y031211D01*
X002545Y031266D01*
X002500Y031318D01*
X002452Y031367D01*
X002402Y031414D01*
X002349Y031458D01*
X002294Y031499D01*
X002236Y031537D01*
X002176Y031571D01*
X002115Y031602D01*
X002052Y031629D01*
X001987Y031653D01*
X001921Y031673D01*
X001855Y031689D01*
X001787Y031702D01*
X001719Y031710D01*
X001650Y031715D01*
X001581Y031716D01*
X001513Y031713D01*
X001444Y031706D01*
X001376Y031695D01*
X001309Y031680D01*
X001243Y031662D01*
X001177Y031640D01*
X001114Y031614D01*
X001051Y031585D01*
X000991Y031552D01*
X000933Y031515D01*
X000876Y031476D01*
X000822Y031433D01*
X000771Y031388D01*
X000722Y031339D01*
X000676Y031288D01*
X000633Y031234D01*
D14*
X001271Y027147D02*
X001361Y027147D01*
X001406Y027102D01*
X001406Y027057D01*
X001361Y027012D01*
X001406Y026967D01*
X001406Y026922D01*
X001361Y026877D01*
X001271Y026877D01*
X001226Y026922D01*
X001316Y027012D02*
X001361Y027012D01*
X001226Y027102D02*
X001271Y027147D01*
X001520Y027102D02*
X001565Y027147D01*
X001656Y027147D01*
X001701Y027102D01*
X001701Y027057D01*
X001656Y027012D01*
X001701Y026967D01*
X001701Y026922D01*
X001656Y026877D01*
X001565Y026877D01*
X001520Y026922D01*
X001610Y027012D02*
X001656Y027012D01*
X001815Y027102D02*
X001860Y027147D01*
X001950Y027147D01*
X001995Y027102D01*
X001815Y026922D01*
X001860Y026877D01*
X001950Y026877D01*
X001995Y026922D01*
X001995Y027102D01*
X001815Y027102D02*
X001815Y026922D01*
X002404Y026922D02*
X002449Y026877D01*
X002539Y026877D01*
X002584Y026922D01*
X002584Y027102D01*
X002539Y027147D01*
X002449Y027147D01*
X002404Y027102D01*
X002404Y026922D01*
X002699Y026877D02*
X002699Y027147D01*
X002744Y027057D02*
X002834Y027057D01*
X002879Y027012D01*
X002879Y026877D01*
X002994Y026877D02*
X002994Y027057D01*
X003039Y027057D01*
X003084Y027012D01*
X003129Y027057D01*
X003174Y027012D01*
X003174Y026877D01*
X003084Y026877D02*
X003084Y027012D01*
X002744Y027057D02*
X002699Y027012D01*
X003583Y027057D02*
X003673Y027147D01*
X003673Y026877D01*
X003583Y026877D02*
X003763Y026877D01*
X003878Y026877D02*
X004058Y027147D01*
X004172Y027012D02*
X004307Y027012D01*
X004352Y026967D01*
X004352Y026922D01*
X004307Y026877D01*
X004217Y026877D01*
X004172Y026922D01*
X004172Y027012D01*
X004262Y027102D01*
X004352Y027147D01*
X004467Y027057D02*
X004557Y027057D01*
X004512Y027102D02*
X004512Y026922D01*
X004557Y026877D01*
X004663Y026877D02*
X004663Y027147D01*
X004708Y027057D02*
X004798Y027057D01*
X004843Y027012D01*
X004843Y026877D01*
X004663Y027012D02*
X004708Y027057D01*
X005253Y027147D02*
X005253Y026877D01*
X005343Y026967D01*
X005433Y026877D01*
X005433Y027147D01*
X005592Y027057D02*
X005682Y027057D01*
X005727Y027012D01*
X005727Y026877D01*
X005592Y026877D01*
X005547Y026922D01*
X005592Y026967D01*
X005727Y026967D01*
X005842Y027057D02*
X005932Y027057D01*
X005887Y027102D02*
X005887Y026922D01*
X005932Y026877D01*
X006083Y026922D02*
X006128Y026877D01*
X006083Y026922D02*
X006083Y027102D01*
X006038Y027057D02*
X006128Y027057D01*
X006529Y027147D02*
X006529Y026877D01*
X006529Y026967D02*
X006664Y026967D01*
X006709Y027012D01*
X006709Y027102D01*
X006664Y027147D01*
X006529Y027147D01*
X006824Y027147D02*
X007004Y027147D01*
X006914Y027147D02*
X006914Y026877D01*
X007119Y026877D02*
X007119Y027147D01*
X007119Y027012D02*
X007299Y027012D01*
X007299Y027147D02*
X007299Y026877D01*
X006750Y025147D02*
X006750Y024877D01*
X006750Y025012D02*
X006570Y025012D01*
X006570Y024877D02*
X006570Y025147D01*
X006455Y025147D02*
X006275Y025147D01*
X006365Y025147D02*
X006365Y024877D01*
X006160Y025012D02*
X006115Y024967D01*
X005980Y024967D01*
X005980Y024877D02*
X005980Y025147D01*
X006115Y025147D01*
X006160Y025102D01*
X006160Y025012D01*
X005579Y025057D02*
X005489Y025057D01*
X005534Y025102D02*
X005534Y024922D01*
X005579Y024877D01*
X005383Y024877D02*
X005338Y024922D01*
X005338Y025102D01*
X005293Y025057D02*
X005383Y025057D01*
X005178Y025012D02*
X005178Y024877D01*
X005043Y024877D01*
X004998Y024922D01*
X005043Y024967D01*
X005178Y024967D01*
X005178Y025012D02*
X005133Y025057D01*
X005043Y025057D01*
X004884Y025147D02*
X004884Y024877D01*
X004794Y024967D01*
X004703Y024877D01*
X004703Y025147D01*
X004294Y025012D02*
X004294Y024877D01*
X004294Y025012D02*
X004249Y025057D01*
X004159Y025057D01*
X004114Y025012D01*
X004008Y025057D02*
X003918Y025057D01*
X003963Y025102D02*
X003963Y024922D01*
X004008Y024877D01*
X004114Y024877D02*
X004114Y025147D01*
X003803Y025147D02*
X003713Y025102D01*
X003623Y025012D01*
X003758Y025012D01*
X003803Y024967D01*
X003803Y024922D01*
X003758Y024877D01*
X003668Y024877D01*
X003623Y024922D01*
X003623Y025012D01*
X003509Y025147D02*
X003328Y024877D01*
X003214Y024877D02*
X003034Y024877D01*
X003124Y024877D02*
X003124Y025147D01*
X003034Y025057D01*
X002625Y025012D02*
X002625Y024877D01*
X002535Y024877D02*
X002535Y025012D01*
X002580Y025057D01*
X002625Y025012D01*
X002535Y025012D02*
X002490Y025057D01*
X002445Y025057D01*
X002445Y024877D01*
X002330Y024877D02*
X002330Y025012D01*
X002285Y025057D01*
X002195Y025057D01*
X002150Y025012D01*
X002150Y025147D02*
X002150Y024877D01*
X002035Y024922D02*
X002035Y025102D01*
X001990Y025147D01*
X001900Y025147D01*
X001855Y025102D01*
X001855Y024922D01*
X001900Y024877D01*
X001990Y024877D01*
X002035Y024922D01*
X001450Y024877D02*
X001315Y024967D01*
X001450Y025057D01*
X001315Y025147D02*
X001315Y024877D01*
X001201Y024922D02*
X001156Y024877D01*
X001065Y024877D01*
X001020Y024922D01*
X001201Y025102D01*
X001201Y024922D01*
X001201Y025102D02*
X001156Y025147D01*
X001065Y025147D01*
X001020Y025102D01*
X001020Y024922D01*
X000906Y024877D02*
X000726Y024877D01*
X000816Y024877D02*
X000816Y025147D01*
X000726Y025057D01*
D15*
X019101Y023502D02*
X019101Y031502D01*
X038101Y031502D01*
X038101Y023502D01*
X019101Y023502D01*
X019101Y021502D02*
X038101Y021502D01*
X038101Y013502D01*
X019101Y013502D01*
X019101Y021502D01*
X022101Y020002D02*
X022101Y019802D01*
X025101Y019802D01*
X025101Y020002D01*
X019101Y011502D02*
X038101Y011502D01*
X038101Y003502D01*
X019101Y003502D01*
X019101Y011502D01*
X022101Y010002D02*
X022101Y009802D01*
X025101Y009802D01*
X025101Y010002D01*
X025101Y029802D02*
X022101Y029802D01*
X022101Y030002D01*
X025101Y030002D02*
X025101Y029802D01*
D16*
X024429Y029562D02*
X024429Y029452D01*
X024374Y029397D01*
X024209Y029397D01*
X024319Y029397D02*
X024429Y029287D01*
X024209Y029287D02*
X024209Y029617D01*
X024374Y029617D01*
X024429Y029562D01*
X024061Y029562D02*
X024006Y029617D01*
X023896Y029617D01*
X023841Y029562D01*
X023841Y029342D01*
X023896Y029287D01*
X024006Y029287D01*
X024061Y029342D01*
X024061Y029562D01*
X023693Y029617D02*
X023472Y029617D01*
X023582Y029617D02*
X023582Y029287D01*
X023324Y029342D02*
X023324Y029562D01*
X023269Y029617D01*
X023159Y029617D01*
X023104Y029562D01*
X023104Y029342D01*
X023159Y029287D01*
X023269Y029287D01*
X023324Y029342D01*
X022956Y029287D02*
X022956Y029617D01*
X022846Y029507D01*
X022736Y029617D01*
X022736Y029287D01*
X022736Y019617D02*
X022846Y019507D01*
X022956Y019617D01*
X022956Y019287D01*
X023104Y019342D02*
X023159Y019287D01*
X023269Y019287D01*
X023324Y019342D01*
X023324Y019562D01*
X023269Y019617D01*
X023159Y019617D01*
X023104Y019562D01*
X023104Y019342D01*
X022736Y019287D02*
X022736Y019617D01*
X023472Y019617D02*
X023693Y019617D01*
X023582Y019617D02*
X023582Y019287D01*
X023841Y019342D02*
X023896Y019287D01*
X024006Y019287D01*
X024061Y019342D01*
X024061Y019562D01*
X024006Y019617D01*
X023896Y019617D01*
X023841Y019562D01*
X023841Y019342D01*
X024209Y019397D02*
X024374Y019397D01*
X024429Y019452D01*
X024429Y019562D01*
X024374Y019617D01*
X024209Y019617D01*
X024209Y019287D01*
X024319Y019397D02*
X024429Y019287D01*
X024374Y009617D02*
X024429Y009562D01*
X024429Y009452D01*
X024374Y009397D01*
X024209Y009397D01*
X024319Y009397D02*
X024429Y009287D01*
X024209Y009287D02*
X024209Y009617D01*
X024374Y009617D01*
X024061Y009562D02*
X024006Y009617D01*
X023896Y009617D01*
X023841Y009562D01*
X023841Y009342D01*
X023896Y009287D01*
X024006Y009287D01*
X024061Y009342D01*
X024061Y009562D01*
X023693Y009617D02*
X023472Y009617D01*
X023582Y009617D02*
X023582Y009287D01*
X023324Y009342D02*
X023324Y009562D01*
X023269Y009617D01*
X023159Y009617D01*
X023104Y009562D01*
X023104Y009342D01*
X023159Y009287D01*
X023269Y009287D01*
X023324Y009342D01*
X022956Y009287D02*
X022956Y009617D01*
X022846Y009507D01*
X022736Y009617D01*
X022736Y009287D01*
D17*
X021949Y026916D02*
X022187Y027153D01*
X021904Y027500D01*
X021955Y027591D01*
X021995Y027688D01*
X022024Y027789D01*
X022468Y027834D01*
X022468Y028170D01*
X022024Y028215D01*
X021995Y028315D01*
X021955Y028412D01*
X021904Y028504D01*
X022187Y028850D01*
X021949Y029088D01*
X021603Y028805D01*
X021511Y028856D01*
X021414Y028896D01*
X021314Y028925D01*
X021269Y029369D01*
X020933Y029369D01*
X020888Y028925D01*
X020787Y028896D01*
X020690Y028856D01*
X020599Y028805D01*
X020252Y029088D01*
X020015Y028850D01*
X020297Y028504D01*
X020247Y028412D01*
X020207Y028315D01*
X020178Y028215D01*
X019733Y028170D01*
X019733Y027834D01*
X020178Y027789D01*
X020207Y027688D01*
X020247Y027591D01*
X020297Y027500D01*
X020015Y027153D01*
X020252Y026916D01*
X020599Y027198D01*
X020667Y027159D01*
X020738Y027126D01*
X020936Y027604D01*
X020872Y027637D01*
X020814Y027681D01*
X020764Y027733D01*
X020724Y027793D01*
X020694Y027860D01*
X020676Y027930D01*
X020670Y028002D01*
X020678Y028082D01*
X020700Y028160D01*
X020737Y028232D01*
X020786Y028296D01*
X020846Y028349D01*
X020916Y028391D01*
X020992Y028418D01*
X021071Y028431D01*
X021152Y028429D01*
X021231Y028412D01*
X021305Y028381D01*
X021373Y028336D01*
X021430Y028279D01*
X021476Y028213D01*
X021509Y028139D01*
X021527Y028060D01*
X021531Y027980D01*
X021519Y027900D01*
X021493Y027823D01*
X021453Y027753D01*
X021400Y027692D01*
X021337Y027642D01*
X021266Y027604D01*
X021463Y027126D01*
X021535Y027159D01*
X021603Y027198D01*
X021949Y026916D01*
X021993Y026960D02*
X021895Y026960D01*
X021824Y027018D02*
X022051Y027018D01*
X022109Y027075D02*
X021753Y027075D01*
X021683Y027133D02*
X022166Y027133D01*
X022156Y027191D02*
X021612Y027191D01*
X021589Y027191D02*
X021437Y027191D01*
X021413Y027248D02*
X022109Y027248D01*
X022062Y027306D02*
X021389Y027306D01*
X021365Y027363D02*
X022015Y027363D01*
X021968Y027421D02*
X021341Y027421D01*
X021317Y027479D02*
X021921Y027479D01*
X021924Y027536D02*
X021294Y027536D01*
X021270Y027594D02*
X021956Y027594D01*
X021980Y027651D02*
X021349Y027651D01*
X021415Y027709D02*
X022001Y027709D01*
X022017Y027767D02*
X021460Y027767D01*
X021493Y027824D02*
X022374Y027824D01*
X022468Y027882D02*
X021513Y027882D01*
X021525Y027939D02*
X022468Y027939D01*
X022468Y027997D02*
X021530Y027997D01*
X021528Y028055D02*
X022468Y028055D01*
X022468Y028112D02*
X021515Y028112D01*
X021495Y028170D02*
X022467Y028170D01*
X022020Y028227D02*
X021466Y028227D01*
X021424Y028285D02*
X022004Y028285D01*
X021983Y028343D02*
X021362Y028343D01*
X021259Y028400D02*
X021960Y028400D01*
X021930Y028458D02*
X020272Y028458D01*
X020288Y028515D02*
X021914Y028515D01*
X021961Y028573D02*
X020241Y028573D01*
X020194Y028631D02*
X022008Y028631D01*
X022055Y028688D02*
X020147Y028688D01*
X020100Y028746D02*
X022102Y028746D01*
X022149Y028803D02*
X020053Y028803D01*
X020026Y028861D02*
X020530Y028861D01*
X020460Y028919D02*
X020083Y028919D01*
X020141Y028976D02*
X020389Y028976D01*
X020318Y029034D02*
X020199Y029034D01*
X020703Y028861D02*
X021498Y028861D01*
X021335Y028919D02*
X020866Y028919D01*
X020893Y028976D02*
X021309Y028976D01*
X021303Y029034D02*
X020899Y029034D01*
X020905Y029091D02*
X021297Y029091D01*
X021291Y029149D02*
X020910Y029149D01*
X020916Y029207D02*
X021285Y029207D01*
X021279Y029264D02*
X020922Y029264D01*
X020928Y029322D02*
X021274Y029322D01*
X021671Y028861D02*
X022176Y028861D01*
X022118Y028919D02*
X021742Y028919D01*
X021813Y028976D02*
X022061Y028976D01*
X022003Y029034D02*
X021883Y029034D01*
X020942Y028400D02*
X020242Y028400D01*
X020218Y028343D02*
X020839Y028343D01*
X020778Y028285D02*
X020198Y028285D01*
X020181Y028227D02*
X020735Y028227D01*
X020705Y028170D02*
X019735Y028170D01*
X019733Y028112D02*
X020686Y028112D01*
X020675Y028055D02*
X019733Y028055D01*
X019733Y027997D02*
X020671Y027997D01*
X020675Y027939D02*
X019733Y027939D01*
X019733Y027882D02*
X020689Y027882D01*
X020710Y027824D02*
X019828Y027824D01*
X020184Y027767D02*
X020742Y027767D01*
X020787Y027709D02*
X020201Y027709D01*
X020222Y027651D02*
X020853Y027651D01*
X020932Y027594D02*
X020246Y027594D01*
X020277Y027536D02*
X020908Y027536D01*
X020884Y027479D02*
X020280Y027479D01*
X020233Y027421D02*
X020860Y027421D01*
X020836Y027363D02*
X020186Y027363D01*
X020139Y027306D02*
X020812Y027306D01*
X020789Y027248D02*
X020092Y027248D01*
X020045Y027191D02*
X020589Y027191D01*
X020612Y027191D02*
X020765Y027191D01*
X020741Y027133D02*
X020724Y027133D01*
X020519Y027133D02*
X020035Y027133D01*
X020093Y027075D02*
X020448Y027075D01*
X020377Y027018D02*
X020151Y027018D01*
X020208Y026960D02*
X020307Y026960D01*
X021461Y027133D02*
X021477Y027133D01*
M02*
