G75*
G70*
%OFA0B0*%
%FSLAX24Y24*%
%IPPOS*%
%LPD*%
%AMOC8*
5,1,8,0,0,1.08239X$1,22.5*
%
%ADD10C,0.0000*%
%ADD11C,0.0560*%
%ADD12C,0.0650*%
%ADD13C,0.1660*%
%ADD14C,0.1620*%
%ADD15R,0.0740X0.0740*%
%ADD16C,0.0740*%
%ADD17R,0.0650X0.0650*%
%ADD18C,0.0100*%
%ADD19C,0.0440*%
D10*
X000101Y001502D02*
X000101Y032998D01*
X039471Y032998D01*
X039471Y001502D01*
X000101Y001502D01*
X005550Y007502D02*
X005552Y007549D01*
X005558Y007595D01*
X005568Y007641D01*
X005581Y007686D01*
X005599Y007729D01*
X005620Y007771D01*
X005644Y007811D01*
X005672Y007848D01*
X005703Y007883D01*
X005737Y007916D01*
X005773Y007945D01*
X005812Y007971D01*
X005853Y007994D01*
X005896Y008013D01*
X005940Y008029D01*
X005985Y008041D01*
X006031Y008049D01*
X006078Y008053D01*
X006124Y008053D01*
X006171Y008049D01*
X006217Y008041D01*
X006262Y008029D01*
X006306Y008013D01*
X006349Y007994D01*
X006390Y007971D01*
X006429Y007945D01*
X006465Y007916D01*
X006499Y007883D01*
X006530Y007848D01*
X006558Y007811D01*
X006582Y007771D01*
X006603Y007729D01*
X006621Y007686D01*
X006634Y007641D01*
X006644Y007595D01*
X006650Y007549D01*
X006652Y007502D01*
X006650Y007455D01*
X006644Y007409D01*
X006634Y007363D01*
X006621Y007318D01*
X006603Y007275D01*
X006582Y007233D01*
X006558Y007193D01*
X006530Y007156D01*
X006499Y007121D01*
X006465Y007088D01*
X006429Y007059D01*
X006390Y007033D01*
X006349Y007010D01*
X006306Y006991D01*
X006262Y006975D01*
X006217Y006963D01*
X006171Y006955D01*
X006124Y006951D01*
X006078Y006951D01*
X006031Y006955D01*
X005985Y006963D01*
X005940Y006975D01*
X005896Y006991D01*
X005853Y007010D01*
X005812Y007033D01*
X005773Y007059D01*
X005737Y007088D01*
X005703Y007121D01*
X005672Y007156D01*
X005644Y007193D01*
X005620Y007233D01*
X005599Y007275D01*
X005581Y007318D01*
X005568Y007363D01*
X005558Y007409D01*
X005552Y007455D01*
X005550Y007502D01*
X005550Y015502D02*
X005552Y015549D01*
X005558Y015595D01*
X005568Y015641D01*
X005581Y015686D01*
X005599Y015729D01*
X005620Y015771D01*
X005644Y015811D01*
X005672Y015848D01*
X005703Y015883D01*
X005737Y015916D01*
X005773Y015945D01*
X005812Y015971D01*
X005853Y015994D01*
X005896Y016013D01*
X005940Y016029D01*
X005985Y016041D01*
X006031Y016049D01*
X006078Y016053D01*
X006124Y016053D01*
X006171Y016049D01*
X006217Y016041D01*
X006262Y016029D01*
X006306Y016013D01*
X006349Y015994D01*
X006390Y015971D01*
X006429Y015945D01*
X006465Y015916D01*
X006499Y015883D01*
X006530Y015848D01*
X006558Y015811D01*
X006582Y015771D01*
X006603Y015729D01*
X006621Y015686D01*
X006634Y015641D01*
X006644Y015595D01*
X006650Y015549D01*
X006652Y015502D01*
X006650Y015455D01*
X006644Y015409D01*
X006634Y015363D01*
X006621Y015318D01*
X006603Y015275D01*
X006582Y015233D01*
X006558Y015193D01*
X006530Y015156D01*
X006499Y015121D01*
X006465Y015088D01*
X006429Y015059D01*
X006390Y015033D01*
X006349Y015010D01*
X006306Y014991D01*
X006262Y014975D01*
X006217Y014963D01*
X006171Y014955D01*
X006124Y014951D01*
X006078Y014951D01*
X006031Y014955D01*
X005985Y014963D01*
X005940Y014975D01*
X005896Y014991D01*
X005853Y015010D01*
X005812Y015033D01*
X005773Y015059D01*
X005737Y015088D01*
X005703Y015121D01*
X005672Y015156D01*
X005644Y015193D01*
X005620Y015233D01*
X005599Y015275D01*
X005581Y015318D01*
X005568Y015363D01*
X005558Y015409D01*
X005552Y015455D01*
X005550Y015502D01*
X014550Y017502D02*
X014552Y017549D01*
X014558Y017595D01*
X014568Y017641D01*
X014581Y017686D01*
X014599Y017729D01*
X014620Y017771D01*
X014644Y017811D01*
X014672Y017848D01*
X014703Y017883D01*
X014737Y017916D01*
X014773Y017945D01*
X014812Y017971D01*
X014853Y017994D01*
X014896Y018013D01*
X014940Y018029D01*
X014985Y018041D01*
X015031Y018049D01*
X015078Y018053D01*
X015124Y018053D01*
X015171Y018049D01*
X015217Y018041D01*
X015262Y018029D01*
X015306Y018013D01*
X015349Y017994D01*
X015390Y017971D01*
X015429Y017945D01*
X015465Y017916D01*
X015499Y017883D01*
X015530Y017848D01*
X015558Y017811D01*
X015582Y017771D01*
X015603Y017729D01*
X015621Y017686D01*
X015634Y017641D01*
X015644Y017595D01*
X015650Y017549D01*
X015652Y017502D01*
X015650Y017455D01*
X015644Y017409D01*
X015634Y017363D01*
X015621Y017318D01*
X015603Y017275D01*
X015582Y017233D01*
X015558Y017193D01*
X015530Y017156D01*
X015499Y017121D01*
X015465Y017088D01*
X015429Y017059D01*
X015390Y017033D01*
X015349Y017010D01*
X015306Y016991D01*
X015262Y016975D01*
X015217Y016963D01*
X015171Y016955D01*
X015124Y016951D01*
X015078Y016951D01*
X015031Y016955D01*
X014985Y016963D01*
X014940Y016975D01*
X014896Y016991D01*
X014853Y017010D01*
X014812Y017033D01*
X014773Y017059D01*
X014737Y017088D01*
X014703Y017121D01*
X014672Y017156D01*
X014644Y017193D01*
X014620Y017233D01*
X014599Y017275D01*
X014581Y017318D01*
X014568Y017363D01*
X014558Y017409D01*
X014552Y017455D01*
X014550Y017502D01*
X024451Y017502D02*
X024453Y017552D01*
X024459Y017602D01*
X024469Y017652D01*
X024482Y017700D01*
X024499Y017748D01*
X024520Y017794D01*
X024544Y017838D01*
X024572Y017880D01*
X024603Y017920D01*
X024637Y017957D01*
X024674Y017992D01*
X024713Y018023D01*
X024754Y018052D01*
X024798Y018077D01*
X024844Y018099D01*
X024891Y018117D01*
X024939Y018131D01*
X024988Y018142D01*
X025038Y018149D01*
X025088Y018152D01*
X025139Y018151D01*
X025189Y018146D01*
X025239Y018137D01*
X025287Y018125D01*
X025335Y018108D01*
X025381Y018088D01*
X025426Y018065D01*
X025469Y018038D01*
X025509Y018008D01*
X025547Y017975D01*
X025582Y017939D01*
X025615Y017900D01*
X025644Y017859D01*
X025670Y017816D01*
X025693Y017771D01*
X025712Y017724D01*
X025727Y017676D01*
X025739Y017627D01*
X025747Y017577D01*
X025751Y017527D01*
X025751Y017477D01*
X025747Y017427D01*
X025739Y017377D01*
X025727Y017328D01*
X025712Y017280D01*
X025693Y017233D01*
X025670Y017188D01*
X025644Y017145D01*
X025615Y017104D01*
X025582Y017065D01*
X025547Y017029D01*
X025509Y016996D01*
X025469Y016966D01*
X025426Y016939D01*
X025381Y016916D01*
X025335Y016896D01*
X025287Y016879D01*
X025239Y016867D01*
X025189Y016858D01*
X025139Y016853D01*
X025088Y016852D01*
X025038Y016855D01*
X024988Y016862D01*
X024939Y016873D01*
X024891Y016887D01*
X024844Y016905D01*
X024798Y016927D01*
X024754Y016952D01*
X024713Y016981D01*
X024674Y017012D01*
X024637Y017047D01*
X024603Y017084D01*
X024572Y017124D01*
X024544Y017166D01*
X024520Y017210D01*
X024499Y017256D01*
X024482Y017304D01*
X024469Y017352D01*
X024459Y017402D01*
X024453Y017452D01*
X024451Y017502D01*
X033951Y019002D02*
X033953Y019052D01*
X033959Y019102D01*
X033969Y019152D01*
X033982Y019200D01*
X033999Y019248D01*
X034020Y019294D01*
X034044Y019338D01*
X034072Y019380D01*
X034103Y019420D01*
X034137Y019457D01*
X034174Y019492D01*
X034213Y019523D01*
X034254Y019552D01*
X034298Y019577D01*
X034344Y019599D01*
X034391Y019617D01*
X034439Y019631D01*
X034488Y019642D01*
X034538Y019649D01*
X034588Y019652D01*
X034639Y019651D01*
X034689Y019646D01*
X034739Y019637D01*
X034787Y019625D01*
X034835Y019608D01*
X034881Y019588D01*
X034926Y019565D01*
X034969Y019538D01*
X035009Y019508D01*
X035047Y019475D01*
X035082Y019439D01*
X035115Y019400D01*
X035144Y019359D01*
X035170Y019316D01*
X035193Y019271D01*
X035212Y019224D01*
X035227Y019176D01*
X035239Y019127D01*
X035247Y019077D01*
X035251Y019027D01*
X035251Y018977D01*
X035247Y018927D01*
X035239Y018877D01*
X035227Y018828D01*
X035212Y018780D01*
X035193Y018733D01*
X035170Y018688D01*
X035144Y018645D01*
X035115Y018604D01*
X035082Y018565D01*
X035047Y018529D01*
X035009Y018496D01*
X034969Y018466D01*
X034926Y018439D01*
X034881Y018416D01*
X034835Y018396D01*
X034787Y018379D01*
X034739Y018367D01*
X034689Y018358D01*
X034639Y018353D01*
X034588Y018352D01*
X034538Y018355D01*
X034488Y018362D01*
X034439Y018373D01*
X034391Y018387D01*
X034344Y018405D01*
X034298Y018427D01*
X034254Y018452D01*
X034213Y018481D01*
X034174Y018512D01*
X034137Y018547D01*
X034103Y018584D01*
X034072Y018624D01*
X034044Y018666D01*
X034020Y018710D01*
X033999Y018756D01*
X033982Y018804D01*
X033969Y018852D01*
X033959Y018902D01*
X033953Y018952D01*
X033951Y019002D01*
X024451Y027502D02*
X024453Y027552D01*
X024459Y027602D01*
X024469Y027652D01*
X024482Y027700D01*
X024499Y027748D01*
X024520Y027794D01*
X024544Y027838D01*
X024572Y027880D01*
X024603Y027920D01*
X024637Y027957D01*
X024674Y027992D01*
X024713Y028023D01*
X024754Y028052D01*
X024798Y028077D01*
X024844Y028099D01*
X024891Y028117D01*
X024939Y028131D01*
X024988Y028142D01*
X025038Y028149D01*
X025088Y028152D01*
X025139Y028151D01*
X025189Y028146D01*
X025239Y028137D01*
X025287Y028125D01*
X025335Y028108D01*
X025381Y028088D01*
X025426Y028065D01*
X025469Y028038D01*
X025509Y028008D01*
X025547Y027975D01*
X025582Y027939D01*
X025615Y027900D01*
X025644Y027859D01*
X025670Y027816D01*
X025693Y027771D01*
X025712Y027724D01*
X025727Y027676D01*
X025739Y027627D01*
X025747Y027577D01*
X025751Y027527D01*
X025751Y027477D01*
X025747Y027427D01*
X025739Y027377D01*
X025727Y027328D01*
X025712Y027280D01*
X025693Y027233D01*
X025670Y027188D01*
X025644Y027145D01*
X025615Y027104D01*
X025582Y027065D01*
X025547Y027029D01*
X025509Y026996D01*
X025469Y026966D01*
X025426Y026939D01*
X025381Y026916D01*
X025335Y026896D01*
X025287Y026879D01*
X025239Y026867D01*
X025189Y026858D01*
X025139Y026853D01*
X025088Y026852D01*
X025038Y026855D01*
X024988Y026862D01*
X024939Y026873D01*
X024891Y026887D01*
X024844Y026905D01*
X024798Y026927D01*
X024754Y026952D01*
X024713Y026981D01*
X024674Y027012D01*
X024637Y027047D01*
X024603Y027084D01*
X024572Y027124D01*
X024544Y027166D01*
X024520Y027210D01*
X024499Y027256D01*
X024482Y027304D01*
X024469Y027352D01*
X024459Y027402D01*
X024453Y027452D01*
X024451Y027502D01*
X033951Y029002D02*
X033953Y029052D01*
X033959Y029102D01*
X033969Y029152D01*
X033982Y029200D01*
X033999Y029248D01*
X034020Y029294D01*
X034044Y029338D01*
X034072Y029380D01*
X034103Y029420D01*
X034137Y029457D01*
X034174Y029492D01*
X034213Y029523D01*
X034254Y029552D01*
X034298Y029577D01*
X034344Y029599D01*
X034391Y029617D01*
X034439Y029631D01*
X034488Y029642D01*
X034538Y029649D01*
X034588Y029652D01*
X034639Y029651D01*
X034689Y029646D01*
X034739Y029637D01*
X034787Y029625D01*
X034835Y029608D01*
X034881Y029588D01*
X034926Y029565D01*
X034969Y029538D01*
X035009Y029508D01*
X035047Y029475D01*
X035082Y029439D01*
X035115Y029400D01*
X035144Y029359D01*
X035170Y029316D01*
X035193Y029271D01*
X035212Y029224D01*
X035227Y029176D01*
X035239Y029127D01*
X035247Y029077D01*
X035251Y029027D01*
X035251Y028977D01*
X035247Y028927D01*
X035239Y028877D01*
X035227Y028828D01*
X035212Y028780D01*
X035193Y028733D01*
X035170Y028688D01*
X035144Y028645D01*
X035115Y028604D01*
X035082Y028565D01*
X035047Y028529D01*
X035009Y028496D01*
X034969Y028466D01*
X034926Y028439D01*
X034881Y028416D01*
X034835Y028396D01*
X034787Y028379D01*
X034739Y028367D01*
X034689Y028358D01*
X034639Y028353D01*
X034588Y028352D01*
X034538Y028355D01*
X034488Y028362D01*
X034439Y028373D01*
X034391Y028387D01*
X034344Y028405D01*
X034298Y028427D01*
X034254Y028452D01*
X034213Y028481D01*
X034174Y028512D01*
X034137Y028547D01*
X034103Y028584D01*
X034072Y028624D01*
X034044Y028666D01*
X034020Y028710D01*
X033999Y028756D01*
X033982Y028804D01*
X033969Y028852D01*
X033959Y028902D01*
X033953Y028952D01*
X033951Y029002D01*
X011550Y032002D02*
X011552Y032049D01*
X011558Y032095D01*
X011568Y032141D01*
X011581Y032186D01*
X011599Y032229D01*
X011620Y032271D01*
X011644Y032311D01*
X011672Y032348D01*
X011703Y032383D01*
X011737Y032416D01*
X011773Y032445D01*
X011812Y032471D01*
X011853Y032494D01*
X011896Y032513D01*
X011940Y032529D01*
X011985Y032541D01*
X012031Y032549D01*
X012078Y032553D01*
X012124Y032553D01*
X012171Y032549D01*
X012217Y032541D01*
X012262Y032529D01*
X012306Y032513D01*
X012349Y032494D01*
X012390Y032471D01*
X012429Y032445D01*
X012465Y032416D01*
X012499Y032383D01*
X012530Y032348D01*
X012558Y032311D01*
X012582Y032271D01*
X012603Y032229D01*
X012621Y032186D01*
X012634Y032141D01*
X012644Y032095D01*
X012650Y032049D01*
X012652Y032002D01*
X012650Y031955D01*
X012644Y031909D01*
X012634Y031863D01*
X012621Y031818D01*
X012603Y031775D01*
X012582Y031733D01*
X012558Y031693D01*
X012530Y031656D01*
X012499Y031621D01*
X012465Y031588D01*
X012429Y031559D01*
X012390Y031533D01*
X012349Y031510D01*
X012306Y031491D01*
X012262Y031475D01*
X012217Y031463D01*
X012171Y031455D01*
X012124Y031451D01*
X012078Y031451D01*
X012031Y031455D01*
X011985Y031463D01*
X011940Y031475D01*
X011896Y031491D01*
X011853Y031510D01*
X011812Y031533D01*
X011773Y031559D01*
X011737Y031588D01*
X011703Y031621D01*
X011672Y031656D01*
X011644Y031693D01*
X011620Y031733D01*
X011599Y031775D01*
X011581Y031818D01*
X011568Y031863D01*
X011558Y031909D01*
X011552Y031955D01*
X011550Y032002D01*
X033951Y009002D02*
X033953Y009052D01*
X033959Y009102D01*
X033969Y009152D01*
X033982Y009200D01*
X033999Y009248D01*
X034020Y009294D01*
X034044Y009338D01*
X034072Y009380D01*
X034103Y009420D01*
X034137Y009457D01*
X034174Y009492D01*
X034213Y009523D01*
X034254Y009552D01*
X034298Y009577D01*
X034344Y009599D01*
X034391Y009617D01*
X034439Y009631D01*
X034488Y009642D01*
X034538Y009649D01*
X034588Y009652D01*
X034639Y009651D01*
X034689Y009646D01*
X034739Y009637D01*
X034787Y009625D01*
X034835Y009608D01*
X034881Y009588D01*
X034926Y009565D01*
X034969Y009538D01*
X035009Y009508D01*
X035047Y009475D01*
X035082Y009439D01*
X035115Y009400D01*
X035144Y009359D01*
X035170Y009316D01*
X035193Y009271D01*
X035212Y009224D01*
X035227Y009176D01*
X035239Y009127D01*
X035247Y009077D01*
X035251Y009027D01*
X035251Y008977D01*
X035247Y008927D01*
X035239Y008877D01*
X035227Y008828D01*
X035212Y008780D01*
X035193Y008733D01*
X035170Y008688D01*
X035144Y008645D01*
X035115Y008604D01*
X035082Y008565D01*
X035047Y008529D01*
X035009Y008496D01*
X034969Y008466D01*
X034926Y008439D01*
X034881Y008416D01*
X034835Y008396D01*
X034787Y008379D01*
X034739Y008367D01*
X034689Y008358D01*
X034639Y008353D01*
X034588Y008352D01*
X034538Y008355D01*
X034488Y008362D01*
X034439Y008373D01*
X034391Y008387D01*
X034344Y008405D01*
X034298Y008427D01*
X034254Y008452D01*
X034213Y008481D01*
X034174Y008512D01*
X034137Y008547D01*
X034103Y008584D01*
X034072Y008624D01*
X034044Y008666D01*
X034020Y008710D01*
X033999Y008756D01*
X033982Y008804D01*
X033969Y008852D01*
X033959Y008902D01*
X033953Y008952D01*
X033951Y009002D01*
X024451Y007502D02*
X024453Y007552D01*
X024459Y007602D01*
X024469Y007652D01*
X024482Y007700D01*
X024499Y007748D01*
X024520Y007794D01*
X024544Y007838D01*
X024572Y007880D01*
X024603Y007920D01*
X024637Y007957D01*
X024674Y007992D01*
X024713Y008023D01*
X024754Y008052D01*
X024798Y008077D01*
X024844Y008099D01*
X024891Y008117D01*
X024939Y008131D01*
X024988Y008142D01*
X025038Y008149D01*
X025088Y008152D01*
X025139Y008151D01*
X025189Y008146D01*
X025239Y008137D01*
X025287Y008125D01*
X025335Y008108D01*
X025381Y008088D01*
X025426Y008065D01*
X025469Y008038D01*
X025509Y008008D01*
X025547Y007975D01*
X025582Y007939D01*
X025615Y007900D01*
X025644Y007859D01*
X025670Y007816D01*
X025693Y007771D01*
X025712Y007724D01*
X025727Y007676D01*
X025739Y007627D01*
X025747Y007577D01*
X025751Y007527D01*
X025751Y007477D01*
X025747Y007427D01*
X025739Y007377D01*
X025727Y007328D01*
X025712Y007280D01*
X025693Y007233D01*
X025670Y007188D01*
X025644Y007145D01*
X025615Y007104D01*
X025582Y007065D01*
X025547Y007029D01*
X025509Y006996D01*
X025469Y006966D01*
X025426Y006939D01*
X025381Y006916D01*
X025335Y006896D01*
X025287Y006879D01*
X025239Y006867D01*
X025189Y006858D01*
X025139Y006853D01*
X025088Y006852D01*
X025038Y006855D01*
X024988Y006862D01*
X024939Y006873D01*
X024891Y006887D01*
X024844Y006905D01*
X024798Y006927D01*
X024754Y006952D01*
X024713Y006981D01*
X024674Y007012D01*
X024637Y007047D01*
X024603Y007084D01*
X024572Y007124D01*
X024544Y007166D01*
X024520Y007210D01*
X024499Y007256D01*
X024482Y007304D01*
X024469Y007352D01*
X024459Y007402D01*
X024453Y007452D01*
X024451Y007502D01*
D11*
X011881Y017502D02*
X011321Y017502D01*
X011321Y018502D02*
X011881Y018502D01*
X011881Y019502D02*
X011321Y019502D01*
X011321Y020502D02*
X011881Y020502D01*
X011881Y021502D02*
X011321Y021502D01*
X011321Y022502D02*
X011881Y022502D01*
X011881Y023502D02*
X011321Y023502D01*
X011321Y024502D02*
X011881Y024502D01*
X011881Y025502D02*
X011321Y025502D01*
X011321Y026502D02*
X011881Y026502D01*
X011881Y027502D02*
X011321Y027502D01*
X011321Y028502D02*
X011881Y028502D01*
X011881Y029502D02*
X011321Y029502D01*
X011321Y030502D02*
X011881Y030502D01*
X008881Y030502D02*
X008321Y030502D01*
X008321Y029502D02*
X008881Y029502D01*
X008881Y028502D02*
X008321Y028502D01*
X008321Y027502D02*
X008881Y027502D01*
X008881Y026502D02*
X008321Y026502D01*
X008321Y025502D02*
X008881Y025502D01*
X008881Y024502D02*
X008321Y024502D01*
X008321Y023502D02*
X008881Y023502D01*
X008881Y022502D02*
X008321Y022502D01*
X008321Y021502D02*
X008881Y021502D01*
X008881Y020502D02*
X008321Y020502D01*
X008321Y019502D02*
X008881Y019502D01*
X008881Y018502D02*
X008321Y018502D01*
X008321Y017502D02*
X008881Y017502D01*
D12*
X004601Y020502D03*
X004601Y022502D03*
X002101Y023002D03*
X002101Y022002D03*
X002101Y020502D03*
X002101Y019502D03*
X008601Y011002D03*
X009601Y008002D03*
D13*
X010601Y005965D03*
X015601Y028538D03*
D14*
X014120Y029789D03*
X015591Y031420D03*
X012082Y004714D03*
X010611Y003083D03*
D15*
X002601Y005002D03*
D16*
X002601Y006002D03*
X002601Y007002D03*
X001601Y011502D03*
X001601Y012502D03*
X001601Y013502D03*
X001601Y014502D03*
X001601Y015502D03*
X001601Y016502D03*
X001601Y026002D03*
X001601Y028002D03*
X002101Y030502D03*
X001101Y030502D03*
X004711Y029722D03*
X006491Y029722D03*
X005601Y028002D03*
X005601Y026002D03*
X006491Y032282D03*
X004711Y032282D03*
X022101Y030502D03*
X023101Y030502D03*
X024101Y030502D03*
X025101Y030502D03*
X027101Y030502D03*
X028101Y030502D03*
X032101Y030502D03*
X033101Y030502D03*
X036101Y030502D03*
X037101Y030502D03*
X037101Y024502D03*
X036101Y024502D03*
X035101Y024502D03*
X036101Y020502D03*
X037101Y020502D03*
X033101Y020502D03*
X032101Y020502D03*
X028101Y020502D03*
X027101Y020502D03*
X025101Y020502D03*
X024101Y020502D03*
X023101Y020502D03*
X022101Y020502D03*
X022101Y024502D03*
X023101Y024502D03*
X027101Y024502D03*
X028101Y024502D03*
X028101Y014502D03*
X027101Y014502D03*
X023101Y014502D03*
X022101Y014502D03*
X022101Y010502D03*
X023101Y010502D03*
X024101Y010502D03*
X025101Y010502D03*
X027101Y010502D03*
X028101Y010502D03*
X032101Y010502D03*
X033101Y010502D03*
X036101Y010502D03*
X037101Y010502D03*
X037101Y014502D03*
X036101Y014502D03*
X035101Y014502D03*
X035101Y004502D03*
X036101Y004502D03*
X037101Y004502D03*
X028101Y004502D03*
X027101Y004502D03*
X023101Y004502D03*
X022101Y004502D03*
D17*
X009601Y009002D03*
X007601Y011002D03*
D18*
X002601Y006002D01*
X009101Y003002D02*
X009101Y011502D01*
X007601Y013002D01*
X007601Y026502D01*
X008601Y027502D01*
X008601Y028502D02*
X006101Y026002D01*
X006101Y019002D01*
X001601Y014502D01*
X001601Y016502D02*
X005601Y020502D01*
X005601Y026002D01*
X006101Y026502D01*
X006101Y029002D01*
X006601Y029502D01*
X006491Y029722D01*
X006601Y030002D01*
X006601Y032002D01*
X006491Y032282D01*
X004711Y032282D02*
X004601Y032002D01*
X004601Y030502D01*
X002101Y030502D01*
X004601Y030502D02*
X004601Y030002D01*
X004711Y029722D01*
X004601Y029502D01*
X002601Y027502D01*
X002601Y022502D01*
X002101Y022002D01*
X002101Y020502D02*
X004601Y020502D01*
X008601Y023502D02*
X010101Y022002D01*
X010101Y009002D01*
X011601Y007502D01*
X011601Y005002D01*
X012082Y004714D01*
X010601Y003502D02*
X010611Y003083D01*
X010601Y003502D02*
X009601Y004502D01*
X009601Y008002D01*
X010601Y008002D02*
X009601Y009002D01*
X010601Y008002D02*
X010601Y005965D01*
X009101Y003002D02*
X010101Y002002D01*
X036101Y002002D01*
X036101Y004502D01*
X036101Y010502D02*
X035601Y011002D01*
X035601Y018502D01*
X036101Y019002D01*
X036101Y020502D01*
X036601Y021002D01*
X036601Y030002D01*
X036101Y030502D01*
X037101Y030502D02*
X037101Y031002D01*
X015601Y031002D01*
X015591Y031420D01*
X010601Y024502D02*
X008601Y026502D01*
X010601Y024502D02*
X010601Y015502D01*
X021601Y015002D02*
X022101Y014502D01*
X021601Y015002D02*
X021601Y024002D01*
X022101Y024502D01*
X022601Y024002D02*
X022601Y014002D01*
X023101Y014502D01*
X022601Y014002D02*
X022601Y005002D01*
X023101Y004502D01*
X036601Y011002D02*
X036601Y020002D01*
X037101Y020502D01*
X037601Y021002D01*
X037601Y030002D01*
X037101Y030502D01*
X023101Y024502D02*
X022601Y024002D01*
X036601Y011002D02*
X037101Y010502D01*
X001601Y026002D02*
X001601Y028002D01*
D19*
X010601Y015502D03*
M02*
