%
M48
M72
T01C0.0240
T02C0.0276
T03C0.0320
T04C0.0354
T05C0.0394
T06C0.0400
T07C0.1102
T08C0.1180
T09C0.1260
T10C0.1300
%
T01
X10601Y15502
T02
X8601Y11002
X7601Y11002
X9601Y9002
X9601Y8002
X2101Y19502
X2101Y20502
X2101Y22002
X2101Y23002
X4601Y22502
X4601Y20502
T03
X8601Y20502
X8601Y21502
X8601Y22502
X8601Y23502
X8601Y24502
X8601Y25502
X8601Y26502
X8601Y27502
X8601Y28502
X8601Y29502
X8601Y30502
X11601Y30502
X11601Y29502
X11601Y28502
X11601Y27502
X11601Y26502
X11601Y25502
X11601Y24502
X11601Y23502
X11601Y22502
X11601Y21502
X11601Y20502
X11601Y19502
X11601Y18502
X11601Y17502
X8601Y17502
X8601Y18502
X8601Y19502
X2101Y30502
X1101Y30502
T04
X1601Y28002
X1601Y26002
X5601Y26002
X5601Y28002
T05
X2601Y5002
X2601Y6002
X2601Y7002
T06
X1601Y11502
X1601Y12502
X1601Y13502
X1601Y14502
X1601Y15502
X1601Y16502
X4711Y29722
X6491Y29722
X6491Y32282
X4711Y32282
X22101Y30502
X23101Y30502
X24101Y30502
X25101Y30502
X27101Y30502
X28101Y30502
X32101Y30502
X33101Y30502
X36101Y30502
X37101Y30502
X37101Y24502
X36101Y24502
X35101Y24502
X36101Y20502
X37101Y20502
X33101Y20502
X32101Y20502
X28101Y20502
X27101Y20502
X25101Y20502
X24101Y20502
X23101Y20502
X22101Y20502
X22101Y24502
X23101Y24502
X27101Y24502
X28101Y24502
X28101Y14502
X27101Y14502
X23101Y14502
X22101Y14502
X22101Y10502
X23101Y10502
X24101Y10502
X25101Y10502
X27101Y10502
X28101Y10502
X32101Y10502
X33101Y10502
X36101Y10502
X37101Y10502
X37101Y14502
X36101Y14502
X35101Y14502
X35101Y4502
X36101Y4502
X37101Y4502
X28101Y4502
X27101Y4502
X23101Y4502
X22101Y4502
T07
X15601Y17002
X15601Y23002
X5601Y15502
X6601Y7502
T08
X10611Y3083
X12082Y4714
X14120Y29789
X15591Y31420
T09
X15601Y28538
X10601Y5965
T10
X25101Y7502
X34601Y9002
X25101Y17502
X34601Y19002
X25101Y27502
X34601Y29002
M30
