G75*
G70*
%OFA0B0*%
%FSLAX24Y24*%
%IPPOS*%
%LPD*%
%AMOC8*
5,1,8,0,0,1.08239X$1,22.5*
%
%ADD10C,0.0820*%
%ADD11C,0.1380*%
%ADD12C,0.1740*%
%ADD13C,0.1700*%
%ADD14C,0.0680*%
D10*
X002680Y002500D03*
X002680Y003500D03*
X002680Y004500D03*
X002680Y005500D03*
X002680Y006500D03*
X002680Y007500D03*
X002680Y008500D03*
X002680Y009500D03*
X002680Y010500D03*
X002680Y011500D03*
X002680Y012500D03*
X002680Y013500D03*
X008680Y013500D03*
X008680Y012500D03*
X008680Y011500D03*
X008680Y010500D03*
X008680Y009500D03*
X008680Y008500D03*
X008680Y007500D03*
X008680Y006500D03*
X008680Y005500D03*
X008680Y004500D03*
X008680Y003500D03*
X008680Y002500D03*
X013680Y003500D03*
X014680Y003500D03*
X018680Y003500D03*
X019680Y003500D03*
X019680Y009500D03*
X018680Y009500D03*
X016680Y009500D03*
X015680Y009500D03*
X014680Y009500D03*
X013680Y009500D03*
X013680Y012500D03*
X014680Y012500D03*
X018680Y012500D03*
X019680Y012500D03*
X023680Y009500D03*
X024680Y009500D03*
X027680Y009500D03*
X028680Y009500D03*
X028680Y012500D03*
X027680Y012500D03*
X026680Y012500D03*
X027680Y018500D03*
X028680Y018500D03*
X028680Y021500D03*
X027680Y021500D03*
X026680Y021500D03*
X024680Y018500D03*
X023680Y018500D03*
X019680Y018500D03*
X018680Y018500D03*
X016680Y018500D03*
X015680Y018500D03*
X014680Y018500D03*
X013680Y018500D03*
X013680Y021500D03*
X014680Y021500D03*
X018680Y021500D03*
X019680Y021500D03*
X019680Y027500D03*
X018680Y027500D03*
X016680Y027500D03*
X015680Y027500D03*
X014680Y027500D03*
X013680Y027500D03*
X023680Y027500D03*
X024680Y027500D03*
X027680Y027500D03*
X028680Y027500D03*
X028680Y003500D03*
X027680Y003500D03*
X026680Y003500D03*
D11*
X026180Y008000D03*
X026180Y017000D03*
X026180Y026000D03*
X016680Y024500D03*
X016680Y015500D03*
X016680Y006500D03*
D12*
X006144Y018000D03*
D13*
X004893Y016519D03*
X003261Y017990D03*
D14*
X020180Y015800D02*
X020180Y015200D01*
X021180Y015100D02*
X021180Y015700D01*
X022180Y015800D02*
X022180Y015200D01*
X023180Y015100D02*
X023180Y015700D01*
X023180Y024100D02*
X023180Y024700D01*
X022180Y024800D02*
X022180Y024200D01*
X021180Y024100D02*
X021180Y024700D01*
X020180Y024800D02*
X020180Y024200D01*
X020180Y006800D02*
X020180Y006200D01*
X021180Y006100D02*
X021180Y006700D01*
X022180Y006800D02*
X022180Y006200D01*
X023180Y006100D02*
X023180Y006700D01*
M02*
