G75*
G70*
%OFA0B0*%
%FSLAX24Y24*%
%IPPOS*%
%LPD*%
%AMOC8*
5,1,8,0,0,1.08239X$1,22.5*
%
%ADD10C,0.0100*%
%ADD11C,0.0160*%
%ADD12C,0.0040*%
%ADD13C,0.0080*%
%ADD14C,0.0060*%
%ADD15C,0.0070*%
%ADD16C,0.0000*%
%ADD17C,0.0010*%
%ADD18C,0.0059*%
D10*
X002280Y002500D02*
X002282Y002540D01*
X002288Y002579D01*
X002298Y002618D01*
X002311Y002655D01*
X002329Y002691D01*
X002350Y002725D01*
X002374Y002757D01*
X002401Y002786D01*
X002431Y002813D01*
X002463Y002836D01*
X002498Y002856D01*
X002534Y002872D01*
X002572Y002885D01*
X002611Y002894D01*
X002650Y002899D01*
X002690Y002900D01*
X002730Y002897D01*
X002769Y002890D01*
X002807Y002879D01*
X002845Y002865D01*
X002880Y002846D01*
X002913Y002825D01*
X002945Y002800D01*
X002973Y002772D01*
X002999Y002742D01*
X003021Y002709D01*
X003040Y002674D01*
X003056Y002637D01*
X003068Y002599D01*
X003076Y002560D01*
X003080Y002520D01*
X003080Y002480D01*
X003076Y002440D01*
X003068Y002401D01*
X003056Y002363D01*
X003040Y002326D01*
X003021Y002291D01*
X002999Y002258D01*
X002973Y002228D01*
X002945Y002200D01*
X002913Y002175D01*
X002880Y002154D01*
X002845Y002135D01*
X002807Y002121D01*
X002769Y002110D01*
X002730Y002103D01*
X002690Y002100D01*
X002650Y002101D01*
X002611Y002106D01*
X002572Y002115D01*
X002534Y002128D01*
X002498Y002144D01*
X002463Y002164D01*
X002431Y002187D01*
X002401Y002214D01*
X002374Y002243D01*
X002350Y002275D01*
X002329Y002309D01*
X002311Y002345D01*
X002298Y002382D01*
X002288Y002421D01*
X002282Y002460D01*
X002280Y002500D01*
X002280Y005500D02*
X002282Y005540D01*
X002288Y005579D01*
X002298Y005618D01*
X002311Y005655D01*
X002329Y005691D01*
X002350Y005725D01*
X002374Y005757D01*
X002401Y005786D01*
X002431Y005813D01*
X002463Y005836D01*
X002498Y005856D01*
X002534Y005872D01*
X002572Y005885D01*
X002611Y005894D01*
X002650Y005899D01*
X002690Y005900D01*
X002730Y005897D01*
X002769Y005890D01*
X002807Y005879D01*
X002845Y005865D01*
X002880Y005846D01*
X002913Y005825D01*
X002945Y005800D01*
X002973Y005772D01*
X002999Y005742D01*
X003021Y005709D01*
X003040Y005674D01*
X003056Y005637D01*
X003068Y005599D01*
X003076Y005560D01*
X003080Y005520D01*
X003080Y005480D01*
X003076Y005440D01*
X003068Y005401D01*
X003056Y005363D01*
X003040Y005326D01*
X003021Y005291D01*
X002999Y005258D01*
X002973Y005228D01*
X002945Y005200D01*
X002913Y005175D01*
X002880Y005154D01*
X002845Y005135D01*
X002807Y005121D01*
X002769Y005110D01*
X002730Y005103D01*
X002690Y005100D01*
X002650Y005101D01*
X002611Y005106D01*
X002572Y005115D01*
X002534Y005128D01*
X002498Y005144D01*
X002463Y005164D01*
X002431Y005187D01*
X002401Y005214D01*
X002374Y005243D01*
X002350Y005275D01*
X002329Y005309D01*
X002311Y005345D01*
X002298Y005382D01*
X002288Y005421D01*
X002282Y005460D01*
X002280Y005500D01*
X002280Y006500D02*
X002282Y006540D01*
X002288Y006579D01*
X002298Y006618D01*
X002311Y006655D01*
X002329Y006691D01*
X002350Y006725D01*
X002374Y006757D01*
X002401Y006786D01*
X002431Y006813D01*
X002463Y006836D01*
X002498Y006856D01*
X002534Y006872D01*
X002572Y006885D01*
X002611Y006894D01*
X002650Y006899D01*
X002690Y006900D01*
X002730Y006897D01*
X002769Y006890D01*
X002807Y006879D01*
X002845Y006865D01*
X002880Y006846D01*
X002913Y006825D01*
X002945Y006800D01*
X002973Y006772D01*
X002999Y006742D01*
X003021Y006709D01*
X003040Y006674D01*
X003056Y006637D01*
X003068Y006599D01*
X003076Y006560D01*
X003080Y006520D01*
X003080Y006480D01*
X003076Y006440D01*
X003068Y006401D01*
X003056Y006363D01*
X003040Y006326D01*
X003021Y006291D01*
X002999Y006258D01*
X002973Y006228D01*
X002945Y006200D01*
X002913Y006175D01*
X002880Y006154D01*
X002845Y006135D01*
X002807Y006121D01*
X002769Y006110D01*
X002730Y006103D01*
X002690Y006100D01*
X002650Y006101D01*
X002611Y006106D01*
X002572Y006115D01*
X002534Y006128D01*
X002498Y006144D01*
X002463Y006164D01*
X002431Y006187D01*
X002401Y006214D01*
X002374Y006243D01*
X002350Y006275D01*
X002329Y006309D01*
X002311Y006345D01*
X002298Y006382D01*
X002288Y006421D01*
X002282Y006460D01*
X002280Y006500D01*
X002280Y008500D02*
X002282Y008540D01*
X002288Y008579D01*
X002298Y008618D01*
X002311Y008655D01*
X002329Y008691D01*
X002350Y008725D01*
X002374Y008757D01*
X002401Y008786D01*
X002431Y008813D01*
X002463Y008836D01*
X002498Y008856D01*
X002534Y008872D01*
X002572Y008885D01*
X002611Y008894D01*
X002650Y008899D01*
X002690Y008900D01*
X002730Y008897D01*
X002769Y008890D01*
X002807Y008879D01*
X002845Y008865D01*
X002880Y008846D01*
X002913Y008825D01*
X002945Y008800D01*
X002973Y008772D01*
X002999Y008742D01*
X003021Y008709D01*
X003040Y008674D01*
X003056Y008637D01*
X003068Y008599D01*
X003076Y008560D01*
X003080Y008520D01*
X003080Y008480D01*
X003076Y008440D01*
X003068Y008401D01*
X003056Y008363D01*
X003040Y008326D01*
X003021Y008291D01*
X002999Y008258D01*
X002973Y008228D01*
X002945Y008200D01*
X002913Y008175D01*
X002880Y008154D01*
X002845Y008135D01*
X002807Y008121D01*
X002769Y008110D01*
X002730Y008103D01*
X002690Y008100D01*
X002650Y008101D01*
X002611Y008106D01*
X002572Y008115D01*
X002534Y008128D01*
X002498Y008144D01*
X002463Y008164D01*
X002431Y008187D01*
X002401Y008214D01*
X002374Y008243D01*
X002350Y008275D01*
X002329Y008309D01*
X002311Y008345D01*
X002298Y008382D01*
X002288Y008421D01*
X002282Y008460D01*
X002280Y008500D01*
X008280Y002500D02*
X008282Y002540D01*
X008288Y002579D01*
X008298Y002618D01*
X008311Y002655D01*
X008329Y002691D01*
X008350Y002725D01*
X008374Y002757D01*
X008401Y002786D01*
X008431Y002813D01*
X008463Y002836D01*
X008498Y002856D01*
X008534Y002872D01*
X008572Y002885D01*
X008611Y002894D01*
X008650Y002899D01*
X008690Y002900D01*
X008730Y002897D01*
X008769Y002890D01*
X008807Y002879D01*
X008845Y002865D01*
X008880Y002846D01*
X008913Y002825D01*
X008945Y002800D01*
X008973Y002772D01*
X008999Y002742D01*
X009021Y002709D01*
X009040Y002674D01*
X009056Y002637D01*
X009068Y002599D01*
X009076Y002560D01*
X009080Y002520D01*
X009080Y002480D01*
X009076Y002440D01*
X009068Y002401D01*
X009056Y002363D01*
X009040Y002326D01*
X009021Y002291D01*
X008999Y002258D01*
X008973Y002228D01*
X008945Y002200D01*
X008913Y002175D01*
X008880Y002154D01*
X008845Y002135D01*
X008807Y002121D01*
X008769Y002110D01*
X008730Y002103D01*
X008690Y002100D01*
X008650Y002101D01*
X008611Y002106D01*
X008572Y002115D01*
X008534Y002128D01*
X008498Y002144D01*
X008463Y002164D01*
X008431Y002187D01*
X008401Y002214D01*
X008374Y002243D01*
X008350Y002275D01*
X008329Y002309D01*
X008311Y002345D01*
X008298Y002382D01*
X008288Y002421D01*
X008282Y002460D01*
X008280Y002500D01*
X010680Y002500D02*
X010680Y010500D01*
X029680Y010500D01*
X029680Y002500D01*
X010680Y002500D01*
X013680Y008800D02*
X016680Y008800D01*
X016680Y009000D01*
X013680Y009000D02*
X013680Y008800D01*
X010680Y011500D02*
X010680Y019500D01*
X029680Y019500D01*
X029680Y011500D01*
X010680Y011500D01*
X013680Y017800D02*
X016680Y017800D01*
X016680Y018000D01*
X013680Y018000D02*
X013680Y017800D01*
X010680Y020500D02*
X010680Y028500D01*
X029680Y028500D01*
X029680Y020500D01*
X010680Y020500D01*
X013680Y026800D02*
X016680Y026800D01*
X016680Y027000D01*
X013680Y027000D02*
X013680Y026800D01*
D11*
X001983Y030000D02*
X001897Y029998D01*
X001812Y029992D01*
X001726Y029982D01*
X001642Y029967D01*
X001558Y029949D01*
X001475Y029927D01*
X001393Y029901D01*
X001313Y029871D01*
X001234Y029837D01*
X001157Y029800D01*
X001081Y029758D01*
X001008Y029714D01*
X000937Y029666D01*
X000868Y029614D01*
X000802Y029560D01*
X000739Y029502D01*
X000678Y029441D01*
X000620Y029378D01*
X000566Y029312D01*
X000514Y029243D01*
X000466Y029172D01*
X000422Y029099D01*
X000380Y029023D01*
X000343Y028946D01*
X000309Y028867D01*
X000279Y028787D01*
X000253Y028705D01*
X000231Y028622D01*
X000213Y028538D01*
X000198Y028454D01*
X000188Y028368D01*
X000182Y028283D01*
X000180Y028197D01*
X000180Y004202D01*
X000184Y004050D01*
X000194Y003898D01*
X000213Y003746D01*
X000238Y003596D01*
X000270Y003447D01*
X000310Y003300D01*
X000356Y003155D01*
X000409Y003012D01*
X000469Y002872D01*
X000536Y002735D01*
X000609Y002601D01*
X000688Y002471D01*
X000774Y002345D01*
X000865Y002223D01*
X000962Y002105D01*
X001065Y001992D01*
X001172Y001885D01*
X001285Y001782D01*
X001403Y001685D01*
X001525Y001594D01*
X001651Y001508D01*
X001781Y001429D01*
X001915Y001356D01*
X002052Y001289D01*
X002192Y001229D01*
X002335Y001176D01*
X002480Y001130D01*
X002627Y001090D01*
X002776Y001058D01*
X002926Y001033D01*
X003078Y001014D01*
X003230Y001004D01*
X003382Y001000D01*
X028680Y001000D01*
X028799Y001003D01*
X028918Y001011D01*
X029036Y001025D01*
X029153Y001045D01*
X029269Y001070D01*
X029384Y001101D01*
X029498Y001137D01*
X029609Y001179D01*
X029719Y001226D01*
X029826Y001278D01*
X029930Y001335D01*
X030032Y001397D01*
X030130Y001464D01*
X030225Y001535D01*
X030317Y001611D01*
X030405Y001691D01*
X030489Y001775D01*
X030569Y001863D01*
X030645Y001955D01*
X030716Y002050D01*
X030783Y002148D01*
X030845Y002250D01*
X030902Y002354D01*
X030954Y002461D01*
X031001Y002571D01*
X031043Y002682D01*
X031079Y002796D01*
X031110Y002911D01*
X031135Y003027D01*
X031155Y003144D01*
X031169Y003262D01*
X031177Y003381D01*
X031180Y003500D01*
X031180Y027764D01*
X031177Y027870D01*
X031170Y027977D01*
X031157Y028082D01*
X031140Y028187D01*
X031117Y028291D01*
X031089Y028394D01*
X031057Y028495D01*
X031020Y028595D01*
X030978Y028693D01*
X030931Y028789D01*
X030880Y028882D01*
X030825Y028973D01*
X030765Y029061D01*
X030702Y029146D01*
X030634Y029228D01*
X030562Y029307D01*
X030487Y029382D01*
X030408Y029454D01*
X030326Y029522D01*
X030241Y029585D01*
X030153Y029645D01*
X030062Y029700D01*
X029969Y029751D01*
X029873Y029798D01*
X029775Y029840D01*
X029675Y029877D01*
X029574Y029909D01*
X029471Y029937D01*
X029367Y029960D01*
X029262Y029977D01*
X029157Y029990D01*
X029050Y029997D01*
X028944Y030000D01*
X001983Y030000D01*
X004680Y003000D02*
X007180Y003000D01*
X007180Y001500D01*
X004680Y001500D01*
X004680Y003000D01*
D12*
X005200Y002480D02*
X005200Y002097D01*
X005277Y002020D01*
X005430Y002020D01*
X005507Y002097D01*
X005507Y002480D01*
X005660Y002404D02*
X005660Y002327D01*
X005737Y002250D01*
X005891Y002250D01*
X005967Y002173D01*
X005967Y002097D01*
X005891Y002020D01*
X005737Y002020D01*
X005660Y002097D01*
X005660Y002404D02*
X005737Y002480D01*
X005891Y002480D01*
X005967Y002404D01*
X006121Y002480D02*
X006121Y002020D01*
X006351Y002020D01*
X006428Y002097D01*
X006428Y002173D01*
X006351Y002250D01*
X006121Y002250D01*
X006351Y002250D02*
X006428Y002327D01*
X006428Y002404D01*
X006351Y002480D01*
X006121Y002480D01*
X006276Y005520D02*
X006200Y005597D01*
X006200Y005750D01*
X006276Y005827D01*
X006276Y005980D02*
X006583Y005980D01*
X006660Y006057D01*
X006660Y006211D01*
X006583Y006287D01*
X006276Y006287D02*
X006200Y006211D01*
X006200Y006057D01*
X006276Y005980D01*
X006583Y005827D02*
X006660Y005750D01*
X006660Y005597D01*
X006583Y005520D01*
X006276Y005520D01*
X006200Y006901D02*
X006200Y007131D01*
X006276Y007208D01*
X006353Y007208D01*
X006430Y007131D01*
X006430Y006901D01*
X006660Y006901D02*
X006660Y007131D01*
X006583Y007208D01*
X006507Y007208D01*
X006430Y007131D01*
X006276Y007362D02*
X006200Y007362D01*
X006276Y007362D02*
X006430Y007515D01*
X006660Y007515D01*
X006430Y007515D02*
X006276Y007668D01*
X006200Y007668D01*
X006430Y007822D02*
X006430Y008129D01*
X006353Y008282D02*
X006430Y008359D01*
X006430Y008513D01*
X006507Y008589D01*
X006583Y008589D01*
X006660Y008513D01*
X006660Y008359D01*
X006583Y008282D01*
X006353Y008282D02*
X006276Y008282D01*
X006200Y008359D01*
X006200Y008513D01*
X006276Y008589D01*
X006353Y008743D02*
X006200Y008896D01*
X006353Y009050D01*
X006660Y009050D01*
X006430Y009050D02*
X006430Y008743D01*
X006353Y008743D02*
X006660Y008743D01*
X006583Y009664D02*
X006660Y009740D01*
X006660Y009894D01*
X006583Y009970D01*
X006507Y009970D01*
X006430Y009894D01*
X006430Y009817D01*
X006430Y009894D02*
X006353Y009970D01*
X006276Y009970D01*
X006200Y009894D01*
X006200Y009740D01*
X006276Y009664D01*
X006583Y010124D02*
X006583Y010201D01*
X006660Y010201D01*
X006660Y010124D01*
X006583Y010124D01*
X006583Y010354D02*
X006276Y010661D01*
X006583Y010661D01*
X006660Y010584D01*
X006660Y010431D01*
X006583Y010354D01*
X006276Y010354D01*
X006200Y010431D01*
X006200Y010584D01*
X006276Y010661D01*
X006200Y006901D02*
X006660Y006901D01*
X010700Y011020D02*
X011007Y011020D01*
X011160Y011250D02*
X011467Y011250D01*
X011621Y011250D02*
X011928Y011250D01*
X011928Y011327D02*
X011928Y011020D01*
X012081Y011020D02*
X012388Y011480D01*
X012542Y011480D02*
X012695Y011480D01*
X012618Y011480D02*
X012618Y011020D01*
X012542Y011020D02*
X012695Y011020D01*
X012848Y011097D02*
X012925Y011020D01*
X013079Y011020D01*
X013155Y011097D01*
X013155Y011173D01*
X013079Y011250D01*
X012925Y011250D01*
X012848Y011327D01*
X012848Y011404D01*
X012925Y011480D01*
X013079Y011480D01*
X013155Y011404D01*
X012388Y011020D02*
X012081Y011480D01*
X011928Y011327D02*
X011774Y011480D01*
X011621Y011327D01*
X011621Y011020D01*
X011007Y011404D02*
X011007Y011480D01*
X010700Y011480D01*
X011007Y011404D02*
X010700Y011097D01*
X010700Y011020D01*
X019700Y007297D02*
X019777Y007220D01*
X019853Y007220D01*
X019930Y007297D01*
X019930Y007680D01*
X019853Y007680D02*
X020007Y007680D01*
X020160Y007680D02*
X020391Y007680D01*
X020467Y007604D01*
X020467Y007450D01*
X020391Y007373D01*
X020160Y007373D01*
X020160Y007220D02*
X020160Y007680D01*
X020621Y007680D02*
X020621Y007450D01*
X020774Y007527D01*
X020851Y007527D01*
X020928Y007450D01*
X020928Y007297D01*
X020851Y007220D01*
X020698Y007220D01*
X020621Y007297D01*
X020621Y007680D02*
X020928Y007680D01*
X020851Y016220D02*
X020698Y016220D01*
X020621Y016297D01*
X020621Y016373D01*
X020698Y016450D01*
X020851Y016450D01*
X020928Y016373D01*
X020928Y016297D01*
X020851Y016220D01*
X020851Y016450D02*
X020928Y016527D01*
X020928Y016604D01*
X020851Y016680D01*
X020698Y016680D01*
X020621Y016604D01*
X020621Y016527D01*
X020698Y016450D01*
X020467Y016450D02*
X020467Y016604D01*
X020391Y016680D01*
X020160Y016680D01*
X020160Y016220D01*
X020160Y016373D02*
X020391Y016373D01*
X020467Y016450D01*
X020007Y016680D02*
X019853Y016680D01*
X019930Y016680D02*
X019930Y016297D01*
X019853Y016220D01*
X019777Y016220D01*
X019700Y016297D01*
X013155Y020097D02*
X013079Y020020D01*
X012925Y020020D01*
X012848Y020097D01*
X012695Y020020D02*
X012542Y020020D01*
X012618Y020020D02*
X012618Y020480D01*
X012542Y020480D02*
X012695Y020480D01*
X012848Y020404D02*
X012848Y020327D01*
X012925Y020250D01*
X013079Y020250D01*
X013155Y020173D01*
X013155Y020097D01*
X013155Y020404D02*
X013079Y020480D01*
X012925Y020480D01*
X012848Y020404D01*
X012388Y020480D02*
X012081Y020020D01*
X011928Y020020D02*
X011928Y020327D01*
X011774Y020480D01*
X011621Y020327D01*
X011621Y020020D01*
X011621Y020250D02*
X011928Y020250D01*
X012081Y020480D02*
X012388Y020020D01*
X011467Y020250D02*
X011160Y020250D01*
X011007Y020404D02*
X011007Y020480D01*
X011007Y020404D02*
X010853Y020250D01*
X010853Y020020D01*
X010853Y020250D02*
X010700Y020404D01*
X010700Y020480D01*
X006660Y022673D02*
X006507Y022827D01*
X006200Y022827D01*
X006430Y022980D02*
X006353Y023057D01*
X006353Y023211D01*
X006430Y023287D01*
X006507Y023287D01*
X006507Y022980D01*
X006583Y022980D02*
X006430Y022980D01*
X006583Y022980D02*
X006660Y023057D01*
X006660Y023211D01*
X006660Y023441D02*
X006353Y023441D01*
X006353Y023594D02*
X006507Y023441D01*
X006353Y023594D02*
X006353Y023671D01*
X006430Y023824D02*
X006353Y023901D01*
X006353Y024131D01*
X006353Y024285D02*
X006353Y024362D01*
X006660Y024362D01*
X006660Y024438D02*
X006660Y024285D01*
X006583Y024131D02*
X006507Y024055D01*
X006507Y023901D01*
X006430Y023824D01*
X006660Y023824D02*
X006660Y024055D01*
X006583Y024131D01*
X006200Y024362D02*
X006123Y024362D01*
X006353Y024668D02*
X006430Y024592D01*
X006583Y024592D01*
X006660Y024668D01*
X006660Y024822D01*
X006583Y024899D01*
X006430Y024899D01*
X006353Y024822D01*
X006353Y024668D01*
X006353Y025052D02*
X006353Y025282D01*
X006430Y025359D01*
X006660Y025359D01*
X006660Y025513D02*
X006583Y025513D01*
X006583Y025589D01*
X006660Y025589D01*
X006660Y025513D01*
X006430Y025513D02*
X006353Y025513D01*
X006353Y025589D01*
X006430Y025589D01*
X006430Y025513D01*
X006353Y025052D02*
X006660Y025052D01*
X005660Y025047D02*
X005583Y025124D01*
X005430Y025124D01*
X005353Y025047D01*
X005353Y024894D01*
X005430Y024817D01*
X005583Y024817D01*
X005660Y024894D01*
X005660Y025047D01*
X005353Y024664D02*
X005353Y024587D01*
X005507Y024433D01*
X005660Y024433D02*
X005353Y024433D01*
X005276Y024280D02*
X005430Y024280D01*
X005507Y024203D01*
X005507Y023973D01*
X005660Y023973D02*
X005200Y023973D01*
X005200Y024203D01*
X005276Y024280D01*
X004660Y024166D02*
X004583Y024089D01*
X004353Y024089D01*
X004430Y023936D02*
X004353Y023859D01*
X004353Y023706D01*
X004507Y023706D02*
X004507Y023936D01*
X004430Y023936D02*
X004660Y023936D01*
X004660Y023706D01*
X004583Y023629D01*
X004507Y023706D01*
X004353Y023475D02*
X004353Y023399D01*
X004507Y023245D01*
X004660Y023245D02*
X004353Y023245D01*
X004200Y023092D02*
X004200Y022785D01*
X004660Y022785D01*
X004660Y022631D02*
X004353Y022631D01*
X004430Y022785D02*
X004430Y022938D01*
X004660Y022631D02*
X004660Y022401D01*
X004583Y022324D01*
X004353Y022324D01*
X004353Y022171D02*
X004353Y021941D01*
X004430Y021864D01*
X004583Y021864D01*
X004660Y021941D01*
X004660Y022171D01*
X004200Y022171D01*
X004353Y021711D02*
X004353Y021634D01*
X004507Y021480D01*
X004660Y021480D02*
X004353Y021480D01*
X004353Y021327D02*
X004660Y021327D01*
X004430Y021327D02*
X004430Y021020D01*
X004353Y021020D02*
X004660Y021020D01*
X004353Y021020D02*
X004200Y021173D01*
X004353Y021327D01*
X005200Y021671D02*
X005660Y021671D01*
X005660Y021441D01*
X005583Y021364D01*
X005430Y021364D01*
X005353Y021441D01*
X005353Y021671D01*
X005353Y021824D02*
X005583Y021824D01*
X005660Y021901D01*
X005660Y022131D01*
X005353Y022131D01*
X005353Y022285D02*
X005353Y022362D01*
X005660Y022362D01*
X005660Y022438D02*
X005660Y022285D01*
X005660Y022592D02*
X005353Y022592D01*
X005353Y022822D01*
X005430Y022899D01*
X005660Y022899D01*
X005583Y023052D02*
X005660Y023129D01*
X005660Y023282D01*
X005583Y023359D01*
X005430Y023359D01*
X005353Y023282D01*
X005353Y023129D01*
X005430Y023052D01*
X005583Y023052D01*
X005200Y022362D02*
X005123Y022362D01*
X006200Y022520D02*
X006507Y022520D01*
X006660Y022673D01*
X005353Y021211D02*
X005353Y021134D01*
X005507Y020980D01*
X005660Y020980D02*
X005353Y020980D01*
X005353Y020827D02*
X005660Y020827D01*
X005430Y020827D02*
X005430Y020520D01*
X005353Y020520D02*
X005200Y020673D01*
X005353Y020827D01*
X005353Y020520D02*
X005660Y020520D01*
X004660Y024166D02*
X004660Y024396D01*
X004353Y024396D01*
X004430Y024550D02*
X004353Y024626D01*
X004353Y024780D01*
X004430Y024857D01*
X004507Y024857D01*
X004507Y024550D01*
X004583Y024550D02*
X004430Y024550D01*
X004583Y024550D02*
X004660Y024626D01*
X004660Y024780D01*
X004660Y025010D02*
X004353Y025010D01*
X004353Y025240D01*
X004430Y025317D01*
X004660Y025317D01*
X004660Y025547D02*
X004276Y025547D01*
X004200Y025624D01*
X004430Y025624D02*
X004430Y025470D01*
X004430Y025777D02*
X004353Y025854D01*
X004353Y026008D01*
X004430Y026084D01*
X004507Y026084D01*
X004507Y025777D01*
X004583Y025777D02*
X004430Y025777D01*
X004583Y025777D02*
X004660Y025854D01*
X004660Y026008D01*
X004660Y026238D02*
X004660Y026391D01*
X004660Y026315D02*
X004200Y026315D01*
X004200Y026238D01*
X004430Y026545D02*
X004353Y026621D01*
X004353Y026852D01*
X004200Y026852D02*
X004660Y026852D01*
X004660Y026621D01*
X004583Y026545D01*
X004430Y026545D01*
X004430Y027005D02*
X004353Y027082D01*
X004353Y027235D01*
X004430Y027312D01*
X004507Y027312D01*
X004507Y027005D01*
X004583Y027005D02*
X004430Y027005D01*
X004583Y027005D02*
X004660Y027082D01*
X004660Y027235D01*
X004660Y027465D02*
X004353Y027465D01*
X004507Y027465D02*
X004353Y027619D01*
X004353Y027696D01*
X004276Y027849D02*
X004583Y027849D01*
X004660Y027926D01*
X004660Y028079D01*
X004583Y028156D01*
X004660Y028310D02*
X004200Y028310D01*
X004660Y028616D01*
X004200Y028616D01*
X004276Y028770D02*
X004583Y028770D01*
X004660Y028847D01*
X004660Y029000D01*
X004583Y029077D01*
X004276Y029077D02*
X004200Y029000D01*
X004200Y028847D01*
X004276Y028770D01*
X004276Y028156D02*
X004200Y028079D01*
X004200Y027926D01*
X004276Y027849D01*
X005200Y028270D02*
X005660Y028270D01*
X005660Y028577D01*
X005583Y028730D02*
X005430Y028730D01*
X005353Y028807D01*
X005353Y029037D01*
X005200Y029037D02*
X005660Y029037D01*
X005660Y028807D01*
X005583Y028730D01*
X005430Y028423D02*
X005430Y028270D01*
X005200Y028270D02*
X005200Y028577D01*
X005583Y029191D02*
X005583Y029267D01*
X005660Y029267D01*
X005660Y029191D01*
X005583Y029191D01*
X005583Y027656D02*
X005430Y027656D01*
X005353Y027579D01*
X005353Y027426D01*
X005430Y027349D01*
X005583Y027349D01*
X005660Y027426D01*
X005660Y027579D01*
X005583Y027656D01*
X005353Y027196D02*
X005353Y027119D01*
X005507Y026965D01*
X005660Y026965D02*
X005353Y026965D01*
X005353Y026812D02*
X005353Y026582D01*
X005430Y026505D01*
X005583Y026505D01*
X005660Y026582D01*
X005660Y026812D01*
X005660Y026352D02*
X005660Y026198D01*
X005660Y026275D02*
X005353Y026275D01*
X005353Y026198D01*
X005200Y026275D02*
X005123Y026275D01*
X005200Y026045D02*
X005660Y026045D01*
X005660Y025738D02*
X005200Y025738D01*
X005353Y025891D01*
X005200Y026045D01*
X006200Y026357D02*
X006660Y026357D01*
X006660Y026510D02*
X006660Y026203D01*
X006353Y026203D02*
X006200Y026357D01*
X006583Y026664D02*
X006583Y026740D01*
X006660Y026740D01*
X006660Y026664D01*
X006583Y026664D01*
X006583Y026894D02*
X006276Y027201D01*
X006583Y027201D01*
X006660Y027124D01*
X006660Y026970D01*
X006583Y026894D01*
X006276Y026894D01*
X006200Y026970D01*
X006200Y027124D01*
X006276Y027201D01*
X010700Y029020D02*
X011007Y029480D01*
X011160Y029250D02*
X011467Y029250D01*
X011621Y029250D02*
X011928Y029250D01*
X011928Y029327D02*
X011928Y029020D01*
X012081Y029020D02*
X012388Y029480D01*
X012542Y029480D02*
X012695Y029480D01*
X012618Y029480D02*
X012618Y029020D01*
X012542Y029020D02*
X012695Y029020D01*
X012848Y029097D02*
X012925Y029020D01*
X013079Y029020D01*
X013155Y029097D01*
X013155Y029173D01*
X013079Y029250D01*
X012925Y029250D01*
X012848Y029327D01*
X012848Y029404D01*
X012925Y029480D01*
X013079Y029480D01*
X013155Y029404D01*
X012388Y029020D02*
X012081Y029480D01*
X011928Y029327D02*
X011774Y029480D01*
X011621Y029327D01*
X011621Y029020D01*
X011007Y029020D02*
X010700Y029480D01*
X019700Y025297D02*
X019777Y025220D01*
X019853Y025220D01*
X019930Y025297D01*
X019930Y025680D01*
X019853Y025680D02*
X020007Y025680D01*
X020160Y025680D02*
X020391Y025680D01*
X020467Y025604D01*
X020467Y025450D01*
X020391Y025373D01*
X020160Y025373D01*
X020160Y025220D02*
X020160Y025680D01*
X020621Y025450D02*
X020928Y025450D01*
X020851Y025220D02*
X020851Y025680D01*
X020621Y025450D01*
X030353Y019305D02*
X030353Y019074D01*
X030430Y018998D01*
X030507Y019074D01*
X030507Y019228D01*
X030583Y019305D01*
X030660Y019228D01*
X030660Y018998D01*
X030507Y018844D02*
X030507Y018537D01*
X030583Y018537D02*
X030430Y018537D01*
X030353Y018614D01*
X030353Y018767D01*
X030430Y018844D01*
X030507Y018844D01*
X030660Y018767D02*
X030660Y018614D01*
X030583Y018537D01*
X030660Y018384D02*
X030660Y018230D01*
X030660Y018307D02*
X030353Y018307D01*
X030353Y018230D01*
X030353Y018077D02*
X030353Y018000D01*
X030507Y017847D01*
X030660Y017847D02*
X030353Y017847D01*
X030353Y017693D02*
X030353Y017540D01*
X030276Y017616D02*
X030583Y017616D01*
X030660Y017693D01*
X030583Y017386D02*
X030507Y017310D01*
X030507Y017156D01*
X030430Y017079D01*
X030353Y017156D01*
X030353Y017386D01*
X030583Y017386D02*
X030660Y017310D01*
X030660Y017079D01*
X030660Y016926D02*
X030353Y016926D01*
X030660Y016926D02*
X030660Y016696D01*
X030583Y016619D01*
X030353Y016619D01*
X030353Y016465D02*
X030353Y016235D01*
X030430Y016159D01*
X030583Y016159D01*
X030660Y016235D01*
X030660Y016465D01*
X030200Y016465D01*
X030430Y016005D02*
X030660Y016005D01*
X030430Y016005D02*
X030353Y015928D01*
X030353Y015698D01*
X030660Y015698D01*
X030660Y015545D02*
X030660Y015391D01*
X030660Y015468D02*
X030200Y015468D01*
X030200Y015391D02*
X030200Y015545D01*
X030430Y014777D02*
X030353Y014701D01*
X030353Y014547D01*
X030430Y014470D01*
X030353Y014317D02*
X030353Y014087D01*
X030430Y014010D01*
X030583Y014010D01*
X030660Y014087D01*
X030660Y014317D01*
X030660Y014470D02*
X030200Y014470D01*
X030430Y014777D02*
X030660Y014777D01*
X030507Y013857D02*
X030507Y013550D01*
X030583Y013550D02*
X030430Y013550D01*
X030353Y013626D01*
X030353Y013780D01*
X030430Y013857D01*
X030507Y013857D01*
X030660Y013780D02*
X030660Y013626D01*
X030583Y013550D01*
X030660Y013243D02*
X030200Y013243D01*
X030200Y013396D02*
X030200Y013089D01*
X030430Y012475D02*
X030353Y012399D01*
X030353Y012168D01*
X030660Y012168D01*
X030660Y012015D02*
X030660Y011785D01*
X030583Y011708D01*
X030430Y011708D01*
X030353Y011785D01*
X030353Y012015D01*
X030737Y012015D01*
X030813Y011938D01*
X030813Y011862D01*
X030660Y011555D02*
X030660Y011401D01*
X030660Y011478D02*
X030353Y011478D01*
X030353Y011401D01*
X030353Y011248D02*
X030353Y011018D01*
X030430Y010941D01*
X030507Y011018D01*
X030507Y011171D01*
X030583Y011248D01*
X030660Y011171D01*
X030660Y010941D01*
X030507Y010787D02*
X030507Y010480D01*
X030583Y010480D02*
X030430Y010480D01*
X030353Y010557D01*
X030353Y010711D01*
X030430Y010787D01*
X030507Y010787D01*
X030660Y010711D02*
X030660Y010557D01*
X030583Y010480D01*
X030583Y010327D02*
X030276Y010327D01*
X030200Y010250D01*
X030200Y010020D01*
X030660Y010020D01*
X030660Y010250D01*
X030583Y010327D01*
X030200Y011478D02*
X030123Y011478D01*
X030430Y012475D02*
X030660Y012475D01*
X030200Y018307D02*
X030123Y018307D01*
D13*
X028680Y018050D02*
X028680Y017800D01*
X027680Y017800D01*
X027680Y018050D01*
X023680Y015840D02*
X023680Y015450D01*
X023680Y015060D01*
X023570Y014950D01*
X023580Y015450D02*
X023680Y015450D01*
X023680Y015840D02*
X023570Y015950D01*
X022780Y015450D02*
X022580Y015450D01*
X021780Y015450D02*
X021580Y015450D01*
X020780Y015450D02*
X020580Y015450D01*
X019780Y015450D02*
X019680Y015450D01*
X019680Y015060D01*
X019790Y014950D01*
X019680Y015450D02*
X019680Y015840D01*
X019790Y015950D01*
X016680Y018950D02*
X016680Y019200D01*
X016430Y019200D01*
X015930Y019200D02*
X015680Y019200D01*
X015680Y018950D01*
X014680Y018950D02*
X014680Y019200D01*
X014430Y019200D01*
X013930Y019200D02*
X013680Y019200D01*
X013680Y018950D01*
X019680Y024060D02*
X019680Y024450D01*
X019680Y024840D01*
X019790Y024950D01*
X019780Y024450D02*
X019680Y024450D01*
X019680Y024060D02*
X019790Y023950D01*
X020580Y024450D02*
X020780Y024450D01*
X021580Y024450D02*
X021780Y024450D01*
X022580Y024450D02*
X022780Y024450D01*
X023580Y024450D02*
X023680Y024450D01*
X023680Y024840D01*
X023570Y024950D01*
X023680Y024450D02*
X023680Y024060D01*
X023570Y023950D01*
X027680Y026800D02*
X028680Y026800D01*
X028680Y027050D01*
X027680Y027050D02*
X027680Y026800D01*
X016680Y027950D02*
X016680Y028200D01*
X016430Y028200D01*
X015930Y028200D02*
X015680Y028200D01*
X015680Y027950D01*
X014680Y027950D02*
X014680Y028200D01*
X014430Y028200D01*
X013930Y028200D02*
X013680Y028200D01*
X013680Y027950D01*
X006294Y019712D02*
X006294Y018945D01*
X006294Y019712D02*
X001961Y019712D01*
X001961Y016288D01*
X003948Y016288D01*
X005798Y016288D02*
X006294Y016288D01*
X006294Y017055D01*
X013680Y010200D02*
X013680Y009950D01*
X013680Y010200D02*
X013930Y010200D01*
X014430Y010200D02*
X014680Y010200D01*
X014680Y009950D01*
X015680Y009950D02*
X015680Y010200D01*
X015930Y010200D01*
X016430Y010200D02*
X016680Y010200D01*
X016680Y009950D01*
X019680Y006840D02*
X019790Y006950D01*
X019680Y006840D02*
X019680Y006450D01*
X019680Y006060D01*
X019790Y005950D01*
X019780Y006450D02*
X019680Y006450D01*
X020580Y006450D02*
X020780Y006450D01*
X021580Y006450D02*
X021780Y006450D01*
X022580Y006450D02*
X022780Y006450D01*
X023580Y006450D02*
X023680Y006450D01*
X023680Y006840D01*
X023570Y006950D01*
X023680Y006450D02*
X023680Y006060D01*
X023570Y005950D01*
X027680Y008800D02*
X028680Y008800D01*
X028680Y009050D01*
X027680Y009050D02*
X027680Y008800D01*
D14*
X027705Y008640D02*
X027705Y008380D01*
X027791Y008467D01*
X027878Y008380D01*
X027878Y008640D01*
X027999Y008640D02*
X027999Y008380D01*
X027999Y008467D02*
X028129Y008467D01*
X028173Y008510D01*
X028173Y008597D01*
X028129Y008640D01*
X027999Y008640D01*
X028086Y008467D02*
X028173Y008380D01*
X028589Y008380D02*
X028675Y008380D01*
X028632Y008380D02*
X028632Y008640D01*
X028589Y008640D02*
X028675Y008640D01*
X028785Y008640D02*
X028959Y008380D01*
X028959Y008640D01*
X028785Y008640D02*
X028785Y008380D01*
X027583Y008510D02*
X027540Y008467D01*
X027410Y008467D01*
X027410Y008380D02*
X027410Y008640D01*
X027540Y008640D01*
X027583Y008597D01*
X027583Y008510D01*
X027605Y010030D02*
X027605Y010290D01*
X027778Y010030D01*
X027778Y010290D01*
X027899Y010290D02*
X028029Y010290D01*
X028073Y010247D01*
X028073Y010073D01*
X028029Y010030D01*
X027899Y010030D01*
X027899Y010290D01*
X027483Y010247D02*
X027440Y010290D01*
X027353Y010290D01*
X027310Y010247D01*
X027310Y010073D01*
X027353Y010030D01*
X027440Y010030D01*
X027483Y010073D01*
X027483Y010160D01*
X027397Y010160D01*
X028510Y010030D02*
X028510Y010290D01*
X028597Y010203D01*
X028683Y010290D01*
X028683Y010030D01*
X028805Y010160D02*
X028978Y010160D01*
X028891Y010247D02*
X028891Y010073D01*
X028851Y011730D02*
X028851Y011990D01*
X028981Y011990D01*
X029025Y011947D01*
X029025Y011860D01*
X028981Y011817D01*
X028851Y011817D01*
X028938Y011817D02*
X029025Y011730D01*
X028741Y011730D02*
X028655Y011730D01*
X028698Y011730D02*
X028698Y011990D01*
X028655Y011990D02*
X028741Y011990D01*
X028533Y011947D02*
X028490Y011990D01*
X028360Y011990D01*
X028360Y011730D01*
X028490Y011730D01*
X028533Y011773D01*
X028533Y011947D01*
X028094Y013030D02*
X028094Y013290D01*
X028224Y013290D01*
X028267Y013247D01*
X028267Y013160D01*
X028224Y013117D01*
X028094Y013117D01*
X027973Y013030D02*
X027799Y013030D01*
X027799Y013290D01*
X027973Y013290D01*
X027886Y013160D02*
X027799Y013160D01*
X027678Y013290D02*
X027505Y013290D01*
X027591Y013290D02*
X027591Y013030D01*
X027383Y013073D02*
X027340Y013030D01*
X027253Y013030D01*
X027210Y013073D01*
X027253Y013160D02*
X027340Y013160D01*
X027383Y013117D01*
X027383Y013073D01*
X027253Y013160D02*
X027210Y013203D01*
X027210Y013247D01*
X027253Y013290D01*
X027340Y013290D01*
X027383Y013247D01*
X027029Y011990D02*
X026899Y011990D01*
X026899Y011730D01*
X027029Y011730D01*
X027073Y011773D01*
X027073Y011947D01*
X027029Y011990D01*
X026778Y011990D02*
X026778Y011730D01*
X026605Y011990D01*
X026605Y011730D01*
X026483Y011773D02*
X026440Y011730D01*
X026353Y011730D01*
X026310Y011773D01*
X026310Y011947D01*
X026353Y011990D01*
X026440Y011990D01*
X026483Y011947D01*
X026483Y011860D02*
X026397Y011860D01*
X026483Y011860D02*
X026483Y011773D01*
X025029Y010290D02*
X024943Y010290D01*
X024899Y010247D01*
X024778Y010247D02*
X024735Y010290D01*
X024648Y010290D01*
X024605Y010247D01*
X024605Y010203D01*
X024648Y010160D01*
X024735Y010160D01*
X024778Y010117D01*
X024778Y010073D01*
X024735Y010030D01*
X024648Y010030D01*
X024605Y010073D01*
X024483Y010030D02*
X024483Y010290D01*
X024397Y010203D01*
X024310Y010290D01*
X024310Y010030D01*
X024057Y010030D02*
X023883Y010030D01*
X023883Y010290D01*
X024057Y010290D01*
X023970Y010160D02*
X023883Y010160D01*
X023762Y010030D02*
X023589Y010030D01*
X023589Y010290D01*
X023467Y010247D02*
X023467Y010203D01*
X023424Y010160D01*
X023294Y010160D01*
X023173Y010160D02*
X022999Y010160D01*
X022999Y010203D02*
X023086Y010290D01*
X023173Y010203D01*
X023173Y010030D01*
X023294Y010030D02*
X023294Y010290D01*
X023424Y010290D01*
X023467Y010247D01*
X023424Y010160D02*
X023467Y010117D01*
X023467Y010073D01*
X023424Y010030D01*
X023294Y010030D01*
X022999Y010030D02*
X022999Y010203D01*
X022878Y010290D02*
X022878Y010030D01*
X022705Y010290D01*
X022705Y010030D01*
X022583Y010030D02*
X022410Y010030D01*
X022410Y010290D01*
X022583Y010290D01*
X022497Y010160D02*
X022410Y010160D01*
X020073Y010290D02*
X019899Y010290D01*
X019986Y010290D02*
X019986Y010030D01*
X019778Y010073D02*
X019735Y010030D01*
X019648Y010030D01*
X019605Y010073D01*
X019648Y010160D02*
X019735Y010160D01*
X019778Y010117D01*
X019778Y010073D01*
X019648Y010160D02*
X019605Y010203D01*
X019605Y010247D01*
X019648Y010290D01*
X019735Y010290D01*
X019778Y010247D01*
X019483Y010247D02*
X019483Y010160D01*
X019440Y010117D01*
X019310Y010117D01*
X019397Y010117D02*
X019483Y010030D01*
X019310Y010030D02*
X019310Y010290D01*
X019440Y010290D01*
X019483Y010247D01*
X019073Y010247D02*
X019029Y010290D01*
X018899Y010290D01*
X018899Y010030D01*
X019029Y010030D01*
X019073Y010073D01*
X019073Y010247D01*
X018778Y010290D02*
X018605Y010290D01*
X018605Y010030D01*
X018605Y010160D02*
X018691Y010160D01*
X018483Y010160D02*
X018440Y010117D01*
X018310Y010117D01*
X018310Y010030D02*
X018310Y010290D01*
X018440Y010290D01*
X018483Y010247D01*
X018483Y010160D01*
X018440Y011730D02*
X018353Y011730D01*
X018310Y011773D01*
X018353Y011860D02*
X018440Y011860D01*
X018483Y011817D01*
X018483Y011773D01*
X018440Y011730D01*
X018353Y011860D02*
X018310Y011903D01*
X018310Y011947D01*
X018353Y011990D01*
X018440Y011990D01*
X018483Y011947D01*
X018605Y011990D02*
X018605Y011730D01*
X018778Y011730D01*
X018899Y011730D02*
X018899Y011990D01*
X019029Y011990D01*
X019073Y011947D01*
X019073Y011860D01*
X019029Y011817D01*
X018899Y011817D01*
X019310Y011730D02*
X019310Y011990D01*
X019397Y011903D01*
X019483Y011990D01*
X019483Y011730D01*
X019605Y011773D02*
X019648Y011730D01*
X019735Y011730D01*
X019778Y011773D01*
X019778Y011817D01*
X019735Y011860D01*
X019648Y011860D01*
X019605Y011903D01*
X019605Y011947D01*
X019648Y011990D01*
X019735Y011990D01*
X019778Y011947D01*
X019899Y011903D02*
X019986Y011990D01*
X019986Y011730D01*
X019899Y011730D02*
X020073Y011730D01*
X016283Y010247D02*
X016283Y010203D01*
X016240Y010160D01*
X016110Y010160D01*
X016110Y010030D02*
X016240Y010030D01*
X016283Y010073D01*
X016283Y010117D01*
X016240Y010160D01*
X016283Y010247D02*
X016240Y010290D01*
X016110Y010290D01*
X016110Y010030D01*
X014936Y011730D02*
X015023Y011817D01*
X015023Y011990D01*
X014849Y011990D02*
X014849Y011817D01*
X014936Y011730D01*
X014728Y011773D02*
X014685Y011730D01*
X014598Y011730D01*
X014555Y011773D01*
X014555Y011860D02*
X014641Y011903D01*
X014685Y011903D01*
X014728Y011860D01*
X014728Y011773D01*
X014555Y011860D02*
X014555Y011990D01*
X014728Y011990D01*
X014433Y011860D02*
X014260Y011860D01*
X014347Y011947D02*
X014347Y011773D01*
X014073Y011773D02*
X014029Y011730D01*
X013899Y011730D01*
X013899Y011990D01*
X014029Y011990D01*
X014073Y011947D01*
X014073Y011773D01*
X013778Y011730D02*
X013778Y011990D01*
X013605Y011990D02*
X013778Y011730D01*
X013605Y011730D02*
X013605Y011990D01*
X013483Y011947D02*
X013440Y011990D01*
X013353Y011990D01*
X013310Y011947D01*
X013310Y011773D01*
X013353Y011730D01*
X013440Y011730D01*
X013483Y011773D01*
X013483Y011860D01*
X013397Y011860D01*
X014197Y010290D02*
X014283Y010203D01*
X014283Y010030D01*
X014283Y010160D02*
X014110Y010160D01*
X014110Y010203D02*
X014197Y010290D01*
X014110Y010203D02*
X014110Y010030D01*
X014029Y002990D02*
X013899Y002990D01*
X013899Y002730D01*
X014029Y002730D01*
X014073Y002773D01*
X014073Y002947D01*
X014029Y002990D01*
X013778Y002990D02*
X013778Y002730D01*
X013605Y002990D01*
X013605Y002730D01*
X013483Y002773D02*
X013483Y002860D01*
X013397Y002860D01*
X013483Y002773D02*
X013440Y002730D01*
X013353Y002730D01*
X013310Y002773D01*
X013310Y002947D01*
X013353Y002990D01*
X013440Y002990D01*
X013483Y002947D01*
X014260Y002860D02*
X014433Y002860D01*
X014555Y002860D02*
X014641Y002903D01*
X014685Y002903D01*
X014728Y002860D01*
X014728Y002773D01*
X014685Y002730D01*
X014598Y002730D01*
X014555Y002773D01*
X014555Y002860D02*
X014555Y002990D01*
X014728Y002990D01*
X014849Y002990D02*
X014849Y002817D01*
X014936Y002730D01*
X015023Y002817D01*
X015023Y002990D01*
X014347Y002947D02*
X014347Y002773D01*
X018310Y002773D02*
X018353Y002730D01*
X018440Y002730D01*
X018483Y002773D01*
X018483Y002817D01*
X018440Y002860D01*
X018353Y002860D01*
X018310Y002903D01*
X018310Y002947D01*
X018353Y002990D01*
X018440Y002990D01*
X018483Y002947D01*
X018605Y002990D02*
X018605Y002730D01*
X018778Y002730D01*
X018899Y002730D02*
X018899Y002990D01*
X019029Y002990D01*
X019073Y002947D01*
X019073Y002860D01*
X019029Y002817D01*
X018899Y002817D01*
X019310Y002730D02*
X019310Y002990D01*
X019397Y002903D01*
X019483Y002990D01*
X019483Y002730D01*
X019605Y002773D02*
X019648Y002730D01*
X019735Y002730D01*
X019778Y002773D01*
X019778Y002817D01*
X019735Y002860D01*
X019648Y002860D01*
X019605Y002903D01*
X019605Y002947D01*
X019648Y002990D01*
X019735Y002990D01*
X019778Y002947D01*
X019899Y002903D02*
X019986Y002990D01*
X019986Y002730D01*
X019899Y002730D02*
X020073Y002730D01*
X026310Y002773D02*
X026353Y002730D01*
X026440Y002730D01*
X026483Y002773D01*
X026483Y002860D01*
X026397Y002860D01*
X026483Y002947D02*
X026440Y002990D01*
X026353Y002990D01*
X026310Y002947D01*
X026310Y002773D01*
X026605Y002730D02*
X026605Y002990D01*
X026778Y002730D01*
X026778Y002990D01*
X026899Y002990D02*
X027029Y002990D01*
X027073Y002947D01*
X027073Y002773D01*
X027029Y002730D01*
X026899Y002730D01*
X026899Y002990D01*
X027253Y004030D02*
X027210Y004073D01*
X027253Y004030D02*
X027340Y004030D01*
X027383Y004073D01*
X027383Y004117D01*
X027340Y004160D01*
X027253Y004160D01*
X027210Y004203D01*
X027210Y004247D01*
X027253Y004290D01*
X027340Y004290D01*
X027383Y004247D01*
X027505Y004290D02*
X027678Y004290D01*
X027591Y004290D02*
X027591Y004030D01*
X027799Y004030D02*
X027799Y004290D01*
X027973Y004290D01*
X028094Y004290D02*
X028224Y004290D01*
X028267Y004247D01*
X028267Y004160D01*
X028224Y004117D01*
X028094Y004117D01*
X028094Y004030D02*
X028094Y004290D01*
X027886Y004160D02*
X027799Y004160D01*
X027799Y004030D02*
X027973Y004030D01*
X028360Y002990D02*
X028490Y002990D01*
X028533Y002947D01*
X028533Y002773D01*
X028490Y002730D01*
X028360Y002730D01*
X028360Y002990D01*
X028655Y002990D02*
X028741Y002990D01*
X028698Y002990D02*
X028698Y002730D01*
X028655Y002730D02*
X028741Y002730D01*
X028851Y002730D02*
X028851Y002990D01*
X028981Y002990D01*
X029025Y002947D01*
X029025Y002860D01*
X028981Y002817D01*
X028851Y002817D01*
X028938Y002817D02*
X029025Y002730D01*
X025073Y010030D02*
X024899Y010030D01*
X025073Y010203D01*
X025073Y010247D01*
X025029Y010290D01*
X027410Y017380D02*
X027410Y017640D01*
X027540Y017640D01*
X027583Y017597D01*
X027583Y017510D01*
X027540Y017467D01*
X027410Y017467D01*
X027705Y017380D02*
X027705Y017640D01*
X027878Y017640D02*
X027878Y017380D01*
X027791Y017467D01*
X027705Y017380D01*
X027999Y017380D02*
X027999Y017640D01*
X028129Y017640D01*
X028173Y017597D01*
X028173Y017510D01*
X028129Y017467D01*
X027999Y017467D01*
X028086Y017467D02*
X028173Y017380D01*
X028589Y017380D02*
X028675Y017380D01*
X028632Y017380D02*
X028632Y017640D01*
X028589Y017640D02*
X028675Y017640D01*
X028785Y017640D02*
X028959Y017380D01*
X028959Y017640D01*
X028785Y017640D02*
X028785Y017380D01*
X028683Y019030D02*
X028683Y019290D01*
X028597Y019203D01*
X028510Y019290D01*
X028510Y019030D01*
X028805Y019160D02*
X028978Y019160D01*
X028891Y019247D02*
X028891Y019073D01*
X028073Y019073D02*
X028073Y019247D01*
X028029Y019290D01*
X027899Y019290D01*
X027899Y019030D01*
X028029Y019030D01*
X028073Y019073D01*
X027778Y019030D02*
X027778Y019290D01*
X027605Y019290D02*
X027778Y019030D01*
X027605Y019030D02*
X027605Y019290D01*
X027483Y019247D02*
X027440Y019290D01*
X027353Y019290D01*
X027310Y019247D01*
X027310Y019073D01*
X027353Y019030D01*
X027440Y019030D01*
X027483Y019073D01*
X027483Y019160D01*
X027397Y019160D01*
X027029Y020730D02*
X026899Y020730D01*
X026899Y020990D01*
X027029Y020990D01*
X027073Y020947D01*
X027073Y020773D01*
X027029Y020730D01*
X026778Y020730D02*
X026778Y020990D01*
X026605Y020990D02*
X026605Y020730D01*
X026483Y020773D02*
X026483Y020860D01*
X026397Y020860D01*
X026483Y020773D02*
X026440Y020730D01*
X026353Y020730D01*
X026310Y020773D01*
X026310Y020947D01*
X026353Y020990D01*
X026440Y020990D01*
X026483Y020947D01*
X026605Y020990D02*
X026778Y020730D01*
X027253Y022030D02*
X027210Y022073D01*
X027253Y022030D02*
X027340Y022030D01*
X027383Y022073D01*
X027383Y022117D01*
X027340Y022160D01*
X027253Y022160D01*
X027210Y022203D01*
X027210Y022247D01*
X027253Y022290D01*
X027340Y022290D01*
X027383Y022247D01*
X027505Y022290D02*
X027678Y022290D01*
X027591Y022290D02*
X027591Y022030D01*
X027799Y022030D02*
X027799Y022290D01*
X027973Y022290D01*
X028094Y022290D02*
X028224Y022290D01*
X028267Y022247D01*
X028267Y022160D01*
X028224Y022117D01*
X028094Y022117D01*
X028094Y022030D02*
X028094Y022290D01*
X027886Y022160D02*
X027799Y022160D01*
X027799Y022030D02*
X027973Y022030D01*
X028360Y020990D02*
X028490Y020990D01*
X028533Y020947D01*
X028533Y020773D01*
X028490Y020730D01*
X028360Y020730D01*
X028360Y020990D01*
X028655Y020990D02*
X028741Y020990D01*
X028698Y020990D02*
X028698Y020730D01*
X028655Y020730D02*
X028741Y020730D01*
X028851Y020730D02*
X028851Y020990D01*
X028981Y020990D01*
X029025Y020947D01*
X029025Y020860D01*
X028981Y020817D01*
X028851Y020817D01*
X028938Y020817D02*
X029025Y020730D01*
X025073Y019247D02*
X025029Y019290D01*
X024943Y019290D01*
X024899Y019247D01*
X024778Y019247D02*
X024735Y019290D01*
X024648Y019290D01*
X024605Y019247D01*
X024605Y019203D01*
X024648Y019160D01*
X024735Y019160D01*
X024778Y019117D01*
X024778Y019073D01*
X024735Y019030D01*
X024648Y019030D01*
X024605Y019073D01*
X024483Y019030D02*
X024483Y019290D01*
X024397Y019203D01*
X024310Y019290D01*
X024310Y019030D01*
X024057Y019030D02*
X023883Y019030D01*
X023883Y019290D01*
X024057Y019290D01*
X023970Y019160D02*
X023883Y019160D01*
X023762Y019030D02*
X023589Y019030D01*
X023589Y019290D01*
X023467Y019247D02*
X023467Y019203D01*
X023424Y019160D01*
X023294Y019160D01*
X023173Y019160D02*
X022999Y019160D01*
X022999Y019203D02*
X023086Y019290D01*
X023173Y019203D01*
X023173Y019030D01*
X023294Y019030D02*
X023424Y019030D01*
X023467Y019073D01*
X023467Y019117D01*
X023424Y019160D01*
X023467Y019247D02*
X023424Y019290D01*
X023294Y019290D01*
X023294Y019030D01*
X022999Y019030D02*
X022999Y019203D01*
X022878Y019290D02*
X022878Y019030D01*
X022705Y019290D01*
X022705Y019030D01*
X022583Y019030D02*
X022410Y019030D01*
X022410Y019290D01*
X022583Y019290D01*
X022497Y019160D02*
X022410Y019160D01*
X020073Y019290D02*
X019899Y019290D01*
X019986Y019290D02*
X019986Y019030D01*
X019778Y019073D02*
X019735Y019030D01*
X019648Y019030D01*
X019605Y019073D01*
X019648Y019160D02*
X019735Y019160D01*
X019778Y019117D01*
X019778Y019073D01*
X019648Y019160D02*
X019605Y019203D01*
X019605Y019247D01*
X019648Y019290D01*
X019735Y019290D01*
X019778Y019247D01*
X019483Y019247D02*
X019483Y019160D01*
X019440Y019117D01*
X019310Y019117D01*
X019397Y019117D02*
X019483Y019030D01*
X019310Y019030D02*
X019310Y019290D01*
X019440Y019290D01*
X019483Y019247D01*
X019073Y019247D02*
X019029Y019290D01*
X018899Y019290D01*
X018899Y019030D01*
X019029Y019030D01*
X019073Y019073D01*
X019073Y019247D01*
X018778Y019290D02*
X018605Y019290D01*
X018605Y019030D01*
X018605Y019160D02*
X018691Y019160D01*
X018483Y019160D02*
X018440Y019117D01*
X018310Y019117D01*
X018310Y019030D02*
X018310Y019290D01*
X018440Y019290D01*
X018483Y019247D01*
X018483Y019160D01*
X018440Y020730D02*
X018353Y020730D01*
X018310Y020773D01*
X018353Y020860D02*
X018440Y020860D01*
X018483Y020817D01*
X018483Y020773D01*
X018440Y020730D01*
X018353Y020860D02*
X018310Y020903D01*
X018310Y020947D01*
X018353Y020990D01*
X018440Y020990D01*
X018483Y020947D01*
X018605Y020990D02*
X018605Y020730D01*
X018778Y020730D01*
X018899Y020730D02*
X018899Y020990D01*
X019029Y020990D01*
X019073Y020947D01*
X019073Y020860D01*
X019029Y020817D01*
X018899Y020817D01*
X019310Y020730D02*
X019310Y020990D01*
X019397Y020903D01*
X019483Y020990D01*
X019483Y020730D01*
X019605Y020773D02*
X019648Y020730D01*
X019735Y020730D01*
X019778Y020773D01*
X019778Y020817D01*
X019735Y020860D01*
X019648Y020860D01*
X019605Y020903D01*
X019605Y020947D01*
X019648Y020990D01*
X019735Y020990D01*
X019778Y020947D01*
X019899Y020903D02*
X019986Y020990D01*
X019986Y020730D01*
X019899Y020730D02*
X020073Y020730D01*
X016283Y019247D02*
X016283Y019203D01*
X016240Y019160D01*
X016110Y019160D01*
X016110Y019030D02*
X016240Y019030D01*
X016283Y019073D01*
X016283Y019117D01*
X016240Y019160D01*
X016283Y019247D02*
X016240Y019290D01*
X016110Y019290D01*
X016110Y019030D01*
X014936Y020730D02*
X015023Y020817D01*
X015023Y020990D01*
X014849Y020990D02*
X014849Y020817D01*
X014936Y020730D01*
X014728Y020773D02*
X014728Y020860D01*
X014685Y020903D01*
X014641Y020903D01*
X014555Y020860D01*
X014555Y020990D01*
X014728Y020990D01*
X014728Y020773D02*
X014685Y020730D01*
X014598Y020730D01*
X014555Y020773D01*
X014433Y020860D02*
X014260Y020860D01*
X014347Y020947D02*
X014347Y020773D01*
X014073Y020773D02*
X014073Y020947D01*
X014029Y020990D01*
X013899Y020990D01*
X013899Y020730D01*
X014029Y020730D01*
X014073Y020773D01*
X013778Y020730D02*
X013778Y020990D01*
X013605Y020990D02*
X013778Y020730D01*
X013605Y020730D02*
X013605Y020990D01*
X013483Y020947D02*
X013440Y020990D01*
X013353Y020990D01*
X013310Y020947D01*
X013310Y020773D01*
X013353Y020730D01*
X013440Y020730D01*
X013483Y020773D01*
X013483Y020860D01*
X013397Y020860D01*
X014197Y019290D02*
X014110Y019203D01*
X014110Y019030D01*
X014110Y019160D02*
X014283Y019160D01*
X014283Y019203D02*
X014283Y019030D01*
X014283Y019203D02*
X014197Y019290D01*
X014283Y028030D02*
X014283Y028203D01*
X014197Y028290D01*
X014110Y028203D01*
X014110Y028030D01*
X014110Y028160D02*
X014283Y028160D01*
X016110Y028160D02*
X016240Y028160D01*
X016283Y028117D01*
X016283Y028073D01*
X016240Y028030D01*
X016110Y028030D01*
X016110Y028290D01*
X016240Y028290D01*
X016283Y028247D01*
X016283Y028203D01*
X016240Y028160D01*
X018310Y028117D02*
X018440Y028117D01*
X018483Y028160D01*
X018483Y028247D01*
X018440Y028290D01*
X018310Y028290D01*
X018310Y028030D01*
X018605Y028030D02*
X018605Y028290D01*
X018778Y028290D01*
X018899Y028290D02*
X018899Y028030D01*
X019029Y028030D01*
X019073Y028073D01*
X019073Y028247D01*
X019029Y028290D01*
X018899Y028290D01*
X018691Y028160D02*
X018605Y028160D01*
X019310Y028117D02*
X019440Y028117D01*
X019483Y028160D01*
X019483Y028247D01*
X019440Y028290D01*
X019310Y028290D01*
X019310Y028030D01*
X019397Y028117D02*
X019483Y028030D01*
X019605Y028073D02*
X019648Y028030D01*
X019735Y028030D01*
X019778Y028073D01*
X019778Y028117D01*
X019735Y028160D01*
X019648Y028160D01*
X019605Y028203D01*
X019605Y028247D01*
X019648Y028290D01*
X019735Y028290D01*
X019778Y028247D01*
X019899Y028290D02*
X020073Y028290D01*
X019986Y028290D02*
X019986Y028030D01*
X022410Y028030D02*
X022583Y028030D01*
X022705Y028030D02*
X022705Y028290D01*
X022878Y028030D01*
X022878Y028290D01*
X022999Y028203D02*
X022999Y028030D01*
X022999Y028160D02*
X023173Y028160D01*
X023173Y028203D02*
X023173Y028030D01*
X023294Y028030D02*
X023294Y028290D01*
X023424Y028290D01*
X023467Y028247D01*
X023467Y028203D01*
X023424Y028160D01*
X023294Y028160D01*
X023173Y028203D02*
X023086Y028290D01*
X022999Y028203D01*
X023294Y028030D02*
X023424Y028030D01*
X023467Y028073D01*
X023467Y028117D01*
X023424Y028160D01*
X023589Y028030D02*
X023762Y028030D01*
X023883Y028030D02*
X023883Y028290D01*
X024057Y028290D01*
X023970Y028160D02*
X023883Y028160D01*
X023883Y028030D02*
X024057Y028030D01*
X024310Y028030D02*
X024310Y028290D01*
X024397Y028203D01*
X024483Y028290D01*
X024483Y028030D01*
X024605Y028073D02*
X024648Y028030D01*
X024735Y028030D01*
X024778Y028073D01*
X024778Y028117D01*
X024735Y028160D01*
X024648Y028160D01*
X024605Y028203D01*
X024605Y028247D01*
X024648Y028290D01*
X024735Y028290D01*
X024778Y028247D01*
X024899Y028247D02*
X024943Y028290D01*
X025029Y028290D01*
X025073Y028247D01*
X025073Y028203D01*
X024899Y028030D01*
X025073Y028030D01*
X023589Y028030D02*
X023589Y028290D01*
X022583Y028290D02*
X022410Y028290D01*
X022410Y028030D01*
X022410Y028160D02*
X022497Y028160D01*
X027310Y028073D02*
X027353Y028030D01*
X027440Y028030D01*
X027483Y028073D01*
X027483Y028160D01*
X027397Y028160D01*
X027483Y028247D02*
X027440Y028290D01*
X027353Y028290D01*
X027310Y028247D01*
X027310Y028073D01*
X027605Y028030D02*
X027605Y028290D01*
X027778Y028030D01*
X027778Y028290D01*
X027899Y028290D02*
X028029Y028290D01*
X028073Y028247D01*
X028073Y028073D01*
X028029Y028030D01*
X027899Y028030D01*
X027899Y028290D01*
X028510Y028290D02*
X028510Y028030D01*
X028683Y028030D02*
X028683Y028290D01*
X028597Y028203D01*
X028510Y028290D01*
X028805Y028160D02*
X028978Y028160D01*
X028891Y028247D02*
X028891Y028073D01*
X028959Y026640D02*
X028959Y026380D01*
X028785Y026640D01*
X028785Y026380D01*
X028675Y026380D02*
X028589Y026380D01*
X028632Y026380D02*
X028632Y026640D01*
X028589Y026640D02*
X028675Y026640D01*
X028173Y026597D02*
X028173Y026510D01*
X028129Y026467D01*
X027999Y026467D01*
X027999Y026380D02*
X027999Y026640D01*
X028129Y026640D01*
X028173Y026597D01*
X028086Y026467D02*
X028173Y026380D01*
X027878Y026380D02*
X027878Y026640D01*
X027705Y026640D02*
X027705Y026380D01*
X027791Y026467D01*
X027878Y026380D01*
X027583Y026510D02*
X027583Y026597D01*
X027540Y026640D01*
X027410Y026640D01*
X027410Y026380D01*
X027410Y026467D02*
X027540Y026467D01*
X027583Y026510D01*
X025073Y019247D02*
X025073Y019203D01*
X024899Y019030D01*
X025073Y019030D01*
D15*
X016008Y017560D02*
X016008Y017450D01*
X015953Y017395D01*
X015788Y017395D01*
X015788Y017285D02*
X015788Y017615D01*
X015953Y017615D01*
X016008Y017560D01*
X015898Y017395D02*
X016008Y017285D01*
X015640Y017340D02*
X015640Y017560D01*
X015585Y017615D01*
X015475Y017615D01*
X015420Y017560D01*
X015420Y017340D01*
X015475Y017285D01*
X015585Y017285D01*
X015640Y017340D01*
X015272Y017615D02*
X015052Y017615D01*
X015162Y017615D02*
X015162Y017285D01*
X014904Y017340D02*
X014904Y017560D01*
X014848Y017615D01*
X014738Y017615D01*
X014683Y017560D01*
X014683Y017340D01*
X014738Y017285D01*
X014848Y017285D01*
X014904Y017340D01*
X014535Y017285D02*
X014535Y017615D01*
X014425Y017505D01*
X014315Y017615D01*
X014315Y017285D01*
X014315Y008615D02*
X014425Y008505D01*
X014535Y008615D01*
X014535Y008285D01*
X014683Y008340D02*
X014738Y008285D01*
X014848Y008285D01*
X014904Y008340D01*
X014904Y008560D01*
X014848Y008615D01*
X014738Y008615D01*
X014683Y008560D01*
X014683Y008340D01*
X014315Y008285D02*
X014315Y008615D01*
X015052Y008615D02*
X015272Y008615D01*
X015162Y008615D02*
X015162Y008285D01*
X015420Y008340D02*
X015420Y008560D01*
X015475Y008615D01*
X015585Y008615D01*
X015640Y008560D01*
X015640Y008340D01*
X015585Y008285D01*
X015475Y008285D01*
X015420Y008340D01*
X015788Y008285D02*
X015788Y008615D01*
X015953Y008615D01*
X016008Y008560D01*
X016008Y008450D01*
X015953Y008395D01*
X015788Y008395D01*
X015898Y008395D02*
X016008Y008285D01*
X016008Y026285D02*
X015898Y026395D01*
X015953Y026395D02*
X015788Y026395D01*
X015788Y026285D02*
X015788Y026615D01*
X015953Y026615D01*
X016008Y026560D01*
X016008Y026450D01*
X015953Y026395D01*
X015640Y026340D02*
X015640Y026560D01*
X015585Y026615D01*
X015475Y026615D01*
X015420Y026560D01*
X015420Y026340D01*
X015475Y026285D01*
X015585Y026285D01*
X015640Y026340D01*
X015272Y026615D02*
X015052Y026615D01*
X015162Y026615D02*
X015162Y026285D01*
X014904Y026340D02*
X014904Y026560D01*
X014848Y026615D01*
X014738Y026615D01*
X014683Y026560D01*
X014683Y026340D01*
X014738Y026285D01*
X014848Y026285D01*
X014904Y026340D01*
X014535Y026285D02*
X014535Y026615D01*
X014425Y026505D01*
X014315Y026615D01*
X014315Y026285D01*
D16*
X016030Y024500D02*
X016032Y024550D01*
X016038Y024600D01*
X016048Y024650D01*
X016061Y024698D01*
X016078Y024746D01*
X016099Y024792D01*
X016123Y024836D01*
X016151Y024878D01*
X016182Y024918D01*
X016216Y024955D01*
X016253Y024990D01*
X016292Y025021D01*
X016333Y025050D01*
X016377Y025075D01*
X016423Y025097D01*
X016470Y025115D01*
X016518Y025129D01*
X016567Y025140D01*
X016617Y025147D01*
X016667Y025150D01*
X016718Y025149D01*
X016768Y025144D01*
X016818Y025135D01*
X016866Y025123D01*
X016914Y025106D01*
X016960Y025086D01*
X017005Y025063D01*
X017048Y025036D01*
X017088Y025006D01*
X017126Y024973D01*
X017161Y024937D01*
X017194Y024898D01*
X017223Y024857D01*
X017249Y024814D01*
X017272Y024769D01*
X017291Y024722D01*
X017306Y024674D01*
X017318Y024625D01*
X017326Y024575D01*
X017330Y024525D01*
X017330Y024475D01*
X017326Y024425D01*
X017318Y024375D01*
X017306Y024326D01*
X017291Y024278D01*
X017272Y024231D01*
X017249Y024186D01*
X017223Y024143D01*
X017194Y024102D01*
X017161Y024063D01*
X017126Y024027D01*
X017088Y023994D01*
X017048Y023964D01*
X017005Y023937D01*
X016960Y023914D01*
X016914Y023894D01*
X016866Y023877D01*
X016818Y023865D01*
X016768Y023856D01*
X016718Y023851D01*
X016667Y023850D01*
X016617Y023853D01*
X016567Y023860D01*
X016518Y023871D01*
X016470Y023885D01*
X016423Y023903D01*
X016377Y023925D01*
X016333Y023950D01*
X016292Y023979D01*
X016253Y024010D01*
X016216Y024045D01*
X016182Y024082D01*
X016151Y024122D01*
X016123Y024164D01*
X016099Y024208D01*
X016078Y024254D01*
X016061Y024302D01*
X016048Y024350D01*
X016038Y024400D01*
X016032Y024450D01*
X016030Y024500D01*
X016030Y015500D02*
X016032Y015550D01*
X016038Y015600D01*
X016048Y015650D01*
X016061Y015698D01*
X016078Y015746D01*
X016099Y015792D01*
X016123Y015836D01*
X016151Y015878D01*
X016182Y015918D01*
X016216Y015955D01*
X016253Y015990D01*
X016292Y016021D01*
X016333Y016050D01*
X016377Y016075D01*
X016423Y016097D01*
X016470Y016115D01*
X016518Y016129D01*
X016567Y016140D01*
X016617Y016147D01*
X016667Y016150D01*
X016718Y016149D01*
X016768Y016144D01*
X016818Y016135D01*
X016866Y016123D01*
X016914Y016106D01*
X016960Y016086D01*
X017005Y016063D01*
X017048Y016036D01*
X017088Y016006D01*
X017126Y015973D01*
X017161Y015937D01*
X017194Y015898D01*
X017223Y015857D01*
X017249Y015814D01*
X017272Y015769D01*
X017291Y015722D01*
X017306Y015674D01*
X017318Y015625D01*
X017326Y015575D01*
X017330Y015525D01*
X017330Y015475D01*
X017326Y015425D01*
X017318Y015375D01*
X017306Y015326D01*
X017291Y015278D01*
X017272Y015231D01*
X017249Y015186D01*
X017223Y015143D01*
X017194Y015102D01*
X017161Y015063D01*
X017126Y015027D01*
X017088Y014994D01*
X017048Y014964D01*
X017005Y014937D01*
X016960Y014914D01*
X016914Y014894D01*
X016866Y014877D01*
X016818Y014865D01*
X016768Y014856D01*
X016718Y014851D01*
X016667Y014850D01*
X016617Y014853D01*
X016567Y014860D01*
X016518Y014871D01*
X016470Y014885D01*
X016423Y014903D01*
X016377Y014925D01*
X016333Y014950D01*
X016292Y014979D01*
X016253Y015010D01*
X016216Y015045D01*
X016182Y015082D01*
X016151Y015122D01*
X016123Y015164D01*
X016099Y015208D01*
X016078Y015254D01*
X016061Y015302D01*
X016048Y015350D01*
X016038Y015400D01*
X016032Y015450D01*
X016030Y015500D01*
X016030Y006500D02*
X016032Y006550D01*
X016038Y006600D01*
X016048Y006650D01*
X016061Y006698D01*
X016078Y006746D01*
X016099Y006792D01*
X016123Y006836D01*
X016151Y006878D01*
X016182Y006918D01*
X016216Y006955D01*
X016253Y006990D01*
X016292Y007021D01*
X016333Y007050D01*
X016377Y007075D01*
X016423Y007097D01*
X016470Y007115D01*
X016518Y007129D01*
X016567Y007140D01*
X016617Y007147D01*
X016667Y007150D01*
X016718Y007149D01*
X016768Y007144D01*
X016818Y007135D01*
X016866Y007123D01*
X016914Y007106D01*
X016960Y007086D01*
X017005Y007063D01*
X017048Y007036D01*
X017088Y007006D01*
X017126Y006973D01*
X017161Y006937D01*
X017194Y006898D01*
X017223Y006857D01*
X017249Y006814D01*
X017272Y006769D01*
X017291Y006722D01*
X017306Y006674D01*
X017318Y006625D01*
X017326Y006575D01*
X017330Y006525D01*
X017330Y006475D01*
X017326Y006425D01*
X017318Y006375D01*
X017306Y006326D01*
X017291Y006278D01*
X017272Y006231D01*
X017249Y006186D01*
X017223Y006143D01*
X017194Y006102D01*
X017161Y006063D01*
X017126Y006027D01*
X017088Y005994D01*
X017048Y005964D01*
X017005Y005937D01*
X016960Y005914D01*
X016914Y005894D01*
X016866Y005877D01*
X016818Y005865D01*
X016768Y005856D01*
X016718Y005851D01*
X016667Y005850D01*
X016617Y005853D01*
X016567Y005860D01*
X016518Y005871D01*
X016470Y005885D01*
X016423Y005903D01*
X016377Y005925D01*
X016333Y005950D01*
X016292Y005979D01*
X016253Y006010D01*
X016216Y006045D01*
X016182Y006082D01*
X016151Y006122D01*
X016123Y006164D01*
X016099Y006208D01*
X016078Y006254D01*
X016061Y006302D01*
X016048Y006350D01*
X016038Y006400D01*
X016032Y006450D01*
X016030Y006500D01*
X025530Y008000D02*
X025532Y008050D01*
X025538Y008100D01*
X025548Y008150D01*
X025561Y008198D01*
X025578Y008246D01*
X025599Y008292D01*
X025623Y008336D01*
X025651Y008378D01*
X025682Y008418D01*
X025716Y008455D01*
X025753Y008490D01*
X025792Y008521D01*
X025833Y008550D01*
X025877Y008575D01*
X025923Y008597D01*
X025970Y008615D01*
X026018Y008629D01*
X026067Y008640D01*
X026117Y008647D01*
X026167Y008650D01*
X026218Y008649D01*
X026268Y008644D01*
X026318Y008635D01*
X026366Y008623D01*
X026414Y008606D01*
X026460Y008586D01*
X026505Y008563D01*
X026548Y008536D01*
X026588Y008506D01*
X026626Y008473D01*
X026661Y008437D01*
X026694Y008398D01*
X026723Y008357D01*
X026749Y008314D01*
X026772Y008269D01*
X026791Y008222D01*
X026806Y008174D01*
X026818Y008125D01*
X026826Y008075D01*
X026830Y008025D01*
X026830Y007975D01*
X026826Y007925D01*
X026818Y007875D01*
X026806Y007826D01*
X026791Y007778D01*
X026772Y007731D01*
X026749Y007686D01*
X026723Y007643D01*
X026694Y007602D01*
X026661Y007563D01*
X026626Y007527D01*
X026588Y007494D01*
X026548Y007464D01*
X026505Y007437D01*
X026460Y007414D01*
X026414Y007394D01*
X026366Y007377D01*
X026318Y007365D01*
X026268Y007356D01*
X026218Y007351D01*
X026167Y007350D01*
X026117Y007353D01*
X026067Y007360D01*
X026018Y007371D01*
X025970Y007385D01*
X025923Y007403D01*
X025877Y007425D01*
X025833Y007450D01*
X025792Y007479D01*
X025753Y007510D01*
X025716Y007545D01*
X025682Y007582D01*
X025651Y007622D01*
X025623Y007664D01*
X025599Y007708D01*
X025578Y007754D01*
X025561Y007802D01*
X025548Y007850D01*
X025538Y007900D01*
X025532Y007950D01*
X025530Y008000D01*
X025530Y017000D02*
X025532Y017050D01*
X025538Y017100D01*
X025548Y017150D01*
X025561Y017198D01*
X025578Y017246D01*
X025599Y017292D01*
X025623Y017336D01*
X025651Y017378D01*
X025682Y017418D01*
X025716Y017455D01*
X025753Y017490D01*
X025792Y017521D01*
X025833Y017550D01*
X025877Y017575D01*
X025923Y017597D01*
X025970Y017615D01*
X026018Y017629D01*
X026067Y017640D01*
X026117Y017647D01*
X026167Y017650D01*
X026218Y017649D01*
X026268Y017644D01*
X026318Y017635D01*
X026366Y017623D01*
X026414Y017606D01*
X026460Y017586D01*
X026505Y017563D01*
X026548Y017536D01*
X026588Y017506D01*
X026626Y017473D01*
X026661Y017437D01*
X026694Y017398D01*
X026723Y017357D01*
X026749Y017314D01*
X026772Y017269D01*
X026791Y017222D01*
X026806Y017174D01*
X026818Y017125D01*
X026826Y017075D01*
X026830Y017025D01*
X026830Y016975D01*
X026826Y016925D01*
X026818Y016875D01*
X026806Y016826D01*
X026791Y016778D01*
X026772Y016731D01*
X026749Y016686D01*
X026723Y016643D01*
X026694Y016602D01*
X026661Y016563D01*
X026626Y016527D01*
X026588Y016494D01*
X026548Y016464D01*
X026505Y016437D01*
X026460Y016414D01*
X026414Y016394D01*
X026366Y016377D01*
X026318Y016365D01*
X026268Y016356D01*
X026218Y016351D01*
X026167Y016350D01*
X026117Y016353D01*
X026067Y016360D01*
X026018Y016371D01*
X025970Y016385D01*
X025923Y016403D01*
X025877Y016425D01*
X025833Y016450D01*
X025792Y016479D01*
X025753Y016510D01*
X025716Y016545D01*
X025682Y016582D01*
X025651Y016622D01*
X025623Y016664D01*
X025599Y016708D01*
X025578Y016754D01*
X025561Y016802D01*
X025548Y016850D01*
X025538Y016900D01*
X025532Y016950D01*
X025530Y017000D01*
X025530Y026000D02*
X025532Y026050D01*
X025538Y026100D01*
X025548Y026150D01*
X025561Y026198D01*
X025578Y026246D01*
X025599Y026292D01*
X025623Y026336D01*
X025651Y026378D01*
X025682Y026418D01*
X025716Y026455D01*
X025753Y026490D01*
X025792Y026521D01*
X025833Y026550D01*
X025877Y026575D01*
X025923Y026597D01*
X025970Y026615D01*
X026018Y026629D01*
X026067Y026640D01*
X026117Y026647D01*
X026167Y026650D01*
X026218Y026649D01*
X026268Y026644D01*
X026318Y026635D01*
X026366Y026623D01*
X026414Y026606D01*
X026460Y026586D01*
X026505Y026563D01*
X026548Y026536D01*
X026588Y026506D01*
X026626Y026473D01*
X026661Y026437D01*
X026694Y026398D01*
X026723Y026357D01*
X026749Y026314D01*
X026772Y026269D01*
X026791Y026222D01*
X026806Y026174D01*
X026818Y026125D01*
X026826Y026075D01*
X026830Y026025D01*
X026830Y025975D01*
X026826Y025925D01*
X026818Y025875D01*
X026806Y025826D01*
X026791Y025778D01*
X026772Y025731D01*
X026749Y025686D01*
X026723Y025643D01*
X026694Y025602D01*
X026661Y025563D01*
X026626Y025527D01*
X026588Y025494D01*
X026548Y025464D01*
X026505Y025437D01*
X026460Y025414D01*
X026414Y025394D01*
X026366Y025377D01*
X026318Y025365D01*
X026268Y025356D01*
X026218Y025351D01*
X026167Y025350D01*
X026117Y025353D01*
X026067Y025360D01*
X026018Y025371D01*
X025970Y025385D01*
X025923Y025403D01*
X025877Y025425D01*
X025833Y025450D01*
X025792Y025479D01*
X025753Y025510D01*
X025716Y025545D01*
X025682Y025582D01*
X025651Y025622D01*
X025623Y025664D01*
X025599Y025708D01*
X025578Y025754D01*
X025561Y025802D01*
X025548Y025850D01*
X025538Y025900D01*
X025532Y025950D01*
X025530Y026000D01*
D17*
X002835Y019458D02*
X002835Y019358D01*
X002835Y019408D02*
X002685Y019408D01*
X002735Y019358D01*
X002685Y019310D02*
X002685Y019260D01*
X002685Y019285D02*
X002810Y019285D01*
X002835Y019260D01*
X002835Y019235D01*
X002810Y019210D01*
D18*
X005060Y008977D02*
X005028Y008659D01*
X004921Y008625D01*
X004821Y008574D01*
X004574Y008776D01*
X004404Y008606D01*
X004606Y008359D01*
X004555Y008259D01*
X004521Y008152D01*
X004203Y008120D01*
X004203Y007880D01*
X004521Y007848D01*
X004555Y007741D01*
X004606Y007641D01*
X004404Y007394D01*
X004574Y007224D01*
X004821Y007426D01*
X004921Y007375D01*
X005028Y007341D01*
X005060Y007023D01*
X005300Y007023D01*
X005332Y007341D01*
X005439Y007375D01*
X005539Y007426D01*
X005786Y007224D01*
X005956Y007394D01*
X005754Y007641D01*
X005805Y007741D01*
X005464Y007882D01*
X005436Y007829D01*
X005398Y007782D01*
X005351Y007744D01*
X005298Y007716D01*
X005240Y007698D01*
X005180Y007692D01*
X005117Y007699D01*
X005057Y007718D01*
X005002Y007749D01*
X004955Y007791D01*
X004917Y007841D01*
X004890Y007898D01*
X004875Y007960D01*
X004873Y008023D01*
X004884Y008085D01*
X004908Y008144D01*
X004943Y008196D01*
X004988Y008240D01*
X005041Y008275D01*
X005100Y008297D01*
X005163Y008307D01*
X005226Y008304D01*
X005287Y008288D01*
X005344Y008260D01*
X005393Y008222D01*
X005434Y008173D01*
X005464Y008118D01*
X005805Y008259D01*
X005754Y008359D01*
X005956Y008606D01*
X005786Y008776D01*
X005539Y008574D01*
X005439Y008625D01*
X005332Y008659D01*
X005300Y008977D01*
X005060Y008977D01*
X005055Y008932D02*
X005305Y008932D01*
X005310Y008874D02*
X005050Y008874D01*
X005044Y008817D02*
X005316Y008817D01*
X005322Y008759D02*
X005038Y008759D01*
X005032Y008702D02*
X005328Y008702D01*
X005380Y008644D02*
X004980Y008644D01*
X004846Y008587D02*
X005514Y008587D01*
X005554Y008587D02*
X005940Y008587D01*
X005917Y008644D02*
X005625Y008644D01*
X005695Y008702D02*
X005860Y008702D01*
X005802Y008759D02*
X005766Y008759D01*
X005893Y008529D02*
X004467Y008529D01*
X004420Y008587D02*
X004806Y008587D01*
X004735Y008644D02*
X004443Y008644D01*
X004500Y008702D02*
X004665Y008702D01*
X004594Y008759D02*
X004558Y008759D01*
X004514Y008472D02*
X005846Y008472D01*
X005799Y008414D02*
X004561Y008414D01*
X004605Y008356D02*
X005755Y008356D01*
X005785Y008299D02*
X005246Y008299D01*
X005111Y008299D02*
X004575Y008299D01*
X004549Y008241D02*
X004989Y008241D01*
X004935Y008184D02*
X004531Y008184D01*
X004264Y008126D02*
X004901Y008126D01*
X004881Y008069D02*
X004203Y008069D01*
X004203Y008011D02*
X004874Y008011D01*
X004877Y007954D02*
X004203Y007954D01*
X004203Y007896D02*
X004891Y007896D01*
X004919Y007838D02*
X004524Y007838D01*
X004542Y007781D02*
X004966Y007781D01*
X005048Y007723D02*
X004564Y007723D01*
X004594Y007666D02*
X005766Y007666D01*
X005781Y007608D02*
X004579Y007608D01*
X004532Y007551D02*
X005828Y007551D01*
X005875Y007493D02*
X004485Y007493D01*
X004438Y007436D02*
X005922Y007436D01*
X005940Y007378D02*
X005598Y007378D01*
X005668Y007320D02*
X005882Y007320D01*
X005824Y007263D02*
X005739Y007263D01*
X005445Y007378D02*
X004915Y007378D01*
X005030Y007320D02*
X005330Y007320D01*
X005324Y007263D02*
X005036Y007263D01*
X005042Y007205D02*
X005318Y007205D01*
X005313Y007148D02*
X005047Y007148D01*
X005053Y007090D02*
X005307Y007090D01*
X005301Y007033D02*
X005059Y007033D01*
X004762Y007378D02*
X004420Y007378D01*
X004478Y007320D02*
X004692Y007320D01*
X004621Y007263D02*
X004536Y007263D01*
X005312Y007723D02*
X005796Y007723D01*
X005709Y007781D02*
X005396Y007781D01*
X005441Y007838D02*
X005570Y007838D01*
X005485Y008126D02*
X005460Y008126D01*
X005425Y008184D02*
X005624Y008184D01*
X005763Y008241D02*
X005368Y008241D01*
M02*
