G75*
G70*
%OFA0B0*%
%FSLAX24Y24*%
%IPPOS*%
%LPD*%
%AMOC8*
5,1,8,0,0,1.08239X$1,22.5*
%
%ADD10C,0.0740*%
%ADD11C,0.1660*%
%ADD12C,0.1620*%
%ADD13C,0.0640*%
%ADD14C,0.0080*%
D10*
X002680Y002500D03*
X002680Y003500D03*
X002680Y004500D03*
X002680Y005500D03*
X002680Y006500D03*
X002680Y007500D03*
X002680Y008500D03*
X002680Y009500D03*
X002680Y010500D03*
X002680Y011500D03*
X002680Y012500D03*
X002680Y013500D03*
X008680Y013500D03*
X008680Y012500D03*
X008680Y011500D03*
X008680Y010500D03*
X008680Y009500D03*
X008680Y008500D03*
X008680Y007500D03*
X008680Y006500D03*
X008680Y005500D03*
X008680Y004500D03*
X008680Y003500D03*
X008680Y002500D03*
X013680Y003500D03*
X014680Y003500D03*
X018680Y003500D03*
X019680Y003500D03*
X019680Y009500D03*
X018680Y009500D03*
X016680Y009500D03*
X015680Y009500D03*
X014680Y009500D03*
X013680Y009500D03*
X013680Y012500D03*
X014680Y012500D03*
X018680Y012500D03*
X019680Y012500D03*
X023680Y009500D03*
X024680Y009500D03*
X026680Y012500D03*
X027680Y012500D03*
X028680Y012500D03*
X028680Y009500D03*
X027680Y009500D03*
X027680Y003500D03*
X026680Y003500D03*
X028680Y003500D03*
X028680Y018500D03*
X027680Y018500D03*
X027680Y021500D03*
X026680Y021500D03*
X028680Y021500D03*
X024680Y018500D03*
X023680Y018500D03*
X019680Y018500D03*
X018680Y018500D03*
X016680Y018500D03*
X015680Y018500D03*
X014680Y018500D03*
X013680Y018500D03*
X013680Y021500D03*
X014680Y021500D03*
X018680Y021500D03*
X019680Y021500D03*
X019680Y027500D03*
X018680Y027500D03*
X016680Y027500D03*
X015680Y027500D03*
X014680Y027500D03*
X013680Y027500D03*
X023680Y027500D03*
X024680Y027500D03*
X027680Y027500D03*
X028680Y027500D03*
D11*
X005680Y024536D03*
D12*
X004199Y025787D03*
X005670Y027419D03*
D13*
X020180Y024820D02*
X020180Y024180D01*
X021180Y024080D02*
X021180Y024720D01*
X022180Y024820D02*
X022180Y024180D01*
X023180Y024080D02*
X023180Y024720D01*
X022180Y015820D02*
X022180Y015180D01*
X021180Y015080D02*
X021180Y015720D01*
X020180Y015820D02*
X020180Y015180D01*
X023180Y015080D02*
X023180Y015720D01*
X022180Y006820D02*
X022180Y006180D01*
X021180Y006080D02*
X021180Y006720D01*
X020180Y006820D02*
X020180Y006180D01*
X023180Y006080D02*
X023180Y006720D01*
D14*
X026680Y003500D02*
X027180Y004000D01*
X027180Y012000D01*
X026680Y012500D01*
X027180Y013000D01*
X027180Y021000D01*
X026680Y021500D01*
X027680Y021500D02*
X027680Y022000D01*
X008180Y022000D01*
X008180Y016500D01*
X007180Y015500D01*
X007180Y006500D01*
X008680Y006500D01*
X012680Y007500D02*
X012680Y003500D01*
X013180Y003000D01*
X028680Y003000D01*
X028680Y003500D01*
X028680Y009500D02*
X029180Y010000D01*
X029180Y018000D01*
X029180Y027000D01*
X028680Y027500D01*
X028180Y027000D02*
X028180Y018000D01*
X027680Y018500D01*
X028180Y018000D02*
X028180Y010000D01*
X027680Y009500D01*
X022180Y015500D02*
X019680Y018000D01*
X015680Y018000D01*
X015680Y018500D01*
X014680Y018500D02*
X014680Y017500D01*
X019180Y017500D01*
X021180Y015500D01*
X021180Y015400D01*
X015180Y012000D02*
X015180Y004000D01*
X014680Y003500D01*
X014180Y004000D02*
X013680Y003500D01*
X014180Y004000D02*
X014180Y012000D01*
X013680Y012500D01*
X013180Y013000D01*
X013180Y021000D01*
X013680Y021500D01*
X014180Y021000D02*
X014680Y021500D01*
X014180Y021000D02*
X014180Y013000D01*
X014680Y012500D01*
X015180Y012000D01*
X012680Y007500D02*
X008680Y011500D01*
X021180Y024400D02*
X021180Y024500D01*
X019180Y026500D01*
X014680Y026500D01*
X014680Y027500D01*
X015680Y027500D02*
X015680Y027000D01*
X019680Y027000D01*
X022180Y024500D01*
X027680Y027500D02*
X028180Y027000D01*
X028680Y018500D02*
X029180Y018000D01*
X005670Y027419D02*
X005180Y027000D01*
X005180Y026500D01*
X004680Y026000D01*
X004199Y025787D01*
M02*
