%
M48
M72
T01C0.0400
T02C0.1180
T03C0.1260
T04C0.1300
%
T01
X2680Y2500
X2680Y3500
X2680Y4500
X2680Y5500
X2680Y6500
X2680Y7500
X2680Y8500
X2680Y9500
X2680Y10500
X2680Y11500
X2680Y12500
X2680Y13500
X8680Y13500
X8680Y12500
X8680Y11500
X8680Y10500
X8680Y9500
X8680Y8500
X8680Y7500
X8680Y6500
X8680Y5500
X8680Y4500
X8680Y3500
X8680Y2500
X13680Y3500
X14680Y3500
X18680Y3500
X19680Y3500
X21180Y6400
X20180Y6500
X22180Y6500
X23180Y6400
X23680Y9500
X24680Y9500
X26680Y12500
X27680Y12500
X28680Y12500
X28680Y9500
X27680Y9500
X23180Y15400
X22180Y15500
X21180Y15400
X20180Y15500
X19680Y12500
X18680Y12500
X18680Y9500
X19680Y9500
X16680Y9500
X15680Y9500
X14680Y9500
X13680Y9500
X13680Y12500
X14680Y12500
X14680Y18500
X13680Y18500
X15680Y18500
X16680Y18500
X18680Y18500
X19680Y18500
X19680Y21500
X18680Y21500
X20180Y24500
X21180Y24400
X22180Y24500
X23180Y24400
X23680Y27500
X24680Y27500
X27680Y27500
X28680Y27500
X28680Y21500
X27680Y21500
X26680Y21500
X27680Y18500
X28680Y18500
X24680Y18500
X23680Y18500
X14680Y21500
X13680Y21500
X13680Y27500
X14680Y27500
X15680Y27500
X16680Y27500
X18680Y27500
X19680Y27500
X26680Y3500
X27680Y3500
X28680Y3500
T02
X4199Y25787
X5670Y27419
T03
X5680Y24536
T04
X16680Y24500
X16680Y15500
X16680Y6500
X26180Y8000
X26180Y17000
X26180Y26000
M30
