G75*
G70*
%OFA0B0*%
%FSLAX24Y24*%
%IPPOS*%
%LPD*%
%AMOC8*
5,1,8,0,0,1.08239X$1,22.5*
%
%ADD10C,0.0560*%
%ADD11C,0.0650*%
%ADD12C,0.1660*%
%ADD13C,0.1620*%
%ADD14C,0.0740*%
%ADD15C,0.0100*%
%ADD16C,0.0320*%
D10*
X004406Y009181D02*
X004966Y009181D01*
X004966Y010181D02*
X004406Y010181D01*
X004406Y011181D02*
X004966Y011181D01*
X004966Y012181D02*
X004406Y012181D01*
X004406Y013181D02*
X004966Y013181D01*
X004966Y014181D02*
X004406Y014181D01*
X004406Y015181D02*
X004966Y015181D01*
X004966Y016181D02*
X004406Y016181D01*
X004406Y017181D02*
X004966Y017181D01*
X004966Y018181D02*
X004406Y018181D01*
X004406Y019181D02*
X004966Y019181D01*
X004966Y020181D02*
X004406Y020181D01*
X004406Y021181D02*
X004966Y021181D01*
X004966Y022181D02*
X004406Y022181D01*
X007406Y022181D02*
X007966Y022181D01*
X007966Y021181D02*
X007406Y021181D01*
X007406Y020181D02*
X007966Y020181D01*
X007966Y019181D02*
X007406Y019181D01*
X007406Y018181D02*
X007966Y018181D01*
X007966Y017181D02*
X007406Y017181D01*
X007406Y016181D02*
X007966Y016181D01*
X007966Y015181D02*
X007406Y015181D01*
X007406Y014181D02*
X007966Y014181D01*
X007966Y013181D02*
X007406Y013181D01*
X007406Y012181D02*
X007966Y012181D01*
X007966Y011181D02*
X007406Y011181D01*
X007406Y010181D02*
X007966Y010181D01*
X007966Y009181D02*
X007406Y009181D01*
D11*
X012186Y015181D03*
X013686Y015181D03*
X014686Y015181D03*
X014686Y017181D03*
X013686Y017181D03*
X012186Y017181D03*
D12*
X032686Y027218D03*
D13*
X031205Y028469D03*
X032676Y030100D03*
D14*
X028686Y029181D03*
X027686Y029181D03*
X024686Y029181D03*
X023686Y029181D03*
X019686Y029181D03*
X018686Y029181D03*
X016686Y029181D03*
X015686Y029181D03*
X014686Y029181D03*
X013686Y029181D03*
X007466Y025571D03*
X007466Y023791D03*
X004906Y023791D03*
X003186Y022181D03*
X003186Y021181D03*
X003186Y017181D03*
X003186Y014181D03*
X002186Y014181D03*
X008186Y007181D03*
X008186Y006181D03*
X008186Y005181D03*
X008186Y004181D03*
X008186Y003181D03*
X008186Y002181D03*
X013686Y004181D03*
X014686Y004181D03*
X018686Y004181D03*
X019686Y004181D03*
X019686Y010181D03*
X018686Y010181D03*
X016686Y010181D03*
X015686Y010181D03*
X014686Y010181D03*
X013686Y010181D03*
X013686Y013681D03*
X014686Y013681D03*
X018686Y013681D03*
X019686Y013681D03*
X023686Y010181D03*
X024686Y010181D03*
X027686Y010181D03*
X028686Y010181D03*
X028686Y013681D03*
X027686Y013681D03*
X026686Y013681D03*
X027686Y019681D03*
X028686Y019681D03*
X028686Y023181D03*
X027686Y023181D03*
X026686Y023181D03*
X024686Y019681D03*
X023686Y019681D03*
X019686Y019681D03*
X018686Y019681D03*
X016686Y019681D03*
X015686Y019681D03*
X014686Y019681D03*
X013686Y019681D03*
X013686Y023181D03*
X014686Y023181D03*
X018686Y023181D03*
X019686Y023181D03*
X004906Y025571D03*
X003186Y026181D03*
X026686Y004181D03*
X027686Y004181D03*
X028686Y004181D03*
D15*
X008186Y006181D02*
X006686Y006181D01*
X006686Y009181D01*
X007686Y010181D01*
X007686Y012181D02*
X015186Y004681D01*
X027186Y004681D01*
X027686Y004181D01*
X027186Y013181D02*
X027686Y013681D01*
X027186Y013181D02*
X007686Y013181D01*
X007186Y013681D02*
X001686Y013681D01*
X001686Y021681D01*
X026186Y021681D01*
X027686Y023181D01*
X026686Y023181D02*
X026186Y022681D01*
X014186Y022681D01*
X013686Y023181D01*
X014686Y023181D02*
X012186Y025681D01*
X007686Y025681D01*
X007466Y025571D01*
X007686Y021181D02*
X026686Y021181D01*
X028686Y023181D01*
X032686Y027181D02*
X032686Y027218D01*
X024186Y018181D02*
X028686Y013681D01*
X024186Y018181D02*
X009686Y018181D01*
X007686Y020181D01*
X007686Y018181D02*
X008686Y017181D01*
X012186Y017181D01*
X013686Y017181D01*
X013686Y015181D02*
X012186Y015181D01*
X009686Y015181D01*
X007686Y017181D01*
X007686Y016181D02*
X005686Y016181D01*
X004686Y015181D01*
X003686Y014681D02*
X003686Y016181D01*
X004686Y017181D01*
X003686Y014681D02*
X002686Y014681D01*
X002186Y014181D01*
X003686Y014681D02*
X007186Y014681D01*
X014186Y014681D01*
X014686Y015181D01*
X007686Y015181D02*
X007186Y014681D01*
X007686Y014181D02*
X007186Y013681D01*
X008686Y004681D02*
X014186Y004681D01*
X014686Y004181D01*
X013686Y004181D02*
X010186Y004181D01*
X008186Y002181D01*
X008186Y004181D02*
X008686Y004681D01*
D16*
X028686Y010181D02*
X029686Y010181D01*
X029686Y018181D01*
X028686Y019681D01*
X032686Y023681D01*
X032686Y027181D01*
X032650Y027181D02*
X032686Y027218D01*
X032650Y027181D02*
X030686Y027181D01*
X028686Y029181D01*
X027686Y029181D02*
X027686Y030681D01*
X028993Y030681D01*
X031205Y028469D01*
X032676Y029940D01*
X032676Y030100D01*
M02*
