%
M48
M72
T01C0.0276
T02C0.0320
T03C0.0354
T04C0.0400
T05C0.1180
T06C0.1260
T07C0.1300
%
T01
X12186Y15181
X13686Y15181
X14686Y15181
X14686Y17181
X13686Y17181
X12186Y17181
T02
X7686Y17181
X7686Y16181
X7686Y15181
X7686Y14181
X7686Y13181
X7686Y12181
X7686Y11181
X7686Y10181
X7686Y9181
X4686Y9181
X4686Y10181
X4686Y11181
X4686Y12181
X4686Y13181
X4686Y14181
X4686Y15181
X4686Y16181
X4686Y17181
X4686Y18181
X4686Y19181
X4686Y20181
X4686Y21181
X4686Y22181
X7686Y22181
X7686Y21181
X7686Y20181
X7686Y19181
X7686Y18181
X3186Y14181
X2186Y14181
T03
X3186Y17181
X3186Y21181
X3186Y22181
X3186Y26181
T04
X4906Y25571
X4906Y23791
X7466Y23791
X7466Y25571
X13686Y23181
X14686Y23181
X14686Y19681
X13686Y19681
X15686Y19681
X16686Y19681
X18686Y19681
X19686Y19681
X19686Y23181
X18686Y23181
X23686Y19681
X24686Y19681
X27686Y19681
X28686Y19681
X28686Y23181
X27686Y23181
X26686Y23181
X27686Y29181
X28686Y29181
X24686Y29181
X23686Y29181
X19686Y29181
X18686Y29181
X16686Y29181
X15686Y29181
X14686Y29181
X13686Y29181
X13686Y13681
X14686Y13681
X14686Y10181
X13686Y10181
X15686Y10181
X16686Y10181
X18686Y10181
X19686Y10181
X19686Y13681
X18686Y13681
X23686Y10181
X24686Y10181
X27686Y10181
X28686Y10181
X28686Y13681
X27686Y13681
X26686Y13681
X26686Y4181
X27686Y4181
X28686Y4181
X19686Y4181
X18686Y4181
X14686Y4181
X13686Y4181
X8186Y4181
X8186Y3181
X8186Y2181
X8186Y5181
X8186Y6181
X8186Y7181
T05
X31205Y28469
X32676Y30100
T06
X3686Y4681
X3686Y28681
X32686Y27218
T07
X26186Y27681
X16686Y26181
X26186Y18181
X16686Y16681
X26186Y8681
X16686Y7181
M30
