%
M48
M72
T01C0.0276
T02C0.0320
T03C0.0354
T04C0.0400
T05C0.1180
T06C0.1260
T07C0.1300
%
T01
X12180Y15180
X13680Y15180
X14680Y15180
X14680Y17180
X13680Y17180
X12180Y17180
T02
X7680Y17180
X7680Y16180
X7680Y15180
X7680Y14180
X7680Y13180
X7680Y12180
X7680Y11180
X7680Y10180
X7680Y9180
X4680Y9180
X4680Y10180
X4680Y11180
X4680Y12180
X4680Y13180
X4680Y14180
X4680Y15180
X4680Y16180
X4680Y17180
X4680Y18180
X4680Y19180
X4680Y20180
X4680Y21180
X4680Y22180
X7680Y22180
X7680Y21180
X7680Y20180
X7680Y19180
X7680Y18180
X3180Y14180
X2180Y14180
T03
X3180Y17180
X3180Y21180
X3180Y22180
X3180Y26180
T04
X4900Y25570
X4900Y23790
X7460Y23790
X7460Y25570
X13680Y23180
X14680Y23180
X14680Y19680
X13680Y19680
X15680Y19680
X16680Y19680
X18680Y19680
X19680Y19680
X20221Y16657
X21221Y16557
X22221Y16657
X23221Y16557
X23680Y19680
X24680Y19680
X27680Y19680
X28680Y19680
X28680Y23180
X27680Y23180
X26680Y23180
X23216Y26209
X22216Y26309
X21216Y26209
X20216Y26309
X19680Y29180
X18680Y29180
X16680Y29180
X15680Y29180
X14680Y29180
X13680Y29180
X18680Y23180
X19680Y23180
X23680Y29180
X24680Y29180
X27680Y29180
X28680Y29180
X28680Y13680
X27680Y13680
X26680Y13680
X27680Y10180
X28680Y10180
X24680Y10180
X23680Y10180
X23196Y7112
X22196Y7212
X21196Y7112
X20196Y7212
X19680Y10180
X18680Y10180
X16680Y10180
X15680Y10180
X14680Y10180
X13680Y10180
X13680Y13680
X14680Y13680
X18680Y13680
X19680Y13680
X19680Y4180
X18680Y4180
X14680Y4180
X13680Y4180
X8180Y4180
X8180Y3180
X8180Y2180
X8180Y5180
X8180Y6180
X8180Y7180
X26680Y4180
X27680Y4180
X28680Y4180
T05
X31199Y28467
X32670Y30099
T06
X3680Y4680
X3680Y28680
X32680Y27216
T07
X26180Y27680
X16680Y26180
X26180Y18180
X16680Y16680
X26180Y8680
X16680Y7180
M30
