G75*
G70*
%OFA0B0*%
%FSLAX24Y24*%
%IPPOS*%
%LPD*%
%AMOC8*
5,1,8,0,0,1.08239X$1,22.5*
%
%ADD10C,0.0560*%
%ADD11C,0.0650*%
%ADD12C,0.1660*%
%ADD13C,0.1620*%
%ADD14R,0.0740X0.0740*%
%ADD15C,0.0740*%
%ADD16R,0.0650X0.0650*%
%ADD17C,0.0100*%
%ADD18C,0.0440*%
D10*
X008321Y017502D02*
X008881Y017502D01*
X008881Y018502D02*
X008321Y018502D01*
X008321Y019502D02*
X008881Y019502D01*
X008881Y020502D02*
X008321Y020502D01*
X008321Y021502D02*
X008881Y021502D01*
X008881Y022502D02*
X008321Y022502D01*
X008321Y023502D02*
X008881Y023502D01*
X008881Y024502D02*
X008321Y024502D01*
X008321Y025502D02*
X008881Y025502D01*
X008881Y026502D02*
X008321Y026502D01*
X008321Y027502D02*
X008881Y027502D01*
X008881Y028502D02*
X008321Y028502D01*
X008321Y029502D02*
X008881Y029502D01*
X008881Y030502D02*
X008321Y030502D01*
X011321Y030502D02*
X011881Y030502D01*
X011881Y029502D02*
X011321Y029502D01*
X011321Y028502D02*
X011881Y028502D01*
X011881Y027502D02*
X011321Y027502D01*
X011321Y026502D02*
X011881Y026502D01*
X011881Y025502D02*
X011321Y025502D01*
X011321Y024502D02*
X011881Y024502D01*
X011881Y023502D02*
X011321Y023502D01*
X011321Y022502D02*
X011881Y022502D01*
X011881Y021502D02*
X011321Y021502D01*
X011321Y020502D02*
X011881Y020502D01*
X011881Y019502D02*
X011321Y019502D01*
X011321Y018502D02*
X011881Y018502D01*
X011881Y017502D02*
X011321Y017502D01*
D11*
X004601Y020502D03*
X004601Y022502D03*
X002101Y023002D03*
X002101Y022002D03*
X002101Y020502D03*
X002101Y019502D03*
X008601Y011002D03*
X009601Y008002D03*
D12*
X010601Y005965D03*
X015601Y028538D03*
D13*
X014120Y029789D03*
X015591Y031420D03*
X012082Y004714D03*
X010611Y003083D03*
D14*
X002601Y005002D03*
D15*
X002601Y006002D03*
X002601Y007002D03*
X001601Y011502D03*
X001601Y012502D03*
X001601Y013502D03*
X001601Y014502D03*
X001601Y015502D03*
X001601Y016502D03*
X001601Y026002D03*
X001601Y028002D03*
X002101Y030502D03*
X001101Y030502D03*
X004711Y029722D03*
X006491Y029722D03*
X005601Y028002D03*
X005601Y026002D03*
X006491Y032282D03*
X004711Y032282D03*
X022101Y030502D03*
X023101Y030502D03*
X024101Y030502D03*
X025101Y030502D03*
X027101Y030502D03*
X028101Y030502D03*
X032101Y030502D03*
X033101Y030502D03*
X036101Y030502D03*
X037101Y030502D03*
X037101Y024502D03*
X036101Y024502D03*
X035101Y024502D03*
X036101Y020502D03*
X037101Y020502D03*
X033101Y020502D03*
X032101Y020502D03*
X028101Y020502D03*
X027101Y020502D03*
X025101Y020502D03*
X024101Y020502D03*
X023101Y020502D03*
X022101Y020502D03*
X022101Y024502D03*
X023101Y024502D03*
X027101Y024502D03*
X028101Y024502D03*
X028101Y014502D03*
X027101Y014502D03*
X023101Y014502D03*
X022101Y014502D03*
X022101Y010502D03*
X023101Y010502D03*
X024101Y010502D03*
X025101Y010502D03*
X027101Y010502D03*
X028101Y010502D03*
X032101Y010502D03*
X033101Y010502D03*
X036101Y010502D03*
X037101Y010502D03*
X037101Y014502D03*
X036101Y014502D03*
X035101Y014502D03*
X035101Y004502D03*
X036101Y004502D03*
X037101Y004502D03*
X028101Y004502D03*
X027101Y004502D03*
X023101Y004502D03*
X022101Y004502D03*
D16*
X009601Y009002D03*
X007601Y011002D03*
D17*
X010601Y003502D02*
X004101Y003502D01*
X002601Y005002D01*
X001601Y005502D02*
X009601Y005502D01*
X010101Y005002D01*
X011601Y005002D01*
X012082Y004714D01*
X011101Y003502D02*
X010611Y003083D01*
X010601Y003502D01*
X011101Y003502D02*
X021101Y003502D01*
X021601Y004002D01*
X034601Y004002D01*
X035101Y004502D01*
X037101Y004502D02*
X037601Y004502D01*
X037601Y015002D01*
X036101Y016502D01*
X035101Y016502D01*
X032601Y019002D01*
X011101Y019002D01*
X009601Y020502D01*
X008601Y020502D01*
X008101Y020002D02*
X007601Y020502D01*
X007601Y021002D01*
X033601Y021002D01*
X037101Y024502D01*
X036101Y024502D02*
X034601Y026002D01*
X009101Y026002D01*
X008601Y025502D01*
X008601Y024502D02*
X009601Y023502D01*
X011101Y025002D01*
X022601Y025002D01*
X023101Y024502D01*
X022601Y024002D02*
X022101Y024502D01*
X011601Y024502D01*
X009601Y023502D02*
X009601Y022002D01*
X004601Y022002D01*
X002101Y019502D01*
X002101Y013502D01*
X005101Y013502D01*
X007601Y011002D01*
X008601Y011002D02*
X018601Y011002D01*
X021601Y014002D01*
X034601Y014002D01*
X035101Y014502D01*
X035601Y015002D02*
X036101Y014502D01*
X035601Y015002D02*
X011101Y015002D01*
X010601Y015502D01*
X007601Y016002D02*
X035601Y016002D01*
X037101Y014502D01*
X034601Y024002D02*
X022601Y024002D01*
X016601Y030002D02*
X034101Y030002D01*
X034601Y030502D01*
X036101Y030502D01*
X035101Y024502D02*
X034601Y024002D01*
X022101Y014502D02*
X021601Y014002D01*
X022101Y004502D02*
X021601Y004002D01*
X010601Y005965D02*
X010601Y006002D01*
X003601Y006002D01*
X002601Y007002D01*
X001601Y005502D02*
X001601Y011502D01*
X001601Y013502D02*
X002101Y013502D01*
X001601Y015502D02*
X001101Y015502D01*
X001101Y026502D01*
X005601Y026502D01*
X008601Y029502D01*
X008101Y030002D02*
X006601Y030002D01*
X006491Y029722D01*
X008101Y030002D02*
X008601Y030502D01*
X007601Y028002D02*
X012601Y028002D01*
X014101Y029502D01*
X014120Y029789D01*
X015601Y029002D02*
X015601Y028538D01*
X015601Y029002D02*
X016601Y030002D01*
X008601Y023502D02*
X007601Y024502D01*
X007601Y028002D01*
X005601Y028002D02*
X003601Y028002D01*
X001101Y030502D01*
X002101Y023002D02*
X002601Y022502D01*
X004601Y022502D01*
X008601Y022502D01*
X008601Y021502D02*
X005601Y021502D01*
X004601Y020502D01*
X004601Y022002D02*
X002101Y022002D01*
X007601Y018502D02*
X007601Y016002D01*
X007601Y018502D02*
X008601Y019502D01*
X008101Y020002D02*
X009601Y020002D01*
X009601Y019502D01*
X008601Y018502D01*
X008601Y011002D02*
X008601Y009002D01*
X009601Y008002D01*
D18*
X010601Y015502D03*
M02*
