<?xml version="1.0" standalone="no"?>
<!DOCTYPE svg PUBLIC "-//W3C//DTD SVG 1.1//EN" "http://www.w3.org/Graphics/SVG/1.1/DTD/svg11.dtd">
<svg width="520.0mm" height="965.999999999999mm"
 viewBox="0 0 520.0 965.999999999999"
 xmlns="http://www.w3.org/2000/svg" version="1.1"
 xmlns:xlink="http://www.w3.org/1999/xlink">
<desc>Output from Flights of Ideas SVG Sketchup Plugin</desc>

  <g id="face0" fill="none" stroke="rgb(0,0,255)" stroke-width="1" stroke-miterlimit="4" stroke-dasharray="none" stroke-linejoin="round" stroke-linecap="round">
    <line x1="510.0" y1="100.0" x2="510.0" y2="10.0000000000001"/>
    <line x1="510.0" y1="10.0000000000001" x2="451.0" y2="10.0000000000001"/>
    <line x1="451.0" y1="10.0000000000001" x2="451.0" y2="19.0"/>
    <line x1="451.0" y1="19.0" x2="442.0" y2="19.0"/>
    <line x1="442.0" y1="19.0" x2="442.0" y2="10.0000000000001"/>
    <line x1="442.0" y1="10.0000000000001" x2="433.0" y2="10.0000000000001"/>
    <line x1="433.0" y1="10.0000000000001" x2="433.0" y2="19.0"/>
    <line x1="433.0" y1="19.0" x2="424.0" y2="19.0000000000001"/>
    <line x1="424.0" y1="19.0000000000001" x2="424.0" y2="10.0"/>
    <line x1="424.0" y1="10.0" x2="415.0" y2="10.0000000000001"/>
    <line x1="415.0" y1="10.0000000000001" x2="415.0" y2="19.0000000000001"/>
    <line x1="415.0" y1="19.0000000000001" x2="406.0" y2="19.0"/>
    <line x1="406.0" y1="19.0" x2="406.0" y2="10.0"/>
    <line x1="406.0" y1="10.0" x2="397.0" y2="10.0000000000001"/>
    <line x1="397.0" y1="10.0000000000001" x2="397.0" y2="19.0"/>
    <line x1="397.0" y1="19.0" x2="388.0" y2="19.0000000000001"/>
    <line x1="388.0" y1="19.0000000000001" x2="388.0" y2="10.0000000000001"/>
    <line x1="388.0" y1="10.0000000000001" x2="379.0" y2="10.0000000000001"/>
    <line x1="379.0" y1="10.0000000000001" x2="379.0" y2="19.0000000000001"/>
    <line x1="379.0" y1="19.0000000000001" x2="370.0" y2="19.0"/>
    <line x1="370.0" y1="19.0" x2="370.0" y2="10.0"/>
    <line x1="370.0" y1="10.0" x2="19.0000000000001" y2="10.0"/>
    <line x1="19.0000000000001" y1="10.0" x2="18.9999999999999" y2="19.0"/>
    <line x1="18.9999999999999" y1="19.0" x2="10.0" y2="19.0"/>
    <line x1="10.0" y1="19.0" x2="10.0" y2="28.0000000000006"/>
    <line x1="10.0" y1="28.0000000000006" x2="19.0" y2="27.9999999999997"/>
    <line x1="19.0" y1="27.9999999999997" x2="19.0" y2="37.0000000000001"/>
    <line x1="19.0" y1="37.0000000000001" x2="10.0000000000001" y2="36.9999999999994"/>
    <line x1="10.0000000000001" y1="36.9999999999994" x2="10.0000000000001" y2="45.9999999999995"/>
    <line x1="10.0000000000001" y1="45.9999999999995" x2="19.0" y2="46.0000000000007"/>
    <line x1="19.0" y1="46.0000000000007" x2="19.0" y2="54.9999999999999"/>
    <line x1="19.0" y1="54.9999999999999" x2="10.0" y2="54.9999999999997"/>
    <line x1="10.0" y1="54.9999999999997" x2="10.0000000000001" y2="63.9999999999988"/>
    <line x1="10.0000000000001" y1="63.9999999999988" x2="19.0" y2="63.999999999999"/>
    <line x1="19.0" y1="63.999999999999" x2="19.0" y2="73.0000000000006"/>
    <line x1="19.0" y1="73.0000000000006" x2="10.0" y2="72.9999999999985"/>
    <line x1="10.0" y1="72.9999999999985" x2="10.0" y2="82.0000000000016"/>
    <line x1="10.0" y1="82.0000000000016" x2="19.0" y2="81.9999999999994"/>
    <line x1="19.0" y1="81.9999999999994" x2="19.0" y2="91.0"/>
    <line x1="19.0" y1="91.0" x2="10.0" y2="90.9999999999999"/>
    <line x1="10.0" y1="90.9999999999999" x2="10.0" y2="100.0"/>
    <line x1="10.0" y1="100.0" x2="510.0" y2="100.0"/>
  </g>
  <g id="face1" fill="none" stroke="rgb(0,0,255)" stroke-width="1" stroke-miterlimit="4" stroke-dasharray="none" stroke-linejoin="round" stroke-linecap="round">
    <line x1="82.0" y1="110.0" x2="82.0" y2="119.0"/>
    <line x1="82.0" y1="119.0" x2="73.0000000000001" y2="119.0"/>
    <line x1="73.0000000000001" y1="119.0" x2="73.0000000000001" y2="110.0"/>
    <line x1="73.0000000000001" y1="110.0" x2="64.0" y2="110.0"/>
    <line x1="64.0" y1="110.0" x2="64.0" y2="119.0"/>
    <line x1="64.0" y1="119.0" x2="55.0" y2="119.0"/>
    <line x1="55.0" y1="119.0" x2="55.0" y2="110.0"/>
    <line x1="55.0" y1="110.0" x2="46.0000000000001" y2="110.0"/>
    <line x1="46.0000000000001" y1="110.0" x2="46.0000000000001" y2="119.0"/>
    <line x1="46.0000000000001" y1="119.0" x2="37.0" y2="119.0"/>
    <line x1="37.0" y1="119.0" x2="37.0" y2="110.0"/>
    <line x1="37.0" y1="110.0" x2="28.0" y2="110.0"/>
    <line x1="28.0" y1="110.0" x2="28.0" y2="119.0"/>
    <line x1="28.0" y1="119.0" x2="19.0000000000001" y2="119.0"/>
    <line x1="19.0000000000001" y1="119.0" x2="19.0000000000001" y2="110.0"/>
    <line x1="19.0000000000001" y1="110.0" x2="10.0" y2="110.0"/>
    <line x1="10.0" y1="110.0" x2="10.0" y2="478.0"/>
    <line x1="10.0" y1="478.0" x2="19.0000000000001" y2="478.0"/>
    <line x1="19.0000000000001" y1="478.0" x2="18.9999999999999" y2="469.0"/>
    <line x1="18.9999999999999" y1="469.0" x2="28.0" y2="469.0"/>
    <line x1="28.0" y1="469.0" x2="28.0" y2="478.0"/>
    <line x1="28.0" y1="478.0" x2="37.0" y2="478.0"/>
    <line x1="37.0" y1="478.0" x2="37.0" y2="469.0"/>
    <line x1="37.0" y1="469.0" x2="46.0000000000001" y2="469.0"/>
    <line x1="46.0000000000001" y1="469.0" x2="46.0000000000001" y2="478.0"/>
    <line x1="46.0000000000001" y1="478.0" x2="55.0" y2="478.0"/>
    <line x1="55.0" y1="478.0" x2="55.0" y2="469.0"/>
    <line x1="55.0" y1="469.0" x2="64.0" y2="469.0"/>
    <line x1="64.0" y1="469.0" x2="64.0" y2="478.0"/>
    <line x1="64.0" y1="478.0" x2="73.0000000000001" y2="478.0"/>
    <line x1="73.0000000000001" y1="478.0" x2="73.0000000000001" y2="469.0"/>
    <line x1="73.0000000000001" y1="469.0" x2="82.0" y2="469.0"/>
    <line x1="82.0" y1="469.0" x2="82.0" y2="478.0"/>
    <line x1="82.0" y1="478.0" x2="91.0000000000001" y2="478.0"/>
    <line x1="91.0000000000001" y1="478.0" x2="91.0000000000001" y2="469.0"/>
    <line x1="91.0000000000001" y1="469.0" x2="100.0" y2="469.0"/>
    <line x1="100.0" y1="469.0" x2="100.0" y2="119.0"/>
    <line x1="100.0" y1="119.0" x2="91.0" y2="119.0"/>
    <line x1="91.0" y1="119.0" x2="91.0" y2="110.0"/>
    <line x1="91.0" y1="110.0" x2="82.0" y2="110.0"/>
  </g>
  <g id="face2" fill="none" stroke="rgb(0,0,255)" stroke-width="1" stroke-miterlimit="4" stroke-dasharray="none" stroke-linejoin="round" stroke-linecap="round">
    <line x1="28.0" y1="497.0" x2="19.0000000000001" y2="497.0"/>
    <line x1="19.0000000000001" y1="497.0" x2="19.0000000000001" y2="488.0"/>
    <line x1="19.0000000000001" y1="488.0" x2="10.0" y2="488.0"/>
    <line x1="10.0" y1="488.0" x2="10.0" y2="497.0"/>
    <line x1="10.0" y1="497.0" x2="10.0" y2="846.999999999999"/>
    <line x1="10.0" y1="846.999999999999" x2="10.0" y2="855.999999999999"/>
    <line x1="10.0" y1="855.999999999999" x2="19.0000000000001" y2="855.999999999999"/>
    <line x1="19.0000000000001" y1="855.999999999999" x2="19.0000000000001" y2="846.999999999999"/>
    <line x1="19.0000000000001" y1="846.999999999999" x2="28.0" y2="846.999999999999"/>
    <line x1="28.0" y1="846.999999999999" x2="28.0" y2="855.999999999999"/>
    <line x1="28.0" y1="855.999999999999" x2="37.0" y2="855.999999999999"/>
    <line x1="37.0" y1="855.999999999999" x2="37.0" y2="846.999999999999"/>
    <line x1="37.0" y1="846.999999999999" x2="46.0000000000001" y2="846.999999999999"/>
    <line x1="46.0000000000001" y1="846.999999999999" x2="46.0000000000001" y2="855.999999999999"/>
    <line x1="46.0000000000001" y1="855.999999999999" x2="55.0" y2="855.999999999999"/>
    <line x1="55.0" y1="855.999999999999" x2="55.0" y2="846.999999999999"/>
    <line x1="55.0" y1="846.999999999999" x2="64.0" y2="846.999999999999"/>
    <line x1="64.0" y1="846.999999999999" x2="64.0" y2="855.999999999999"/>
    <line x1="64.0" y1="855.999999999999" x2="73.0000000000001" y2="855.999999999999"/>
    <line x1="73.0000000000001" y1="855.999999999999" x2="73.0000000000001" y2="846.999999999999"/>
    <line x1="73.0000000000001" y1="846.999999999999" x2="82.0000000000001" y2="846.999999999999"/>
    <line x1="82.0000000000001" y1="846.999999999999" x2="82.0000000000001" y2="855.999999999999"/>
    <line x1="82.0000000000001" y1="855.999999999999" x2="91.0" y2="855.999999999999"/>
    <line x1="91.0" y1="855.999999999999" x2="91.0" y2="846.999999999999"/>
    <line x1="91.0" y1="846.999999999999" x2="100.0" y2="846.999999999999"/>
    <line x1="100.0" y1="846.999999999999" x2="100.0" y2="497.0"/>
    <line x1="100.0" y1="497.0" x2="91.0" y2="497.0"/>
    <line x1="91.0" y1="497.0" x2="91.0" y2="488.0"/>
    <line x1="91.0" y1="488.0" x2="82.0" y2="488.0"/>
    <line x1="82.0" y1="488.0" x2="82.0" y2="497.0"/>
    <line x1="82.0" y1="497.0" x2="73.0000000000001" y2="497.0"/>
    <line x1="73.0000000000001" y1="497.0" x2="73.0000000000001" y2="488.0"/>
    <line x1="73.0000000000001" y1="488.0" x2="64.0000000000001" y2="488.0"/>
    <line x1="64.0000000000001" y1="488.0" x2="64.0000000000001" y2="497.0"/>
    <line x1="64.0000000000001" y1="497.0" x2="55.0" y2="497.0"/>
    <line x1="55.0" y1="497.0" x2="55.0" y2="488.0"/>
    <line x1="55.0" y1="488.0" x2="46.0000000000001" y2="488.0"/>
    <line x1="46.0000000000001" y1="488.0" x2="46.0000000000001" y2="497.0"/>
    <line x1="46.0000000000001" y1="497.0" x2="37.0" y2="497.0"/>
    <line x1="37.0" y1="497.0" x2="37.0" y2="488.0"/>
    <line x1="37.0" y1="488.0" x2="28.0" y2="488.0"/>
    <line x1="28.0" y1="488.0" x2="28.0" y2="497.0"/>
  </g>
  <g id="face3" fill="none" stroke="rgb(0,0,255)" stroke-width="1" stroke-miterlimit="4" stroke-dasharray="none" stroke-linejoin="round" stroke-linecap="round">
    <line x1="510.0" y1="955.999999999999" x2="510.0" y2="865.999999999999"/>
    <line x1="510.0" y1="865.999999999999" x2="10.0" y2="865.999999999999"/>
    <line x1="10.0" y1="865.999999999999" x2="10.0" y2="874.999999999999"/>
    <line x1="10.0" y1="874.999999999999" x2="18.9999999999999" y2="874.999999999999"/>
    <line x1="18.9999999999999" y1="874.999999999999" x2="19.0" y2="883.999999999999"/>
    <line x1="19.0" y1="883.999999999999" x2="10.0" y2="884.0"/>
    <line x1="10.0" y1="884.0" x2="10.0000000000001" y2="892.999999999999"/>
    <line x1="10.0000000000001" y1="892.999999999999" x2="19.0" y2="892.999999999999"/>
    <line x1="19.0" y1="892.999999999999" x2="19.0" y2="902.0"/>
    <line x1="19.0" y1="902.0" x2="10.0000000000001" y2="901.999999999999"/>
    <line x1="10.0000000000001" y1="901.999999999999" x2="10.0" y2="910.999999999999"/>
    <line x1="10.0" y1="910.999999999999" x2="19.0" y2="910.999999999999"/>
    <line x1="19.0" y1="910.999999999999" x2="19.0" y2="919.999999999998"/>
    <line x1="19.0" y1="919.999999999998" x2="10.0000000000001" y2="919.999999999998"/>
    <line x1="10.0000000000001" y1="919.999999999998" x2="10.0" y2="928.999999999998"/>
    <line x1="10.0" y1="928.999999999998" x2="19.0" y2="929.0"/>
    <line x1="19.0" y1="929.0" x2="19.0" y2="937.999999999999"/>
    <line x1="19.0" y1="937.999999999999" x2="10.0" y2="938.000000000001"/>
    <line x1="10.0" y1="938.000000000001" x2="10.0" y2="946.999999999999"/>
    <line x1="10.0" y1="946.999999999999" x2="19.0" y2="946.999999999999"/>
    <line x1="19.0" y1="946.999999999999" x2="19.0" y2="955.999999999999"/>
    <line x1="19.0" y1="955.999999999999" x2="370.0" y2="955.999999999999"/>
    <line x1="370.0" y1="955.999999999999" x2="370.0" y2="946.999999999999"/>
    <line x1="370.0" y1="946.999999999999" x2="379.0" y2="946.999999999999"/>
    <line x1="379.0" y1="946.999999999999" x2="379.0" y2="955.999999999999"/>
    <line x1="379.0" y1="955.999999999999" x2="388.0" y2="955.999999999999"/>
    <line x1="388.0" y1="955.999999999999" x2="388.0" y2="946.999999999999"/>
    <line x1="388.0" y1="946.999999999999" x2="397.0" y2="946.999999999999"/>
    <line x1="397.0" y1="946.999999999999" x2="397.0" y2="955.999999999999"/>
    <line x1="397.0" y1="955.999999999999" x2="406.0" y2="955.999999999999"/>
    <line x1="406.0" y1="955.999999999999" x2="406.0" y2="946.999999999999"/>
    <line x1="406.0" y1="946.999999999999" x2="415.0" y2="946.999999999999"/>
    <line x1="415.0" y1="946.999999999999" x2="415.0" y2="955.999999999999"/>
    <line x1="415.0" y1="955.999999999999" x2="424.0" y2="955.999999999999"/>
    <line x1="424.0" y1="955.999999999999" x2="424.0" y2="946.999999999999"/>
    <line x1="424.0" y1="946.999999999999" x2="433.0" y2="946.999999999999"/>
    <line x1="433.0" y1="946.999999999999" x2="433.0" y2="955.999999999999"/>
    <line x1="433.0" y1="955.999999999999" x2="442.0" y2="955.999999999999"/>
    <line x1="442.0" y1="955.999999999999" x2="442.0" y2="946.999999999999"/>
    <line x1="442.0" y1="946.999999999999" x2="451.0" y2="946.999999999999"/>
    <line x1="451.0" y1="946.999999999999" x2="451.0" y2="955.999999999999"/>
    <line x1="451.0" y1="955.999999999999" x2="510.0" y2="955.999999999999"/>
  </g>
</svg>
