<?xml version="1.0" standalone="no"?>
<!DOCTYPE svg PUBLIC "-//W3C//DTD SVG 1.1//EN" "http://www.w3.org/Graphics/SVG/1.1/DTD/svg11.dtd">
<svg width="570.0mm" height="714.000000000001mm"
 viewBox="0 0 570.0 714.000000000001"
 xmlns="http://www.w3.org/2000/svg" version="1.1"
 xmlns:xlink="http://www.w3.org/1999/xlink">
<desc>Output from Flights of Ideas SVG Sketchup Plugin</desc>

  <g id="face0" fill="none" stroke="rgb(0,0,255)" stroke-width="1" stroke-miterlimit="4" stroke-dasharray="none" stroke-linejoin="round" stroke-linecap="round">
    <line x1="560.0" y1="352.0" x2="560.0" y2="325.0"/>
    <line x1="560.0" y1="325.0" x2="551.0" y2="325.0"/>
    <line x1="551.0" y1="325.0" x2="551.0" y2="316.0"/>
    <line x1="551.0" y1="316.0" x2="560.0" y2="316.0"/>
    <line x1="560.0" y1="316.0" x2="560.0" y2="307.0"/>
    <line x1="560.0" y1="307.0" x2="551.0" y2="307.0"/>
    <line x1="551.0" y1="307.0" x2="551.0" y2="298.0"/>
    <line x1="551.0" y1="298.0" x2="560.0" y2="298.0"/>
    <line x1="560.0" y1="298.0" x2="560.0" y2="289.0"/>
    <line x1="560.0" y1="289.0" x2="551.0" y2="289.0"/>
    <line x1="551.0" y1="289.0" x2="551.0" y2="280.0"/>
    <line x1="551.0" y1="280.0" x2="560.0" y2="280.0"/>
    <line x1="560.0" y1="280.0" x2="560.0" y2="271.0"/>
    <line x1="560.0" y1="271.0" x2="551.0" y2="271.0"/>
    <line x1="551.0" y1="271.0" x2="551.0" y2="262.0"/>
    <line x1="551.0" y1="262.0" x2="560.0" y2="262.0"/>
    <line x1="560.0" y1="262.0" x2="560.0" y2="253.0"/>
    <line x1="560.0" y1="253.0" x2="551.0" y2="253.0"/>
    <line x1="551.0" y1="253.0" x2="551.0" y2="244.0"/>
    <line x1="551.0" y1="244.0" x2="560.0" y2="244.0"/>
    <line x1="560.0" y1="244.0" x2="560.0" y2="235.0"/>
    <line x1="560.0" y1="235.0" x2="551.0" y2="235.0"/>
    <line x1="551.0" y1="235.0" x2="551.0" y2="226.0"/>
    <line x1="551.0" y1="226.0" x2="560.0" y2="226.0"/>
    <line x1="560.0" y1="226.0" x2="560.0" y2="217.0"/>
    <line x1="560.0" y1="217.0" x2="551.0" y2="217.0"/>
    <line x1="551.0" y1="217.0" x2="551.0" y2="208.0"/>
    <line x1="551.0" y1="208.0" x2="560.0" y2="208.0"/>
    <line x1="560.0" y1="208.0" x2="560.0" y2="199.0"/>
    <line x1="560.0" y1="199.0" x2="551.0" y2="199.0"/>
    <line x1="551.0" y1="199.0" x2="551.0" y2="190.0"/>
    <line x1="551.0" y1="190.0" x2="560.0" y2="190.0"/>
    <line x1="560.0" y1="190.0" x2="560.0" y2="181.0"/>
    <line x1="560.0" y1="181.0" x2="551.0" y2="181.0"/>
    <line x1="551.0" y1="181.0" x2="551.0" y2="172.0"/>
    <line x1="551.0" y1="172.0" x2="560.0" y2="172.0"/>
    <line x1="560.0" y1="172.0" x2="560.0" y2="163.0"/>
    <line x1="560.0" y1="163.0" x2="551.0" y2="163.0"/>
    <line x1="551.0" y1="163.0" x2="551.0" y2="154.0"/>
    <line x1="551.0" y1="154.0" x2="560.0" y2="154.0"/>
    <line x1="560.0" y1="154.0" x2="560.0" y2="145.0"/>
    <line x1="560.0" y1="145.0" x2="551.0" y2="145.0"/>
    <line x1="551.0" y1="145.0" x2="551.0" y2="136.0"/>
    <line x1="551.0" y1="136.0" x2="560.0" y2="136.0"/>
    <line x1="560.0" y1="136.0" x2="560.0" y2="127.0"/>
    <line x1="560.0" y1="127.0" x2="551.0" y2="127.0"/>
    <line x1="551.0" y1="127.0" x2="551.0" y2="118.0"/>
    <line x1="551.0" y1="118.0" x2="560.0" y2="118.0"/>
    <line x1="560.0" y1="118.0" x2="560.0" y2="109.0"/>
    <line x1="560.0" y1="109.0" x2="551.0" y2="109.0"/>
    <line x1="551.0" y1="109.0" x2="551.0" y2="100.0"/>
    <line x1="551.0" y1="100.0" x2="560.0" y2="100.0"/>
    <line x1="560.0" y1="100.0" x2="560.0" y2="91.0"/>
    <line x1="560.0" y1="91.0" x2="551.0" y2="91.0"/>
    <line x1="551.0" y1="91.0" x2="551.0" y2="82.0"/>
    <line x1="551.0" y1="82.0" x2="560.0" y2="82.0"/>
    <line x1="560.0" y1="82.0" x2="560.0" y2="73.0"/>
    <line x1="560.0" y1="73.0" x2="551.0" y2="73.0"/>
    <line x1="551.0" y1="73.0" x2="551.0" y2="64.0"/>
    <line x1="551.0" y1="64.0" x2="560.0" y2="64.0"/>
    <line x1="560.0" y1="64.0" x2="560.0" y2="55.0"/>
    <line x1="560.0" y1="55.0" x2="551.0" y2="55.0000000000001"/>
    <line x1="551.0" y1="55.0000000000001" x2="551.0" y2="46.0"/>
    <line x1="551.0" y1="46.0" x2="560.0" y2="46.0"/>
    <line x1="560.0" y1="46.0" x2="560.0" y2="37.0000000000001"/>
    <line x1="560.0" y1="37.0000000000001" x2="551.0" y2="37.0000000000001"/>
    <line x1="551.0" y1="37.0000000000001" x2="551.0" y2="28.0"/>
    <line x1="551.0" y1="28.0" x2="560.0" y2="28.0"/>
    <line x1="560.0" y1="28.0" x2="560.0" y2="10.0"/>
    <line x1="560.0" y1="10.0" x2="551.0" y2="10.0"/>
    <line x1="551.0" y1="10.0" x2="19.0000000000002" y2="10.0"/>
    <line x1="19.0000000000002" y1="10.0" x2="10.0" y2="10.0000000000003"/>
    <line x1="10.0" y1="10.0000000000003" x2="10.0000000000001" y2="27.9999999999999"/>
    <line x1="10.0000000000001" y1="27.9999999999999" x2="19.0" y2="28.0000000000001"/>
    <line x1="19.0" y1="28.0000000000001" x2="19.0000000000002" y2="37.0000000000001"/>
    <line x1="19.0000000000002" y1="37.0000000000001" x2="10.0000000000001" y2="37.0000000000001"/>
    <line x1="10.0000000000001" y1="37.0000000000001" x2="10.0000000000002" y2="45.9999999999999"/>
    <line x1="10.0000000000002" y1="45.9999999999999" x2="19.0000000000002" y2="45.9999999999999"/>
    <line x1="19.0000000000002" y1="45.9999999999999" x2="19.0000000000001" y2="55.0000000000002"/>
    <line x1="19.0000000000001" y1="55.0000000000002" x2="10.0000000000001" y2="55.0"/>
    <line x1="10.0000000000001" y1="55.0" x2="10.0000000000001" y2="63.9999999999998"/>
    <line x1="10.0000000000001" y1="63.9999999999998" x2="19.0000000000002" y2="63.9999999999999"/>
    <line x1="19.0000000000002" y1="63.9999999999999" x2="19.0000000000002" y2="72.9999999999999"/>
    <line x1="19.0000000000002" y1="72.9999999999999" x2="10.0000000000001" y2="72.9999999999999"/>
    <line x1="10.0000000000001" y1="72.9999999999999" x2="10.0" y2="81.9999999999999"/>
    <line x1="10.0" y1="81.9999999999999" x2="19.0000000000002" y2="81.9999999999999"/>
    <line x1="19.0000000000002" y1="81.9999999999999" x2="19.0000000000001" y2="91.0000000000002"/>
    <line x1="19.0000000000001" y1="91.0000000000002" x2="10.0000000000001" y2="91.0"/>
    <line x1="10.0000000000001" y1="91.0" x2="10.0000000000001" y2="99.9999999999997"/>
    <line x1="10.0000000000001" y1="99.9999999999997" x2="19.0000000000002" y2="100.0"/>
    <line x1="19.0000000000002" y1="100.0" x2="19.0000000000002" y2="109.0"/>
    <line x1="19.0000000000002" y1="109.0" x2="10.0000000000001" y2="109.0"/>
    <line x1="10.0000000000001" y1="109.0" x2="10.0000000000001" y2="118.0"/>
    <line x1="10.0000000000001" y1="118.0" x2="19.0000000000001" y2="118.0"/>
    <line x1="19.0000000000001" y1="118.0" x2="19.0000000000002" y2="127.0"/>
    <line x1="19.0000000000002" y1="127.0" x2="10.0000000000001" y2="127.0"/>
    <line x1="10.0000000000001" y1="127.0" x2="10.0000000000001" y2="136.0"/>
    <line x1="10.0000000000001" y1="136.0" x2="19.0000000000002" y2="136.0"/>
    <line x1="19.0000000000002" y1="136.0" x2="19.0000000000002" y2="145.0"/>
    <line x1="19.0000000000002" y1="145.0" x2="10.0" y2="145.0"/>
    <line x1="10.0" y1="145.0" x2="10.0000000000001" y2="154.0"/>
    <line x1="10.0000000000001" y1="154.0" x2="19.0000000000002" y2="154.0"/>
    <line x1="19.0000000000002" y1="154.0" x2="19.0000000000002" y2="163.0"/>
    <line x1="19.0000000000002" y1="163.0" x2="10.0000000000001" y2="163.0"/>
    <line x1="10.0000000000001" y1="163.0" x2="10.0000000000001" y2="172.0"/>
    <line x1="10.0000000000001" y1="172.0" x2="19.0000000000002" y2="172.0"/>
    <line x1="19.0000000000002" y1="172.0" x2="19.0000000000001" y2="181.0"/>
    <line x1="19.0000000000001" y1="181.0" x2="10.0000000000002" y2="181.0"/>
    <line x1="10.0000000000002" y1="181.0" x2="10.0000000000001" y2="190.0"/>
    <line x1="10.0000000000001" y1="190.0" x2="19.0000000000002" y2="190.0"/>
    <line x1="19.0000000000002" y1="190.0" x2="19.0000000000002" y2="199.0"/>
    <line x1="19.0000000000002" y1="199.0" x2="10.0000000000002" y2="199.0"/>
    <line x1="10.0000000000002" y1="199.0" x2="10.0000000000001" y2="208.0"/>
    <line x1="10.0000000000001" y1="208.0" x2="19.0000000000002" y2="208.0"/>
    <line x1="19.0000000000002" y1="208.0" x2="19.0000000000002" y2="217.0"/>
    <line x1="19.0000000000002" y1="217.0" x2="10.0000000000001" y2="217.0"/>
    <line x1="10.0000000000001" y1="217.0" x2="10.0000000000001" y2="226.0"/>
    <line x1="10.0000000000001" y1="226.0" x2="19.0000000000002" y2="226.0"/>
    <line x1="19.0000000000002" y1="226.0" x2="19.0000000000002" y2="235.0"/>
    <line x1="19.0000000000002" y1="235.0" x2="10.0000000000001" y2="235.0"/>
    <line x1="10.0000000000001" y1="235.0" x2="10.0000000000001" y2="244.0"/>
    <line x1="10.0000000000001" y1="244.0" x2="19.0000000000002" y2="244.0"/>
    <line x1="19.0000000000002" y1="244.0" x2="19.0000000000002" y2="253.0"/>
    <line x1="19.0000000000002" y1="253.0" x2="10.0000000000001" y2="253.0"/>
    <line x1="10.0000000000001" y1="253.0" x2="10.0000000000001" y2="262.0"/>
    <line x1="10.0000000000001" y1="262.0" x2="19.0000000000002" y2="262.0"/>
    <line x1="19.0000000000002" y1="262.0" x2="19.0000000000002" y2="271.0"/>
    <line x1="19.0000000000002" y1="271.0" x2="10.0000000000001" y2="271.0"/>
    <line x1="10.0000000000001" y1="271.0" x2="10.0000000000001" y2="279.999999999999"/>
    <line x1="10.0000000000001" y1="279.999999999999" x2="19.0000000000002" y2="280.0"/>
    <line x1="19.0000000000002" y1="280.0" x2="19.0000000000002" y2="289.0"/>
    <line x1="19.0000000000002" y1="289.0" x2="10.0000000000001" y2="288.999999999999"/>
    <line x1="10.0000000000001" y1="288.999999999999" x2="10.0000000000001" y2="298.000000000001"/>
    <line x1="10.0000000000001" y1="298.000000000001" x2="19.0000000000002" y2="298.0"/>
    <line x1="19.0000000000002" y1="298.0" x2="19.0000000000002" y2="307.0"/>
    <line x1="19.0000000000002" y1="307.0" x2="10.0000000000001" y2="306.999999999999"/>
    <line x1="10.0000000000001" y1="306.999999999999" x2="10.0000000000001" y2="316.0"/>
    <line x1="10.0000000000001" y1="316.0" x2="19.0000000000001" y2="316.0"/>
    <line x1="19.0000000000001" y1="316.0" x2="19.0000000000002" y2="325.0"/>
    <line x1="19.0000000000002" y1="325.0" x2="10.0000000000001" y2="325.0"/>
    <line x1="10.0000000000001" y1="325.0" x2="10.0000000000001" y2="352.0"/>
    <line x1="10.0000000000001" y1="352.0" x2="19.0000000000002" y2="352.0"/>
    <line x1="19.0000000000002" y1="352.0" x2="551.0" y2="352.0"/>
    <line x1="551.0" y1="352.0" x2="560.0" y2="352.0"/>
  </g>
  <g id="face1" fill="none" stroke="rgb(0,0,255)" stroke-width="1" stroke-miterlimit="4" stroke-dasharray="none" stroke-linejoin="round" stroke-linecap="round">
    <line x1="551.0" y1="389.000000000001" x2="560.0" y2="389.000000000001"/>
    <line x1="560.0" y1="389.000000000001" x2="560.0" y2="362.000000000001"/>
    <line x1="560.0" y1="362.000000000001" x2="551.0" y2="362.000000000001"/>
    <line x1="551.0" y1="362.000000000001" x2="19.0000000000002" y2="362.0"/>
    <line x1="19.0000000000002" y1="362.0" x2="10.0000000000001" y2="362.000000000001"/>
    <line x1="10.0000000000001" y1="362.000000000001" x2="10.0000000000001" y2="389.000000000001"/>
    <line x1="10.0000000000001" y1="389.000000000001" x2="19.0000000000001" y2="389.000000000001"/>
    <line x1="19.0000000000001" y1="389.000000000001" x2="19.0000000000001" y2="398.000000000005"/>
    <line x1="19.0000000000001" y1="398.000000000005" x2="10.0000000000001" y2="398.0"/>
    <line x1="10.0000000000001" y1="398.0" x2="10.0000000000001" y2="407.000000000003"/>
    <line x1="10.0000000000001" y1="407.000000000003" x2="19.0000000000001" y2="407.000000000001"/>
    <line x1="19.0000000000001" y1="407.000000000001" x2="19.0000000000002" y2="416.000000000002"/>
    <line x1="19.0000000000002" y1="416.000000000002" x2="10.0000000000001" y2="416.000000000001"/>
    <line x1="10.0000000000001" y1="416.000000000001" x2="10.0" y2="425.000000000001"/>
    <line x1="10.0" y1="425.000000000001" x2="19.0000000000001" y2="425.000000000001"/>
    <line x1="19.0000000000001" y1="425.000000000001" x2="19.0000000000001" y2="434.000000000001"/>
    <line x1="19.0000000000001" y1="434.000000000001" x2="10.0000000000001" y2="434.000000000001"/>
    <line x1="10.0000000000001" y1="434.000000000001" x2="10.0000000000001" y2="443.000000000001"/>
    <line x1="10.0000000000001" y1="443.000000000001" x2="19.0000000000001" y2="443.000000000001"/>
    <line x1="19.0000000000001" y1="443.000000000001" x2="19.0000000000001" y2="452.000000000001"/>
    <line x1="19.0000000000001" y1="452.000000000001" x2="10.0000000000001" y2="452.000000000001"/>
    <line x1="10.0000000000001" y1="452.000000000001" x2="10.0000000000001" y2="461.000000000001"/>
    <line x1="10.0000000000001" y1="461.000000000001" x2="19.0000000000001" y2="461.000000000001"/>
    <line x1="19.0000000000001" y1="461.000000000001" x2="19.0000000000001" y2="470.000000000001"/>
    <line x1="19.0000000000001" y1="470.000000000001" x2="10.0000000000001" y2="470.000000000001"/>
    <line x1="10.0000000000001" y1="470.000000000001" x2="10.0000000000001" y2="479.000000000001"/>
    <line x1="10.0000000000001" y1="479.000000000001" x2="19.0000000000001" y2="479.000000000001"/>
    <line x1="19.0000000000001" y1="479.000000000001" x2="19.0000000000001" y2="488.000000000001"/>
    <line x1="19.0000000000001" y1="488.000000000001" x2="10.0000000000001" y2="488.000000000001"/>
    <line x1="10.0000000000001" y1="488.000000000001" x2="10.0000000000001" y2="497.000000000001"/>
    <line x1="10.0000000000001" y1="497.000000000001" x2="19.0000000000001" y2="497.000000000001"/>
    <line x1="19.0000000000001" y1="497.000000000001" x2="19.0000000000001" y2="506.000000000001"/>
    <line x1="19.0000000000001" y1="506.000000000001" x2="10.0000000000001" y2="506.000000000001"/>
    <line x1="10.0000000000001" y1="506.000000000001" x2="10.0000000000001" y2="515.000000000001"/>
    <line x1="10.0000000000001" y1="515.000000000001" x2="19.0000000000001" y2="515.000000000001"/>
    <line x1="19.0000000000001" y1="515.000000000001" x2="19.0000000000002" y2="524.000000000001"/>
    <line x1="19.0000000000002" y1="524.000000000001" x2="10.0000000000001" y2="524.000000000001"/>
    <line x1="10.0000000000001" y1="524.000000000001" x2="10.0000000000002" y2="533.000000000001"/>
    <line x1="10.0000000000002" y1="533.000000000001" x2="19.0000000000001" y2="533.000000000001"/>
    <line x1="19.0000000000001" y1="533.000000000001" x2="19.0000000000001" y2="542.000000000001"/>
    <line x1="19.0000000000001" y1="542.000000000001" x2="10.0000000000001" y2="542.000000000001"/>
    <line x1="10.0000000000001" y1="542.000000000001" x2="10.0000000000001" y2="551.000000000001"/>
    <line x1="10.0000000000001" y1="551.000000000001" x2="19.0000000000001" y2="551.000000000001"/>
    <line x1="19.0000000000001" y1="551.000000000001" x2="19.0000000000001" y2="560.000000000001"/>
    <line x1="19.0000000000001" y1="560.000000000001" x2="10.0" y2="560.000000000001"/>
    <line x1="10.0" y1="560.000000000001" x2="10.0000000000001" y2="569.000000000001"/>
    <line x1="10.0000000000001" y1="569.000000000001" x2="19.0000000000001" y2="569.000000000001"/>
    <line x1="19.0000000000001" y1="569.000000000001" x2="19.0000000000001" y2="578.000000000001"/>
    <line x1="19.0000000000001" y1="578.000000000001" x2="10.0000000000001" y2="578.000000000001"/>
    <line x1="10.0000000000001" y1="578.000000000001" x2="10.0000000000002" y2="587.000000000001"/>
    <line x1="10.0000000000002" y1="587.000000000001" x2="19.0000000000001" y2="587.000000000001"/>
    <line x1="19.0000000000001" y1="587.000000000001" x2="19.0000000000001" y2="596.000000000001"/>
    <line x1="19.0000000000001" y1="596.000000000001" x2="10.0000000000001" y2="596.000000000001"/>
    <line x1="10.0000000000001" y1="596.000000000001" x2="10.0000000000001" y2="605.000000000001"/>
    <line x1="10.0000000000001" y1="605.000000000001" x2="19.0000000000001" y2="605.000000000001"/>
    <line x1="19.0000000000001" y1="605.000000000001" x2="19.0000000000001" y2="614.000000000001"/>
    <line x1="19.0000000000001" y1="614.000000000001" x2="10.0000000000001" y2="614.000000000001"/>
    <line x1="10.0000000000001" y1="614.000000000001" x2="10.0" y2="623.000000000001"/>
    <line x1="10.0" y1="623.000000000001" x2="19.0000000000001" y2="623.000000000001"/>
    <line x1="19.0000000000001" y1="623.000000000001" x2="19.0000000000002" y2="632.000000000001"/>
    <line x1="19.0000000000002" y1="632.000000000001" x2="10.0000000000001" y2="632.000000000001"/>
    <line x1="10.0000000000001" y1="632.000000000001" x2="10.0000000000001" y2="641.000000000001"/>
    <line x1="10.0000000000001" y1="641.000000000001" x2="19.0" y2="641.000000000001"/>
    <line x1="19.0" y1="641.000000000001" x2="19.0000000000001" y2="650.000000000001"/>
    <line x1="19.0000000000001" y1="650.000000000001" x2="10.0" y2="650.000000000001"/>
    <line x1="10.0" y1="650.000000000001" x2="10.0000000000002" y2="659.000000000001"/>
    <line x1="10.0000000000002" y1="659.000000000001" x2="19.0000000000001" y2="659.000000000001"/>
    <line x1="19.0000000000001" y1="659.000000000001" x2="19.0" y2="668.000000000001"/>
    <line x1="19.0" y1="668.000000000001" x2="10.0000000000001" y2="668.000000000001"/>
    <line x1="10.0000000000001" y1="668.000000000001" x2="10.0000000000001" y2="677.000000000001"/>
    <line x1="10.0000000000001" y1="677.000000000001" x2="19.0000000000001" y2="677.000000000001"/>
    <line x1="19.0000000000001" y1="677.000000000001" x2="19.0" y2="686.000000000001"/>
    <line x1="19.0" y1="686.000000000001" x2="10.0" y2="686.000000000001"/>
    <line x1="10.0" y1="686.000000000001" x2="10.0000000000001" y2="704.000000000001"/>
    <line x1="10.0000000000001" y1="704.000000000001" x2="19.0000000000001" y2="704.000000000001"/>
    <line x1="19.0000000000001" y1="704.000000000001" x2="551.0" y2="704.000000000001"/>
    <line x1="551.0" y1="704.000000000001" x2="560.0" y2="704.000000000001"/>
    <line x1="560.0" y1="704.000000000001" x2="560.0" y2="686.000000000001"/>
    <line x1="560.0" y1="686.000000000001" x2="551.0" y2="686.000000000001"/>
    <line x1="551.0" y1="686.000000000001" x2="551.0" y2="677.000000000001"/>
    <line x1="551.0" y1="677.000000000001" x2="560.0" y2="677.000000000001"/>
    <line x1="560.0" y1="677.000000000001" x2="560.0" y2="668.000000000001"/>
    <line x1="560.0" y1="668.000000000001" x2="551.0" y2="668.000000000001"/>
    <line x1="551.0" y1="668.000000000001" x2="551.0" y2="659.000000000001"/>
    <line x1="551.0" y1="659.000000000001" x2="560.0" y2="659.000000000001"/>
    <line x1="560.0" y1="659.000000000001" x2="560.0" y2="650.000000000001"/>
    <line x1="560.0" y1="650.000000000001" x2="551.0" y2="650.000000000001"/>
    <line x1="551.0" y1="650.000000000001" x2="551.0" y2="641.000000000001"/>
    <line x1="551.0" y1="641.000000000001" x2="560.0" y2="641.000000000001"/>
    <line x1="560.0" y1="641.000000000001" x2="560.0" y2="632.000000000001"/>
    <line x1="560.0" y1="632.000000000001" x2="551.0" y2="632.000000000001"/>
    <line x1="551.0" y1="632.000000000001" x2="551.0" y2="623.000000000001"/>
    <line x1="551.0" y1="623.000000000001" x2="560.0" y2="623.000000000001"/>
    <line x1="560.0" y1="623.000000000001" x2="560.0" y2="614.000000000001"/>
    <line x1="560.0" y1="614.000000000001" x2="551.0" y2="614.000000000001"/>
    <line x1="551.0" y1="614.000000000001" x2="551.0" y2="605.000000000001"/>
    <line x1="551.0" y1="605.000000000001" x2="560.0" y2="605.000000000001"/>
    <line x1="560.0" y1="605.000000000001" x2="560.0" y2="596.000000000001"/>
    <line x1="560.0" y1="596.000000000001" x2="551.0" y2="596.000000000001"/>
    <line x1="551.0" y1="596.000000000001" x2="551.0" y2="587.000000000001"/>
    <line x1="551.0" y1="587.000000000001" x2="560.0" y2="587.000000000001"/>
    <line x1="560.0" y1="587.000000000001" x2="560.0" y2="578.000000000001"/>
    <line x1="560.0" y1="578.000000000001" x2="551.0" y2="578.000000000001"/>
    <line x1="551.0" y1="578.000000000001" x2="551.0" y2="569.000000000001"/>
    <line x1="551.0" y1="569.000000000001" x2="560.0" y2="569.000000000001"/>
    <line x1="560.0" y1="569.000000000001" x2="560.0" y2="560.000000000001"/>
    <line x1="560.0" y1="560.000000000001" x2="551.0" y2="560.000000000001"/>
    <line x1="551.0" y1="560.000000000001" x2="551.0" y2="551.000000000001"/>
    <line x1="551.0" y1="551.000000000001" x2="560.0" y2="551.000000000001"/>
    <line x1="560.0" y1="551.000000000001" x2="560.0" y2="542.000000000001"/>
    <line x1="560.0" y1="542.000000000001" x2="551.0" y2="542.000000000001"/>
    <line x1="551.0" y1="542.000000000001" x2="551.0" y2="533.000000000001"/>
    <line x1="551.0" y1="533.000000000001" x2="560.0" y2="533.000000000001"/>
    <line x1="560.0" y1="533.000000000001" x2="560.0" y2="524.000000000001"/>
    <line x1="560.0" y1="524.000000000001" x2="551.0" y2="524.000000000001"/>
    <line x1="551.0" y1="524.000000000001" x2="551.0" y2="515.000000000001"/>
    <line x1="551.0" y1="515.000000000001" x2="560.0" y2="515.000000000001"/>
    <line x1="560.0" y1="515.000000000001" x2="560.0" y2="506.000000000001"/>
    <line x1="560.0" y1="506.000000000001" x2="551.0" y2="506.000000000001"/>
    <line x1="551.0" y1="506.000000000001" x2="551.0" y2="497.000000000001"/>
    <line x1="551.0" y1="497.000000000001" x2="560.0" y2="497.000000000001"/>
    <line x1="560.0" y1="497.000000000001" x2="560.0" y2="488.000000000001"/>
    <line x1="560.0" y1="488.000000000001" x2="551.0" y2="488.000000000001"/>
    <line x1="551.0" y1="488.000000000001" x2="551.0" y2="479.000000000001"/>
    <line x1="551.0" y1="479.000000000001" x2="560.0" y2="479.000000000001"/>
    <line x1="560.0" y1="479.000000000001" x2="560.0" y2="470.000000000001"/>
    <line x1="560.0" y1="470.000000000001" x2="551.0" y2="470.000000000001"/>
    <line x1="551.0" y1="470.000000000001" x2="551.0" y2="461.000000000001"/>
    <line x1="551.0" y1="461.000000000001" x2="560.0" y2="461.000000000001"/>
    <line x1="560.0" y1="461.000000000001" x2="560.0" y2="452.000000000001"/>
    <line x1="560.0" y1="452.000000000001" x2="551.0" y2="452.000000000001"/>
    <line x1="551.0" y1="452.000000000001" x2="551.0" y2="443.000000000001"/>
    <line x1="551.0" y1="443.000000000001" x2="560.0" y2="443.000000000001"/>
    <line x1="560.0" y1="443.000000000001" x2="560.0" y2="434.000000000001"/>
    <line x1="560.0" y1="434.000000000001" x2="551.0" y2="434.000000000001"/>
    <line x1="551.0" y1="434.000000000001" x2="551.0" y2="425.000000000001"/>
    <line x1="551.0" y1="425.000000000001" x2="560.0" y2="425.000000000001"/>
    <line x1="560.0" y1="425.000000000001" x2="560.0" y2="416.000000000001"/>
    <line x1="560.0" y1="416.000000000001" x2="551.0" y2="416.000000000001"/>
    <line x1="551.0" y1="416.000000000001" x2="551.0" y2="407.000000000001"/>
    <line x1="551.0" y1="407.000000000001" x2="560.0" y2="407.000000000001"/>
    <line x1="560.0" y1="407.000000000001" x2="560.0" y2="398.000000000001"/>
    <line x1="560.0" y1="398.000000000001" x2="551.0" y2="398.000000000001"/>
    <line x1="551.0" y1="398.000000000001" x2="551.0" y2="389.000000000001"/>
  </g>
</svg>
