<?xml version="1.0" standalone="no"?>
<!DOCTYPE svg PUBLIC "-//W3C//DTD SVG 1.1//EN" "http://www.w3.org/Graphics/SVG/1.1/DTD/svg11.dtd">
<svg width="170.0mm" height="220.0mm"
 viewBox="0 0 170.0 220.0"
 xmlns="http://www.w3.org/2000/svg" version="1.1"
 xmlns:xlink="http://www.w3.org/1999/xlink">
<desc>Output from Flights of Ideas SVG Sketchup Plugin</desc>

  <g id="face0" fill="none" stroke="rgb(0,0,255)" stroke-width="1" stroke-miterlimit="4" stroke-dasharray="none" stroke-linejoin="round" stroke-linecap="round">
    <line x1="47.2857142857143" y1="19.0000000000001" x2="28.4285714285714" y2="19.0000000000001"/>
    <line x1="28.4285714285714" y1="19.0000000000001" x2="28.4285714285714" y2="10.0000000000001"/>
    <line x1="28.4285714285714" y1="10.0000000000001" x2="19.0" y2="10.0000000000001"/>
    <line x1="19.0" y1="10.0000000000001" x2="19.0" y2="19.0000000000001"/>
    <line x1="19.0" y1="19.0000000000001" x2="10.0" y2="19.0000000000001"/>
    <line x1="10.0" y1="19.0000000000001" x2="10.0" y2="28.0"/>
    <line x1="10.0" y1="28.0" x2="19.0" y2="28.0000000000001"/>
    <line x1="19.0" y1="28.0000000000001" x2="19.0" y2="37.0000000000001"/>
    <line x1="19.0" y1="37.0000000000001" x2="10.0" y2="37.0000000000001"/>
    <line x1="10.0" y1="37.0000000000001" x2="10.0" y2="46.0000000000001"/>
    <line x1="10.0" y1="46.0000000000001" x2="19.0" y2="46.0000000000001"/>
    <line x1="19.0" y1="46.0000000000001" x2="19.0" y2="55.0000000000001"/>
    <line x1="19.0" y1="55.0000000000001" x2="10.0" y2="55.0000000000001"/>
    <line x1="10.0" y1="55.0000000000001" x2="10.0" y2="64.0000000000001"/>
    <line x1="10.0" y1="64.0000000000001" x2="19.0" y2="64.0000000000001"/>
    <line x1="19.0" y1="64.0000000000001" x2="19.0" y2="73.0000000000001"/>
    <line x1="19.0" y1="73.0000000000001" x2="10.0" y2="73.0000000000001"/>
    <line x1="10.0" y1="73.0000000000001" x2="10.0" y2="82.0000000000001"/>
    <line x1="10.0" y1="82.0000000000001" x2="19.0" y2="82.0000000000001"/>
    <line x1="19.0" y1="82.0000000000001" x2="19.0" y2="91.0000000000001"/>
    <line x1="19.0" y1="91.0000000000001" x2="10.0" y2="91.0000000000001"/>
    <line x1="10.0" y1="91.0000000000001" x2="10.0" y2="100.0"/>
    <line x1="10.0" y1="100.0" x2="19.0" y2="100.0"/>
    <line x1="19.0" y1="100.0" x2="19.0" y2="109.0"/>
    <line x1="19.0" y1="109.0" x2="10.0" y2="109.0"/>
    <line x1="10.0" y1="109.0" x2="10.0" y2="118.0"/>
    <line x1="10.0" y1="118.0" x2="19.0" y2="118.0"/>
    <line x1="19.0" y1="118.0" x2="19.0" y2="127.0"/>
    <line x1="19.0" y1="127.0" x2="10.0" y2="127.0"/>
    <line x1="10.0" y1="127.0" x2="10.0" y2="136.0"/>
    <line x1="10.0" y1="136.0" x2="19.0" y2="136.0"/>
    <line x1="19.0" y1="136.0" x2="19.0" y2="145.0"/>
    <line x1="19.0" y1="145.0" x2="10.0" y2="145.0"/>
    <line x1="10.0" y1="145.0" x2="10.0" y2="154.0"/>
    <line x1="10.0" y1="154.0" x2="19.0" y2="154.0"/>
    <line x1="19.0" y1="154.0" x2="19.0" y2="181.0"/>
    <line x1="19.0" y1="181.0" x2="10.0" y2="181.0"/>
    <line x1="10.0" y1="181.0" x2="10.0" y2="210.0"/>
    <line x1="10.0" y1="210.0" x2="28.4285714285714" y2="210.0"/>
    <line x1="28.4285714285714" y1="210.0" x2="28.4285714285714" y2="201.0"/>
    <line x1="28.4285714285714" y1="201.0" x2="37.8571428571429" y2="201.0"/>
    <line x1="37.8571428571429" y1="201.0" x2="37.8571428571429" y2="210.0"/>
    <line x1="37.8571428571429" y1="210.0" x2="47.2857142857143" y2="210.0"/>
    <line x1="47.2857142857143" y1="210.0" x2="47.2857142857143" y2="201.0"/>
    <line x1="47.2857142857143" y1="201.0" x2="56.7142857142858" y2="201.0"/>
    <line x1="56.7142857142858" y1="201.0" x2="56.7142857142858" y2="210.0"/>
    <line x1="56.7142857142858" y1="210.0" x2="66.1428571428571" y2="210.0"/>
    <line x1="66.1428571428571" y1="210.0" x2="66.1428571428571" y2="201.0"/>
    <line x1="66.1428571428571" y1="201.0" x2="75.5714285714286" y2="201.0"/>
    <line x1="75.5714285714286" y1="201.0" x2="75.5714285714286" y2="210.0"/>
    <line x1="75.5714285714286" y1="210.0" x2="85.0" y2="210.0"/>
    <line x1="85.0" y1="210.0" x2="85.0" y2="201.0"/>
    <line x1="85.0" y1="201.0" x2="94.4285714285714" y2="201.0"/>
    <line x1="94.4285714285714" y1="201.0" x2="94.4285714285714" y2="210.0"/>
    <line x1="94.4285714285714" y1="210.0" x2="103.857142857143" y2="210.0"/>
    <line x1="103.857142857143" y1="210.0" x2="103.857142857143" y2="201.0"/>
    <line x1="103.857142857143" y1="201.0" x2="113.285714285714" y2="201.0"/>
    <line x1="113.285714285714" y1="201.0" x2="113.285714285714" y2="210.0"/>
    <line x1="113.285714285714" y1="210.0" x2="122.714285714286" y2="210.0"/>
    <line x1="122.714285714286" y1="210.0" x2="122.714285714286" y2="201.0"/>
    <line x1="122.714285714286" y1="201.0" x2="132.142857142857" y2="201.0"/>
    <line x1="132.142857142857" y1="201.0" x2="132.142857142857" y2="210.0"/>
    <line x1="132.142857142857" y1="210.0" x2="141.571428571429" y2="210.0"/>
    <line x1="141.571428571429" y1="210.0" x2="141.571428571429" y2="201.0"/>
    <line x1="141.571428571429" y1="201.0" x2="160.0" y2="201.0"/>
    <line x1="160.0" y1="201.0" x2="160.0" y2="181.0"/>
    <line x1="160.0" y1="181.0" x2="151.0" y2="181.0"/>
    <line x1="151.0" y1="181.0" x2="151.0" y2="154.0"/>
    <line x1="151.0" y1="154.0" x2="160.0" y2="154.0"/>
    <line x1="160.0" y1="154.0" x2="160.0" y2="145.0"/>
    <line x1="160.0" y1="145.0" x2="151.0" y2="145.0"/>
    <line x1="151.0" y1="145.0" x2="151.0" y2="136.0"/>
    <line x1="151.0" y1="136.0" x2="160.0" y2="136.0"/>
    <line x1="160.0" y1="136.0" x2="160.0" y2="127.0"/>
    <line x1="160.0" y1="127.0" x2="151.0" y2="127.0"/>
    <line x1="151.0" y1="127.0" x2="151.0" y2="118.0"/>
    <line x1="151.0" y1="118.0" x2="160.0" y2="118.0"/>
    <line x1="160.0" y1="118.0" x2="160.0" y2="109.0"/>
    <line x1="160.0" y1="109.0" x2="151.0" y2="109.0"/>
    <line x1="151.0" y1="109.0" x2="151.0" y2="100.0"/>
    <line x1="151.0" y1="100.0" x2="160.0" y2="100.0"/>
    <line x1="160.0" y1="100.0" x2="160.0" y2="91.0000000000001"/>
    <line x1="160.0" y1="91.0000000000001" x2="151.0" y2="91.0000000000001"/>
    <line x1="151.0" y1="91.0000000000001" x2="151.0" y2="82.0000000000001"/>
    <line x1="151.0" y1="82.0000000000001" x2="160.0" y2="82.0000000000001"/>
    <line x1="160.0" y1="82.0000000000001" x2="160.0" y2="73.0000000000001"/>
    <line x1="160.0" y1="73.0000000000001" x2="151.0" y2="73.0000000000001"/>
    <line x1="151.0" y1="73.0000000000001" x2="151.0" y2="64.0000000000001"/>
    <line x1="151.0" y1="64.0000000000001" x2="160.0" y2="64.0000000000001"/>
    <line x1="160.0" y1="64.0000000000001" x2="160.0" y2="55.0000000000001"/>
    <line x1="160.0" y1="55.0000000000001" x2="151.0" y2="55.0000000000001"/>
    <line x1="151.0" y1="55.0000000000001" x2="151.0" y2="46.0000000000001"/>
    <line x1="151.0" y1="46.0000000000001" x2="160.0" y2="46.0000000000001"/>
    <line x1="160.0" y1="46.0000000000001" x2="160.0" y2="37.0000000000001"/>
    <line x1="160.0" y1="37.0000000000001" x2="151.0" y2="37.0000000000001"/>
    <line x1="151.0" y1="37.0000000000001" x2="151.0" y2="28.0000000000002"/>
    <line x1="151.0" y1="28.0000000000002" x2="160.0" y2="28.0000000000001"/>
    <line x1="160.0" y1="28.0000000000001" x2="160.0" y2="19.0000000000001"/>
    <line x1="160.0" y1="19.0000000000001" x2="151.0" y2="19.0000000000001"/>
    <line x1="151.0" y1="19.0000000000001" x2="151.0" y2="10.0"/>
    <line x1="151.0" y1="10.0" x2="141.571428571429" y2="10.0000000000002"/>
    <line x1="141.571428571429" y1="10.0000000000002" x2="141.571428571429" y2="19.0000000000001"/>
    <line x1="141.571428571429" y1="19.0000000000001" x2="132.142857142857" y2="19.0000000000001"/>
    <line x1="132.142857142857" y1="19.0000000000001" x2="132.142857142857" y2="10.0000000000001"/>
    <line x1="132.142857142857" y1="10.0000000000001" x2="122.714285714286" y2="10.0000000000001"/>
    <line x1="122.714285714286" y1="10.0000000000001" x2="122.714285714286" y2="19.0000000000001"/>
    <line x1="122.714285714286" y1="19.0000000000001" x2="113.285714285714" y2="19.0000000000001"/>
    <line x1="113.285714285714" y1="19.0000000000001" x2="113.285714285714" y2="10.0000000000001"/>
    <line x1="113.285714285714" y1="10.0000000000001" x2="103.857142857143" y2="10.0000000000001"/>
    <line x1="103.857142857143" y1="10.0000000000001" x2="103.857142857143" y2="19.0000000000001"/>
    <line x1="103.857142857143" y1="19.0000000000001" x2="94.4285714285714" y2="19.0000000000001"/>
    <line x1="94.4285714285714" y1="19.0000000000001" x2="94.4285714285714" y2="10.0000000000001"/>
    <line x1="94.4285714285714" y1="10.0000000000001" x2="85.0" y2="10.0000000000001"/>
    <line x1="85.0" y1="10.0000000000001" x2="85.0" y2="19.0000000000001"/>
    <line x1="85.0" y1="19.0000000000001" x2="75.5714285714286" y2="19.0000000000001"/>
    <line x1="75.5714285714286" y1="19.0000000000001" x2="75.5714285714286" y2="10.0000000000001"/>
    <line x1="75.5714285714286" y1="10.0000000000001" x2="66.1428571428571" y2="10.0000000000001"/>
    <line x1="66.1428571428571" y1="10.0000000000001" x2="66.1428571428571" y2="19.0000000000001"/>
    <line x1="66.1428571428571" y1="19.0000000000001" x2="56.7142857142858" y2="19.0000000000001"/>
    <line x1="56.7142857142858" y1="19.0000000000001" x2="56.7142857142858" y2="10.0000000000001"/>
    <line x1="56.7142857142858" y1="10.0000000000001" x2="47.2857142857143" y2="10.0000000000001"/>
    <line x1="47.2857142857143" y1="10.0000000000001" x2="47.2857142857143" y2="19.0000000000001"/>
  </g>
</svg>
