<?xml version="1.0" standalone="no"?>
<!DOCTYPE svg PUBLIC "-//W3C//DTD SVG 1.1//EN" "http://www.w3.org/Graphics/SVG/1.1/DTD/svg11.dtd">
<svg width="170.0mm" height="1130.0mm"
 viewBox="0 0 170.0 1130.0"
 xmlns="http://www.w3.org/2000/svg" version="1.1"
 xmlns:xlink="http://www.w3.org/1999/xlink">
<desc>Output from Flights of Ideas SVG Sketchup Plugin</desc>

  <g id="face0" fill="none" stroke="rgb(0,0,255)" stroke-width="1" stroke-miterlimit="4" stroke-dasharray="none" stroke-linejoin="round" stroke-linecap="round">
    <line x1="37.8571428571429" y1="560.0" x2="37.8571428571429" y2="551.0"/>
    <line x1="37.8571428571429" y1="551.0" x2="47.2857142857143" y2="551.0"/>
    <line x1="47.2857142857143" y1="551.0" x2="47.2857142857143" y2="560.0"/>
    <line x1="47.2857142857143" y1="560.0" x2="56.7142857142858" y2="560.0"/>
    <line x1="56.7142857142858" y1="560.0" x2="56.7142857142858" y2="551.0"/>
    <line x1="56.7142857142858" y1="551.0" x2="66.1428571428571" y2="551.0"/>
    <line x1="66.1428571428571" y1="551.0" x2="66.1428571428571" y2="560.0"/>
    <line x1="66.1428571428571" y1="560.0" x2="75.5714285714286" y2="560.0"/>
    <line x1="75.5714285714286" y1="560.0" x2="75.5714285714286" y2="551.0"/>
    <line x1="75.5714285714286" y1="551.0" x2="85.0000000000001" y2="551.0"/>
    <line x1="85.0000000000001" y1="551.0" x2="85.0000000000001" y2="560.0"/>
    <line x1="85.0000000000001" y1="560.0" x2="94.4285714285714" y2="560.0"/>
    <line x1="94.4285714285714" y1="560.0" x2="94.4285714285714" y2="551.0"/>
    <line x1="94.4285714285714" y1="551.0" x2="103.857142857143" y2="551.0"/>
    <line x1="103.857142857143" y1="551.0" x2="103.857142857143" y2="560.0"/>
    <line x1="103.857142857143" y1="560.0" x2="113.285714285714" y2="560.0"/>
    <line x1="113.285714285714" y1="560.0" x2="113.285714285714" y2="551.0"/>
    <line x1="113.285714285714" y1="551.0" x2="122.714285714286" y2="551.0"/>
    <line x1="122.714285714286" y1="551.0" x2="122.714285714286" y2="560.0"/>
    <line x1="122.714285714286" y1="560.0" x2="132.142857142857" y2="560.0"/>
    <line x1="132.142857142857" y1="560.0" x2="132.142857142857" y2="551.0"/>
    <line x1="132.142857142857" y1="551.0" x2="141.571428571429" y2="551.0"/>
    <line x1="141.571428571429" y1="551.0" x2="141.571428571429" y2="560.0"/>
    <line x1="141.571428571429" y1="560.0" x2="160.0" y2="560.0"/>
    <line x1="160.0" y1="560.0" x2="160.0" y2="10.0000000000001"/>
    <line x1="160.0" y1="10.0000000000001" x2="141.571428571429" y2="10.0"/>
    <line x1="141.571428571429" y1="10.0" x2="141.571428571429" y2="19.0"/>
    <line x1="141.571428571429" y1="19.0" x2="132.142857142857" y2="19.0000000000001"/>
    <line x1="132.142857142857" y1="19.0000000000001" x2="132.142857142857" y2="10.0000000000001"/>
    <line x1="132.142857142857" y1="10.0000000000001" x2="122.714285714286" y2="10.0000000000001"/>
    <line x1="122.714285714286" y1="10.0000000000001" x2="122.714285714286" y2="19.0000000000001"/>
    <line x1="122.714285714286" y1="19.0000000000001" x2="113.285714285714" y2="19.0000000000001"/>
    <line x1="113.285714285714" y1="19.0000000000001" x2="113.285714285714" y2="10.0000000000001"/>
    <line x1="113.285714285714" y1="10.0000000000001" x2="103.857142857143" y2="10.0000000000001"/>
    <line x1="103.857142857143" y1="10.0000000000001" x2="103.857142857143" y2="19.0000000000001"/>
    <line x1="103.857142857143" y1="19.0000000000001" x2="94.4285714285714" y2="19.0000000000001"/>
    <line x1="94.4285714285714" y1="19.0000000000001" x2="94.4285714285715" y2="10.0"/>
    <line x1="94.4285714285715" y1="10.0" x2="85.0000000000001" y2="10.0000000000001"/>
    <line x1="85.0000000000001" y1="10.0000000000001" x2="85.0000000000001" y2="19.0000000000001"/>
    <line x1="85.0000000000001" y1="19.0000000000001" x2="75.5714285714287" y2="19.0000000000001"/>
    <line x1="75.5714285714287" y1="19.0000000000001" x2="75.5714285714286" y2="10.0000000000001"/>
    <line x1="75.5714285714286" y1="10.0000000000001" x2="66.1428571428572" y2="10.0000000000001"/>
    <line x1="66.1428571428572" y1="10.0000000000001" x2="66.1428571428572" y2="19.0000000000001"/>
    <line x1="66.1428571428572" y1="19.0000000000001" x2="56.7142857142858" y2="19.0"/>
    <line x1="56.7142857142858" y1="19.0" x2="56.7142857142858" y2="10.0"/>
    <line x1="56.7142857142858" y1="10.0" x2="47.2857142857143" y2="10.0000000000001"/>
    <line x1="47.2857142857143" y1="10.0000000000001" x2="47.2857142857143" y2="19.0000000000002"/>
    <line x1="47.2857142857143" y1="19.0000000000002" x2="37.8571428571429" y2="19.0000000000001"/>
    <line x1="37.8571428571429" y1="19.0000000000001" x2="37.8571428571429" y2="10.0000000000001"/>
    <line x1="37.8571428571429" y1="10.0000000000001" x2="28.4285714285715" y2="10.0000000000001"/>
    <line x1="28.4285714285715" y1="10.0000000000001" x2="28.4285714285715" y2="19.0000000000002"/>
    <line x1="28.4285714285715" y1="19.0000000000002" x2="10.0000000000001" y2="19.0"/>
    <line x1="10.0000000000001" y1="19.0" x2="10.0" y2="551.0"/>
    <line x1="10.0" y1="551.0" x2="28.4285714285714" y2="551.0"/>
    <line x1="28.4285714285714" y1="551.0" x2="28.4285714285714" y2="560.0"/>
    <line x1="28.4285714285714" y1="560.0" x2="37.8571428571429" y2="560.0"/>
  </g>
  <g id="face1" fill="none" stroke="rgb(0,0,255)" stroke-width="1" stroke-miterlimit="4" stroke-dasharray="none" stroke-linejoin="round" stroke-linecap="round">
    <line x1="47.2857142857143" y1="579.0" x2="37.8571428571429" y2="579.0"/>
    <line x1="37.8571428571429" y1="579.0" x2="37.8571428571429" y2="570.0"/>
    <line x1="37.8571428571429" y1="570.0" x2="28.4285714285714" y2="570.0"/>
    <line x1="28.4285714285714" y1="570.0" x2="28.4285714285714" y2="579.0"/>
    <line x1="28.4285714285714" y1="579.0" x2="10.0" y2="579.0"/>
    <line x1="10.0" y1="579.0" x2="10.0000000000001" y2="1111.0"/>
    <line x1="10.0000000000001" y1="1111.0" x2="28.4285714285715" y2="1111.0"/>
    <line x1="28.4285714285715" y1="1111.0" x2="28.4285714285714" y2="1120.0"/>
    <line x1="28.4285714285714" y1="1120.0" x2="37.8571428571429" y2="1120.0"/>
    <line x1="37.8571428571429" y1="1120.0" x2="37.8571428571429" y2="1111.0"/>
    <line x1="37.8571428571429" y1="1111.0" x2="47.2857142857143" y2="1111.0"/>
    <line x1="47.2857142857143" y1="1111.0" x2="47.2857142857143" y2="1120.0"/>
    <line x1="47.2857142857143" y1="1120.0" x2="56.7142857142857" y2="1120.0"/>
    <line x1="56.7142857142857" y1="1120.0" x2="56.7142857142858" y2="1111.0"/>
    <line x1="56.7142857142858" y1="1111.0" x2="66.1428571428572" y2="1111.0"/>
    <line x1="66.1428571428572" y1="1111.0" x2="66.1428571428572" y2="1120.0"/>
    <line x1="66.1428571428572" y1="1120.0" x2="75.5714285714286" y2="1120.0"/>
    <line x1="75.5714285714286" y1="1120.0" x2="75.5714285714286" y2="1111.0"/>
    <line x1="75.5714285714286" y1="1111.0" x2="85.0" y2="1111.0"/>
    <line x1="85.0" y1="1111.0" x2="85.0000000000001" y2="1120.0"/>
    <line x1="85.0000000000001" y1="1120.0" x2="94.4285714285715" y2="1120.0"/>
    <line x1="94.4285714285715" y1="1120.0" x2="94.4285714285714" y2="1111.0"/>
    <line x1="94.4285714285714" y1="1111.0" x2="103.857142857143" y2="1111.0"/>
    <line x1="103.857142857143" y1="1111.0" x2="103.857142857143" y2="1120.0"/>
    <line x1="103.857142857143" y1="1120.0" x2="113.285714285714" y2="1120.0"/>
    <line x1="113.285714285714" y1="1120.0" x2="113.285714285714" y2="1111.0"/>
    <line x1="113.285714285714" y1="1111.0" x2="122.714285714286" y2="1111.0"/>
    <line x1="122.714285714286" y1="1111.0" x2="122.714285714286" y2="1120.0"/>
    <line x1="122.714285714286" y1="1120.0" x2="132.142857142857" y2="1120.0"/>
    <line x1="132.142857142857" y1="1120.0" x2="132.142857142857" y2="1111.0"/>
    <line x1="132.142857142857" y1="1111.0" x2="141.571428571429" y2="1111.0"/>
    <line x1="141.571428571429" y1="1111.0" x2="141.571428571429" y2="1120.0"/>
    <line x1="141.571428571429" y1="1120.0" x2="160.0" y2="1120.0"/>
    <line x1="160.0" y1="1120.0" x2="160.0" y2="570.0"/>
    <line x1="160.0" y1="570.0" x2="141.571428571429" y2="570.0"/>
    <line x1="141.571428571429" y1="570.0" x2="141.571428571429" y2="579.0"/>
    <line x1="141.571428571429" y1="579.0" x2="132.142857142857" y2="579.0"/>
    <line x1="132.142857142857" y1="579.0" x2="132.142857142857" y2="570.0"/>
    <line x1="132.142857142857" y1="570.0" x2="122.714285714286" y2="570.0"/>
    <line x1="122.714285714286" y1="570.0" x2="122.714285714286" y2="579.0"/>
    <line x1="122.714285714286" y1="579.0" x2="113.285714285714" y2="579.0"/>
    <line x1="113.285714285714" y1="579.0" x2="113.285714285714" y2="570.0"/>
    <line x1="113.285714285714" y1="570.0" x2="103.857142857143" y2="570.0"/>
    <line x1="103.857142857143" y1="570.0" x2="103.857142857143" y2="579.0"/>
    <line x1="103.857142857143" y1="579.0" x2="94.4285714285714" y2="579.0"/>
    <line x1="94.4285714285714" y1="579.0" x2="94.4285714285714" y2="570.0"/>
    <line x1="94.4285714285714" y1="570.0" x2="85.0" y2="570.0"/>
    <line x1="85.0" y1="570.0" x2="85.0" y2="579.0"/>
    <line x1="85.0" y1="579.0" x2="75.5714285714286" y2="579.0"/>
    <line x1="75.5714285714286" y1="579.0" x2="75.5714285714286" y2="570.0"/>
    <line x1="75.5714285714286" y1="570.0" x2="66.1428571428571" y2="570.0"/>
    <line x1="66.1428571428571" y1="570.0" x2="66.1428571428572" y2="579.0"/>
    <line x1="66.1428571428572" y1="579.0" x2="56.7142857142857" y2="579.0"/>
    <line x1="56.7142857142857" y1="579.0" x2="56.7142857142857" y2="570.0"/>
    <line x1="56.7142857142857" y1="570.0" x2="47.2857142857143" y2="570.0"/>
    <line x1="47.2857142857143" y1="570.0" x2="47.2857142857143" y2="579.0"/>
  </g>
</svg>
