<?xml version="1.0" standalone="no"?>
<!DOCTYPE svg PUBLIC "-//W3C//DTD SVG 1.1//EN" "http://www.w3.org/Graphics/SVG/1.1/DTD/svg11.dtd">
<svg width="170.0mm" height="229.0mm"
 viewBox="0 0 170.0 229.0"
 xmlns="http://www.w3.org/2000/svg" version="1.1"
 xmlns:xlink="http://www.w3.org/1999/xlink">
<desc>Output from Flights of Ideas SVG Sketchup Plugin</desc>

  <g id="face0" fill="none" stroke="rgb(0,0,255)" stroke-width="1" stroke-miterlimit="4" stroke-dasharray="none" stroke-linejoin="round" stroke-linecap="round">
    <line x1="141.571428571429" y1="219.0" x2="141.571428571429" y2="210.0"/>
    <line x1="141.571428571429" y1="210.0" x2="151.0" y2="210.0"/>
    <line x1="151.0" y1="210.0" x2="160.0" y2="210.0"/>
    <line x1="160.0" y1="210.0" x2="160.0" y2="201.0"/>
    <line x1="160.0" y1="201.0" x2="151.0" y2="201.0"/>
    <line x1="151.0" y1="201.0" x2="151.0" y2="192.0"/>
    <line x1="151.0" y1="192.0" x2="160.0" y2="192.0"/>
    <line x1="160.0" y1="192.0" x2="160.0" y2="183.0"/>
    <line x1="160.0" y1="183.0" x2="151.0" y2="183.0"/>
    <line x1="151.0" y1="183.0" x2="151.0" y2="174.0"/>
    <line x1="151.0" y1="174.0" x2="160.0" y2="174.0"/>
    <line x1="160.0" y1="174.0" x2="160.0" y2="165.0"/>
    <line x1="160.0" y1="165.0" x2="151.0" y2="165.0"/>
    <line x1="151.0" y1="165.0" x2="151.0" y2="156.0"/>
    <line x1="151.0" y1="156.0" x2="160.0" y2="156.0"/>
    <line x1="160.0" y1="156.0" x2="160.0" y2="147.0"/>
    <line x1="160.0" y1="147.0" x2="151.0" y2="147.0"/>
    <line x1="151.0" y1="147.0" x2="151.0" y2="138.0"/>
    <line x1="151.0" y1="138.0" x2="160.0" y2="138.0"/>
    <line x1="160.0" y1="138.0" x2="160.0" y2="129.0"/>
    <line x1="160.0" y1="129.0" x2="151.0" y2="129.0"/>
    <line x1="151.0" y1="129.0" x2="151.0" y2="120.0"/>
    <line x1="151.0" y1="120.0" x2="160.0" y2="120.0"/>
    <line x1="160.0" y1="120.0" x2="160.0" y2="111.0"/>
    <line x1="160.0" y1="111.0" x2="151.0" y2="111.0"/>
    <line x1="151.0" y1="111.0" x2="151.0" y2="102.0"/>
    <line x1="151.0" y1="102.0" x2="160.0" y2="102.0"/>
    <line x1="160.0" y1="102.0" x2="160.0" y2="93.0"/>
    <line x1="160.0" y1="93.0" x2="151.0" y2="93.0"/>
    <line x1="151.0" y1="93.0" x2="151.0" y2="84.0000000000001"/>
    <line x1="151.0" y1="84.0000000000001" x2="160.0" y2="84.0000000000001"/>
    <line x1="160.0" y1="84.0000000000001" x2="160.0" y2="75.0000000000001"/>
    <line x1="160.0" y1="75.0000000000001" x2="151.0" y2="75.0000000000001"/>
    <line x1="151.0" y1="75.0000000000001" x2="151.0" y2="66.0000000000001"/>
    <line x1="151.0" y1="66.0000000000001" x2="160.0" y2="66.0000000000001"/>
    <line x1="160.0" y1="66.0000000000001" x2="160.0" y2="57.0000000000001"/>
    <line x1="160.0" y1="57.0000000000001" x2="151.0" y2="57.0000000000001"/>
    <line x1="151.0" y1="57.0000000000001" x2="151.0" y2="39.0000000000001"/>
    <line x1="151.0" y1="39.0000000000001" x2="160.0" y2="39.0000000000001"/>
    <line x1="160.0" y1="39.0000000000001" x2="160.0" y2="19.0000000000001"/>
    <line x1="160.0" y1="19.0000000000001" x2="141.571428571429" y2="19.0000000000001"/>
    <line x1="141.571428571429" y1="19.0000000000001" x2="141.571428571429" y2="10.0000000000001"/>
    <line x1="141.571428571429" y1="10.0000000000001" x2="132.142857142857" y2="10.0000000000001"/>
    <line x1="132.142857142857" y1="10.0000000000001" x2="132.142857142857" y2="19.0000000000001"/>
    <line x1="132.142857142857" y1="19.0000000000001" x2="122.714285714286" y2="19.0000000000001"/>
    <line x1="122.714285714286" y1="19.0000000000001" x2="122.714285714286" y2="10.0"/>
    <line x1="122.714285714286" y1="10.0" x2="113.285714285714" y2="10.0000000000001"/>
    <line x1="113.285714285714" y1="10.0000000000001" x2="113.285714285714" y2="19.0000000000001"/>
    <line x1="113.285714285714" y1="19.0000000000001" x2="103.857142857143" y2="19.0000000000001"/>
    <line x1="103.857142857143" y1="19.0000000000001" x2="103.857142857143" y2="10.0"/>
    <line x1="103.857142857143" y1="10.0" x2="94.4285714285715" y2="10.0000000000001"/>
    <line x1="94.4285714285715" y1="10.0000000000001" x2="94.4285714285715" y2="19.0000000000001"/>
    <line x1="94.4285714285715" y1="19.0000000000001" x2="85.0000000000001" y2="19.0000000000001"/>
    <line x1="85.0000000000001" y1="19.0000000000001" x2="85.0" y2="10.0000000000001"/>
    <line x1="85.0" y1="10.0000000000001" x2="75.5714285714286" y2="10.0000000000001"/>
    <line x1="75.5714285714286" y1="10.0000000000001" x2="75.5714285714286" y2="19.0000000000001"/>
    <line x1="75.5714285714286" y1="19.0000000000001" x2="66.1428571428572" y2="19.0"/>
    <line x1="66.1428571428572" y1="19.0" x2="66.1428571428572" y2="10.0000000000001"/>
    <line x1="66.1428571428572" y1="10.0000000000001" x2="56.7142857142858" y2="10.0000000000001"/>
    <line x1="56.7142857142858" y1="10.0000000000001" x2="56.7142857142858" y2="19.0000000000001"/>
    <line x1="56.7142857142858" y1="19.0000000000001" x2="47.2857142857143" y2="19.0"/>
    <line x1="47.2857142857143" y1="19.0" x2="47.2857142857143" y2="10.0000000000001"/>
    <line x1="47.2857142857143" y1="10.0000000000001" x2="37.8571428571429" y2="10.0000000000001"/>
    <line x1="37.8571428571429" y1="10.0000000000001" x2="37.8571428571429" y2="19.0000000000001"/>
    <line x1="37.8571428571429" y1="19.0000000000001" x2="28.4285714285715" y2="18.9999999999999"/>
    <line x1="28.4285714285715" y1="18.9999999999999" x2="28.4285714285715" y2="10.0"/>
    <line x1="28.4285714285715" y1="10.0" x2="10.0000000000001" y2="10.0000000000001"/>
    <line x1="10.0000000000001" y1="10.0000000000001" x2="10.0" y2="39.0000000000001"/>
    <line x1="10.0" y1="39.0000000000001" x2="19.0000000000001" y2="39.0000000000001"/>
    <line x1="19.0000000000001" y1="39.0000000000001" x2="19.0000000000001" y2="57.0"/>
    <line x1="19.0000000000001" y1="57.0" x2="10.0000000000001" y2="57.0"/>
    <line x1="10.0000000000001" y1="57.0" x2="10.0" y2="66.0000000000001"/>
    <line x1="10.0" y1="66.0000000000001" x2="19.0000000000001" y2="66.0000000000001"/>
    <line x1="19.0000000000001" y1="66.0000000000001" x2="19.0000000000001" y2="75.0000000000001"/>
    <line x1="19.0000000000001" y1="75.0000000000001" x2="10.0" y2="75.0000000000001"/>
    <line x1="10.0" y1="75.0000000000001" x2="10.0000000000001" y2="84.0"/>
    <line x1="10.0000000000001" y1="84.0" x2="19.0000000000001" y2="84.0000000000001"/>
    <line x1="19.0000000000001" y1="84.0000000000001" x2="19.0000000000001" y2="93.0"/>
    <line x1="19.0000000000001" y1="93.0" x2="10.0" y2="93.0"/>
    <line x1="10.0" y1="93.0" x2="10.0000000000001" y2="102.0"/>
    <line x1="10.0000000000001" y1="102.0" x2="19.0" y2="102.0"/>
    <line x1="19.0" y1="102.0" x2="19.0000000000001" y2="111.0"/>
    <line x1="19.0000000000001" y1="111.0" x2="10.0000000000001" y2="111.0"/>
    <line x1="10.0000000000001" y1="111.0" x2="10.0" y2="120.0"/>
    <line x1="10.0" y1="120.0" x2="19.0000000000001" y2="120.0"/>
    <line x1="19.0000000000001" y1="120.0" x2="19.0000000000001" y2="129.0"/>
    <line x1="19.0000000000001" y1="129.0" x2="10.0" y2="129.0"/>
    <line x1="10.0" y1="129.0" x2="10.0" y2="138.0"/>
    <line x1="10.0" y1="138.0" x2="19.0000000000001" y2="138.0"/>
    <line x1="19.0000000000001" y1="138.0" x2="19.0" y2="147.0"/>
    <line x1="19.0" y1="147.0" x2="10.0" y2="147.0"/>
    <line x1="10.0" y1="147.0" x2="10.0" y2="156.0"/>
    <line x1="10.0" y1="156.0" x2="19.0000000000001" y2="156.0"/>
    <line x1="19.0000000000001" y1="156.0" x2="19.0000000000001" y2="165.0"/>
    <line x1="19.0000000000001" y1="165.0" x2="10.0" y2="165.0"/>
    <line x1="10.0" y1="165.0" x2="10.0" y2="174.0"/>
    <line x1="10.0" y1="174.0" x2="19.0000000000001" y2="174.0"/>
    <line x1="19.0000000000001" y1="174.0" x2="19.0" y2="183.0"/>
    <line x1="19.0" y1="183.0" x2="10.0" y2="183.0"/>
    <line x1="10.0" y1="183.0" x2="10.0" y2="192.0"/>
    <line x1="10.0" y1="192.0" x2="19.0000000000001" y2="192.0"/>
    <line x1="19.0000000000001" y1="192.0" x2="19.0000000000001" y2="201.0"/>
    <line x1="19.0000000000001" y1="201.0" x2="10.0" y2="201.0"/>
    <line x1="10.0" y1="201.0" x2="10.0" y2="210.0"/>
    <line x1="10.0" y1="210.0" x2="19.0000000000001" y2="210.0"/>
    <line x1="19.0000000000001" y1="210.0" x2="28.4285714285715" y2="210.0"/>
    <line x1="28.4285714285715" y1="210.0" x2="28.4285714285715" y2="219.0"/>
    <line x1="28.4285714285715" y1="219.0" x2="47.2857142857143" y2="219.0"/>
    <line x1="47.2857142857143" y1="219.0" x2="47.2857142857143" y2="210.0"/>
    <line x1="47.2857142857143" y1="210.0" x2="56.7142857142858" y2="210.0"/>
    <line x1="56.7142857142858" y1="210.0" x2="56.7142857142858" y2="219.0"/>
    <line x1="56.7142857142858" y1="219.0" x2="66.1428571428572" y2="219.0"/>
    <line x1="66.1428571428572" y1="219.0" x2="66.1428571428572" y2="210.0"/>
    <line x1="66.1428571428572" y1="210.0" x2="75.5714285714286" y2="210.0"/>
    <line x1="75.5714285714286" y1="210.0" x2="75.5714285714286" y2="219.0"/>
    <line x1="75.5714285714286" y1="219.0" x2="85.0" y2="219.0"/>
    <line x1="85.0" y1="219.0" x2="85.0" y2="210.0"/>
    <line x1="85.0" y1="210.0" x2="94.4285714285715" y2="210.0"/>
    <line x1="94.4285714285715" y1="210.0" x2="94.4285714285715" y2="219.0"/>
    <line x1="94.4285714285715" y1="219.0" x2="103.857142857143" y2="219.0"/>
    <line x1="103.857142857143" y1="219.0" x2="103.857142857143" y2="210.0"/>
    <line x1="103.857142857143" y1="210.0" x2="113.285714285714" y2="210.0"/>
    <line x1="113.285714285714" y1="210.0" x2="113.285714285714" y2="219.0"/>
    <line x1="113.285714285714" y1="219.0" x2="122.714285714286" y2="219.0"/>
    <line x1="122.714285714286" y1="219.0" x2="122.714285714286" y2="210.0"/>
    <line x1="122.714285714286" y1="210.0" x2="132.142857142857" y2="210.0"/>
    <line x1="132.142857142857" y1="210.0" x2="132.142857142857" y2="219.0"/>
    <line x1="132.142857142857" y1="219.0" x2="141.571428571429" y2="219.0"/>
  </g>
</svg>
