<?xml version="1.0" standalone="no"?>
<!DOCTYPE svg PUBLIC "-//W3C//DTD SVG 1.1//EN" "http://www.w3.org/Graphics/SVG/1.1/DTD/svg11.dtd">
<svg width="570.0mm" height="2654.0mm"
 viewBox="0 0 570.0 2654.0"
 xmlns="http://www.w3.org/2000/svg" version="1.1"
 xmlns:xlink="http://www.w3.org/1999/xlink">
<desc>Output from Flights of Ideas SVG Sketchup Plugin</desc>

  <g id="face0" fill="none" stroke="rgb(0,0,255)" stroke-width="1" stroke-miterlimit="4" stroke-dasharray="none" stroke-linejoin="round" stroke-linecap="round">
    <line x1="47.2857142857143" y1="19.0000000000001" x2="37.8571428571429" y2="19.0000000000001"/>
    <line x1="37.8571428571429" y1="19.0000000000001" x2="37.8571428571429" y2="10.0"/>
    <line x1="37.8571428571429" y1="10.0" x2="28.4285714285714" y2="10.0"/>
    <line x1="28.4285714285714" y1="10.0" x2="28.4285714285714" y2="19.0000000000001"/>
    <line x1="28.4285714285714" y1="19.0000000000001" x2="10.0" y2="19.0000000000001"/>
    <line x1="10.0" y1="19.0000000000001" x2="10.0000000000001" y2="551.0"/>
    <line x1="10.0000000000001" y1="551.0" x2="28.4285714285715" y2="551.0"/>
    <line x1="28.4285714285715" y1="551.0" x2="28.4285714285714" y2="560.0"/>
    <line x1="28.4285714285714" y1="560.0" x2="37.8571428571429" y2="560.0"/>
    <line x1="37.8571428571429" y1="560.0" x2="37.8571428571429" y2="551.0"/>
    <line x1="37.8571428571429" y1="551.0" x2="47.2857142857143" y2="551.0"/>
    <line x1="47.2857142857143" y1="551.0" x2="47.2857142857143" y2="560.0"/>
    <line x1="47.2857142857143" y1="560.0" x2="56.7142857142857" y2="560.0"/>
    <line x1="56.7142857142857" y1="560.0" x2="56.7142857142858" y2="551.0"/>
    <line x1="56.7142857142858" y1="551.0" x2="66.1428571428572" y2="551.0"/>
    <line x1="66.1428571428572" y1="551.0" x2="66.1428571428572" y2="560.0"/>
    <line x1="66.1428571428572" y1="560.0" x2="75.5714285714286" y2="560.0"/>
    <line x1="75.5714285714286" y1="560.0" x2="75.5714285714286" y2="551.0"/>
    <line x1="75.5714285714286" y1="551.0" x2="85.0" y2="551.0"/>
    <line x1="85.0" y1="551.0" x2="85.0000000000001" y2="560.0"/>
    <line x1="85.0000000000001" y1="560.0" x2="94.4285714285715" y2="560.0"/>
    <line x1="94.4285714285715" y1="560.0" x2="94.4285714285714" y2="551.0"/>
    <line x1="94.4285714285714" y1="551.0" x2="103.857142857143" y2="551.0"/>
    <line x1="103.857142857143" y1="551.0" x2="103.857142857143" y2="560.0"/>
    <line x1="103.857142857143" y1="560.0" x2="113.285714285714" y2="560.0"/>
    <line x1="113.285714285714" y1="560.0" x2="113.285714285714" y2="551.0"/>
    <line x1="113.285714285714" y1="551.0" x2="122.714285714286" y2="551.0"/>
    <line x1="122.714285714286" y1="551.0" x2="122.714285714286" y2="560.0"/>
    <line x1="122.714285714286" y1="560.0" x2="132.142857142857" y2="560.0"/>
    <line x1="132.142857142857" y1="560.0" x2="132.142857142857" y2="551.0"/>
    <line x1="132.142857142857" y1="551.0" x2="141.571428571429" y2="551.0"/>
    <line x1="141.571428571429" y1="551.0" x2="141.571428571429" y2="560.0"/>
    <line x1="141.571428571429" y1="560.0" x2="160.0" y2="560.0"/>
    <line x1="160.0" y1="560.0" x2="160.0" y2="10.0"/>
    <line x1="160.0" y1="10.0" x2="141.571428571429" y2="10.0"/>
    <line x1="141.571428571429" y1="10.0" x2="141.571428571429" y2="19.0000000000001"/>
    <line x1="141.571428571429" y1="19.0000000000001" x2="132.142857142857" y2="19.0000000000001"/>
    <line x1="132.142857142857" y1="19.0000000000001" x2="132.142857142857" y2="10.0"/>
    <line x1="132.142857142857" y1="10.0" x2="122.714285714286" y2="10.0000000000001"/>
    <line x1="122.714285714286" y1="10.0000000000001" x2="122.714285714286" y2="19.0000000000001"/>
    <line x1="122.714285714286" y1="19.0000000000001" x2="113.285714285714" y2="19.0000000000001"/>
    <line x1="113.285714285714" y1="19.0000000000001" x2="113.285714285714" y2="10.0000000000001"/>
    <line x1="113.285714285714" y1="10.0000000000001" x2="103.857142857143" y2="10.0000000000001"/>
    <line x1="103.857142857143" y1="10.0000000000001" x2="103.857142857143" y2="19.0000000000001"/>
    <line x1="103.857142857143" y1="19.0000000000001" x2="94.4285714285714" y2="19.0000000000001"/>
    <line x1="94.4285714285714" y1="19.0000000000001" x2="94.4285714285714" y2="10.0"/>
    <line x1="94.4285714285714" y1="10.0" x2="85.0" y2="10.0"/>
    <line x1="85.0" y1="10.0" x2="85.0" y2="19.0000000000001"/>
    <line x1="85.0" y1="19.0000000000001" x2="75.5714285714286" y2="19.0000000000001"/>
    <line x1="75.5714285714286" y1="19.0000000000001" x2="75.5714285714286" y2="10.0"/>
    <line x1="75.5714285714286" y1="10.0" x2="66.1428571428571" y2="10.0"/>
    <line x1="66.1428571428571" y1="10.0" x2="66.1428571428572" y2="19.0000000000001"/>
    <line x1="66.1428571428572" y1="19.0000000000001" x2="56.7142857142857" y2="19.0000000000001"/>
    <line x1="56.7142857142857" y1="19.0000000000001" x2="56.7142857142857" y2="10.0"/>
    <line x1="56.7142857142857" y1="10.0" x2="47.2857142857143" y2="10.0"/>
    <line x1="47.2857142857143" y1="10.0" x2="47.2857142857143" y2="19.0000000000001"/>
  </g>
  <g id="face1" fill="none" stroke="rgb(0,0,255)" stroke-width="1" stroke-miterlimit="4" stroke-dasharray="none" stroke-linejoin="round" stroke-linecap="round">
    <line x1="18.9999999999999" y1="905.0" x2="18.9999999999999" y2="914.0"/>
    <line x1="18.9999999999999" y1="914.0" x2="10.0" y2="914.0"/>
    <line x1="10.0" y1="914.0" x2="10.0" y2="923.0"/>
    <line x1="10.0" y1="923.0" x2="18.9999999999999" y2="923.0"/>
    <line x1="18.9999999999999" y1="923.0" x2="18.9999999999999" y2="941.0"/>
    <line x1="18.9999999999999" y1="941.0" x2="10.0" y2="941.0"/>
    <line x1="10.0" y1="941.0" x2="10.0" y2="970.0"/>
    <line x1="10.0" y1="970.0" x2="28.4285714285714" y2="970.0"/>
    <line x1="28.4285714285714" y1="970.0" x2="28.4285714285714" y2="961.0"/>
    <line x1="28.4285714285714" y1="961.0" x2="37.8571428571428" y2="961.0"/>
    <line x1="37.8571428571428" y1="961.0" x2="37.8571428571428" y2="970.0"/>
    <line x1="37.8571428571428" y1="970.0" x2="47.2857142857142" y2="970.0"/>
    <line x1="47.2857142857142" y1="970.0" x2="47.2857142857142" y2="961.0"/>
    <line x1="47.2857142857142" y1="961.0" x2="56.7142857142857" y2="961.0"/>
    <line x1="56.7142857142857" y1="961.0" x2="56.7142857142857" y2="970.0"/>
    <line x1="56.7142857142857" y1="970.0" x2="66.1428571428571" y2="970.0"/>
    <line x1="66.1428571428571" y1="970.0" x2="66.1428571428571" y2="961.0"/>
    <line x1="66.1428571428571" y1="961.0" x2="75.5714285714285" y2="961.0"/>
    <line x1="75.5714285714285" y1="961.0" x2="75.5714285714285" y2="970.0"/>
    <line x1="75.5714285714285" y1="970.0" x2="84.9999999999999" y2="970.0"/>
    <line x1="84.9999999999999" y1="970.0" x2="85.0" y2="961.0"/>
    <line x1="85.0" y1="961.0" x2="94.4285714285713" y2="961.0"/>
    <line x1="94.4285714285713" y1="961.0" x2="94.4285714285714" y2="970.0"/>
    <line x1="94.4285714285714" y1="970.0" x2="103.857142857143" y2="970.0"/>
    <line x1="103.857142857143" y1="970.0" x2="103.857142857143" y2="961.0"/>
    <line x1="103.857142857143" y1="961.0" x2="113.285714285714" y2="961.0"/>
    <line x1="113.285714285714" y1="961.0" x2="113.285714285714" y2="970.0"/>
    <line x1="113.285714285714" y1="970.0" x2="122.714285714286" y2="970.0"/>
    <line x1="122.714285714286" y1="970.0" x2="122.714285714286" y2="961.0"/>
    <line x1="122.714285714286" y1="961.0" x2="132.142857142857" y2="961.0"/>
    <line x1="132.142857142857" y1="961.0" x2="132.142857142857" y2="970.0"/>
    <line x1="132.142857142857" y1="970.0" x2="141.571428571428" y2="970.0"/>
    <line x1="141.571428571428" y1="970.0" x2="141.571428571428" y2="961.0"/>
    <line x1="141.571428571428" y1="961.0" x2="160.0" y2="961.0"/>
    <line x1="160.0" y1="961.0" x2="160.0" y2="941.0"/>
    <line x1="160.0" y1="941.0" x2="151.0" y2="941.0"/>
    <line x1="151.0" y1="941.0" x2="151.0" y2="923.0"/>
    <line x1="151.0" y1="923.0" x2="160.0" y2="923.0"/>
    <line x1="160.0" y1="923.0" x2="160.0" y2="914.0"/>
    <line x1="160.0" y1="914.0" x2="151.0" y2="914.0"/>
    <line x1="151.0" y1="914.0" x2="151.0" y2="905.0"/>
    <line x1="151.0" y1="905.0" x2="160.0" y2="905.0"/>
    <line x1="160.0" y1="905.0" x2="160.0" y2="896.0"/>
    <line x1="160.0" y1="896.0" x2="151.0" y2="896.0"/>
    <line x1="151.0" y1="896.0" x2="151.0" y2="887.0"/>
    <line x1="151.0" y1="887.0" x2="160.0" y2="887.0"/>
    <line x1="160.0" y1="887.0" x2="160.0" y2="878.0"/>
    <line x1="160.0" y1="878.0" x2="151.0" y2="878.0"/>
    <line x1="151.0" y1="878.0" x2="151.0" y2="869.0"/>
    <line x1="151.0" y1="869.0" x2="160.0" y2="869.0"/>
    <line x1="160.0" y1="869.0" x2="160.0" y2="860.0"/>
    <line x1="160.0" y1="860.0" x2="151.0" y2="860.0"/>
    <line x1="151.0" y1="860.0" x2="151.0" y2="851.0"/>
    <line x1="151.0" y1="851.0" x2="160.0" y2="851.0"/>
    <line x1="160.0" y1="851.0" x2="160.0" y2="842.0"/>
    <line x1="160.0" y1="842.0" x2="151.0" y2="842.0"/>
    <line x1="151.0" y1="842.0" x2="151.0" y2="833.0"/>
    <line x1="151.0" y1="833.0" x2="160.0" y2="833.0"/>
    <line x1="160.0" y1="833.0" x2="160.0" y2="824.0"/>
    <line x1="160.0" y1="824.0" x2="151.0" y2="824.0"/>
    <line x1="151.0" y1="824.0" x2="151.0" y2="815.0"/>
    <line x1="151.0" y1="815.0" x2="160.0" y2="815.0"/>
    <line x1="160.0" y1="815.0" x2="160.0" y2="806.0"/>
    <line x1="160.0" y1="806.0" x2="151.0" y2="806.0"/>
    <line x1="151.0" y1="806.0" x2="151.0" y2="797.0"/>
    <line x1="151.0" y1="797.0" x2="160.0" y2="797.0"/>
    <line x1="160.0" y1="797.0" x2="160.0" y2="788.0"/>
    <line x1="160.0" y1="788.0" x2="151.0" y2="788.0"/>
    <line x1="151.0" y1="788.0" x2="151.0" y2="779.0"/>
    <line x1="151.0" y1="779.0" x2="160.0" y2="779.0"/>
    <line x1="160.0" y1="779.0" x2="160.0" y2="770.0"/>
    <line x1="160.0" y1="770.0" x2="151.0" y2="770.0"/>
    <line x1="151.0" y1="770.0" x2="151.0" y2="761.0"/>
    <line x1="151.0" y1="761.0" x2="160.0" y2="761.0"/>
    <line x1="160.0" y1="761.0" x2="160.0" y2="752.0"/>
    <line x1="160.0" y1="752.0" x2="151.0" y2="752.0"/>
    <line x1="151.0" y1="752.0" x2="151.0" y2="743.0"/>
    <line x1="151.0" y1="743.0" x2="160.0" y2="743.0"/>
    <line x1="160.0" y1="743.0" x2="160.0" y2="734.0"/>
    <line x1="160.0" y1="734.0" x2="151.0" y2="734.0"/>
    <line x1="151.0" y1="734.0" x2="151.0" y2="725.0"/>
    <line x1="151.0" y1="725.0" x2="160.0" y2="725.0"/>
    <line x1="160.0" y1="725.0" x2="160.0" y2="716.0"/>
    <line x1="160.0" y1="716.0" x2="151.0" y2="716.0"/>
    <line x1="151.0" y1="716.0" x2="151.0" y2="707.0"/>
    <line x1="151.0" y1="707.0" x2="160.0" y2="707.0"/>
    <line x1="160.0" y1="707.0" x2="160.0" y2="698.0"/>
    <line x1="160.0" y1="698.0" x2="151.0" y2="698.0"/>
    <line x1="151.0" y1="698.0" x2="151.0" y2="689.0"/>
    <line x1="151.0" y1="689.0" x2="160.0" y2="689.0"/>
    <line x1="160.0" y1="689.0" x2="160.0" y2="680.0"/>
    <line x1="160.0" y1="680.0" x2="151.0" y2="680.0"/>
    <line x1="151.0" y1="680.0" x2="151.0" y2="671.0"/>
    <line x1="151.0" y1="671.0" x2="160.0" y2="671.0"/>
    <line x1="160.0" y1="671.0" x2="160.0" y2="662.0"/>
    <line x1="160.0" y1="662.0" x2="151.0" y2="662.0"/>
    <line x1="151.0" y1="662.0" x2="151.0" y2="653.0"/>
    <line x1="151.0" y1="653.0" x2="160.0" y2="653.0"/>
    <line x1="160.0" y1="653.0" x2="160.0" y2="644.0"/>
    <line x1="160.0" y1="644.0" x2="151.0" y2="644.0"/>
    <line x1="151.0" y1="644.0" x2="151.0" y2="635.0"/>
    <line x1="151.0" y1="635.0" x2="160.0" y2="635.0"/>
    <line x1="160.0" y1="635.0" x2="160.0" y2="626.0"/>
    <line x1="160.0" y1="626.0" x2="151.0" y2="626.0"/>
    <line x1="151.0" y1="626.0" x2="151.0" y2="599.0"/>
    <line x1="151.0" y1="599.0" x2="160.0" y2="599.0"/>
    <line x1="160.0" y1="599.0" x2="160.0" y2="579.0"/>
    <line x1="160.0" y1="579.0" x2="141.571428571429" y2="579.0"/>
    <line x1="141.571428571429" y1="579.0" x2="141.571428571429" y2="570.0"/>
    <line x1="141.571428571429" y1="570.0" x2="132.142857142857" y2="570.0"/>
    <line x1="132.142857142857" y1="570.0" x2="132.142857142857" y2="579.0"/>
    <line x1="132.142857142857" y1="579.0" x2="122.714285714286" y2="579.0"/>
    <line x1="122.714285714286" y1="579.0" x2="122.714285714286" y2="570.0"/>
    <line x1="122.714285714286" y1="570.0" x2="113.285714285714" y2="570.0"/>
    <line x1="113.285714285714" y1="570.0" x2="113.285714285714" y2="579.0"/>
    <line x1="113.285714285714" y1="579.0" x2="103.857142857143" y2="579.0"/>
    <line x1="103.857142857143" y1="579.0" x2="103.857142857143" y2="570.0"/>
    <line x1="103.857142857143" y1="570.0" x2="94.4285714285714" y2="570.0"/>
    <line x1="94.4285714285714" y1="570.0" x2="94.4285714285714" y2="579.0"/>
    <line x1="94.4285714285714" y1="579.0" x2="85.0" y2="579.0"/>
    <line x1="85.0" y1="579.0" x2="85.0" y2="570.0"/>
    <line x1="85.0" y1="570.0" x2="75.5714285714285" y2="570.0"/>
    <line x1="75.5714285714285" y1="570.0" x2="75.5714285714286" y2="579.0"/>
    <line x1="75.5714285714286" y1="579.0" x2="66.1428571428572" y2="579.0"/>
    <line x1="66.1428571428572" y1="579.0" x2="66.1428571428571" y2="570.0"/>
    <line x1="66.1428571428571" y1="570.0" x2="56.7142857142857" y2="570.0"/>
    <line x1="56.7142857142857" y1="570.0" x2="56.7142857142857" y2="579.0"/>
    <line x1="56.7142857142857" y1="579.0" x2="47.2857142857143" y2="579.0"/>
    <line x1="47.2857142857143" y1="579.0" x2="47.2857142857143" y2="570.0"/>
    <line x1="47.2857142857143" y1="570.0" x2="37.8571428571428" y2="570.0"/>
    <line x1="37.8571428571428" y1="570.0" x2="37.8571428571428" y2="579.0"/>
    <line x1="37.8571428571428" y1="579.0" x2="28.4285714285714" y2="579.0"/>
    <line x1="28.4285714285714" y1="579.0" x2="28.4285714285714" y2="570.0"/>
    <line x1="28.4285714285714" y1="570.0" x2="10.0" y2="570.0"/>
    <line x1="10.0" y1="570.0" x2="10.0" y2="599.0"/>
    <line x1="10.0" y1="599.0" x2="18.9999999999999" y2="599.0"/>
    <line x1="18.9999999999999" y1="599.0" x2="18.9999999999999" y2="626.0"/>
    <line x1="18.9999999999999" y1="626.0" x2="10.0" y2="626.0"/>
    <line x1="10.0" y1="626.0" x2="10.0" y2="635.0"/>
    <line x1="10.0" y1="635.0" x2="18.9999999999999" y2="635.0"/>
    <line x1="18.9999999999999" y1="635.0" x2="18.9999999999999" y2="644.0"/>
    <line x1="18.9999999999999" y1="644.0" x2="10.0" y2="644.0"/>
    <line x1="10.0" y1="644.0" x2="10.0" y2="653.0"/>
    <line x1="10.0" y1="653.0" x2="18.9999999999999" y2="653.0"/>
    <line x1="18.9999999999999" y1="653.0" x2="18.9999999999999" y2="662.0"/>
    <line x1="18.9999999999999" y1="662.0" x2="10.0" y2="662.0"/>
    <line x1="10.0" y1="662.0" x2="10.0" y2="671.0"/>
    <line x1="10.0" y1="671.0" x2="18.9999999999999" y2="671.0"/>
    <line x1="18.9999999999999" y1="671.0" x2="18.9999999999999" y2="680.0"/>
    <line x1="18.9999999999999" y1="680.0" x2="10.0" y2="680.0"/>
    <line x1="10.0" y1="680.0" x2="10.0" y2="689.0"/>
    <line x1="10.0" y1="689.0" x2="18.9999999999999" y2="689.0"/>
    <line x1="18.9999999999999" y1="689.0" x2="18.9999999999999" y2="698.0"/>
    <line x1="18.9999999999999" y1="698.0" x2="10.0" y2="698.0"/>
    <line x1="10.0" y1="698.0" x2="10.0" y2="707.0"/>
    <line x1="10.0" y1="707.0" x2="18.9999999999999" y2="707.0"/>
    <line x1="18.9999999999999" y1="707.0" x2="18.9999999999999" y2="716.0"/>
    <line x1="18.9999999999999" y1="716.0" x2="10.0" y2="716.0"/>
    <line x1="10.0" y1="716.0" x2="10.0" y2="725.0"/>
    <line x1="10.0" y1="725.0" x2="18.9999999999999" y2="725.0"/>
    <line x1="18.9999999999999" y1="725.0" x2="18.9999999999999" y2="734.0"/>
    <line x1="18.9999999999999" y1="734.0" x2="10.0" y2="734.0"/>
    <line x1="10.0" y1="734.0" x2="10.0" y2="743.0"/>
    <line x1="10.0" y1="743.0" x2="18.9999999999999" y2="743.0"/>
    <line x1="18.9999999999999" y1="743.0" x2="18.9999999999999" y2="752.0"/>
    <line x1="18.9999999999999" y1="752.0" x2="10.0" y2="752.0"/>
    <line x1="10.0" y1="752.0" x2="10.0" y2="761.0"/>
    <line x1="10.0" y1="761.0" x2="18.9999999999999" y2="761.0"/>
    <line x1="18.9999999999999" y1="761.0" x2="18.9999999999999" y2="770.0"/>
    <line x1="18.9999999999999" y1="770.0" x2="10.0" y2="770.0"/>
    <line x1="10.0" y1="770.0" x2="10.0" y2="779.0"/>
    <line x1="10.0" y1="779.0" x2="18.9999999999999" y2="779.0"/>
    <line x1="18.9999999999999" y1="779.0" x2="18.9999999999999" y2="788.0"/>
    <line x1="18.9999999999999" y1="788.0" x2="10.0" y2="788.0"/>
    <line x1="10.0" y1="788.0" x2="10.0" y2="797.0"/>
    <line x1="10.0" y1="797.0" x2="18.9999999999999" y2="797.0"/>
    <line x1="18.9999999999999" y1="797.0" x2="18.9999999999999" y2="806.0"/>
    <line x1="18.9999999999999" y1="806.0" x2="10.0" y2="806.0"/>
    <line x1="10.0" y1="806.0" x2="10.0" y2="815.0"/>
    <line x1="10.0" y1="815.0" x2="18.9999999999999" y2="815.0"/>
    <line x1="18.9999999999999" y1="815.0" x2="18.9999999999999" y2="824.0"/>
    <line x1="18.9999999999999" y1="824.0" x2="10.0" y2="824.0"/>
    <line x1="10.0" y1="824.0" x2="10.0" y2="833.0"/>
    <line x1="10.0" y1="833.0" x2="18.9999999999999" y2="833.0"/>
    <line x1="18.9999999999999" y1="833.0" x2="18.9999999999999" y2="842.0"/>
    <line x1="18.9999999999999" y1="842.0" x2="10.0" y2="842.0"/>
    <line x1="10.0" y1="842.0" x2="10.0" y2="851.0"/>
    <line x1="10.0" y1="851.0" x2="18.9999999999999" y2="851.0"/>
    <line x1="18.9999999999999" y1="851.0" x2="18.9999999999999" y2="860.0"/>
    <line x1="18.9999999999999" y1="860.0" x2="10.0" y2="860.0"/>
    <line x1="10.0" y1="860.0" x2="10.0" y2="869.0"/>
    <line x1="10.0" y1="869.0" x2="18.9999999999999" y2="869.0"/>
    <line x1="18.9999999999999" y1="869.0" x2="18.9999999999999" y2="878.0"/>
    <line x1="18.9999999999999" y1="878.0" x2="10.0" y2="878.0"/>
    <line x1="10.0" y1="878.0" x2="10.0" y2="887.0"/>
    <line x1="10.0" y1="887.0" x2="18.9999999999999" y2="887.0"/>
    <line x1="18.9999999999999" y1="887.0" x2="18.9999999999999" y2="896.0"/>
    <line x1="18.9999999999999" y1="896.0" x2="10.0" y2="896.0"/>
    <line x1="10.0" y1="896.0" x2="10.0" y2="905.0"/>
    <line x1="10.0" y1="905.0" x2="18.9999999999999" y2="905.0"/>
  </g>
  <g id="face2" fill="none" stroke="rgb(0,0,255)" stroke-width="1" stroke-miterlimit="4" stroke-dasharray="none" stroke-linejoin="round" stroke-linecap="round">
    <line x1="560.0" y1="1322.0" x2="560.0" y2="1295.0"/>
    <line x1="560.0" y1="1295.0" x2="551.0" y2="1295.0"/>
    <line x1="551.0" y1="1295.0" x2="551.0" y2="1286.0"/>
    <line x1="551.0" y1="1286.0" x2="560.0" y2="1286.0"/>
    <line x1="560.0" y1="1286.0" x2="560.0" y2="1277.0"/>
    <line x1="560.0" y1="1277.0" x2="551.0" y2="1277.0"/>
    <line x1="551.0" y1="1277.0" x2="551.0" y2="1268.0"/>
    <line x1="551.0" y1="1268.0" x2="560.0" y2="1268.0"/>
    <line x1="560.0" y1="1268.0" x2="560.0" y2="1259.0"/>
    <line x1="560.0" y1="1259.0" x2="551.0" y2="1259.0"/>
    <line x1="551.0" y1="1259.0" x2="551.0" y2="1250.0"/>
    <line x1="551.0" y1="1250.0" x2="560.0" y2="1250.0"/>
    <line x1="560.0" y1="1250.0" x2="560.0" y2="1241.0"/>
    <line x1="560.0" y1="1241.0" x2="551.0" y2="1241.0"/>
    <line x1="551.0" y1="1241.0" x2="551.0" y2="1232.0"/>
    <line x1="551.0" y1="1232.0" x2="560.0" y2="1232.0"/>
    <line x1="560.0" y1="1232.0" x2="560.0" y2="1223.0"/>
    <line x1="560.0" y1="1223.0" x2="551.0" y2="1223.0"/>
    <line x1="551.0" y1="1223.0" x2="551.0" y2="1214.0"/>
    <line x1="551.0" y1="1214.0" x2="560.0" y2="1214.0"/>
    <line x1="560.0" y1="1214.0" x2="560.0" y2="1205.0"/>
    <line x1="560.0" y1="1205.0" x2="551.0" y2="1205.0"/>
    <line x1="551.0" y1="1205.0" x2="551.0" y2="1196.0"/>
    <line x1="551.0" y1="1196.0" x2="560.0" y2="1196.0"/>
    <line x1="560.0" y1="1196.0" x2="560.0" y2="1187.0"/>
    <line x1="560.0" y1="1187.0" x2="551.0" y2="1187.0"/>
    <line x1="551.0" y1="1187.0" x2="551.0" y2="1178.0"/>
    <line x1="551.0" y1="1178.0" x2="560.0" y2="1178.0"/>
    <line x1="560.0" y1="1178.0" x2="560.0" y2="1169.0"/>
    <line x1="560.0" y1="1169.0" x2="551.0" y2="1169.0"/>
    <line x1="551.0" y1="1169.0" x2="551.0" y2="1160.0"/>
    <line x1="551.0" y1="1160.0" x2="560.0" y2="1160.0"/>
    <line x1="560.0" y1="1160.0" x2="560.0" y2="1151.0"/>
    <line x1="560.0" y1="1151.0" x2="551.0" y2="1151.0"/>
    <line x1="551.0" y1="1151.0" x2="551.0" y2="1142.0"/>
    <line x1="551.0" y1="1142.0" x2="560.0" y2="1142.0"/>
    <line x1="560.0" y1="1142.0" x2="560.0" y2="1133.0"/>
    <line x1="560.0" y1="1133.0" x2="551.0" y2="1133.0"/>
    <line x1="551.0" y1="1133.0" x2="551.0" y2="1124.0"/>
    <line x1="551.0" y1="1124.0" x2="560.0" y2="1124.0"/>
    <line x1="560.0" y1="1124.0" x2="560.0" y2="1115.0"/>
    <line x1="560.0" y1="1115.0" x2="551.0" y2="1115.0"/>
    <line x1="551.0" y1="1115.0" x2="551.0" y2="1106.0"/>
    <line x1="551.0" y1="1106.0" x2="560.0" y2="1106.0"/>
    <line x1="560.0" y1="1106.0" x2="560.0" y2="1097.0"/>
    <line x1="560.0" y1="1097.0" x2="551.0" y2="1097.0"/>
    <line x1="551.0" y1="1097.0" x2="551.0" y2="1088.0"/>
    <line x1="551.0" y1="1088.0" x2="560.0" y2="1088.0"/>
    <line x1="560.0" y1="1088.0" x2="560.0" y2="1079.0"/>
    <line x1="560.0" y1="1079.0" x2="551.0" y2="1079.0"/>
    <line x1="551.0" y1="1079.0" x2="551.0" y2="1070.0"/>
    <line x1="551.0" y1="1070.0" x2="560.0" y2="1070.0"/>
    <line x1="560.0" y1="1070.0" x2="560.0" y2="1061.0"/>
    <line x1="560.0" y1="1061.0" x2="551.0" y2="1061.0"/>
    <line x1="551.0" y1="1061.0" x2="551.0" y2="1052.0"/>
    <line x1="551.0" y1="1052.0" x2="560.0" y2="1052.0"/>
    <line x1="560.0" y1="1052.0" x2="560.0" y2="1043.0"/>
    <line x1="560.0" y1="1043.0" x2="551.0" y2="1043.0"/>
    <line x1="551.0" y1="1043.0" x2="551.0" y2="1034.0"/>
    <line x1="551.0" y1="1034.0" x2="560.0" y2="1034.0"/>
    <line x1="560.0" y1="1034.0" x2="560.0" y2="1025.0"/>
    <line x1="560.0" y1="1025.0" x2="551.0" y2="1025.0"/>
    <line x1="551.0" y1="1025.0" x2="551.0" y2="1016.0"/>
    <line x1="551.0" y1="1016.0" x2="560.0" y2="1016.0"/>
    <line x1="560.0" y1="1016.0" x2="560.0" y2="1007.0"/>
    <line x1="560.0" y1="1007.0" x2="551.0" y2="1007.0"/>
    <line x1="551.0" y1="1007.0" x2="551.0" y2="998.0"/>
    <line x1="551.0" y1="998.0" x2="560.0" y2="998.0"/>
    <line x1="560.0" y1="998.0" x2="560.0" y2="980.0"/>
    <line x1="560.0" y1="980.0" x2="10.0" y2="980.0"/>
    <line x1="10.0" y1="980.0" x2="10.0000000000001" y2="998.0"/>
    <line x1="10.0000000000001" y1="998.0" x2="19.0" y2="998.0"/>
    <line x1="19.0" y1="998.0" x2="19.0000000000002" y2="1007.0"/>
    <line x1="19.0000000000002" y1="1007.0" x2="10.0000000000001" y2="1007.0"/>
    <line x1="10.0000000000001" y1="1007.0" x2="10.0000000000002" y2="1016.0"/>
    <line x1="10.0000000000002" y1="1016.0" x2="19.0000000000002" y2="1016.0"/>
    <line x1="19.0000000000002" y1="1016.0" x2="19.0000000000001" y2="1025.0"/>
    <line x1="19.0000000000001" y1="1025.0" x2="10.0000000000001" y2="1025.0"/>
    <line x1="10.0000000000001" y1="1025.0" x2="10.0000000000001" y2="1034.0"/>
    <line x1="10.0000000000001" y1="1034.0" x2="19.0000000000002" y2="1034.0"/>
    <line x1="19.0000000000002" y1="1034.0" x2="19.0000000000002" y2="1043.0"/>
    <line x1="19.0000000000002" y1="1043.0" x2="10.0000000000001" y2="1043.0"/>
    <line x1="10.0000000000001" y1="1043.0" x2="10.0" y2="1052.0"/>
    <line x1="10.0" y1="1052.0" x2="19.0000000000002" y2="1052.0"/>
    <line x1="19.0000000000002" y1="1052.0" x2="19.0000000000001" y2="1061.0"/>
    <line x1="19.0000000000001" y1="1061.0" x2="10.0000000000001" y2="1061.0"/>
    <line x1="10.0000000000001" y1="1061.0" x2="10.0000000000001" y2="1070.0"/>
    <line x1="10.0000000000001" y1="1070.0" x2="19.0000000000002" y2="1070.0"/>
    <line x1="19.0000000000002" y1="1070.0" x2="19.0000000000002" y2="1079.0"/>
    <line x1="19.0000000000002" y1="1079.0" x2="10.0000000000001" y2="1079.0"/>
    <line x1="10.0000000000001" y1="1079.0" x2="10.0000000000001" y2="1088.0"/>
    <line x1="10.0000000000001" y1="1088.0" x2="19.0000000000001" y2="1088.0"/>
    <line x1="19.0000000000001" y1="1088.0" x2="19.0000000000002" y2="1097.0"/>
    <line x1="19.0000000000002" y1="1097.0" x2="10.0000000000001" y2="1097.0"/>
    <line x1="10.0000000000001" y1="1097.0" x2="10.0000000000001" y2="1106.0"/>
    <line x1="10.0000000000001" y1="1106.0" x2="19.0000000000002" y2="1106.0"/>
    <line x1="19.0000000000002" y1="1106.0" x2="19.0000000000002" y2="1115.0"/>
    <line x1="19.0000000000002" y1="1115.0" x2="10.0" y2="1115.0"/>
    <line x1="10.0" y1="1115.0" x2="10.0000000000001" y2="1124.0"/>
    <line x1="10.0000000000001" y1="1124.0" x2="19.0000000000002" y2="1124.0"/>
    <line x1="19.0000000000002" y1="1124.0" x2="19.0000000000002" y2="1133.0"/>
    <line x1="19.0000000000002" y1="1133.0" x2="10.0000000000001" y2="1133.0"/>
    <line x1="10.0000000000001" y1="1133.0" x2="10.0000000000001" y2="1142.0"/>
    <line x1="10.0000000000001" y1="1142.0" x2="19.0000000000002" y2="1142.0"/>
    <line x1="19.0000000000002" y1="1142.0" x2="19.0000000000001" y2="1151.0"/>
    <line x1="19.0000000000001" y1="1151.0" x2="10.0000000000002" y2="1151.0"/>
    <line x1="10.0000000000002" y1="1151.0" x2="10.0000000000001" y2="1160.0"/>
    <line x1="10.0000000000001" y1="1160.0" x2="19.0000000000002" y2="1160.0"/>
    <line x1="19.0000000000002" y1="1160.0" x2="19.0000000000002" y2="1169.0"/>
    <line x1="19.0000000000002" y1="1169.0" x2="10.0000000000002" y2="1169.0"/>
    <line x1="10.0000000000002" y1="1169.0" x2="10.0000000000001" y2="1178.0"/>
    <line x1="10.0000000000001" y1="1178.0" x2="19.0000000000002" y2="1178.0"/>
    <line x1="19.0000000000002" y1="1178.0" x2="19.0000000000002" y2="1187.0"/>
    <line x1="19.0000000000002" y1="1187.0" x2="10.0000000000001" y2="1187.0"/>
    <line x1="10.0000000000001" y1="1187.0" x2="10.0000000000001" y2="1196.0"/>
    <line x1="10.0000000000001" y1="1196.0" x2="19.0000000000002" y2="1196.0"/>
    <line x1="19.0000000000002" y1="1196.0" x2="19.0000000000002" y2="1205.0"/>
    <line x1="19.0000000000002" y1="1205.0" x2="10.0000000000001" y2="1205.0"/>
    <line x1="10.0000000000001" y1="1205.0" x2="10.0000000000001" y2="1214.0"/>
    <line x1="10.0000000000001" y1="1214.0" x2="19.0000000000002" y2="1214.0"/>
    <line x1="19.0000000000002" y1="1214.0" x2="19.0000000000002" y2="1223.0"/>
    <line x1="19.0000000000002" y1="1223.0" x2="10.0000000000001" y2="1223.0"/>
    <line x1="10.0000000000001" y1="1223.0" x2="10.0000000000001" y2="1232.0"/>
    <line x1="10.0000000000001" y1="1232.0" x2="19.0000000000002" y2="1232.0"/>
    <line x1="19.0000000000002" y1="1232.0" x2="19.0000000000002" y2="1241.0"/>
    <line x1="19.0000000000002" y1="1241.0" x2="10.0000000000001" y2="1241.0"/>
    <line x1="10.0000000000001" y1="1241.0" x2="10.0000000000001" y2="1250.0"/>
    <line x1="10.0000000000001" y1="1250.0" x2="19.0000000000002" y2="1250.0"/>
    <line x1="19.0000000000002" y1="1250.0" x2="19.0000000000002" y2="1259.0"/>
    <line x1="19.0000000000002" y1="1259.0" x2="10.0000000000001" y2="1259.0"/>
    <line x1="10.0000000000001" y1="1259.0" x2="10.0000000000001" y2="1268.0"/>
    <line x1="10.0000000000001" y1="1268.0" x2="19.0000000000002" y2="1268.0"/>
    <line x1="19.0000000000002" y1="1268.0" x2="19.0000000000002" y2="1277.0"/>
    <line x1="19.0000000000002" y1="1277.0" x2="10.0000000000001" y2="1277.0"/>
    <line x1="10.0000000000001" y1="1277.0" x2="10.0000000000001" y2="1286.0"/>
    <line x1="10.0000000000001" y1="1286.0" x2="19.0000000000001" y2="1286.0"/>
    <line x1="19.0000000000001" y1="1286.0" x2="19.0000000000002" y2="1295.0"/>
    <line x1="19.0000000000002" y1="1295.0" x2="10.0000000000001" y2="1295.0"/>
    <line x1="10.0000000000001" y1="1295.0" x2="10.0000000000001" y2="1322.0"/>
    <line x1="10.0000000000001" y1="1322.0" x2="560.0" y2="1322.0"/>
  </g>
  <g id="face3" fill="none" stroke="rgb(0,0,255)" stroke-width="1" stroke-miterlimit="4" stroke-dasharray="none" stroke-linejoin="round" stroke-linecap="round">
    <line x1="551.0" y1="1359.0" x2="560.0" y2="1359.0"/>
    <line x1="560.0" y1="1359.0" x2="560.0" y2="1332.0"/>
    <line x1="560.0" y1="1332.0" x2="10.0000000000001" y2="1332.0"/>
    <line x1="10.0000000000001" y1="1332.0" x2="10.0000000000001" y2="1359.0"/>
    <line x1="10.0000000000001" y1="1359.0" x2="19.0000000000001" y2="1359.0"/>
    <line x1="19.0000000000001" y1="1359.0" x2="19.0000000000001" y2="1368.00000000001"/>
    <line x1="19.0000000000001" y1="1368.00000000001" x2="10.0000000000001" y2="1368.0"/>
    <line x1="10.0000000000001" y1="1368.0" x2="10.0000000000001" y2="1377.0"/>
    <line x1="10.0000000000001" y1="1377.0" x2="19.0000000000001" y2="1377.0"/>
    <line x1="19.0000000000001" y1="1377.0" x2="19.0000000000002" y2="1386.0"/>
    <line x1="19.0000000000002" y1="1386.0" x2="10.0000000000001" y2="1386.0"/>
    <line x1="10.0000000000001" y1="1386.0" x2="10.0" y2="1395.0"/>
    <line x1="10.0" y1="1395.0" x2="19.0000000000001" y2="1395.0"/>
    <line x1="19.0000000000001" y1="1395.0" x2="19.0000000000001" y2="1404.0"/>
    <line x1="19.0000000000001" y1="1404.0" x2="10.0000000000001" y2="1404.0"/>
    <line x1="10.0000000000001" y1="1404.0" x2="10.0000000000001" y2="1413.0"/>
    <line x1="10.0000000000001" y1="1413.0" x2="19.0000000000001" y2="1413.0"/>
    <line x1="19.0000000000001" y1="1413.0" x2="19.0000000000001" y2="1422.0"/>
    <line x1="19.0000000000001" y1="1422.0" x2="10.0000000000001" y2="1422.0"/>
    <line x1="10.0000000000001" y1="1422.0" x2="10.0000000000001" y2="1431.0"/>
    <line x1="10.0000000000001" y1="1431.0" x2="19.0000000000001" y2="1431.0"/>
    <line x1="19.0000000000001" y1="1431.0" x2="19.0000000000001" y2="1440.0"/>
    <line x1="19.0000000000001" y1="1440.0" x2="10.0000000000001" y2="1440.0"/>
    <line x1="10.0000000000001" y1="1440.0" x2="10.0000000000001" y2="1449.0"/>
    <line x1="10.0000000000001" y1="1449.0" x2="19.0000000000001" y2="1449.0"/>
    <line x1="19.0000000000001" y1="1449.0" x2="19.0000000000001" y2="1458.0"/>
    <line x1="19.0000000000001" y1="1458.0" x2="10.0000000000001" y2="1458.0"/>
    <line x1="10.0000000000001" y1="1458.0" x2="10.0000000000001" y2="1467.0"/>
    <line x1="10.0000000000001" y1="1467.0" x2="19.0000000000001" y2="1467.0"/>
    <line x1="19.0000000000001" y1="1467.0" x2="19.0000000000001" y2="1476.0"/>
    <line x1="19.0000000000001" y1="1476.0" x2="10.0000000000001" y2="1476.0"/>
    <line x1="10.0000000000001" y1="1476.0" x2="10.0000000000001" y2="1485.0"/>
    <line x1="10.0000000000001" y1="1485.0" x2="19.0000000000001" y2="1485.0"/>
    <line x1="19.0000000000001" y1="1485.0" x2="19.0000000000002" y2="1494.0"/>
    <line x1="19.0000000000002" y1="1494.0" x2="10.0000000000001" y2="1494.0"/>
    <line x1="10.0000000000001" y1="1494.0" x2="10.0000000000002" y2="1503.0"/>
    <line x1="10.0000000000002" y1="1503.0" x2="19.0000000000001" y2="1503.0"/>
    <line x1="19.0000000000001" y1="1503.0" x2="19.0000000000001" y2="1512.0"/>
    <line x1="19.0000000000001" y1="1512.0" x2="10.0000000000001" y2="1512.0"/>
    <line x1="10.0000000000001" y1="1512.0" x2="10.0000000000001" y2="1521.0"/>
    <line x1="10.0000000000001" y1="1521.0" x2="19.0000000000001" y2="1521.0"/>
    <line x1="19.0000000000001" y1="1521.0" x2="19.0000000000001" y2="1530.0"/>
    <line x1="19.0000000000001" y1="1530.0" x2="10.0" y2="1530.0"/>
    <line x1="10.0" y1="1530.0" x2="10.0000000000001" y2="1539.0"/>
    <line x1="10.0000000000001" y1="1539.0" x2="19.0000000000001" y2="1539.0"/>
    <line x1="19.0000000000001" y1="1539.0" x2="19.0000000000001" y2="1548.0"/>
    <line x1="19.0000000000001" y1="1548.0" x2="10.0000000000001" y2="1548.0"/>
    <line x1="10.0000000000001" y1="1548.0" x2="10.0000000000002" y2="1557.0"/>
    <line x1="10.0000000000002" y1="1557.0" x2="19.0000000000001" y2="1557.0"/>
    <line x1="19.0000000000001" y1="1557.0" x2="19.0000000000001" y2="1566.0"/>
    <line x1="19.0000000000001" y1="1566.0" x2="10.0000000000001" y2="1566.0"/>
    <line x1="10.0000000000001" y1="1566.0" x2="10.0000000000001" y2="1575.0"/>
    <line x1="10.0000000000001" y1="1575.0" x2="19.0000000000001" y2="1575.0"/>
    <line x1="19.0000000000001" y1="1575.0" x2="19.0000000000001" y2="1584.0"/>
    <line x1="19.0000000000001" y1="1584.0" x2="10.0000000000001" y2="1584.0"/>
    <line x1="10.0000000000001" y1="1584.0" x2="10.0" y2="1593.0"/>
    <line x1="10.0" y1="1593.0" x2="19.0000000000001" y2="1593.0"/>
    <line x1="19.0000000000001" y1="1593.0" x2="19.0000000000002" y2="1602.0"/>
    <line x1="19.0000000000002" y1="1602.0" x2="10.0000000000001" y2="1602.0"/>
    <line x1="10.0000000000001" y1="1602.0" x2="10.0000000000001" y2="1611.0"/>
    <line x1="10.0000000000001" y1="1611.0" x2="19.0" y2="1611.0"/>
    <line x1="19.0" y1="1611.0" x2="19.0000000000001" y2="1620.0"/>
    <line x1="19.0000000000001" y1="1620.0" x2="10.0" y2="1620.0"/>
    <line x1="10.0" y1="1620.0" x2="10.0000000000002" y2="1629.0"/>
    <line x1="10.0000000000002" y1="1629.0" x2="19.0000000000001" y2="1629.0"/>
    <line x1="19.0000000000001" y1="1629.0" x2="19.0" y2="1638.0"/>
    <line x1="19.0" y1="1638.0" x2="10.0000000000001" y2="1638.0"/>
    <line x1="10.0000000000001" y1="1638.0" x2="10.0000000000001" y2="1647.0"/>
    <line x1="10.0000000000001" y1="1647.0" x2="19.0000000000001" y2="1647.0"/>
    <line x1="19.0000000000001" y1="1647.0" x2="19.0" y2="1656.0"/>
    <line x1="19.0" y1="1656.0" x2="10.0" y2="1656.0"/>
    <line x1="10.0" y1="1656.0" x2="10.0000000000001" y2="1674.0"/>
    <line x1="10.0000000000001" y1="1674.0" x2="560.0" y2="1674.0"/>
    <line x1="560.0" y1="1674.0" x2="560.0" y2="1656.0"/>
    <line x1="560.0" y1="1656.0" x2="551.0" y2="1656.0"/>
    <line x1="551.0" y1="1656.0" x2="551.0" y2="1647.0"/>
    <line x1="551.0" y1="1647.0" x2="560.0" y2="1647.0"/>
    <line x1="560.0" y1="1647.0" x2="560.0" y2="1638.0"/>
    <line x1="560.0" y1="1638.0" x2="551.0" y2="1638.0"/>
    <line x1="551.0" y1="1638.0" x2="551.0" y2="1629.0"/>
    <line x1="551.0" y1="1629.0" x2="560.0" y2="1629.0"/>
    <line x1="560.0" y1="1629.0" x2="560.0" y2="1620.0"/>
    <line x1="560.0" y1="1620.0" x2="551.0" y2="1620.0"/>
    <line x1="551.0" y1="1620.0" x2="551.0" y2="1611.0"/>
    <line x1="551.0" y1="1611.0" x2="560.0" y2="1611.0"/>
    <line x1="560.0" y1="1611.0" x2="560.0" y2="1602.0"/>
    <line x1="560.0" y1="1602.0" x2="551.0" y2="1602.0"/>
    <line x1="551.0" y1="1602.0" x2="551.0" y2="1593.0"/>
    <line x1="551.0" y1="1593.0" x2="560.0" y2="1593.0"/>
    <line x1="560.0" y1="1593.0" x2="560.0" y2="1584.0"/>
    <line x1="560.0" y1="1584.0" x2="551.0" y2="1584.0"/>
    <line x1="551.0" y1="1584.0" x2="551.0" y2="1575.0"/>
    <line x1="551.0" y1="1575.0" x2="560.0" y2="1575.0"/>
    <line x1="560.0" y1="1575.0" x2="560.0" y2="1566.0"/>
    <line x1="560.0" y1="1566.0" x2="551.0" y2="1566.0"/>
    <line x1="551.0" y1="1566.0" x2="551.0" y2="1557.0"/>
    <line x1="551.0" y1="1557.0" x2="560.0" y2="1557.0"/>
    <line x1="560.0" y1="1557.0" x2="560.0" y2="1548.0"/>
    <line x1="560.0" y1="1548.0" x2="551.0" y2="1548.0"/>
    <line x1="551.0" y1="1548.0" x2="551.0" y2="1539.0"/>
    <line x1="551.0" y1="1539.0" x2="560.0" y2="1539.0"/>
    <line x1="560.0" y1="1539.0" x2="560.0" y2="1530.0"/>
    <line x1="560.0" y1="1530.0" x2="551.0" y2="1530.0"/>
    <line x1="551.0" y1="1530.0" x2="551.0" y2="1521.0"/>
    <line x1="551.0" y1="1521.0" x2="560.0" y2="1521.0"/>
    <line x1="560.0" y1="1521.0" x2="560.0" y2="1512.0"/>
    <line x1="560.0" y1="1512.0" x2="551.0" y2="1512.0"/>
    <line x1="551.0" y1="1512.0" x2="551.0" y2="1503.0"/>
    <line x1="551.0" y1="1503.0" x2="560.0" y2="1503.0"/>
    <line x1="560.0" y1="1503.0" x2="560.0" y2="1494.0"/>
    <line x1="560.0" y1="1494.0" x2="551.0" y2="1494.0"/>
    <line x1="551.0" y1="1494.0" x2="551.0" y2="1485.0"/>
    <line x1="551.0" y1="1485.0" x2="560.0" y2="1485.0"/>
    <line x1="560.0" y1="1485.0" x2="560.0" y2="1476.0"/>
    <line x1="560.0" y1="1476.0" x2="551.0" y2="1476.0"/>
    <line x1="551.0" y1="1476.0" x2="551.0" y2="1467.0"/>
    <line x1="551.0" y1="1467.0" x2="560.0" y2="1467.0"/>
    <line x1="560.0" y1="1467.0" x2="560.0" y2="1458.0"/>
    <line x1="560.0" y1="1458.0" x2="551.0" y2="1458.0"/>
    <line x1="551.0" y1="1458.0" x2="551.0" y2="1449.0"/>
    <line x1="551.0" y1="1449.0" x2="560.0" y2="1449.0"/>
    <line x1="560.0" y1="1449.0" x2="560.0" y2="1440.0"/>
    <line x1="560.0" y1="1440.0" x2="551.0" y2="1440.0"/>
    <line x1="551.0" y1="1440.0" x2="551.0" y2="1431.0"/>
    <line x1="551.0" y1="1431.0" x2="560.0" y2="1431.0"/>
    <line x1="560.0" y1="1431.0" x2="560.0" y2="1422.0"/>
    <line x1="560.0" y1="1422.0" x2="551.0" y2="1422.0"/>
    <line x1="551.0" y1="1422.0" x2="551.0" y2="1413.0"/>
    <line x1="551.0" y1="1413.0" x2="560.0" y2="1413.0"/>
    <line x1="560.0" y1="1413.0" x2="560.0" y2="1404.0"/>
    <line x1="560.0" y1="1404.0" x2="551.0" y2="1404.0"/>
    <line x1="551.0" y1="1404.0" x2="551.0" y2="1395.0"/>
    <line x1="551.0" y1="1395.0" x2="560.0" y2="1395.0"/>
    <line x1="560.0" y1="1395.0" x2="560.0" y2="1386.0"/>
    <line x1="560.0" y1="1386.0" x2="551.0" y2="1386.0"/>
    <line x1="551.0" y1="1386.0" x2="551.0" y2="1377.0"/>
    <line x1="551.0" y1="1377.0" x2="560.0" y2="1377.0"/>
    <line x1="560.0" y1="1377.0" x2="560.0" y2="1368.0"/>
    <line x1="560.0" y1="1368.0" x2="551.0" y2="1368.0"/>
    <line x1="551.0" y1="1368.0" x2="551.0" y2="1359.0"/>
  </g>
  <g id="face4" fill="none" stroke="rgb(0,0,255)" stroke-width="1" stroke-miterlimit="4" stroke-dasharray="none" stroke-linejoin="round" stroke-linecap="round">
    <line x1="19.0" y1="2010.0" x2="19.0" y2="2019.0"/>
    <line x1="19.0" y1="2019.0" x2="10.0" y2="2019.0"/>
    <line x1="10.0" y1="2019.0" x2="10.0" y2="2028.0"/>
    <line x1="10.0" y1="2028.0" x2="19.0" y2="2028.0"/>
    <line x1="19.0" y1="2028.0" x2="19.0" y2="2055.0"/>
    <line x1="19.0" y1="2055.0" x2="10.0" y2="2055.0"/>
    <line x1="10.0" y1="2055.0" x2="10.0" y2="2084.0"/>
    <line x1="10.0" y1="2084.0" x2="28.4285714285714" y2="2084.0"/>
    <line x1="28.4285714285714" y1="2084.0" x2="28.4285714285714" y2="2075.0"/>
    <line x1="28.4285714285714" y1="2075.0" x2="37.8571428571429" y2="2075.0"/>
    <line x1="37.8571428571429" y1="2075.0" x2="37.8571428571429" y2="2084.0"/>
    <line x1="37.8571428571429" y1="2084.0" x2="47.2857142857143" y2="2084.0"/>
    <line x1="47.2857142857143" y1="2084.0" x2="47.2857142857143" y2="2075.0"/>
    <line x1="47.2857142857143" y1="2075.0" x2="56.7142857142857" y2="2075.0"/>
    <line x1="56.7142857142857" y1="2075.0" x2="56.7142857142857" y2="2084.0"/>
    <line x1="56.7142857142857" y1="2084.0" x2="66.1428571428571" y2="2084.0"/>
    <line x1="66.1428571428571" y1="2084.0" x2="66.1428571428571" y2="2075.0"/>
    <line x1="66.1428571428571" y1="2075.0" x2="75.5714285714286" y2="2075.0"/>
    <line x1="75.5714285714286" y1="2075.0" x2="75.5714285714286" y2="2084.0"/>
    <line x1="75.5714285714286" y1="2084.0" x2="85.0" y2="2084.0"/>
    <line x1="85.0" y1="2084.0" x2="85.0" y2="2075.0"/>
    <line x1="85.0" y1="2075.0" x2="94.4285714285714" y2="2075.0"/>
    <line x1="94.4285714285714" y1="2075.0" x2="94.4285714285715" y2="2084.0"/>
    <line x1="94.4285714285715" y1="2084.0" x2="103.857142857143" y2="2084.0"/>
    <line x1="103.857142857143" y1="2084.0" x2="103.857142857143" y2="2075.0"/>
    <line x1="103.857142857143" y1="2075.0" x2="113.285714285714" y2="2075.0"/>
    <line x1="113.285714285714" y1="2075.0" x2="113.285714285714" y2="2084.0"/>
    <line x1="113.285714285714" y1="2084.0" x2="122.714285714286" y2="2084.0"/>
    <line x1="122.714285714286" y1="2084.0" x2="122.714285714286" y2="2075.0"/>
    <line x1="122.714285714286" y1="2075.0" x2="132.142857142857" y2="2075.0"/>
    <line x1="132.142857142857" y1="2075.0" x2="132.142857142857" y2="2084.0"/>
    <line x1="132.142857142857" y1="2084.0" x2="141.571428571429" y2="2084.0"/>
    <line x1="141.571428571429" y1="2084.0" x2="141.571428571429" y2="2075.0"/>
    <line x1="141.571428571429" y1="2075.0" x2="160.0" y2="2075.0"/>
    <line x1="160.0" y1="2075.0" x2="160.0" y2="2055.0"/>
    <line x1="160.0" y1="2055.0" x2="151.0" y2="2055.0"/>
    <line x1="151.0" y1="2055.0" x2="151.0" y2="2028.0"/>
    <line x1="151.0" y1="2028.0" x2="160.0" y2="2028.0"/>
    <line x1="160.0" y1="2028.0" x2="160.0" y2="2019.0"/>
    <line x1="160.0" y1="2019.0" x2="151.0" y2="2019.0"/>
    <line x1="151.0" y1="2019.0" x2="151.0" y2="2010.0"/>
    <line x1="151.0" y1="2010.0" x2="160.0" y2="2010.0"/>
    <line x1="160.0" y1="2010.0" x2="160.0" y2="2001.0"/>
    <line x1="160.0" y1="2001.0" x2="151.0" y2="2001.0"/>
    <line x1="151.0" y1="2001.0" x2="151.0" y2="1992.0"/>
    <line x1="151.0" y1="1992.0" x2="160.0" y2="1992.0"/>
    <line x1="160.0" y1="1992.0" x2="160.0" y2="1983.0"/>
    <line x1="160.0" y1="1983.0" x2="151.0" y2="1983.0"/>
    <line x1="151.0" y1="1983.0" x2="151.0" y2="1974.0"/>
    <line x1="151.0" y1="1974.0" x2="160.0" y2="1974.0"/>
    <line x1="160.0" y1="1974.0" x2="160.0" y2="1965.0"/>
    <line x1="160.0" y1="1965.0" x2="151.0" y2="1965.0"/>
    <line x1="151.0" y1="1965.0" x2="151.0" y2="1956.0"/>
    <line x1="151.0" y1="1956.0" x2="160.0" y2="1956.0"/>
    <line x1="160.0" y1="1956.0" x2="160.0" y2="1947.0"/>
    <line x1="160.0" y1="1947.0" x2="151.0" y2="1947.0"/>
    <line x1="151.0" y1="1947.0" x2="151.0" y2="1938.0"/>
    <line x1="151.0" y1="1938.0" x2="160.0" y2="1938.0"/>
    <line x1="160.0" y1="1938.0" x2="160.0" y2="1929.0"/>
    <line x1="160.0" y1="1929.0" x2="151.0" y2="1929.0"/>
    <line x1="151.0" y1="1929.0" x2="151.0" y2="1920.0"/>
    <line x1="151.0" y1="1920.0" x2="160.0" y2="1920.0"/>
    <line x1="160.0" y1="1920.0" x2="160.0" y2="1911.0"/>
    <line x1="160.0" y1="1911.0" x2="151.0" y2="1911.0"/>
    <line x1="151.0" y1="1911.0" x2="151.0" y2="1902.0"/>
    <line x1="151.0" y1="1902.0" x2="160.0" y2="1902.0"/>
    <line x1="160.0" y1="1902.0" x2="160.0" y2="1893.0"/>
    <line x1="160.0" y1="1893.0" x2="151.0" y2="1893.0"/>
    <line x1="151.0" y1="1893.0" x2="151.0" y2="1884.0"/>
    <line x1="151.0" y1="1884.0" x2="160.0" y2="1884.0"/>
    <line x1="160.0" y1="1884.0" x2="160.0" y2="1875.0"/>
    <line x1="160.0" y1="1875.0" x2="151.0" y2="1875.0"/>
    <line x1="151.0" y1="1875.0" x2="151.0" y2="1866.0"/>
    <line x1="151.0" y1="1866.0" x2="160.0" y2="1866.0"/>
    <line x1="160.0" y1="1866.0" x2="160.0" y2="1857.0"/>
    <line x1="160.0" y1="1857.0" x2="151.0" y2="1857.0"/>
    <line x1="151.0" y1="1857.0" x2="151.0" y2="1848.0"/>
    <line x1="151.0" y1="1848.0" x2="160.0" y2="1848.0"/>
    <line x1="160.0" y1="1848.0" x2="160.0" y2="1839.0"/>
    <line x1="160.0" y1="1839.0" x2="151.0" y2="1839.0"/>
    <line x1="151.0" y1="1839.0" x2="151.0" y2="1830.0"/>
    <line x1="151.0" y1="1830.0" x2="160.0" y2="1830.0"/>
    <line x1="160.0" y1="1830.0" x2="160.0" y2="1821.0"/>
    <line x1="160.0" y1="1821.0" x2="151.0" y2="1821.0"/>
    <line x1="151.0" y1="1821.0" x2="151.0" y2="1812.0"/>
    <line x1="151.0" y1="1812.0" x2="160.0" y2="1812.0"/>
    <line x1="160.0" y1="1812.0" x2="160.0" y2="1803.0"/>
    <line x1="160.0" y1="1803.0" x2="151.0" y2="1803.0"/>
    <line x1="151.0" y1="1803.0" x2="151.0" y2="1794.0"/>
    <line x1="151.0" y1="1794.0" x2="160.0" y2="1794.0"/>
    <line x1="160.0" y1="1794.0" x2="160.0" y2="1785.0"/>
    <line x1="160.0" y1="1785.0" x2="151.0" y2="1785.0"/>
    <line x1="151.0" y1="1785.0" x2="151.0" y2="1776.0"/>
    <line x1="151.0" y1="1776.0" x2="160.0" y2="1776.0"/>
    <line x1="160.0" y1="1776.0" x2="160.0" y2="1767.0"/>
    <line x1="160.0" y1="1767.0" x2="151.0" y2="1767.0"/>
    <line x1="151.0" y1="1767.0" x2="151.0" y2="1758.0"/>
    <line x1="151.0" y1="1758.0" x2="160.0" y2="1758.0"/>
    <line x1="160.0" y1="1758.0" x2="160.0" y2="1749.0"/>
    <line x1="160.0" y1="1749.0" x2="151.0" y2="1749.0"/>
    <line x1="151.0" y1="1749.0" x2="151.0" y2="1740.0"/>
    <line x1="151.0" y1="1740.0" x2="160.0" y2="1740.0"/>
    <line x1="160.0" y1="1740.0" x2="160.0" y2="1731.0"/>
    <line x1="160.0" y1="1731.0" x2="151.0" y2="1731.0"/>
    <line x1="151.0" y1="1731.0" x2="151.0" y2="1713.0"/>
    <line x1="151.0" y1="1713.0" x2="160.0" y2="1713.0"/>
    <line x1="160.0" y1="1713.0" x2="160.0" y2="1693.0"/>
    <line x1="160.0" y1="1693.0" x2="141.571428571429" y2="1693.0"/>
    <line x1="141.571428571429" y1="1693.0" x2="141.571428571429" y2="1684.0"/>
    <line x1="141.571428571429" y1="1684.0" x2="132.142857142857" y2="1684.0"/>
    <line x1="132.142857142857" y1="1684.0" x2="132.142857142857" y2="1693.0"/>
    <line x1="132.142857142857" y1="1693.0" x2="122.714285714286" y2="1693.0"/>
    <line x1="122.714285714286" y1="1693.0" x2="122.714285714286" y2="1684.0"/>
    <line x1="122.714285714286" y1="1684.0" x2="113.285714285714" y2="1684.0"/>
    <line x1="113.285714285714" y1="1684.0" x2="113.285714285714" y2="1693.0"/>
    <line x1="113.285714285714" y1="1693.0" x2="103.857142857143" y2="1693.0"/>
    <line x1="103.857142857143" y1="1693.0" x2="103.857142857143" y2="1684.0"/>
    <line x1="103.857142857143" y1="1684.0" x2="94.4285714285715" y2="1684.0"/>
    <line x1="94.4285714285715" y1="1684.0" x2="94.4285714285715" y2="1693.0"/>
    <line x1="94.4285714285715" y1="1693.0" x2="85.0" y2="1693.0"/>
    <line x1="85.0" y1="1693.0" x2="85.0000000000001" y2="1684.0"/>
    <line x1="85.0000000000001" y1="1684.0" x2="75.5714285714286" y2="1684.0"/>
    <line x1="75.5714285714286" y1="1684.0" x2="75.5714285714286" y2="1693.0"/>
    <line x1="75.5714285714286" y1="1693.0" x2="66.1428571428572" y2="1693.0"/>
    <line x1="66.1428571428572" y1="1693.0" x2="66.1428571428572" y2="1684.0"/>
    <line x1="66.1428571428572" y1="1684.0" x2="56.7142857142858" y2="1684.0"/>
    <line x1="56.7142857142858" y1="1684.0" x2="56.7142857142858" y2="1693.0"/>
    <line x1="56.7142857142858" y1="1693.0" x2="47.2857142857143" y2="1693.0"/>
    <line x1="47.2857142857143" y1="1693.0" x2="47.2857142857143" y2="1684.0"/>
    <line x1="47.2857142857143" y1="1684.0" x2="37.8571428571429" y2="1684.0"/>
    <line x1="37.8571428571429" y1="1684.0" x2="37.8571428571429" y2="1693.0"/>
    <line x1="37.8571428571429" y1="1693.0" x2="28.4285714285714" y2="1693.0"/>
    <line x1="28.4285714285714" y1="1693.0" x2="28.4285714285715" y2="1684.0"/>
    <line x1="28.4285714285715" y1="1684.0" x2="10.0" y2="1684.0"/>
    <line x1="10.0" y1="1684.0" x2="10.0" y2="1713.0"/>
    <line x1="10.0" y1="1713.0" x2="19.0" y2="1713.0"/>
    <line x1="19.0" y1="1713.0" x2="19.0" y2="1731.0"/>
    <line x1="19.0" y1="1731.0" x2="10.0" y2="1731.0"/>
    <line x1="10.0" y1="1731.0" x2="10.0" y2="1740.0"/>
    <line x1="10.0" y1="1740.0" x2="19.0" y2="1740.0"/>
    <line x1="19.0" y1="1740.0" x2="19.0" y2="1749.0"/>
    <line x1="19.0" y1="1749.0" x2="10.0" y2="1749.0"/>
    <line x1="10.0" y1="1749.0" x2="10.0" y2="1758.0"/>
    <line x1="10.0" y1="1758.0" x2="19.0" y2="1758.0"/>
    <line x1="19.0" y1="1758.0" x2="19.0" y2="1767.0"/>
    <line x1="19.0" y1="1767.0" x2="10.0" y2="1767.0"/>
    <line x1="10.0" y1="1767.0" x2="10.0" y2="1776.0"/>
    <line x1="10.0" y1="1776.0" x2="19.0" y2="1776.0"/>
    <line x1="19.0" y1="1776.0" x2="19.0" y2="1785.0"/>
    <line x1="19.0" y1="1785.0" x2="10.0" y2="1785.0"/>
    <line x1="10.0" y1="1785.0" x2="10.0" y2="1794.0"/>
    <line x1="10.0" y1="1794.0" x2="19.0" y2="1794.0"/>
    <line x1="19.0" y1="1794.0" x2="19.0" y2="1803.0"/>
    <line x1="19.0" y1="1803.0" x2="10.0" y2="1803.0"/>
    <line x1="10.0" y1="1803.0" x2="10.0" y2="1812.0"/>
    <line x1="10.0" y1="1812.0" x2="19.0" y2="1812.0"/>
    <line x1="19.0" y1="1812.0" x2="19.0" y2="1821.0"/>
    <line x1="19.0" y1="1821.0" x2="10.0" y2="1821.0"/>
    <line x1="10.0" y1="1821.0" x2="10.0" y2="1830.0"/>
    <line x1="10.0" y1="1830.0" x2="19.0" y2="1830.0"/>
    <line x1="19.0" y1="1830.0" x2="19.0" y2="1839.0"/>
    <line x1="19.0" y1="1839.0" x2="10.0" y2="1839.0"/>
    <line x1="10.0" y1="1839.0" x2="10.0" y2="1848.0"/>
    <line x1="10.0" y1="1848.0" x2="19.0" y2="1848.0"/>
    <line x1="19.0" y1="1848.0" x2="19.0" y2="1857.0"/>
    <line x1="19.0" y1="1857.0" x2="10.0" y2="1857.0"/>
    <line x1="10.0" y1="1857.0" x2="10.0" y2="1866.0"/>
    <line x1="10.0" y1="1866.0" x2="19.0" y2="1866.0"/>
    <line x1="19.0" y1="1866.0" x2="19.0" y2="1875.0"/>
    <line x1="19.0" y1="1875.0" x2="10.0" y2="1875.0"/>
    <line x1="10.0" y1="1875.0" x2="10.0" y2="1884.0"/>
    <line x1="10.0" y1="1884.0" x2="19.0" y2="1884.0"/>
    <line x1="19.0" y1="1884.0" x2="19.0" y2="1893.0"/>
    <line x1="19.0" y1="1893.0" x2="10.0" y2="1893.0"/>
    <line x1="10.0" y1="1893.0" x2="10.0" y2="1902.0"/>
    <line x1="10.0" y1="1902.0" x2="19.0" y2="1902.0"/>
    <line x1="19.0" y1="1902.0" x2="19.0" y2="1911.0"/>
    <line x1="19.0" y1="1911.0" x2="10.0" y2="1911.0"/>
    <line x1="10.0" y1="1911.0" x2="10.0" y2="1920.0"/>
    <line x1="10.0" y1="1920.0" x2="19.0" y2="1920.0"/>
    <line x1="19.0" y1="1920.0" x2="19.0" y2="1929.0"/>
    <line x1="19.0" y1="1929.0" x2="10.0" y2="1929.0"/>
    <line x1="10.0" y1="1929.0" x2="10.0" y2="1938.0"/>
    <line x1="10.0" y1="1938.0" x2="19.0" y2="1938.0"/>
    <line x1="19.0" y1="1938.0" x2="19.0" y2="1947.0"/>
    <line x1="19.0" y1="1947.0" x2="10.0" y2="1947.0"/>
    <line x1="10.0" y1="1947.0" x2="10.0" y2="1956.0"/>
    <line x1="10.0" y1="1956.0" x2="19.0" y2="1956.0"/>
    <line x1="19.0" y1="1956.0" x2="19.0" y2="1965.0"/>
    <line x1="19.0" y1="1965.0" x2="10.0" y2="1965.0"/>
    <line x1="10.0" y1="1965.0" x2="10.0" y2="1974.0"/>
    <line x1="10.0" y1="1974.0" x2="19.0" y2="1974.0"/>
    <line x1="19.0" y1="1974.0" x2="19.0" y2="1983.0"/>
    <line x1="19.0" y1="1983.0" x2="10.0" y2="1983.0"/>
    <line x1="10.0" y1="1983.0" x2="10.0" y2="1992.0"/>
    <line x1="10.0" y1="1992.0" x2="19.0" y2="1992.0"/>
    <line x1="19.0" y1="1992.0" x2="19.0" y2="2001.0"/>
    <line x1="19.0" y1="2001.0" x2="10.0" y2="2001.0"/>
    <line x1="10.0" y1="2001.0" x2="10.0" y2="2010.0"/>
    <line x1="10.0" y1="2010.0" x2="19.0" y2="2010.0"/>
  </g>
  <g id="face5" fill="none" stroke="rgb(0,0,255)" stroke-width="1" stroke-miterlimit="4" stroke-dasharray="none" stroke-linejoin="round" stroke-linecap="round">
    <line x1="37.8571428571429" y1="2644.0" x2="37.8571428571429" y2="2635.0"/>
    <line x1="37.8571428571429" y1="2635.0" x2="47.2857142857143" y2="2635.0"/>
    <line x1="47.2857142857143" y1="2635.0" x2="47.2857142857143" y2="2644.0"/>
    <line x1="47.2857142857143" y1="2644.0" x2="56.7142857142858" y2="2644.0"/>
    <line x1="56.7142857142858" y1="2644.0" x2="56.7142857142858" y2="2635.0"/>
    <line x1="56.7142857142858" y1="2635.0" x2="66.1428571428571" y2="2635.0"/>
    <line x1="66.1428571428571" y1="2635.0" x2="66.1428571428571" y2="2644.0"/>
    <line x1="66.1428571428571" y1="2644.0" x2="75.5714285714286" y2="2644.0"/>
    <line x1="75.5714285714286" y1="2644.0" x2="75.5714285714286" y2="2635.0"/>
    <line x1="75.5714285714286" y1="2635.0" x2="85.0000000000001" y2="2635.0"/>
    <line x1="85.0000000000001" y1="2635.0" x2="85.0000000000001" y2="2644.0"/>
    <line x1="85.0000000000001" y1="2644.0" x2="94.4285714285714" y2="2644.0"/>
    <line x1="94.4285714285714" y1="2644.0" x2="94.4285714285714" y2="2635.0"/>
    <line x1="94.4285714285714" y1="2635.0" x2="103.857142857143" y2="2635.0"/>
    <line x1="103.857142857143" y1="2635.0" x2="103.857142857143" y2="2644.0"/>
    <line x1="103.857142857143" y1="2644.0" x2="113.285714285714" y2="2644.0"/>
    <line x1="113.285714285714" y1="2644.0" x2="113.285714285714" y2="2635.0"/>
    <line x1="113.285714285714" y1="2635.0" x2="122.714285714286" y2="2635.0"/>
    <line x1="122.714285714286" y1="2635.0" x2="122.714285714286" y2="2644.0"/>
    <line x1="122.714285714286" y1="2644.0" x2="132.142857142857" y2="2644.0"/>
    <line x1="132.142857142857" y1="2644.0" x2="132.142857142857" y2="2635.0"/>
    <line x1="132.142857142857" y1="2635.0" x2="141.571428571429" y2="2635.0"/>
    <line x1="141.571428571429" y1="2635.0" x2="141.571428571429" y2="2644.0"/>
    <line x1="141.571428571429" y1="2644.0" x2="160.0" y2="2644.0"/>
    <line x1="160.0" y1="2644.0" x2="160.0" y2="2094.0"/>
    <line x1="160.0" y1="2094.0" x2="141.571428571429" y2="2094.0"/>
    <line x1="141.571428571429" y1="2094.0" x2="141.571428571429" y2="2103.0"/>
    <line x1="141.571428571429" y1="2103.0" x2="132.142857142857" y2="2103.0"/>
    <line x1="132.142857142857" y1="2103.0" x2="132.142857142857" y2="2094.0"/>
    <line x1="132.142857142857" y1="2094.0" x2="122.714285714286" y2="2094.0"/>
    <line x1="122.714285714286" y1="2094.0" x2="122.714285714286" y2="2103.0"/>
    <line x1="122.714285714286" y1="2103.0" x2="113.285714285714" y2="2103.0"/>
    <line x1="113.285714285714" y1="2103.0" x2="113.285714285714" y2="2094.0"/>
    <line x1="113.285714285714" y1="2094.0" x2="103.857142857143" y2="2094.0"/>
    <line x1="103.857142857143" y1="2094.0" x2="103.857142857143" y2="2103.0"/>
    <line x1="103.857142857143" y1="2103.0" x2="94.4285714285714" y2="2103.0"/>
    <line x1="94.4285714285714" y1="2103.0" x2="94.4285714285715" y2="2094.0"/>
    <line x1="94.4285714285715" y1="2094.0" x2="85.0000000000001" y2="2094.0"/>
    <line x1="85.0000000000001" y1="2094.0" x2="85.0000000000001" y2="2103.0"/>
    <line x1="85.0000000000001" y1="2103.0" x2="75.5714285714287" y2="2103.0"/>
    <line x1="75.5714285714287" y1="2103.0" x2="75.5714285714286" y2="2094.0"/>
    <line x1="75.5714285714286" y1="2094.0" x2="66.1428571428572" y2="2094.0"/>
    <line x1="66.1428571428572" y1="2094.0" x2="66.1428571428572" y2="2103.0"/>
    <line x1="66.1428571428572" y1="2103.0" x2="56.7142857142858" y2="2103.0"/>
    <line x1="56.7142857142858" y1="2103.0" x2="56.7142857142858" y2="2094.0"/>
    <line x1="56.7142857142858" y1="2094.0" x2="47.2857142857143" y2="2094.0"/>
    <line x1="47.2857142857143" y1="2094.0" x2="47.2857142857143" y2="2103.0"/>
    <line x1="47.2857142857143" y1="2103.0" x2="37.8571428571429" y2="2103.0"/>
    <line x1="37.8571428571429" y1="2103.0" x2="37.8571428571429" y2="2094.0"/>
    <line x1="37.8571428571429" y1="2094.0" x2="28.4285714285715" y2="2094.0"/>
    <line x1="28.4285714285715" y1="2094.0" x2="28.4285714285715" y2="2103.0"/>
    <line x1="28.4285714285715" y1="2103.0" x2="10.0000000000001" y2="2103.0"/>
    <line x1="10.0000000000001" y1="2103.0" x2="10.0" y2="2635.0"/>
    <line x1="10.0" y1="2635.0" x2="28.4285714285714" y2="2635.0"/>
    <line x1="28.4285714285714" y1="2635.0" x2="28.4285714285714" y2="2644.0"/>
    <line x1="28.4285714285714" y1="2644.0" x2="37.8571428571429" y2="2644.0"/>
  </g>
</svg>
