<?xml version="1.0" standalone="no"?>
<!DOCTYPE svg PUBLIC "-//W3C//DTD SVG 1.1//EN" "http://www.w3.org/Graphics/SVG/1.1/DTD/svg11.dtd">
<svg width="470.0mm" height="1030.0mm"
 viewBox="0 0 470.0 1030.0"
 xmlns="http://www.w3.org/2000/svg" version="1.1"
 xmlns:xlink="http://www.w3.org/1999/xlink">
<desc>Output from Flights of Ideas SVG Sketchup Plugin</desc>

  <g id="face0" fill="none" stroke="rgb(0,0,255)" stroke-width="1" stroke-miterlimit="4" stroke-dasharray="none" stroke-linejoin="round" stroke-linecap="round">
    <line x1="19.0" y1="91.0000000000001" x2="19.0" y2="100.0"/>
    <line x1="19.0" y1="100.0" x2="460.0" y2="99.9999999999979"/>
    <line x1="460.0" y1="99.9999999999979" x2="460.0" y2="10.0000000000001"/>
    <line x1="460.0" y1="10.0000000000001" x2="410.0" y2="10.0"/>
    <line x1="410.0" y1="10.0" x2="410.0" y2="18.9999999999997"/>
    <line x1="410.0" y1="18.9999999999997" x2="400.666666666667" y2="19.0000000000001"/>
    <line x1="400.666666666667" y1="19.0000000000001" x2="400.666666666667" y2="10.0000000000001"/>
    <line x1="400.666666666667" y1="10.0000000000001" x2="391.333333333333" y2="10.0"/>
    <line x1="391.333333333333" y1="10.0" x2="391.333333333333" y2="18.9999999999998"/>
    <line x1="391.333333333333" y1="18.9999999999998" x2="382.0" y2="19.0"/>
    <line x1="382.0" y1="19.0" x2="382.0" y2="10.0"/>
    <line x1="382.0" y1="10.0" x2="372.666666666667" y2="10.0000000000002"/>
    <line x1="372.666666666667" y1="10.0000000000002" x2="372.666666666667" y2="19.0000000000003"/>
    <line x1="372.666666666667" y1="19.0000000000003" x2="363.333333333333" y2="19.0"/>
    <line x1="363.333333333333" y1="19.0" x2="363.333333333333" y2="10.0"/>
    <line x1="363.333333333333" y1="10.0" x2="354.0" y2="10.0000000000002"/>
    <line x1="354.0" y1="10.0000000000002" x2="354.0" y2="19.0000000000002"/>
    <line x1="354.0" y1="19.0000000000002" x2="344.666666666666" y2="19.0000000000001"/>
    <line x1="344.666666666666" y1="19.0000000000001" x2="344.666666666667" y2="10.0000000000002"/>
    <line x1="344.666666666667" y1="10.0000000000002" x2="335.333333333333" y2="10.0"/>
    <line x1="335.333333333333" y1="10.0" x2="335.333333333333" y2="19.0000000000001"/>
    <line x1="335.333333333333" y1="19.0000000000001" x2="326.0" y2="19.0000000000002"/>
    <line x1="326.0" y1="19.0000000000002" x2="326.0" y2="10.0"/>
    <line x1="326.0" y1="10.0" x2="316.666666666667" y2="10.0000000000002"/>
    <line x1="316.666666666667" y1="10.0000000000002" x2="316.666666666667" y2="19.0"/>
    <line x1="316.666666666667" y1="19.0" x2="307.333333333333" y2="19.0000000000001"/>
    <line x1="307.333333333333" y1="19.0000000000001" x2="307.333333333333" y2="10.0000000000001"/>
    <line x1="307.333333333333" y1="10.0000000000001" x2="298.0" y2="10.0000000000001"/>
    <line x1="298.0" y1="10.0000000000001" x2="298.0" y2="19.0000000000002"/>
    <line x1="298.0" y1="19.0000000000002" x2="288.666666666667" y2="18.9999999999999"/>
    <line x1="288.666666666667" y1="18.9999999999999" x2="288.666666666667" y2="10.0000000000001"/>
    <line x1="288.666666666667" y1="10.0000000000001" x2="279.333333333333" y2="10.0"/>
    <line x1="279.333333333333" y1="10.0" x2="279.333333333333" y2="19.0"/>
    <line x1="279.333333333333" y1="19.0" x2="270.0" y2="19.0"/>
    <line x1="270.0" y1="19.0" x2="270.0" y2="10.0000000000001"/>
    <line x1="270.0" y1="10.0000000000001" x2="10.0" y2="10.0000000000001"/>
    <line x1="10.0" y1="10.0000000000001" x2="10.0" y2="19.0"/>
    <line x1="10.0" y1="19.0" x2="19.0" y2="19.0"/>
    <line x1="19.0" y1="19.0" x2="19.0" y2="28.0"/>
    <line x1="19.0" y1="28.0" x2="10.0" y2="28.0"/>
    <line x1="10.0" y1="28.0" x2="10.0" y2="37.0"/>
    <line x1="10.0" y1="37.0" x2="19.0" y2="37.0"/>
    <line x1="19.0" y1="37.0" x2="19.0" y2="46.0"/>
    <line x1="19.0" y1="46.0" x2="10.0" y2="46.0"/>
    <line x1="10.0" y1="46.0" x2="10.0" y2="55.0"/>
    <line x1="10.0" y1="55.0" x2="19.0" y2="55.0"/>
    <line x1="19.0" y1="55.0" x2="19.0" y2="64.0000000000001"/>
    <line x1="19.0" y1="64.0000000000001" x2="10.0" y2="64.0000000000001"/>
    <line x1="10.0" y1="64.0000000000001" x2="10.0" y2="73.0"/>
    <line x1="10.0" y1="73.0" x2="19.0" y2="73.0"/>
    <line x1="19.0" y1="73.0" x2="19.0" y2="82.0"/>
    <line x1="19.0" y1="82.0" x2="10.0" y2="82.0"/>
    <line x1="10.0" y1="82.0" x2="10.0" y2="91.0000000000001"/>
    <line x1="10.0" y1="91.0000000000001" x2="19.0" y2="91.0000000000001"/>
  </g>
  <g id="face1" fill="none" stroke="rgb(0,0,255)" stroke-width="1" stroke-miterlimit="4" stroke-dasharray="none" stroke-linejoin="round" stroke-linecap="round">
    <line x1="19.0" y1="110.0" x2="19.0" y2="119.0"/>
    <line x1="19.0" y1="119.0" x2="10.0" y2="119.0"/>
    <line x1="10.0" y1="119.0" x2="10.0" y2="501.0"/>
    <line x1="10.0" y1="501.0" x2="19.0" y2="501.0"/>
    <line x1="19.0" y1="501.0" x2="19.0" y2="510.0"/>
    <line x1="19.0" y1="510.0" x2="28.0000000000001" y2="510.0"/>
    <line x1="28.0000000000001" y1="510.0" x2="27.9999999999999" y2="501.0"/>
    <line x1="27.9999999999999" y1="501.0" x2="37.0" y2="501.0"/>
    <line x1="37.0" y1="501.0" x2="37.0" y2="510.0"/>
    <line x1="37.0" y1="510.0" x2="45.9999999999999" y2="510.0"/>
    <line x1="45.9999999999999" y1="510.0" x2="45.9999999999999" y2="501.0"/>
    <line x1="45.9999999999999" y1="501.0" x2="54.9999999999999" y2="501.0"/>
    <line x1="54.9999999999999" y1="501.0" x2="55.0000000000001" y2="510.0"/>
    <line x1="55.0000000000001" y1="510.0" x2="64.0" y2="510.0"/>
    <line x1="64.0" y1="510.0" x2="64.0" y2="501.0"/>
    <line x1="64.0" y1="501.0" x2="73.0000000000001" y2="501.0"/>
    <line x1="73.0000000000001" y1="501.0" x2="72.9999999999999" y2="510.0"/>
    <line x1="72.9999999999999" y1="510.0" x2="82.0" y2="510.0"/>
    <line x1="82.0" y1="510.0" x2="82.0" y2="501.0"/>
    <line x1="82.0" y1="501.0" x2="91.0" y2="501.0"/>
    <line x1="91.0" y1="501.0" x2="91.0" y2="510.0"/>
    <line x1="91.0" y1="510.0" x2="100.0" y2="510.0"/>
    <line x1="100.0" y1="510.0" x2="100.0" y2="110.0"/>
    <line x1="100.0" y1="110.0" x2="91.0" y2="110.0"/>
    <line x1="91.0" y1="110.0" x2="91.0" y2="119.0"/>
    <line x1="91.0" y1="119.0" x2="82.0" y2="119.0"/>
    <line x1="82.0" y1="119.0" x2="82.0" y2="110.0"/>
    <line x1="82.0" y1="110.0" x2="72.9999999999999" y2="110.0"/>
    <line x1="72.9999999999999" y1="110.0" x2="72.9999999999999" y2="119.0"/>
    <line x1="72.9999999999999" y1="119.0" x2="64.0" y2="119.0"/>
    <line x1="64.0" y1="119.0" x2="64.0" y2="110.0"/>
    <line x1="64.0" y1="110.0" x2="55.0000000000001" y2="110.0"/>
    <line x1="55.0000000000001" y1="110.0" x2="55.0000000000001" y2="119.0"/>
    <line x1="55.0000000000001" y1="119.0" x2="45.9999999999999" y2="119.0"/>
    <line x1="45.9999999999999" y1="119.0" x2="45.9999999999999" y2="110.0"/>
    <line x1="45.9999999999999" y1="110.0" x2="37.0" y2="110.0"/>
    <line x1="37.0" y1="110.0" x2="37.0" y2="119.0"/>
    <line x1="37.0" y1="119.0" x2="27.9999999999999" y2="119.0"/>
    <line x1="27.9999999999999" y1="119.0" x2="27.9999999999999" y2="110.0"/>
    <line x1="27.9999999999999" y1="110.0" x2="19.0" y2="110.0"/>
  </g>
  <g id="face2" fill="none" stroke="rgb(0,0,255)" stroke-width="1" stroke-miterlimit="4" stroke-dasharray="none" stroke-linejoin="round" stroke-linecap="round">
    <line x1="410.0" y1="610.0" x2="460.0" y2="610.0"/>
    <line x1="460.0" y1="610.0" x2="460.0" y2="520.0"/>
    <line x1="460.0" y1="520.0" x2="19.0000000000001" y2="520.0"/>
    <line x1="19.0000000000001" y1="520.0" x2="19.0000000000001" y2="529.0"/>
    <line x1="19.0000000000001" y1="529.0" x2="10.0" y2="529.0"/>
    <line x1="10.0" y1="529.0" x2="10.0000000000001" y2="538.0"/>
    <line x1="10.0000000000001" y1="538.0" x2="19.0000000000001" y2="538.0"/>
    <line x1="19.0000000000001" y1="538.0" x2="19.0000000000001" y2="547.0"/>
    <line x1="19.0000000000001" y1="547.0" x2="10.0" y2="547.0"/>
    <line x1="10.0" y1="547.0" x2="10.0000000000001" y2="555.999999999999"/>
    <line x1="10.0000000000001" y1="555.999999999999" x2="19.0000000000001" y2="556.0"/>
    <line x1="19.0000000000001" y1="556.0" x2="19.0000000000001" y2="565.0"/>
    <line x1="19.0000000000001" y1="565.0" x2="10.0" y2="565.0"/>
    <line x1="10.0" y1="565.0" x2="10.0" y2="574.0"/>
    <line x1="10.0" y1="574.0" x2="19.0000000000001" y2="574.0"/>
    <line x1="19.0000000000001" y1="574.0" x2="19.0000000000001" y2="583.0"/>
    <line x1="19.0000000000001" y1="583.0" x2="10.0" y2="583.0"/>
    <line x1="10.0" y1="583.0" x2="10.0000000000001" y2="591.999999999999"/>
    <line x1="10.0000000000001" y1="591.999999999999" x2="19.0000000000001" y2="592.0"/>
    <line x1="19.0000000000001" y1="592.0" x2="19.0000000000001" y2="600.999999999999"/>
    <line x1="19.0000000000001" y1="600.999999999999" x2="10.0" y2="601.0"/>
    <line x1="10.0" y1="601.0" x2="10.0" y2="610.0"/>
    <line x1="10.0" y1="610.0" x2="270.0" y2="610.0"/>
    <line x1="270.0" y1="610.0" x2="270.0" y2="601.0"/>
    <line x1="270.0" y1="601.0" x2="279.333333333333" y2="601.0"/>
    <line x1="279.333333333333" y1="601.0" x2="279.333333333333" y2="610.0"/>
    <line x1="279.333333333333" y1="610.0" x2="288.666666666667" y2="610.0"/>
    <line x1="288.666666666667" y1="610.0" x2="288.666666666667" y2="601.0"/>
    <line x1="288.666666666667" y1="601.0" x2="298.0" y2="601.0"/>
    <line x1="298.0" y1="601.0" x2="298.0" y2="610.0"/>
    <line x1="298.0" y1="610.0" x2="307.333333333333" y2="610.0"/>
    <line x1="307.333333333333" y1="610.0" x2="307.333333333333" y2="601.0"/>
    <line x1="307.333333333333" y1="601.0" x2="316.666666666667" y2="601.0"/>
    <line x1="316.666666666667" y1="601.0" x2="316.666666666667" y2="610.0"/>
    <line x1="316.666666666667" y1="610.0" x2="326.0" y2="610.0"/>
    <line x1="326.0" y1="610.0" x2="326.0" y2="601.0"/>
    <line x1="326.0" y1="601.0" x2="335.333333333333" y2="601.0"/>
    <line x1="335.333333333333" y1="601.0" x2="335.333333333333" y2="610.0"/>
    <line x1="335.333333333333" y1="610.0" x2="344.666666666667" y2="610.0"/>
    <line x1="344.666666666667" y1="610.0" x2="344.666666666667" y2="601.0"/>
    <line x1="344.666666666667" y1="601.0" x2="354.0" y2="601.0"/>
    <line x1="354.0" y1="601.0" x2="354.0" y2="610.0"/>
    <line x1="354.0" y1="610.0" x2="363.333333333333" y2="610.0"/>
    <line x1="363.333333333333" y1="610.0" x2="363.333333333333" y2="601.0"/>
    <line x1="363.333333333333" y1="601.0" x2="372.666666666667" y2="601.0"/>
    <line x1="372.666666666667" y1="601.0" x2="372.666666666667" y2="610.0"/>
    <line x1="372.666666666667" y1="610.0" x2="382.0" y2="610.0"/>
    <line x1="382.0" y1="610.0" x2="382.0" y2="601.0"/>
    <line x1="382.0" y1="601.0" x2="391.333333333333" y2="601.0"/>
    <line x1="391.333333333333" y1="601.0" x2="391.333333333333" y2="610.0"/>
    <line x1="391.333333333333" y1="610.0" x2="400.666666666667" y2="610.0"/>
    <line x1="400.666666666667" y1="610.0" x2="400.666666666667" y2="601.0"/>
    <line x1="400.666666666667" y1="601.0" x2="410.0" y2="601.0"/>
    <line x1="410.0" y1="601.0" x2="410.0" y2="610.0"/>
  </g>
  <g id="face3" fill="none" stroke="rgb(0,0,255)" stroke-width="1" stroke-miterlimit="4" stroke-dasharray="none" stroke-linejoin="round" stroke-linecap="round">
    <line x1="19.3333333333335" y1="1020.0" x2="19.3333333333335" y2="1011.0"/>
    <line x1="19.3333333333335" y1="1011.0" x2="28.6666666666669" y2="1011.0"/>
    <line x1="28.6666666666669" y1="1011.0" x2="28.6666666666669" y2="1020.0"/>
    <line x1="28.6666666666669" y1="1020.0" x2="38.0000000000002" y2="1020.0"/>
    <line x1="38.0000000000002" y1="1020.0" x2="38.0000000000002" y2="1011.0"/>
    <line x1="38.0000000000002" y1="1011.0" x2="47.3333333333334" y2="1011.0"/>
    <line x1="47.3333333333334" y1="1011.0" x2="47.3333333333334" y2="1020.0"/>
    <line x1="47.3333333333334" y1="1020.0" x2="56.6666666666667" y2="1020.0"/>
    <line x1="56.6666666666667" y1="1020.0" x2="56.6666666666667" y2="1011.0"/>
    <line x1="56.6666666666667" y1="1011.0" x2="66.0000000000001" y2="1011.0"/>
    <line x1="66.0000000000001" y1="1011.0" x2="66.0000000000001" y2="1020.0"/>
    <line x1="66.0000000000001" y1="1020.0" x2="75.3333333333335" y2="1020.0"/>
    <line x1="75.3333333333335" y1="1020.0" x2="75.3333333333335" y2="1011.0"/>
    <line x1="75.3333333333335" y1="1011.0" x2="84.6666666666667" y2="1011.0"/>
    <line x1="84.6666666666667" y1="1011.0" x2="84.6666666666667" y2="1020.0"/>
    <line x1="84.6666666666667" y1="1020.0" x2="94.0" y2="1020.0"/>
    <line x1="94.0" y1="1020.0" x2="94.0" y2="1011.0"/>
    <line x1="94.0" y1="1011.0" x2="103.333333333333" y2="1011.0"/>
    <line x1="103.333333333333" y1="1011.0" x2="103.333333333333" y2="1020.0"/>
    <line x1="103.333333333333" y1="1020.0" x2="112.666666666667" y2="1020.0"/>
    <line x1="112.666666666667" y1="1020.0" x2="112.666666666667" y2="1011.0"/>
    <line x1="112.666666666667" y1="1011.0" x2="122.0" y2="1011.0"/>
    <line x1="122.0" y1="1011.0" x2="122.0" y2="1020.0"/>
    <line x1="122.0" y1="1020.0" x2="131.333333333333" y2="1020.0"/>
    <line x1="131.333333333333" y1="1020.0" x2="131.333333333333" y2="1011.0"/>
    <line x1="131.333333333333" y1="1011.0" x2="140.666666666667" y2="1011.0"/>
    <line x1="140.666666666667" y1="1011.0" x2="140.666666666667" y2="1020.0"/>
    <line x1="140.666666666667" y1="1020.0" x2="150.0" y2="1020.0"/>
    <line x1="150.0" y1="1020.0" x2="150.0" y2="620.0"/>
    <line x1="150.0" y1="620.0" x2="140.666666666667" y2="620.0"/>
    <line x1="140.666666666667" y1="620.0" x2="140.666666666667" y2="629.0"/>
    <line x1="140.666666666667" y1="629.0" x2="131.333333333333" y2="629.0"/>
    <line x1="131.333333333333" y1="629.0" x2="131.333333333333" y2="620.0"/>
    <line x1="131.333333333333" y1="620.0" x2="122.0" y2="620.0"/>
    <line x1="122.0" y1="620.0" x2="122.0" y2="629.0"/>
    <line x1="122.0" y1="629.0" x2="112.666666666667" y2="629.0"/>
    <line x1="112.666666666667" y1="629.0" x2="112.666666666667" y2="620.0"/>
    <line x1="112.666666666667" y1="620.0" x2="103.333333333333" y2="620.0"/>
    <line x1="103.333333333333" y1="620.0" x2="103.333333333333" y2="629.0"/>
    <line x1="103.333333333333" y1="629.0" x2="94.0" y2="629.0"/>
    <line x1="94.0" y1="629.0" x2="94.0" y2="620.0"/>
    <line x1="94.0" y1="620.0" x2="84.6666666666667" y2="620.0"/>
    <line x1="84.6666666666667" y1="620.0" x2="84.6666666666667" y2="629.0"/>
    <line x1="84.6666666666667" y1="629.0" x2="75.3333333333335" y2="629.0"/>
    <line x1="75.3333333333335" y1="629.0" x2="75.3333333333335" y2="620.0"/>
    <line x1="75.3333333333335" y1="620.0" x2="66.0000000000001" y2="620.0"/>
    <line x1="66.0000000000001" y1="620.0" x2="66.0000000000001" y2="629.0"/>
    <line x1="66.0000000000001" y1="629.0" x2="56.6666666666667" y2="629.0"/>
    <line x1="56.6666666666667" y1="629.0" x2="56.6666666666667" y2="620.0"/>
    <line x1="56.6666666666667" y1="620.0" x2="47.3333333333334" y2="620.0"/>
    <line x1="47.3333333333334" y1="620.0" x2="47.3333333333334" y2="629.0"/>
    <line x1="47.3333333333334" y1="629.0" x2="38.0000000000002" y2="629.0"/>
    <line x1="38.0000000000002" y1="629.0" x2="38.0" y2="620.0"/>
    <line x1="38.0" y1="620.0" x2="28.6666666666669" y2="620.0"/>
    <line x1="28.6666666666669" y1="620.0" x2="28.6666666666669" y2="629.0"/>
    <line x1="28.6666666666669" y1="629.0" x2="19.3333333333335" y2="629.0"/>
    <line x1="19.3333333333335" y1="629.0" x2="19.3333333333335" y2="620.0"/>
    <line x1="19.3333333333335" y1="620.0" x2="10.0" y2="620.0"/>
    <line x1="10.0" y1="620.0" x2="10.0" y2="1020.0"/>
    <line x1="10.0" y1="1020.0" x2="19.3333333333335" y2="1020.0"/>
  </g>
</svg>
