<?xml version="1.0" standalone="no"?>
<!DOCTYPE svg PUBLIC "-//W3C//DTD SVG 1.1//EN" "http://www.w3.org/Graphics/SVG/1.1/DTD/svg11.dtd">
<svg width="515.0mm" height="1030.0mm"
 viewBox="0 0 515.0 1030.0"
 xmlns="http://www.w3.org/2000/svg" version="1.1"
 xmlns:xlink="http://www.w3.org/1999/xlink">
<desc>Output from Flights of Ideas SVG Sketchup Plugin</desc>

  <g id="face0" fill="none" stroke="rgb(0,0,255)" stroke-width="1" stroke-miterlimit="4" stroke-dasharray="none" stroke-linejoin="round" stroke-linecap="round">
    <line x1="10.0" y1="100.0" x2="505.0" y2="100.0"/>
    <line x1="505.0" y1="100.0" x2="505.0" y2="10.0000000000001"/>
    <line x1="505.0" y1="10.0000000000001" x2="441.642857142857" y2="10.0000000000005"/>
    <line x1="441.642857142857" y1="10.0000000000005" x2="441.642857142857" y2="19.0"/>
    <line x1="441.642857142857" y1="19.0" x2="432.285714285714" y2="19.0000000000004"/>
    <line x1="432.285714285714" y1="19.0000000000004" x2="432.285714285714" y2="10.0"/>
    <line x1="432.285714285714" y1="10.0" x2="422.928571428571" y2="10.0000000000001"/>
    <line x1="422.928571428571" y1="10.0000000000001" x2="422.928571428571" y2="19.0000000000001"/>
    <line x1="422.928571428571" y1="19.0000000000001" x2="413.571428571429" y2="19.0000000000005"/>
    <line x1="413.571428571429" y1="19.0000000000005" x2="413.571428571429" y2="10.0000000000001"/>
    <line x1="413.571428571429" y1="10.0000000000001" x2="404.214285714286" y2="10.0000000000001"/>
    <line x1="404.214285714286" y1="10.0000000000001" x2="404.214285714286" y2="19.0000000000004"/>
    <line x1="404.214285714286" y1="19.0000000000004" x2="394.857142857143" y2="19.0000000000004"/>
    <line x1="394.857142857143" y1="19.0000000000004" x2="394.857142857143" y2="10.0000000000001"/>
    <line x1="394.857142857143" y1="10.0000000000001" x2="385.5" y2="10.0000000000002"/>
    <line x1="385.5" y1="10.0000000000002" x2="385.5" y2="19.0000000000001"/>
    <line x1="385.5" y1="19.0000000000001" x2="376.142857142857" y2="18.9999999999999"/>
    <line x1="376.142857142857" y1="18.9999999999999" x2="376.142857142857" y2="10.0000000000001"/>
    <line x1="376.142857142857" y1="10.0000000000001" x2="366.785714285714" y2="10.0000000000001"/>
    <line x1="366.785714285714" y1="10.0000000000001" x2="366.785714285714" y2="19.0000000000001"/>
    <line x1="366.785714285714" y1="19.0000000000001" x2="357.428571428571" y2="19.0000000000002"/>
    <line x1="357.428571428571" y1="19.0000000000002" x2="357.428571428571" y2="10.0000000000001"/>
    <line x1="357.428571428571" y1="10.0000000000001" x2="348.071428571429" y2="10.0000000000002"/>
    <line x1="348.071428571429" y1="10.0000000000002" x2="348.071428571429" y2="19.0000000000001"/>
    <line x1="348.071428571429" y1="19.0000000000001" x2="338.714285714286" y2="19.0"/>
    <line x1="338.714285714286" y1="19.0" x2="338.714285714286" y2="10.0000000000001"/>
    <line x1="338.714285714286" y1="10.0000000000001" x2="329.357142857143" y2="10.0"/>
    <line x1="329.357142857143" y1="10.0" x2="329.357142857143" y2="19.0"/>
    <line x1="329.357142857143" y1="19.0" x2="320.0" y2="19.0"/>
    <line x1="320.0" y1="19.0" x2="320.0" y2="10.0000000000001"/>
    <line x1="320.0" y1="10.0000000000001" x2="19.0" y2="10.0000000000002"/>
    <line x1="19.0" y1="10.0000000000002" x2="19.0" y2="19.0000000000002"/>
    <line x1="19.0" y1="19.0000000000002" x2="10.0" y2="19.0000000000002"/>
    <line x1="10.0" y1="19.0000000000002" x2="10.0" y2="28.0000000000002"/>
    <line x1="10.0" y1="28.0000000000002" x2="19.0" y2="28.0000000000002"/>
    <line x1="19.0" y1="28.0000000000002" x2="19.0" y2="37.0000000000002"/>
    <line x1="19.0" y1="37.0000000000002" x2="10.0" y2="37.0000000000002"/>
    <line x1="10.0" y1="37.0000000000002" x2="10.0" y2="46.0000000000003"/>
    <line x1="10.0" y1="46.0000000000003" x2="19.0" y2="46.0000000000003"/>
    <line x1="19.0" y1="46.0000000000003" x2="19.0" y2="55.0000000000002"/>
    <line x1="19.0" y1="55.0000000000002" x2="10.0" y2="55.0000000000002"/>
    <line x1="10.0" y1="55.0000000000002" x2="10.0" y2="64.0000000000002"/>
    <line x1="10.0" y1="64.0000000000002" x2="19.0" y2="64.0000000000002"/>
    <line x1="19.0" y1="64.0000000000002" x2="19.0" y2="73.0000000000003"/>
    <line x1="19.0" y1="73.0000000000003" x2="10.0" y2="73.0000000000003"/>
    <line x1="10.0" y1="73.0000000000003" x2="10.0" y2="82.0000000000002"/>
    <line x1="10.0" y1="82.0000000000002" x2="19.0" y2="82.0000000000002"/>
    <line x1="19.0" y1="82.0000000000002" x2="19.0" y2="91.0000000000002"/>
    <line x1="19.0" y1="91.0000000000002" x2="10.0" y2="91.0000000000002"/>
    <line x1="10.0" y1="91.0000000000002" x2="10.0" y2="100.0"/>
  </g>
  <g id="face1" fill="none" stroke="rgb(0,0,255)" stroke-width="1" stroke-miterlimit="4" stroke-dasharray="none" stroke-linejoin="round" stroke-linecap="round">
    <line x1="19.3571428571429" y1="509.999999999999" x2="19.3571428571429" y2="500.999999999999"/>
    <line x1="19.3571428571429" y1="500.999999999999" x2="28.7142857142859" y2="500.999999999999"/>
    <line x1="28.7142857142859" y1="500.999999999999" x2="28.7142857142859" y2="509.999999999999"/>
    <line x1="28.7142857142859" y1="509.999999999999" x2="38.0714285714286" y2="509.999999999999"/>
    <line x1="38.0714285714286" y1="509.999999999999" x2="38.0714285714286" y2="500.999999999999"/>
    <line x1="38.0714285714286" y1="500.999999999999" x2="47.4285714285714" y2="500.999999999999"/>
    <line x1="47.4285714285714" y1="500.999999999999" x2="47.4285714285714" y2="509.999999999999"/>
    <line x1="47.4285714285714" y1="509.999999999999" x2="56.7857142857143" y2="509.999999999999"/>
    <line x1="56.7857142857143" y1="509.999999999999" x2="56.7857142857143" y2="500.999999999999"/>
    <line x1="56.7857142857143" y1="500.999999999999" x2="66.1428571428572" y2="500.999999999999"/>
    <line x1="66.1428571428572" y1="500.999999999999" x2="66.1428571428572" y2="509.999999999999"/>
    <line x1="66.1428571428572" y1="509.999999999999" x2="75.4999999999999" y2="509.999999999999"/>
    <line x1="75.4999999999999" y1="509.999999999999" x2="75.4999999999999" y2="500.999999999999"/>
    <line x1="75.4999999999999" y1="500.999999999999" x2="84.8571428571428" y2="500.999999999999"/>
    <line x1="84.8571428571428" y1="500.999999999999" x2="84.8571428571428" y2="509.999999999999"/>
    <line x1="84.8571428571428" y1="509.999999999999" x2="94.2142857142857" y2="509.999999999999"/>
    <line x1="94.2142857142857" y1="509.999999999999" x2="94.2142857142857" y2="500.999999999999"/>
    <line x1="94.2142857142857" y1="500.999999999999" x2="103.571428571429" y2="500.999999999999"/>
    <line x1="103.571428571429" y1="500.999999999999" x2="103.571428571429" y2="509.999999999999"/>
    <line x1="103.571428571429" y1="509.999999999999" x2="112.928571428571" y2="509.999999999999"/>
    <line x1="112.928571428571" y1="509.999999999999" x2="112.928571428571" y2="500.999999999999"/>
    <line x1="112.928571428571" y1="500.999999999999" x2="122.285714285714" y2="500.999999999999"/>
    <line x1="122.285714285714" y1="500.999999999999" x2="122.285714285714" y2="509.999999999999"/>
    <line x1="122.285714285714" y1="509.999999999999" x2="131.642857142857" y2="509.999999999999"/>
    <line x1="131.642857142857" y1="509.999999999999" x2="131.642857142857" y2="501.0"/>
    <line x1="131.642857142857" y1="501.0" x2="141.0" y2="501.0"/>
    <line x1="141.0" y1="501.0" x2="141.0" y2="119.0"/>
    <line x1="141.0" y1="119.0" x2="131.642857142857" y2="119.0"/>
    <line x1="131.642857142857" y1="119.0" x2="131.642857142857" y2="110.0"/>
    <line x1="131.642857142857" y1="110.0" x2="122.285714285714" y2="110.0"/>
    <line x1="122.285714285714" y1="110.0" x2="122.285714285714" y2="119.0"/>
    <line x1="122.285714285714" y1="119.0" x2="112.928571428571" y2="119.0"/>
    <line x1="112.928571428571" y1="119.0" x2="112.928571428571" y2="110.0"/>
    <line x1="112.928571428571" y1="110.0" x2="103.571428571429" y2="110.0"/>
    <line x1="103.571428571429" y1="110.0" x2="103.571428571429" y2="119.0"/>
    <line x1="103.571428571429" y1="119.0" x2="94.2142857142857" y2="119.0"/>
    <line x1="94.2142857142857" y1="119.0" x2="94.2142857142857" y2="110.0"/>
    <line x1="94.2142857142857" y1="110.0" x2="84.8571428571428" y2="110.0"/>
    <line x1="84.8571428571428" y1="110.0" x2="84.8571428571428" y2="119.0"/>
    <line x1="84.8571428571428" y1="119.0" x2="75.5000000000001" y2="119.0"/>
    <line x1="75.5000000000001" y1="119.0" x2="75.5000000000001" y2="110.0"/>
    <line x1="75.5000000000001" y1="110.0" x2="66.1428571428572" y2="110.0"/>
    <line x1="66.1428571428572" y1="110.0" x2="66.1428571428572" y2="119.0"/>
    <line x1="66.1428571428572" y1="119.0" x2="56.7857142857143" y2="119.0"/>
    <line x1="56.7857142857143" y1="119.0" x2="56.7857142857143" y2="110.0"/>
    <line x1="56.7857142857143" y1="110.0" x2="47.4285714285714" y2="110.0"/>
    <line x1="47.4285714285714" y1="110.0" x2="47.4285714285717" y2="119.0"/>
    <line x1="47.4285714285717" y1="119.0" x2="38.0714285714286" y2="119.0"/>
    <line x1="38.0714285714286" y1="119.0" x2="38.0714285714288" y2="110.0"/>
    <line x1="38.0714285714288" y1="110.0" x2="28.7142857142859" y2="110.0"/>
    <line x1="28.7142857142859" y1="110.0" x2="28.7142857142859" y2="119.0"/>
    <line x1="28.7142857142859" y1="119.0" x2="19.3571428571429" y2="119.0"/>
    <line x1="19.3571428571429" y1="119.0" x2="19.3571428571429" y2="110.0"/>
    <line x1="19.3571428571429" y1="110.0" x2="10.0" y2="110.0"/>
    <line x1="10.0" y1="110.0" x2="10.0" y2="119.0"/>
    <line x1="10.0" y1="119.0" x2="10.0" y2="500.999999999999"/>
    <line x1="10.0" y1="500.999999999999" x2="10.0" y2="509.999999999999"/>
    <line x1="10.0" y1="509.999999999999" x2="19.3571428571429" y2="509.999999999999"/>
  </g>
  <g id="face2" fill="none" stroke="rgb(0,0,255)" stroke-width="1" stroke-miterlimit="4" stroke-dasharray="none" stroke-linejoin="round" stroke-linecap="round">
    <line x1="28.0" y1="919.999999999998" x2="28.0" y2="910.999999999998"/>
    <line x1="28.0" y1="910.999999999998" x2="37.0" y2="910.999999999998"/>
    <line x1="37.0" y1="910.999999999998" x2="37.0" y2="919.999999999998"/>
    <line x1="37.0" y1="919.999999999998" x2="46.0000000000001" y2="919.999999999998"/>
    <line x1="46.0000000000001" y1="919.999999999998" x2="46.0000000000001" y2="910.999999999998"/>
    <line x1="46.0000000000001" y1="910.999999999998" x2="55.0000000000001" y2="910.999999999998"/>
    <line x1="55.0000000000001" y1="910.999999999998" x2="55.0000000000001" y2="919.999999999998"/>
    <line x1="55.0000000000001" y1="919.999999999998" x2="64.0" y2="919.999999999998"/>
    <line x1="64.0" y1="919.999999999998" x2="64.0" y2="910.999999999998"/>
    <line x1="64.0" y1="910.999999999998" x2="73.0000000000001" y2="910.999999999998"/>
    <line x1="73.0000000000001" y1="910.999999999998" x2="73.0000000000001" y2="919.999999999998"/>
    <line x1="73.0000000000001" y1="919.999999999998" x2="82.0000000000001" y2="919.999999999998"/>
    <line x1="82.0000000000001" y1="919.999999999998" x2="82.0000000000001" y2="910.999999999998"/>
    <line x1="82.0000000000001" y1="910.999999999998" x2="91.0" y2="910.999999999998"/>
    <line x1="91.0" y1="910.999999999998" x2="91.0" y2="919.999999999998"/>
    <line x1="91.0" y1="919.999999999998" x2="100.0" y2="919.999999999998"/>
    <line x1="100.0" y1="919.999999999998" x2="100.0" y2="528.999999999999"/>
    <line x1="100.0" y1="528.999999999999" x2="91.0" y2="528.999999999999"/>
    <line x1="91.0" y1="528.999999999999" x2="91.0000000000001" y2="520.0"/>
    <line x1="91.0000000000001" y1="520.0" x2="82.0000000000001" y2="519.999999999999"/>
    <line x1="82.0000000000001" y1="519.999999999999" x2="82.0000000000001" y2="528.999999999999"/>
    <line x1="82.0000000000001" y1="528.999999999999" x2="73.0000000000001" y2="528.999999999999"/>
    <line x1="73.0000000000001" y1="528.999999999999" x2="73.0000000000001" y2="519.999999999999"/>
    <line x1="73.0000000000001" y1="519.999999999999" x2="64.0000000000001" y2="519.999999999999"/>
    <line x1="64.0000000000001" y1="519.999999999999" x2="64.0" y2="528.999999999999"/>
    <line x1="64.0" y1="528.999999999999" x2="55.0000000000001" y2="528.999999999999"/>
    <line x1="55.0000000000001" y1="528.999999999999" x2="55.0000000000001" y2="520.0"/>
    <line x1="55.0000000000001" y1="520.0" x2="46.0000000000001" y2="519.999999999999"/>
    <line x1="46.0000000000001" y1="519.999999999999" x2="46.0000000000001" y2="528.999999999999"/>
    <line x1="46.0000000000001" y1="528.999999999999" x2="37.0000000000001" y2="528.999999999999"/>
    <line x1="37.0000000000001" y1="528.999999999999" x2="37.0" y2="519.999999999999"/>
    <line x1="37.0" y1="519.999999999999" x2="28.0" y2="519.999999999999"/>
    <line x1="28.0" y1="519.999999999999" x2="28.0" y2="528.999999999999"/>
    <line x1="28.0" y1="528.999999999999" x2="19.0000000000001" y2="528.999999999999"/>
    <line x1="19.0000000000001" y1="528.999999999999" x2="19.0" y2="519.999999999999"/>
    <line x1="19.0" y1="519.999999999999" x2="10.0" y2="519.999999999999"/>
    <line x1="10.0" y1="519.999999999999" x2="10.0" y2="910.999999999998"/>
    <line x1="10.0" y1="910.999999999998" x2="19.0000000000001" y2="910.999999999998"/>
    <line x1="19.0000000000001" y1="910.999999999998" x2="19.0000000000001" y2="919.999999999998"/>
    <line x1="19.0000000000001" y1="919.999999999998" x2="28.0" y2="919.999999999998"/>
  </g>
  <g id="face3" fill="none" stroke="rgb(0,0,255)" stroke-width="1" stroke-miterlimit="4" stroke-dasharray="none" stroke-linejoin="round" stroke-linecap="round">
    <line x1="505.0" y1="1020.0" x2="505.0" y2="929.999999999999"/>
    <line x1="505.0" y1="929.999999999999" x2="19.0000000000001" y2="929.999999999998"/>
    <line x1="19.0000000000001" y1="929.999999999998" x2="19.0" y2="938.999999999999"/>
    <line x1="19.0" y1="938.999999999999" x2="16.8" y2="938.999999999998"/>
    <line x1="16.8" y1="938.999999999998" x2="10.0" y2="938.999999999998"/>
    <line x1="10.0" y1="938.999999999998" x2="10.0" y2="947.999999999998"/>
    <line x1="10.0" y1="947.999999999998" x2="19.0" y2="947.999999999999"/>
    <line x1="19.0" y1="947.999999999999" x2="19.0" y2="956.999999999999"/>
    <line x1="19.0" y1="956.999999999999" x2="10.0" y2="956.999999999998"/>
    <line x1="10.0" y1="956.999999999998" x2="10.0" y2="965.999999999999"/>
    <line x1="10.0" y1="965.999999999999" x2="19.0" y2="965.999999999998"/>
    <line x1="19.0" y1="965.999999999998" x2="19.0" y2="974.999999999999"/>
    <line x1="19.0" y1="974.999999999999" x2="10.0" y2="974.999999999999"/>
    <line x1="10.0" y1="974.999999999999" x2="10.0" y2="983.999999999997"/>
    <line x1="10.0" y1="983.999999999997" x2="19.0" y2="983.999999999998"/>
    <line x1="19.0" y1="983.999999999998" x2="19.0" y2="992.999999999998"/>
    <line x1="19.0" y1="992.999999999998" x2="10.0" y2="992.999999999998"/>
    <line x1="10.0" y1="992.999999999998" x2="10.0" y2="1002.0"/>
    <line x1="10.0" y1="1002.0" x2="19.0" y2="1002.0"/>
    <line x1="19.0" y1="1002.0" x2="19.0" y2="1011.0"/>
    <line x1="19.0" y1="1011.0" x2="10.0" y2="1011.0"/>
    <line x1="10.0" y1="1011.0" x2="10.0" y2="1020.0"/>
    <line x1="10.0" y1="1020.0" x2="320.0" y2="1020.0"/>
    <line x1="320.0" y1="1020.0" x2="320.0" y2="1011.0"/>
    <line x1="320.0" y1="1011.0" x2="329.357142857143" y2="1011.0"/>
    <line x1="329.357142857143" y1="1011.0" x2="329.357142857143" y2="1020.0"/>
    <line x1="329.357142857143" y1="1020.0" x2="338.714285714286" y2="1020.0"/>
    <line x1="338.714285714286" y1="1020.0" x2="338.714285714286" y2="1011.0"/>
    <line x1="338.714285714286" y1="1011.0" x2="348.071428571429" y2="1011.0"/>
    <line x1="348.071428571429" y1="1011.0" x2="348.071428571429" y2="1020.0"/>
    <line x1="348.071428571429" y1="1020.0" x2="357.428571428571" y2="1020.0"/>
    <line x1="357.428571428571" y1="1020.0" x2="357.428571428571" y2="1011.0"/>
    <line x1="357.428571428571" y1="1011.0" x2="366.785714285714" y2="1011.0"/>
    <line x1="366.785714285714" y1="1011.0" x2="366.785714285714" y2="1020.0"/>
    <line x1="366.785714285714" y1="1020.0" x2="376.142857142857" y2="1020.0"/>
    <line x1="376.142857142857" y1="1020.0" x2="376.142857142857" y2="1011.0"/>
    <line x1="376.142857142857" y1="1011.0" x2="385.5" y2="1011.0"/>
    <line x1="385.5" y1="1011.0" x2="385.5" y2="1020.0"/>
    <line x1="385.5" y1="1020.0" x2="394.857142857143" y2="1020.0"/>
    <line x1="394.857142857143" y1="1020.0" x2="394.857142857143" y2="1011.0"/>
    <line x1="394.857142857143" y1="1011.0" x2="404.214285714286" y2="1011.0"/>
    <line x1="404.214285714286" y1="1011.0" x2="404.214285714286" y2="1020.0"/>
    <line x1="404.214285714286" y1="1020.0" x2="413.571428571428" y2="1020.0"/>
    <line x1="413.571428571428" y1="1020.0" x2="413.571428571428" y2="1011.0"/>
    <line x1="413.571428571428" y1="1011.0" x2="422.928571428571" y2="1011.0"/>
    <line x1="422.928571428571" y1="1011.0" x2="422.928571428571" y2="1020.0"/>
    <line x1="422.928571428571" y1="1020.0" x2="432.285714285714" y2="1020.0"/>
    <line x1="432.285714285714" y1="1020.0" x2="432.285714285714" y2="1011.0"/>
    <line x1="432.285714285714" y1="1011.0" x2="441.642857142857" y2="1011.0"/>
    <line x1="441.642857142857" y1="1011.0" x2="441.642857142857" y2="1020.0"/>
    <line x1="441.642857142857" y1="1020.0" x2="505.0" y2="1020.0"/>
  </g>
</svg>
